<svg width="20" height="20" viewBox="0 0 20 20" fill="none" xmlns="http://www.w3.org/2000/svg">
<g clip-path="url(#clip0_272_954)">
<path d="M14.6182 14.323L15.7258 13.2154L17.2973 14.7868L16.1896 15.8945L14.6182 14.323Z" fill="#E6E2E6"/>
<path d="M14.6182 14.323L15.7258 13.2154L17.2973 14.7868L16.1896 15.8945L14.6182 14.323Z" fill="#ECDAEC"/>
<path d="M14.6182 14.323L15.1454 13.7957L16.7169 15.3672L16.1896 15.8945L14.6182 14.323Z" fill="#E2CBE2"/>
<path d="M0.3125 0.898438C0.3125 0.574844 0.574844 0.3125 0.898438 0.3125H10.7596L14.3899 3.94285V19.1016C14.3899 19.4252 14.1276 19.6875 13.804 19.6875H0.898438C0.574844 19.6875 0.3125 19.4252 0.3125 19.1016V0.898438Z" fill="#F9F6F6"/>
<path d="M13.804 18.9844H0.898438C0.574844 18.9844 0.3125 18.722 0.3125 18.3984V19.1016C0.3125 19.4252 0.574844 19.6875 0.898438 19.6875H13.804C14.1276 19.6875 14.3899 19.4252 14.3899 19.1016V18.3984C14.3899 18.722 14.1276 18.9844 13.804 18.9844Z" fill="#ECDAEC"/>
<path d="M11.3455 3.94285H14.3899L10.7595 0.3125V3.35691C10.7595 3.68051 11.0219 3.94285 11.3455 3.94285Z" fill="#E2CBE2"/>
<path d="M11.3455 3.94285H14.3899L10.7595 0.3125V3.35691C10.7595 3.68051 11.0219 3.94285 11.3455 3.94285Z" fill="#E2CBE2"/>
<path d="M12.2632 15.7196C14.9487 15.7196 17.1258 13.5425 17.1258 10.8569C17.1258 8.17135 14.9487 5.99426 12.2632 5.99426C9.5776 5.99426 7.40051 8.17135 7.40051 10.8569C7.40051 13.5425 9.5776 15.7196 12.2632 15.7196Z" fill="#E2CBE2"/>
<path d="M15.7016 13.5922C13.8026 15.4912 10.7237 15.4912 8.82472 13.5922C7.96472 12.7322 7.49417 11.6302 7.41316 10.5054C7.31527 11.8642 7.78577 13.2564 8.82472 14.2953C10.7237 16.1943 13.8026 16.1943 15.7016 14.2953C16.7405 13.2563 17.211 11.8642 17.1131 10.5054C17.0321 11.6302 16.5616 12.7322 15.7016 13.5922Z" fill="#DAB9D8"/>
<path d="M12.2632 14.3777C14.2077 14.3777 15.784 12.8014 15.784 10.857C15.784 8.91249 14.2077 7.33618 12.2632 7.33618C10.3187 7.33618 8.74243 8.91249 8.74243 10.857C8.74243 12.8014 10.3187 14.3777 12.2632 14.3777Z" fill="#FFE27A"/>
<path d="M14.7527 12.6434C13.3777 14.0183 11.1485 14.0183 9.77358 12.6434C9.17565 12.0454 8.83807 11.2859 8.76018 10.5054C8.65897 11.5197 8.99659 12.5695 9.77358 13.3465C11.1485 14.7215 13.3778 14.7215 14.7527 13.3465C15.5297 12.5695 15.8673 11.5197 15.7661 10.5054C15.6882 11.2859 15.3506 12.0454 14.7527 12.6434Z" fill="#F9CF58"/>
<path d="M11.9481 12.3053C11.7934 12.3053 11.6386 12.2474 11.519 12.1311L10.7111 11.3454C10.4674 11.1084 10.4619 10.7187 10.6989 10.4749C10.9359 10.2311 11.3257 10.2257 11.5695 10.4627L11.9367 10.8198L13.0398 9.68859C13.2772 9.44519 13.667 9.44035 13.9104 9.67765C14.1538 9.91503 14.1586 10.3048 13.9213 10.5482L12.3889 12.1195C12.2683 12.2432 12.1083 12.3053 11.9481 12.3053Z" fill="#98DB7C"/>
<path d="M13.9213 9.8452L12.3889 11.4165C12.2683 11.5402 12.1083 11.6023 11.9481 11.6023C11.7934 11.6023 11.6386 11.5444 11.519 11.428L10.7111 10.6424C10.6825 10.6146 10.6574 10.5845 10.6354 10.553C10.466 10.7959 10.4918 11.1323 10.7111 11.3455L11.519 12.1312C11.6387 12.2475 11.7934 12.3054 11.9481 12.3054C12.1083 12.3054 12.2683 12.2433 12.3889 12.1196L13.9213 10.5483C14.131 10.3333 14.1513 10.0041 13.9854 9.7666C13.9663 9.79398 13.9453 9.82051 13.9213 9.8452Z" fill="#82D361"/>
<path d="M17.5193 14.5682L15.9745 16.113L17.8228 17.9614C18.2494 18.3879 18.941 18.3879 19.3676 17.9614C19.7942 17.5348 19.7942 16.8432 19.3676 16.4166L17.5193 14.5682Z" fill="#FF4755"/>
<path d="M18.3496 17.4334L16.5018 15.5857L15.9745 16.113L17.8228 17.9614C18.2494 18.3879 18.941 18.3879 19.3676 17.9614C19.4605 17.8684 19.5332 17.7629 19.5856 17.6503C19.1809 17.84 18.6839 17.7677 18.3496 17.4334Z" fill="#FC2B3A"/>
<path d="M3.95994 7.711H2.67826C2.47814 7.711 2.31592 7.54877 2.31592 7.34865V6.06693C2.31592 5.86682 2.47814 5.70459 2.67826 5.70459H3.95998C4.1601 5.70459 4.32232 5.86682 4.32232 6.06693V7.34865C4.32229 7.54877 4.16006 7.711 3.95994 7.711Z" fill="#98DB7C"/>
<path d="M3.95994 11.8189H2.67826C2.47814 11.8189 2.31592 11.6567 2.31592 11.4566V10.1748C2.31592 9.97473 2.47814 9.8125 2.67826 9.8125H3.95998C4.1601 9.8125 4.32232 9.97473 4.32232 10.1748V11.4566C4.32229 11.6567 4.16006 11.8189 3.95994 11.8189Z" fill="#98DB7C"/>
<path d="M3.95994 16.0102H2.67826C2.47814 16.0102 2.31592 15.848 2.31592 15.6478V14.3661C2.31592 14.166 2.47814 14.0038 2.67826 14.0038H3.95998C4.1601 14.0038 4.32232 14.166 4.32232 14.3661V15.6478C4.32229 15.848 4.16006 16.0102 3.95994 16.0102Z" fill="#98DB7C"/>
<path d="M3.95994 7.00793H2.67826C2.47814 7.00793 2.31592 6.84571 2.31592 6.64563V7.34875C2.31592 7.54887 2.47814 7.7111 2.67826 7.7111H3.95998C4.1601 7.7111 4.32229 7.54887 4.32229 7.34875V6.64563C4.32229 6.84571 4.16006 7.00793 3.95994 7.00793Z" fill="#82D361"/>
<path d="M3.95994 11.1158H2.67826C2.47814 11.1158 2.31592 10.9535 2.31592 10.7534V11.4565C2.31592 11.6567 2.47814 11.8189 2.67826 11.8189H3.95998C4.1601 11.8189 4.32229 11.6567 4.32229 11.4565V10.7534C4.32229 10.9535 4.16006 11.1158 3.95994 11.1158Z" fill="#82D361"/>
<path d="M3.95994 15.3072H2.67826C2.47814 15.3072 2.31592 15.1449 2.31592 14.9448V15.6479C2.31592 15.8481 2.47814 16.0103 2.67826 16.0103H3.95998C4.1601 16.0103 4.32229 15.8481 4.32229 15.6479V14.9448C4.32229 15.1449 4.16006 15.3072 3.95994 15.3072Z" fill="#82D361"/>
<path d="M10.7595 3.35693V4.06006C10.7595 4.38365 11.0219 4.646 11.3455 4.646H14.3899V3.94287H11.3455C11.0219 3.94287 10.7595 3.68053 10.7595 3.35693Z" fill="#ECDAEC"/>
<path d="M11.9535 12.6034C12.201 12.6034 12.4326 12.5058 12.6054 12.3286L14.141 10.7543C14.4915 10.3949 14.4842 9.8174 14.1248 9.46689C13.7654 9.11646 13.1878 9.12372 12.8373 9.48306L11.9365 10.4066L11.7787 10.2531C11.4187 9.90329 10.8412 9.9113 10.4911 10.2712C10.1412 10.6311 10.1493 11.2086 10.5092 11.5585L11.3188 12.3457C11.4897 12.5119 11.7151 12.6034 11.9535 12.6034ZM10.9121 10.6805C11.0365 10.5526 11.2417 10.5499 11.3694 10.6741L11.7373 11.0319C11.8534 11.1448 12.0391 11.1423 12.1522 11.0264L13.2576 9.89302C13.3822 9.76533 13.5873 9.76287 13.7149 9.88724C13.8425 10.0117 13.8451 10.2168 13.7207 10.3444L12.1851 11.9188C12.0664 12.0457 11.8502 12.0484 11.7282 11.9249L10.9185 11.1377C10.7908 11.0134 10.7878 10.8083 10.9121 10.6805Z" fill="black"/>
<path d="M9.68411 12.8032C9.58646 12.6738 9.40243 12.648 9.2729 12.7456C9.14345 12.8433 9.11775 13.0274 9.21536 13.1568C9.32228 13.2985 9.44056 13.4343 9.56681 13.5606C10.2886 14.2823 11.2484 14.6798 12.2692 14.6798C13.29 14.6798 14.2497 14.2823 14.9715 13.5606C15.6934 12.8388 16.0909 11.8792 16.0909 10.8586C16.0909 9.83787 15.6934 8.8783 14.9715 8.15658C13.4814 6.6667 11.0569 6.66674 9.56681 8.15658C8.55091 9.17232 8.19142 10.6541 8.62865 12.0236C8.67794 12.1781 8.84325 12.2632 8.99759 12.214C9.15204 12.1647 9.23732 11.9995 9.18798 11.8451C8.81786 10.6858 9.12212 9.4315 9.98204 8.57174C11.2431 7.31076 13.2952 7.31076 14.5563 8.57174C15.1673 9.1826 15.5038 9.99475 15.5038 10.8586C15.5038 11.7225 15.1673 12.5346 14.5563 13.1455C13.9454 13.7563 13.1332 14.0928 12.2692 14.0928C11.4052 14.0928 10.5929 13.7563 9.982 13.1455C9.87489 13.0383 9.77466 12.9232 9.68411 12.8032Z" fill="black"/>
<path d="M19.596 16.2215L17.7439 14.3696C17.6292 14.255 17.4433 14.255 17.3286 14.3696L17.3173 14.3809L16.6045 13.6683C17.0837 12.9296 17.3691 12.0761 17.4253 11.1854C17.4355 11.0236 17.3126 10.8842 17.1508 10.8739C16.9891 10.8641 16.8496 10.9867 16.8393 11.1484C16.7692 12.2605 16.2961 13.3074 15.5072 14.0962C14.6156 14.9877 13.4448 15.4339 12.2736 15.435C12.2721 15.435 12.2707 15.4348 12.2692 15.4348H12.2459C11.081 15.4289 9.91796 14.9829 9.03117 14.0962C8.16625 13.2314 7.68992 12.0816 7.68992 10.8586C7.68992 9.63559 8.16625 8.48578 9.03117 7.62102C10.8166 5.83578 13.7218 5.83578 15.5072 7.62102C16.1722 8.28594 16.611 9.12465 16.7763 10.0466C16.8049 10.2061 16.9576 10.3121 17.1171 10.2837C17.2767 10.2551 17.3828 10.1026 17.3543 9.94297C17.1677 8.90246 16.6726 7.95598 15.9224 7.20586C15.5507 6.83418 15.1358 6.53133 14.6939 6.29684V3.93098C14.6937 3.85371 14.6625 3.77809 14.6079 3.7234L10.97 0.0859766C10.9153 0.0315234 10.8397 0.000195312 10.7624 0H0.880659C0.395034 0 -8.30078e-05 0.395039 -8.30078e-05 0.880625V3.34793C-8.30078e-05 3.51004 0.131323 3.64148 0.293511 3.64148C0.455659 3.64148 0.587104 3.51008 0.587104 3.34793V0.880625C0.587104 0.71875 0.718784 0.58707 0.880698 0.58707H10.4689V3.34391C10.4689 3.82949 10.864 4.22453 11.3496 4.22453H14.1068V6.03098C13.534 5.81395 12.9301 5.70246 12.3252 5.69594C12.3223 5.69555 12.3195 5.69496 12.3165 5.69496H5.76183C5.59968 5.69496 5.46824 5.82641 5.46824 5.98852C5.46824 6.15063 5.59968 6.28207 5.76183 6.28207H9.87222C9.45343 6.50105 9.05867 6.78137 8.70117 7.12289H5.76183C5.59968 7.12289 5.46824 7.25434 5.46824 7.41644C5.46824 7.57855 5.59968 7.71 5.76183 7.71H8.17277C7.69355 8.33074 7.36605 9.04566 7.20929 9.80883H5.76187C5.59972 9.80883 5.46828 9.94027 5.46828 10.1024C5.46828 10.2645 5.59972 10.3959 5.76187 10.3959H7.12355C7.11003 10.5489 7.10289 10.7032 7.10289 10.8587C7.10289 10.9862 7.10753 11.113 7.11664 11.2389H5.76191C5.59976 11.2389 5.46832 11.3703 5.46832 11.5324C5.46832 11.6945 5.59976 11.826 5.76191 11.826H7.19316C7.34289 12.6205 7.67671 13.3651 8.17367 14.0084H5.76191C5.59976 14.0084 5.46832 14.1398 5.46832 14.302C5.46832 14.4641 5.59976 14.5955 5.76191 14.5955H8.70234C9.05933 14.9364 9.45347 15.2163 9.87152 15.435H5.76175C5.59961 15.435 5.46816 15.5664 5.46816 15.7285C5.46816 15.8906 5.59961 16.0221 5.76175 16.0221H12.2692C12.8927 16.022 13.5162 15.91 14.1068 15.6863V19.1195C14.1068 19.2814 13.9751 19.4131 13.8132 19.4131H0.880659C0.718784 19.4131 0.587065 19.2814 0.587065 19.1195V4.52227C0.587065 4.36016 0.45562 4.22871 0.293472 4.22871C0.131323 4.22871 -0.00012207 4.36012 -0.00012207 4.52227V19.1195C-8.30078e-05 19.605 0.395034 20 0.880659 20H13.8132C14.2988 20 14.6939 19.605 14.6939 19.1194V15.4203C14.825 15.3507 14.9536 15.2751 15.0794 15.1936L15.792 15.9061C15.6687 16.0137 15.6621 16.2189 15.7806 16.3325L17.6328 18.1845C18.1495 18.723 19.0793 18.7229 19.596 18.1845C20.1346 17.6679 20.1345 16.7381 19.596 16.2215ZM11.3496 3.63746C11.1877 3.63746 11.056 3.50578 11.056 3.34391V1.00223L13.6916 3.63746H11.3496ZM15.5583 14.8421C15.6835 14.7386 15.8052 14.6285 15.9224 14.5113C16.0389 14.3948 16.1491 14.2732 16.2532 14.1473L16.9021 14.7961L16.2071 15.4909L15.5583 14.8421ZM19.1808 17.7693C18.8827 18.0801 18.3462 18.08 18.048 17.7693L16.4034 16.125L17.5362 14.9923L19.1809 16.6366C19.4916 16.9348 19.4916 17.4712 19.1808 17.7693Z" fill="black"/>
<path d="M2.66413 8.00009H3.9485C4.31061 8.00009 4.60522 7.70556 4.60522 7.34353V6.05931C4.60522 5.69724 4.31065 5.40271 3.9485 5.40271H2.66413C2.30206 5.40271 2.00745 5.69724 2.00745 6.05931V7.34353C2.00745 7.70556 2.30206 8.00009 2.66413 8.00009ZM2.59463 6.05931C2.59463 6.02099 2.62584 5.98982 2.66413 5.98982H3.9485C3.98686 5.98982 4.01803 6.02099 4.01803 6.05931V7.34353C4.01803 7.38185 3.98682 7.41302 3.9485 7.41302H2.66413C2.62581 7.41302 2.59463 7.38185 2.59463 7.34353V6.05931Z" fill="black"/>
<path d="M2.00745 11.4595C2.00745 11.8215 2.30202 12.116 2.66413 12.116H3.9485C4.31061 12.116 4.60522 11.8215 4.60522 11.4595V10.1752C4.60522 9.81321 4.31065 9.51868 3.9485 9.51868H2.66413C2.30206 9.51868 2.00745 9.81321 2.00745 10.1752V11.4595ZM2.59463 10.1752C2.59463 10.1369 2.62584 10.1057 2.66413 10.1057H3.9485C3.98686 10.1057 4.01803 10.1369 4.01803 10.1752V11.4595C4.01803 11.4978 3.98682 11.529 3.9485 11.529H2.66413C2.62581 11.529 2.59463 11.4978 2.59463 11.4595V10.1752Z" fill="black"/>
<path d="M2.00745 15.659C2.00745 16.021 2.30202 16.3155 2.66413 16.3155H3.9485C4.31061 16.3155 4.60522 16.021 4.60522 15.659V14.3747C4.60522 14.0127 4.31065 13.7181 3.9485 13.7181H2.66413C2.30206 13.7181 2.00745 14.0127 2.00745 14.3747V15.659ZM2.59463 14.3747C2.59463 14.3364 2.62584 14.3052 2.66413 14.3052H3.9485C3.98686 14.3052 4.01803 14.3364 4.01803 14.3747V15.659C4.01803 15.6973 3.98682 15.7285 3.9485 15.7285H2.66413C2.62581 15.7285 2.59463 15.6973 2.59463 15.659V14.3747Z" fill="black"/>
</g>
<defs>
<clipPath id="clip0_272_954">
<rect width="20" height="20" fill="white"/>
</clipPath>
</defs>
</svg>
