<svg width="21" height="20" viewBox="0 0 21 20" fill="none" xmlns="http://www.w3.org/2000/svg">
<g clip-path="url(#clip0_272_886)">
<path d="M20.1875 7.8125V17.8125C20.1875 17.9783 20.1217 18.1372 20.0044 18.2544C19.8872 18.3717 19.7283 18.4375 19.5625 18.4375H12.0625C11.8967 18.4375 11.7378 18.5033 11.6206 18.6206C11.5033 18.7378 11.4375 18.8967 11.4375 19.0625C11.4375 19.2283 11.3717 19.3872 11.2544 19.5044C11.1372 19.6217 10.9783 19.6875 10.8125 19.6875H10.1875C10.0217 19.6875 9.86277 19.6217 9.74556 19.5044C9.62835 19.3872 9.5625 19.2283 9.5625 19.0625C9.5625 18.8967 9.49665 18.7378 9.37944 18.6206C9.26223 18.5033 9.10326 18.4375 8.9375 18.4375H1.4375C1.27174 18.4375 1.11277 18.3717 0.995558 18.2544C0.878348 18.1372 0.8125 17.9783 0.8125 17.8125V7.8125C0.8125 7.64674 0.878348 7.48777 0.995558 7.37056C1.11277 7.25335 1.27174 7.1875 1.4375 7.1875H19.5625C19.7283 7.1875 19.8872 7.25335 20.0044 7.37056C20.1217 7.48777 20.1875 7.64674 20.1875 7.8125Z" fill="#6FC3E2"/>
<path d="M9.5625 18.125V19.0625C9.5625 18.8967 9.49665 18.7378 9.37944 18.6206C9.26223 18.5033 9.10326 18.4375 8.9375 18.4375H1.4375C1.27174 18.4375 1.11277 18.3717 0.995558 18.2544C0.878348 18.1372 0.8125 17.9783 0.8125 17.8125V16.875C0.8125 17.0408 0.878348 17.1997 0.995558 17.3169C1.11277 17.4342 1.27174 17.5 1.4375 17.5H8.9375C9.10326 17.5 9.26223 17.5658 9.37944 17.6831C9.49665 17.8003 9.5625 17.9592 9.5625 18.125Z" fill="#62ACC7"/>
<path d="M20.1875 16.875V17.8125C20.1875 17.9783 20.1217 18.1372 20.0044 18.2544C19.8872 18.3717 19.7283 18.4375 19.5625 18.4375H12.0625C11.8967 18.4375 11.7378 18.5033 11.6206 18.6206C11.5033 18.7378 11.4375 18.8967 11.4375 19.0625V18.125C11.4375 17.9592 11.5033 17.8003 11.6206 17.6831C11.7378 17.5658 11.8967 17.5 12.0625 17.5H19.5625C19.7283 17.5 19.8872 17.4342 20.0044 17.3169C20.1217 17.1997 20.1875 17.0408 20.1875 16.875Z" fill="#62ACC7"/>
<path d="M10.8125 20H10.1875C9.93886 20 9.7004 19.9012 9.52459 19.7254C9.34877 19.5496 9.25 19.3111 9.25 19.0625C9.25 18.9796 9.21708 18.9001 9.15847 18.8415C9.09987 18.7829 9.02038 18.75 8.9375 18.75H1.4375C1.18886 18.75 0.950403 18.6512 0.774587 18.4754C0.598772 18.2996 0.5 18.0611 0.5 17.8125L0.5 7.8125C0.5 7.56386 0.598772 7.3254 0.774587 7.14959C0.950403 6.97377 1.18886 6.875 1.4375 6.875H19.5625C19.8111 6.875 20.0496 6.97377 20.2254 7.14959C20.4012 7.3254 20.5 7.56386 20.5 7.8125V17.8125C20.5 18.0611 20.4012 18.2996 20.2254 18.4754C20.0496 18.6512 19.8111 18.75 19.5625 18.75H16.75C16.6671 18.75 16.5876 18.7171 16.529 18.6585C16.4704 18.5999 16.4375 18.5204 16.4375 18.4375C16.4375 18.3546 16.4704 18.2751 16.529 18.2165C16.5876 18.1579 16.6671 18.125 16.75 18.125H19.5625C19.6454 18.125 19.7249 18.0921 19.7835 18.0335C19.8421 17.9749 19.875 17.8954 19.875 17.8125V7.8125C19.875 7.72962 19.8421 7.65013 19.7835 7.59153C19.7249 7.53292 19.6454 7.5 19.5625 7.5H1.4375C1.35462 7.5 1.27513 7.53292 1.21653 7.59153C1.15792 7.65013 1.125 7.72962 1.125 7.8125V17.8125C1.125 17.8954 1.15792 17.9749 1.21653 18.0335C1.27513 18.0921 1.35462 18.125 1.4375 18.125H8.9375C9.18614 18.125 9.4246 18.2238 9.60041 18.3996C9.77623 18.5754 9.875 18.8139 9.875 19.0625C9.875 19.1454 9.90792 19.2249 9.96653 19.2835C10.0251 19.3421 10.1046 19.375 10.1875 19.375H10.8125C10.8954 19.375 10.9749 19.3421 11.0335 19.2835C11.0921 19.2249 11.125 19.1454 11.125 19.0625C11.125 18.8139 11.2238 18.5754 11.3996 18.3996C11.5754 18.2238 11.8139 18.125 12.0625 18.125H15.5C15.5829 18.125 15.6624 18.1579 15.721 18.2165C15.7796 18.2751 15.8125 18.3546 15.8125 18.4375C15.8125 18.5204 15.7796 18.5999 15.721 18.6585C15.6624 18.7171 15.5829 18.75 15.5 18.75H12.0625C11.9796 18.75 11.9001 18.7829 11.8415 18.8415C11.7829 18.9001 11.75 18.9796 11.75 19.0625C11.75 19.3111 11.6512 19.5496 11.4754 19.7254C11.2996 19.9012 11.0611 20 10.8125 20Z" fill="black"/>
<path d="M2.375 15.3125H10.5V16.875H2.375V15.3125Z" fill="#EAD590"/>
<path d="M10.5 17.1875H2.375C2.29212 17.1875 2.21263 17.1546 2.15403 17.096C2.09542 17.0374 2.0625 16.9579 2.0625 16.875V15.3125C2.0625 15.2296 2.09542 15.1501 2.15403 15.0915C2.21263 15.0329 2.29212 15 2.375 15H10.5C10.5829 15 10.6624 15.0329 10.721 15.0915C10.7796 15.1501 10.8125 15.2296 10.8125 15.3125V16.875C10.8125 16.9579 10.7796 17.0374 10.721 17.096C10.6624 17.1546 10.5829 17.1875 10.5 17.1875ZM2.6875 16.5625H10.1875V15.625H2.6875V16.5625Z" fill="black"/>
<path d="M10.5 6.875C10.5 17.1313 10.4961 16.8711 10.5 16.875C9.49951 15.8746 8.1426 15.3125 6.72773 15.3125H2.375V5.3125H6.72773C7.42831 5.31247 8.12203 5.45045 8.76928 5.71854C9.41653 5.98664 10.0046 6.37961 10.5 6.875Z" fill="#F6EDC8"/>
<path d="M6.72773 14.375H2.375V15.3125H6.72773C8.1426 15.3125 9.49951 15.8746 10.5 16.875V15.9375C9.49951 14.9371 8.1426 14.375 6.72773 14.375Z" fill="#F4DCB5"/>
<path d="M10.2789 17.0961C9.81369 16.6282 9.26027 16.2573 8.65071 16.0048C8.04114 15.7522 7.38753 15.6232 6.72773 15.625H2.375C2.29212 15.625 2.21263 15.5921 2.15403 15.5335C2.09542 15.4749 2.0625 15.3954 2.0625 15.3125V5.3125C2.0625 5.22962 2.09542 5.15013 2.15403 5.09153C2.21263 5.03292 2.29212 5 2.375 5H5.8125C5.89538 5 5.97487 5.03292 6.03347 5.09153C6.09208 5.15013 6.125 5.22962 6.125 5.3125C6.125 5.39538 6.09208 5.47487 6.03347 5.53347C5.97487 5.59208 5.89538 5.625 5.8125 5.625H2.6875V15H6.72773C7.98081 14.9963 9.19895 15.4128 10.1875 16.1828V7.00664C9.33294 6.19428 8.21972 5.70861 7.04297 5.63477C6.96009 5.62959 6.88266 5.59169 6.82772 5.52943C6.77278 5.46716 6.74482 5.38561 6.75 5.30273C6.75518 5.21985 6.79307 5.14243 6.85534 5.08748C6.91761 5.03254 6.99915 5.00459 7.08203 5.00977C8.45469 5.09585 9.74871 5.68007 10.7211 6.65273C10.7502 6.68192 10.7733 6.71658 10.789 6.75473C10.8047 6.79288 10.8127 6.83375 10.8125 6.875V16.875C10.8125 16.9368 10.7942 16.9973 10.7599 17.0487C10.7256 17.1002 10.6768 17.1403 10.6196 17.1639C10.5625 17.1876 10.4996 17.1938 10.439 17.1817C10.3783 17.1697 10.3226 17.1398 10.2789 17.0961Z" fill="black"/>
<path d="M18.625 16.875H10.5V15.3125H18.625V16.875Z" fill="#EAD590"/>
<path d="M18.625 17.1875H10.5C10.4171 17.1875 10.3376 17.1546 10.279 17.096C10.2204 17.0374 10.1875 16.9579 10.1875 16.875V15.3125C10.1875 15.2296 10.2204 15.1501 10.279 15.0915C10.3376 15.0329 10.4171 15 10.5 15H18.625C18.7079 15 18.7874 15.0329 18.846 15.0915C18.9046 15.1501 18.9375 15.2296 18.9375 15.3125V16.875C18.9375 16.9579 18.9046 17.0374 18.846 17.096C18.7874 17.1546 18.7079 17.1875 18.625 17.1875ZM10.8125 16.5625H18.3125V15.625H10.8125V16.5625Z" fill="black"/>
<path d="M10.5 6.875C10.5 17.1313 10.5039 16.8711 10.5 16.875C11.5005 15.8746 12.8574 15.3125 14.2723 15.3125H18.625V5.3125H14.2723C13.5717 5.31247 12.878 5.45045 12.2307 5.71854C11.5835 5.98664 10.9954 6.37961 10.5 6.875Z" fill="#F6EDC8"/>
<path d="M10.5 15.9375V16.875C10.5293 16.875 11.8672 15.3125 14.2723 15.3125H18.625V14.375H14.2723C12.8574 14.375 11.5005 14.9371 10.5 15.9375Z" fill="#F4DCB5"/>
<path d="M10.1875 16.8749V6.8749C10.1875 6.83385 10.1955 6.79319 10.2112 6.75526C10.2269 6.71732 10.2499 6.68285 10.2789 6.6538C10.8021 6.12782 11.4245 5.71081 12.11 5.42692C12.7954 5.14303 13.5304 4.99789 14.2723 4.9999H18.625C18.7079 4.9999 18.7874 5.03282 18.846 5.09143C18.9046 5.15003 18.9375 5.22952 18.9375 5.3124V15.3124C18.9375 15.3953 18.9046 15.4748 18.846 15.5334C18.7874 15.592 18.7079 15.6249 18.625 15.6249H14.2723C13.6125 15.6231 12.9589 15.7521 12.3493 16.0047C11.7397 16.2572 11.1863 16.6281 10.7211 17.096C10.6774 17.1397 10.6217 17.1695 10.561 17.1816C10.5004 17.1937 10.4375 17.1875 10.3804 17.1638C10.3232 17.1402 10.2744 17.1001 10.2401 17.0486C10.2058 16.9972 10.1875 16.9367 10.1875 16.8749ZM10.8125 7.00654V16.1827C11.801 15.4127 13.0192 14.9962 14.2723 14.9999H18.3125V5.6249H14.2723C12.9839 5.62135 11.744 6.11647 10.8125 7.00654Z" fill="black"/>
<path d="M7.0625 7.84718C6.84938 7.8232 6.63516 7.81017 6.4207 7.80812L3.9375 7.81242C3.85462 7.81242 3.77513 7.77949 3.71653 7.72089C3.65792 7.66228 3.625 7.5828 3.625 7.49992C3.625 7.41704 3.65792 7.33755 3.71653 7.27895C3.77513 7.22034 3.85462 7.18742 3.9375 7.18742C6.66016 7.18351 6.65156 7.17023 7.10156 7.22414C7.18109 7.23306 7.25416 7.27215 7.30572 7.33334C7.35728 7.39454 7.3834 7.47319 7.37869 7.55308C7.37398 7.63296 7.33881 7.70799 7.28041 7.76271C7.22202 7.81743 7.14487 7.84767 7.06484 7.84718H7.0625Z" fill="black"/>
<path d="M7.0625 9.72215C6.84936 9.69834 6.63516 9.6853 6.4207 9.68309L3.9375 9.68739C3.85462 9.68739 3.77513 9.65446 3.71653 9.59586C3.65792 9.53725 3.625 9.45777 3.625 9.37489C3.625 9.29201 3.65792 9.21252 3.71653 9.15392C3.77513 9.09531 3.85462 9.06239 3.9375 9.06239C6.61641 9.05887 6.65234 9.04559 7.10156 9.09911C7.18109 9.10803 7.25416 9.14711 7.30572 9.20831C7.35728 9.26951 7.3834 9.34816 7.37869 9.42804C7.37398 9.50793 7.33881 9.58296 7.28041 9.63768C7.22202 9.6924 7.14487 9.72264 7.06484 9.72215H7.0625Z" fill="black"/>
<path d="M7.375 11.6441C7.30039 11.6441 6.97148 11.559 6.42734 11.559L3.9375 11.5625C3.85462 11.5625 3.77513 11.5296 3.71653 11.4709C3.65792 11.4123 3.625 11.3329 3.625 11.25C3.625 11.1671 3.65792 11.0876 3.71653 11.029C3.77513 10.9704 3.85462 10.9375 3.9375 10.9375L6.42031 10.934C6.75912 10.9347 7.09723 10.9648 7.43086 11.0238C7.50805 11.0373 7.57735 11.0793 7.62502 11.1415C7.67269 11.2038 7.69524 11.2816 7.68821 11.3596C7.68118 11.4377 7.64509 11.5103 7.58707 11.563C7.52906 11.6156 7.45337 11.6446 7.375 11.6441Z" fill="black"/>
<path d="M8.79023 14.0258C8.06311 13.6379 7.25182 13.4347 6.42773 13.434L3.9375 13.4375C3.85462 13.4375 3.77513 13.4046 3.71653 13.3459C3.65792 13.2873 3.625 13.2079 3.625 13.125C3.625 13.0421 3.65792 12.9626 3.71653 12.904C3.77513 12.8454 3.85462 12.8125 3.9375 12.8125L6.42031 12.809C7.34964 12.8082 8.26487 13.0362 9.08516 13.473C9.12137 13.4924 9.15343 13.5186 9.17948 13.5504C9.20554 13.5821 9.2251 13.6186 9.23703 13.6579C9.24896 13.6972 9.25304 13.7385 9.24904 13.7793C9.24503 13.8202 9.23301 13.8599 9.21367 13.8961C9.19433 13.9323 9.16805 13.9643 9.13632 13.9904C9.1046 14.0165 9.06805 14.036 9.02876 14.0479C8.98948 14.0599 8.94823 14.064 8.90737 14.06C8.86651 14.0559 8.82684 14.0439 8.79063 14.0246L8.79023 14.0258Z" fill="black"/>
<path d="M13.9375 7.84722C13.8575 7.8477 13.7803 7.81747 13.7219 7.76275C13.6635 7.70803 13.6284 7.63299 13.6236 7.55311C13.6189 7.47322 13.6451 7.39458 13.6966 7.33338C13.7482 7.27218 13.8213 7.23309 13.9008 7.22417C14.3516 7.16987 14.4398 7.18511 17.0648 7.18745C17.1477 7.18745 17.2272 7.22038 17.2858 7.27898C17.3444 7.33759 17.3773 7.41707 17.3773 7.49995C17.3773 7.58283 17.3444 7.66232 17.2858 7.72092C17.2272 7.77953 17.1477 7.81245 17.0648 7.81245L14.5812 7.80894C14.3661 7.81052 14.1513 7.8233 13.9375 7.84722Z" fill="black"/>
<path d="M13.9375 9.72223C13.8575 9.72272 13.7803 9.69248 13.7219 9.63776C13.6635 9.58304 13.6284 9.50801 13.6236 9.42812C13.6189 9.34824 13.6451 9.26959 13.6966 9.20839C13.7482 9.14719 13.8213 9.10811 13.9008 9.09919C14.3519 9.04528 14.3902 9.06012 17.0648 9.06247C17.1477 9.06247 17.2272 9.09539 17.2858 9.154C17.3444 9.2126 17.3773 9.29209 17.3773 9.37497C17.3773 9.45785 17.3444 9.53733 17.2858 9.59594C17.2272 9.65454 17.1477 9.68747 17.0648 9.68747L14.5812 9.68395C14.3661 9.68574 14.1513 9.69852 13.9375 9.72223Z" fill="black"/>
<path d="M13.625 11.6441C13.5467 11.6444 13.4712 11.6153 13.4133 11.5626C13.3554 11.5098 13.3195 11.4373 13.3126 11.3593C13.3056 11.2813 13.3282 11.2035 13.3759 11.1414C13.4236 11.0793 13.4928 11.0373 13.5699 11.0238C13.9034 10.9636 14.2416 10.9336 14.5805 10.934L17.0625 10.9375C17.1454 10.9375 17.2249 10.9704 17.2835 11.029C17.3421 11.0876 17.375 11.1671 17.375 11.25C17.375 11.3329 17.3421 11.4123 17.2835 11.471C17.2249 11.5296 17.1454 11.5625 17.0625 11.5625L14.5793 11.559C14.0129 11.5594 13.7106 11.6441 13.625 11.6441Z" fill="black"/>
<path d="M11.7867 13.8972C11.7674 13.861 11.7553 13.8213 11.7513 13.7804C11.7473 13.7396 11.7514 13.6983 11.7633 13.659C11.7752 13.6197 11.7948 13.5832 11.8209 13.5514C11.8469 13.5197 11.879 13.4934 11.9152 13.4741C12.7356 13.0374 13.6508 12.8094 14.5801 12.8101L17.0625 12.8124C17.1454 12.8124 17.2249 12.8453 17.2835 12.9039C17.3421 12.9625 17.375 13.042 17.375 13.1249C17.375 13.2078 17.3421 13.2873 17.2835 13.3459C17.2249 13.4045 17.1454 13.4374 17.0625 13.4374L14.5727 13.4339C13.7486 13.4346 12.9373 13.6379 12.2102 14.0257C12.1739 14.0451 12.1342 14.0572 12.0933 14.0612C12.0524 14.0653 12.0111 14.0612 11.9718 14.0493C11.9324 14.0373 11.8958 14.0178 11.8641 13.9917C11.8323 13.9656 11.806 13.9334 11.7867 13.8972Z" fill="black"/>
<path d="M14.25 4.06239C14.25 3.5654 14.1513 3.07336 13.9595 2.61486C13.7677 2.15637 13.4867 1.74057 13.1328 1.39164C12.7789 1.04271 12.3591 0.767615 11.898 0.582338C11.4368 0.397061 10.9434 0.305301 10.4465 0.312394C8.3992 0.340909 6.7406 2.03114 6.74998 4.07997C6.75322 5.02156 7.11175 5.92723 7.75388 6.61591C8.36919 7.27583 8.77673 8.1022 8.92576 8.99208L8.93748 9.06239H12.0625L12.0742 8.99286C12.2292 8.09637 12.642 7.26444 13.2621 6.59872C13.8985 5.90755 14.2513 5.00197 14.25 4.06239Z" fill="#E9A648"/>
<path d="M12.311 8.125C12.1951 8.42778 12.1118 8.74206 12.0625 9.0625H8.93752C8.88942 8.74202 8.80678 8.42769 8.69104 8.125H12.311Z" fill="#D08840"/>
<path d="M12.0625 9.37493H8.93749C8.86355 9.37492 8.792 9.3487 8.73557 9.30093C8.67914 9.25315 8.64148 9.18691 8.62928 9.11399L8.61756 9.04407C8.47887 8.21424 8.0984 7.44379 7.52381 6.82922C6.82864 6.08296 6.44069 5.10184 6.43749 4.08196C6.42694 1.86204 8.22342 0.031176 10.4422 -7.39551e-05C11.2358 -0.0114077 12.0154 0.210002 12.6846 0.636804C13.3539 1.06361 13.8834 1.6771 14.2078 2.4015C14.5323 3.12591 14.6374 3.92948 14.5102 4.71296C14.383 5.49644 14.0291 6.2255 13.4922 6.81008C12.9129 7.43114 12.5272 8.20761 12.3824 9.04446L12.3707 9.11399C12.3585 9.18691 12.3208 9.25315 12.2644 9.30093C12.208 9.3487 12.1364 9.37492 12.0625 9.37493ZM9.19842 8.74993H11.8019C11.9912 7.86582 12.4162 7.04944 13.032 6.38743C13.4864 5.89276 13.7859 5.27581 13.8935 4.61281C14.0011 3.94981 13.9121 3.26981 13.6375 2.65682C13.363 2.04383 12.9148 1.52471 12.3485 1.16361C11.7821 0.802502 11.1224 0.615229 10.4508 0.624926C8.57381 0.651098 7.05233 2.20032 7.06249 4.07844C7.06549 4.94157 7.39417 5.77177 7.9828 6.40305C8.59545 7.05914 9.01598 7.871 9.19842 8.74993Z" fill="black"/>
<path d="M8.9375 9.0625H12.0625V10.3125C12.0625 10.4783 11.9967 10.6372 11.8794 10.7544C11.7622 10.8717 11.6033 10.9375 11.4375 10.9375H9.5625C9.39674 10.9375 9.23777 10.8717 9.12056 10.7544C9.00335 10.6372 8.9375 10.4783 8.9375 10.3125V9.0625Z" fill="#F6F6F6"/>
<path d="M11.4375 10H9.5625C9.39674 10 9.23777 9.93415 9.12056 9.81694C9.00335 9.69973 8.9375 9.54076 8.9375 9.375V10.3125C8.9375 10.4783 9.00335 10.6372 9.12056 10.7544C9.23777 10.8717 9.39674 10.9375 9.5625 10.9375H11.4375C11.6033 10.9375 11.7622 10.8717 11.8794 10.7544C11.9967 10.6372 12.0625 10.4783 12.0625 10.3125V9.375C12.0625 9.54076 11.9967 9.69973 11.8794 9.81694C11.7622 9.93415 11.6033 10 11.4375 10Z" fill="#DCDCDC"/>
<path d="M11.4375 11.25H9.5625C9.31386 11.25 9.0754 11.1512 8.89959 10.9754C8.72377 10.7996 8.625 10.5611 8.625 10.3125V9.0625C8.625 8.97962 8.65792 8.90013 8.71653 8.84153C8.77513 8.78292 8.85462 8.75 8.9375 8.75H12.0625C12.1454 8.75 12.2249 8.78292 12.2835 8.84153C12.3421 8.90013 12.375 8.97962 12.375 9.0625V10.3125C12.375 10.5611 12.2762 10.7996 12.1004 10.9754C11.9246 11.1512 11.6861 11.25 11.4375 11.25ZM9.25 9.375V10.3125C9.25 10.3954 9.28292 10.4749 9.34153 10.5335C9.40013 10.5921 9.47962 10.625 9.5625 10.625H11.4375C11.5204 10.625 11.5999 10.5921 11.6585 10.5335C11.7171 10.4749 11.75 10.3954 11.75 10.3125V9.375H9.25Z" fill="black"/>
<path d="M10.5 12.1875C10.2514 12.1875 10.0129 12.0887 9.83709 11.9129C9.66127 11.7371 9.5625 11.4986 9.5625 11.25V10.9375H11.4375V11.25C11.4375 11.4986 11.3387 11.7371 11.1629 11.9129C10.9871 12.0887 10.7486 12.1875 10.5 12.1875Z" fill="#F6F6F6"/>
<path d="M10.5 12.5C10.1685 12.5 9.85054 12.3683 9.61612 12.1339C9.3817 11.8995 9.25 11.5815 9.25 11.25V10.9375C9.25 10.8546 9.28292 10.7751 9.34153 10.7165C9.40013 10.6579 9.47962 10.625 9.5625 10.625H11.4375C11.5204 10.625 11.5999 10.6579 11.6585 10.7165C11.7171 10.7751 11.75 10.8546 11.75 10.9375V11.25C11.75 11.5815 11.6183 11.8995 11.3839 12.1339C11.1495 12.3683 10.8315 12.5 10.5 12.5ZM9.875 11.25C9.875 11.4158 9.94085 11.5747 10.0581 11.6919C10.1753 11.8092 10.3342 11.875 10.5 11.875C10.6658 11.875 10.8247 11.8092 10.9419 11.6919C11.0592 11.5747 11.125 11.4158 11.125 11.25H9.875Z" fill="black"/>
<path d="M10.5 9.37493C10.4171 9.37493 10.3376 9.342 10.279 9.2834C10.2204 9.22479 10.1875 9.14531 10.1875 9.06243V8.33001C10.1889 7.81042 10.0873 7.29571 9.88838 6.81568C9.6895 6.33566 9.39737 5.89986 9.0289 5.53352C8.97026 5.47489 8.93732 5.39536 8.93732 5.31243C8.93732 5.2295 8.97026 5.14997 9.0289 5.09134C9.08753 5.0327 9.16706 4.99976 9.24999 4.99976C9.33292 4.99976 9.41245 5.0327 9.47108 5.09134C9.89763 5.51572 10.2358 6.02046 10.4661 6.57637C10.6963 7.13227 10.814 7.72831 10.8125 8.33001V9.06243C10.8125 9.14531 10.7796 9.22479 10.721 9.2834C10.6624 9.342 10.5829 9.37493 10.5 9.37493Z" fill="black"/>
<path d="M10.5 9.37493C10.4171 9.37493 10.3376 9.342 10.279 9.2834C10.2204 9.22479 10.1875 9.14531 10.1875 9.06243V8.33001C10.186 7.72831 10.3037 7.13227 10.534 6.57637C10.7642 6.02046 11.1024 5.51572 11.5289 5.09134C11.558 5.0623 11.5924 5.03927 11.6304 5.02356C11.6683 5.00784 11.709 4.99976 11.75 4.99976C11.7911 4.99976 11.8317 5.00784 11.8697 5.02356C11.9076 5.03927 11.9421 5.0623 11.9711 5.09134C12.0001 5.12037 12.0232 5.15484 12.0389 5.19277C12.0546 5.23071 12.0627 5.27137 12.0627 5.31243C12.0627 5.35349 12.0546 5.39415 12.0389 5.43208C12.0232 5.47002 12.0001 5.50449 11.9711 5.53352C11.6026 5.89986 11.3105 6.33566 11.1116 6.81568C10.9128 7.29571 10.8111 7.81042 10.8125 8.33001V9.06243C10.8125 9.14531 10.7796 9.22479 10.721 9.2834C10.6624 9.342 10.5829 9.37493 10.5 9.37493Z" fill="black"/>
</g>
<defs>
<clipPath id="clip0_272_886">
<rect width="20" height="20" fill="white" transform="translate(0.5)"/>
</clipPath>
</defs>
</svg>
