<svg width="20" height="20" viewBox="0 0 20 20" fill="none" xmlns="http://www.w3.org/2000/svg">
<g clip-path="url(#clip0_272_937)">
<path fill-rule="evenodd" clip-rule="evenodd" d="M18.7879 5.94229L17.5901 5.70607L17.064 4.43787L17.7445 3.42318L16.3418 2.02049L15.3271 2.701L14.0589 2.17494L13.8227 0.977051H11.8391L11.6029 2.17494L10.3347 2.701L9.31993 2.02049L7.91728 3.42318L8.59775 4.43787L8.07173 5.70607L6.87384 5.94229V7.92592L8.07173 8.16213L8.59775 9.43033L7.91728 10.445L9.31993 11.8477L10.3347 11.1672L11.6029 11.6933L11.8391 12.8912H13.8227L14.0589 11.6933L15.3271 11.1672L16.3418 11.8477L17.7445 10.445L17.064 9.43033L17.5901 8.16213L18.7879 7.92592V5.94229Z" fill="#F9AC00"/>
<path fill-rule="evenodd" clip-rule="evenodd" d="M18.2089 7.92592L17.011 8.16213L16.4849 9.43033L17.1654 10.445L15.9952 11.6153L15.1058 11.0188L13.4799 11.6933L13.2436 12.8912H11.8391L11.6029 11.6933L9.97689 11.0188L9.08751 11.6153L7.91728 10.445L8.59775 9.43033L8.07173 8.16213L6.87384 7.92592V5.94229L8.07173 5.70607L8.59775 4.43787L7.91728 3.42318L9.08751 2.25295L9.97689 2.84939L11.6029 2.17494L11.8391 0.977051H13.2436L13.4799 2.17494L15.1058 2.84939L15.9952 2.25295L17.1654 3.42318L16.4849 4.43787L17.011 5.70607L18.2089 5.94229V7.92592Z" fill="#FDC72E"/>
<path d="M15.2861 7.8018C15.7668 6.17874 14.8407 4.47334 13.2176 3.99268C11.5946 3.51203 9.88917 4.43813 9.40851 6.06119C8.92786 7.68425 9.85396 9.38965 11.477 9.8703C13.1001 10.351 14.8055 9.42486 15.2861 7.8018Z" fill="#F9AC00"/>
<path d="M12.8309 9.98641C14.5166 9.98641 15.8831 8.61988 15.8831 6.93419C15.8831 5.24849 14.5166 3.88196 12.8309 3.88196C11.1452 3.88196 9.77869 5.24849 9.77869 6.93419C9.77869 8.61988 11.1452 9.98641 12.8309 9.98641Z" fill="#F3F3FF"/>
<path fill-rule="evenodd" clip-rule="evenodd" d="M7.60295 3.70896C6.99928 3.79385 6.49412 4.20994 6.29502 4.78615C6.096 5.36236 6.23666 6.0015 6.6592 6.44092C6.93291 6.72557 7.29498 6.89521 7.67467 6.93154H11.2007C11.829 6.9315 12.3414 6.41908 12.3414 5.7908V0.910527C11.8108 0.403691 11.0217 0.27873 10.3605 0.596855C9.9324 0.802792 9.616 1.16646 9.46365 1.59568C8.77862 1.69803 8.18276 2.11924 7.85776 2.73088C7.69526 3.0367 7.6101 3.37201 7.60291 3.70896H7.60295Z" fill="#FF6161"/>
<path fill-rule="evenodd" clip-rule="evenodd" d="M7.60295 10.1542C6.99928 10.0693 6.49412 9.65324 6.29502 9.07703C6.096 8.50082 6.23666 7.86168 6.6592 7.42227C6.93291 7.13766 7.29498 6.96797 7.67467 6.93164H11.2007C11.829 6.93168 12.3414 7.4441 12.3414 8.07238V12.9527C11.8108 13.4595 11.0217 13.5845 10.3605 13.2663C9.9324 13.0604 9.616 12.6967 9.46365 12.2675C8.77862 12.1652 8.18276 11.7439 7.85776 11.1323C7.69526 10.8265 7.6101 10.4912 7.60291 10.1542H7.60295Z" fill="#FF6161"/>
<path fill-rule="evenodd" clip-rule="evenodd" d="M13.4937 16.5717C13.8803 15.9213 13.3906 15.0973 12.6345 15.1259C11.4396 15.1259 11.1271 15.1876 10.0199 14.528L8.81541 13.8104C8.07931 13.3719 7.40572 13.1894 6.55252 13.2682L3.23627 13.575V18.4753C6.42967 18.4753 9.92467 20.0869 13.3089 19.3859C14.4979 19.1396 18.3677 16.9258 19.0872 15.9801C19.7374 15.1253 18.8979 14.3201 17.9061 14.8928C16.5705 15.6639 13.6085 17.0052 12.3666 17.1274C12.8856 17.0633 13.3025 16.8937 13.4938 16.5718L13.4937 16.5717Z" fill="#FDB0A0"/>
<path fill-rule="evenodd" clip-rule="evenodd" d="M13.4937 16.5717C13.8803 15.9213 13.3906 15.0973 12.6345 15.1259C11.4396 15.1259 11.1271 15.1876 10.0199 14.528L8.81541 13.8104C8.07931 13.3719 7.40572 13.1894 6.55252 13.2682L3.23627 13.575V17.644C6.40119 17.6816 9.96521 19.2463 13.3089 18.5537C14.4979 18.3074 18.3677 16.0936 19.0872 15.1478C19.1274 15.0949 19.162 15.0421 19.1912 14.9899C18.9647 14.6826 18.4592 14.5735 17.9061 14.8928C16.5705 15.6639 13.6085 17.0052 12.3666 17.1274C12.8856 17.0633 13.3025 16.8937 13.4938 16.5718L13.4937 16.5717Z" fill="#FFCEC0"/>
<path fill-rule="evenodd" clip-rule="evenodd" d="M8.56877 15.7072C9.02213 15.9766 10.0141 16.2681 10.982 16.3706C11.4692 16.4221 11.9411 16.4286 12.3094 16.3614C13.5505 16.1351 13.4926 15.5943 13.1433 15.249C13.5811 15.4996 13.7835 16.0844 13.4938 16.5718C13.3365 16.8365 13.0265 16.9982 12.6326 17.083C12.5526 17.0979 12.4644 17.1127 12.3665 17.1274C11.9282 17.1976 11.4053 17.1984 10.9027 17.1452C9.82834 17.0315 8.70366 16.6939 8.17233 16.3782C7.65288 16.0694 8.04643 15.3966 8.56877 15.7073V15.7072Z" fill="#FDB0A0"/>
<path fill-rule="evenodd" clip-rule="evenodd" d="M0.683655 12.7585H2.6974C3.09272 12.7585 3.41615 13.082 3.41615 13.4773V18.5728C3.41615 18.9682 3.09272 19.2916 2.6974 19.2916H0.683655V12.7585Z" fill="#2A93FC"/>
<path fill-rule="evenodd" clip-rule="evenodd" d="M0.683655 12.7585H2.6974C2.76862 12.87 2.81002 13.0022 2.81002 13.1435V18.1693C2.81002 18.4764 2.55951 18.727 2.2524 18.727H0.683655V12.7585Z" fill="#4EB1FC"/>
<path fill-rule="evenodd" clip-rule="evenodd" d="M2.04988 18.3967C2.34629 18.3967 2.58809 18.1549 2.58809 17.8585C2.58809 17.562 2.34633 17.3203 2.04988 17.3203C1.75344 17.3203 1.51172 17.5621 1.51172 17.8585C1.51172 18.1549 1.75348 18.3967 2.04988 18.3967Z" fill="#0062D9"/>
<path fill-rule="evenodd" clip-rule="evenodd" d="M2.31214 17.8647C2.31214 17.7187 2.19332 17.5997 2.04742 17.5997C1.90152 17.5997 1.78214 17.7187 1.78214 17.8647C1.78214 18.0108 1.90132 18.1297 2.04742 18.1297C2.19351 18.1297 2.31214 18.0109 2.31214 17.8647ZM2.8591 17.8647C2.8591 18.3125 2.49496 18.6764 2.04742 18.6764C1.59988 18.6764 1.23519 18.3125 1.23519 17.8647C1.23519 17.417 1.59968 17.0527 2.04742 17.0527C2.49515 17.0527 2.8591 17.417 2.8591 17.8647ZM18.9539 15.1324C18.8023 14.9601 18.4627 14.894 18.0454 15.1347C16.7958 15.8562 13.7535 17.2719 12.3939 17.4054V17.4046C12.2181 17.4253 12.0313 17.4355 11.8376 17.4355C10.5614 17.4355 8.99 17.0149 8.35906 16.6078C8.23214 16.5261 8.19546 16.357 8.27753 16.2301C8.35906 16.1032 8.52816 16.0663 8.65562 16.1484C9.33871 16.5886 11.474 17.0811 12.6186 16.8121C12.9415 16.7358 13.1575 16.61 13.2599 16.4378C13.3896 16.2199 13.3892 15.9586 13.2587 15.7394C13.1286 15.5199 12.8989 15.3945 12.6457 15.4047H12.6357C12.5365 15.4047 12.4435 15.4051 12.3559 15.4054C11.3691 15.4097 10.9606 15.4116 9.88019 14.7679L8.675 14.0499C7.95367 13.6203 7.34589 13.4742 6.5766 13.5451L3.68722 13.8123V18.2187C4.86492 18.2703 6.09027 18.5103 7.27836 18.7436C9.25097 19.1311 11.2909 19.5316 13.2548 19.1249C14.3555 18.8967 18.188 16.7202 18.8728 15.8198C19.072 15.5577 19.1025 15.3007 18.9539 15.1324L18.9539 15.1324ZM3.14039 13.4819V18.5793C3.14039 18.825 2.94082 19.025 2.69492 19.025H0.954058V13.0367H2.69492C2.94082 13.0367 3.14039 13.2362 3.14039 13.482V13.4819ZM19.3078 16.1512C18.5423 17.1578 14.6025 19.4042 13.3657 19.6605C12.7411 19.7898 12.1141 19.8429 11.4875 19.8429C10.0364 19.8429 8.58796 19.5582 7.17265 19.2805C5.9539 19.041 4.79765 18.8145 3.66964 18.7652C3.58246 19.2239 3.17859 19.572 2.69492 19.572H0.680503C0.529331 19.572 0.407104 19.4496 0.407104 19.2984V12.7633C0.407104 12.6121 0.529292 12.4897 0.680503 12.4897H2.69496C3.16773 12.4897 3.56406 12.8219 3.66328 13.2653L6.52628 13.0007C7.40914 12.9192 8.13574 13.0922 8.95511 13.5805L10.1598 14.298C11.1102 14.8646 11.3981 14.8624 12.3532 14.8585C12.4402 14.8581 12.5325 14.8578 12.6306 14.8578C13.0847 14.8421 13.4957 15.0671 13.729 15.4601C13.913 15.7696 13.9519 16.1258 13.8473 16.4547C15.1613 15.9852 16.8157 15.2132 17.772 14.661C18.457 14.2656 19.0653 14.4313 19.3645 14.7708C19.6884 15.1383 19.6662 15.6805 19.3078 16.1512ZM6.55472 8.99381C6.68558 9.37264 6.98175 9.67217 7.35039 9.81358C7.38203 9.55264 7.45468 9.296 7.56992 9.05424C7.63527 8.91791 7.79847 8.86049 7.9348 8.92526C8.07113 8.99061 8.12855 9.15385 8.06379 9.29014C7.80359 9.83428 7.81734 10.4772 8.1005 11.0101C8.32003 11.423 8.67457 11.7335 9.1016 11.8967C9.08785 11.768 9.08636 11.6367 9.098 11.5046C9.17238 10.6652 9.76793 9.94951 10.5798 9.72342C10.7255 9.68311 10.8762 9.76842 10.9164 9.91358C10.9571 10.0593 10.8718 10.2097 10.7266 10.2504C10.1328 10.4155 9.6973 10.939 9.6425 11.553C9.58828 12.1667 9.92453 12.7589 10.48 13.0261C11.0012 13.2765 11.6259 13.1983 12.0691 12.8359V11.659C11.8356 11.9015 11.53 12.0821 11.1563 12.146C11.1407 12.1483 11.125 12.15 11.1098 12.15C10.9789 12.15 10.8633 12.0558 10.8405 11.9222C10.8153 11.7734 10.9153 11.6324 11.064 11.607C11.7168 11.4951 12.069 10.8487 12.069 10.2969V8.07854C12.069 7.6003 11.68 7.21131 11.2018 7.21131C11.2012 7.21131 11.2007 7.21076 11.2003 7.21076L7.69109 7.21131C7.37421 7.24408 7.07843 7.38772 6.85738 7.61783C6.50418 7.98498 6.3882 8.51197 6.55464 8.99381H6.55472ZM6.85746 6.25729C7.07812 6.48662 7.37316 6.63084 7.68949 6.66436L11.2019 6.66397C11.6802 6.66397 12.0691 6.27498 12.0691 5.79674V3.57838C12.0691 3.02651 11.7169 2.37994 11.0641 2.2683C10.9153 2.24287 10.8154 2.10186 10.8406 1.95291C10.8661 1.80416 11.0075 1.7042 11.1564 1.72924C11.5301 1.79326 11.8357 1.97381 12.0692 2.21635V1.0394C11.626 0.676975 11.0016 0.598264 10.4801 0.849045C9.92464 1.11639 9.58836 1.70858 9.64257 2.32217C9.69738 2.93615 10.1328 3.45959 10.7267 3.6249C10.8719 3.66557 10.9572 3.816 10.9165 3.96154C10.8762 4.1069 10.7256 4.19221 10.5799 4.1519C9.768 3.92576 9.17246 3.2101 9.09808 2.37057C9.0864 2.23858 9.08793 2.10733 9.10168 1.97838C8.67464 2.14182 8.32011 2.45194 8.10058 2.86518C7.81742 3.39803 7.80367 4.04084 8.06386 4.58514C8.12863 4.72147 8.07121 4.88471 7.93488 4.94983C7.89703 4.96791 7.85675 4.97658 7.81738 4.97658C7.71496 4.97658 7.61722 4.91916 7.56996 4.82108C7.45472 4.57912 7.38207 4.32272 7.35043 4.06174C6.9814 4.20256 6.68558 4.50233 6.55476 4.88155C6.38832 5.36319 6.50429 5.89018 6.8575 6.25733L6.85746 6.25729ZM13.5989 1.25651H12.6161V3.61834C12.688 3.61362 12.7603 3.61041 12.8324 3.61041C14.6669 3.61041 16.1594 5.10291 16.1594 6.93776C16.1594 8.7726 14.6669 10.2647 12.8324 10.2647C12.7603 10.2647 12.688 10.2617 12.6161 10.257V12.6186H13.5989L13.7916 11.6418C13.8094 11.5524 13.8708 11.4773 13.9552 11.4421L15.2227 10.9164C15.3076 10.8812 15.404 10.891 15.4797 10.9418L16.3074 11.4968L17.3915 10.4129L16.8368 9.58518C16.7856 9.50893 16.7762 9.41233 16.8111 9.32799L17.3371 8.06049C17.372 7.97615 17.4469 7.91436 17.5367 7.89686L18.5133 7.70424V6.17104L17.5367 5.97842C17.4469 5.96092 17.3719 5.89951 17.3371 5.81479L16.8111 4.54725C16.7762 4.46272 16.7856 4.36631 16.8368 4.29006L17.3915 3.46276L16.3074 2.37846L15.4797 2.9335C15.404 2.98432 15.3076 2.99393 15.2227 2.95889L13.9552 2.43303C13.8709 2.39799 13.8094 2.32287 13.7916 2.23346L13.5989 1.25651ZM12.0364 6.93776C12.3875 6.67998 12.6161 6.26483 12.6161 5.79674V4.16604C12.688 4.16057 12.7603 4.15737 12.8325 4.15737C14.3653 4.15737 15.6127 5.40455 15.6127 6.93776C15.6127 8.47096 14.3653 9.71795 12.8325 9.71795C12.7603 9.71795 12.688 9.71475 12.6161 9.70928V8.07858C12.6161 7.61049 12.3875 7.19533 12.0364 6.93776ZM6.46343 7.23862C6.57546 7.1217 6.7016 7.02135 6.83793 6.93776C6.7016 6.85377 6.57546 6.75342 6.46343 6.6367C5.96691 6.12061 5.80406 5.37971 6.03754 4.70303C6.24429 4.1058 6.74039 3.64885 7.34742 3.48862C7.38132 3.18397 7.47074 2.88459 7.61761 2.60858C7.96066 1.96276 8.55902 1.51276 9.26961 1.36045C9.46297 0.930061 9.80246 0.568732 10.243 0.356545C10.9986 -0.00665821 11.9121 0.13549 12.5216 0.709748H13.8239C13.9544 0.709748 14.0668 0.802365 14.0923 0.930412L14.3001 1.98385L15.2969 2.39748L16.1895 1.79912C16.2982 1.72643 16.4426 1.74057 16.5352 1.83264L17.9371 3.23459C18.0298 3.32721 18.0437 3.47221 17.9711 3.58049L17.3723 4.47295L17.786 5.47029L18.8398 5.67799C18.968 5.70303 19.0603 5.81561 19.0603 5.94612V7.92932C19.0603 8.05979 18.968 8.17221 18.8398 8.19725L17.786 8.4051L17.3723 9.40225L17.9711 10.2949C18.0437 10.4032 18.0298 10.5481 17.9371 10.6406L16.5352 12.0426C16.4426 12.1348 16.2982 12.1489 16.1895 12.0763L15.2969 11.4777L14.3001 11.8914L14.0923 12.945C14.0668 13.073 13.9544 13.1656 13.8239 13.1656H12.5216C12.1371 13.5277 11.6318 13.7183 11.1215 13.7183C10.8227 13.7183 10.522 13.6531 10.243 13.5187C9.80242 13.3067 9.46257 12.945 9.26961 12.5148C8.55941 12.3621 7.96031 11.9117 7.61761 11.2669C7.47074 10.9906 7.38132 10.6911 7.34742 10.3864C6.74078 10.2262 6.2439 9.76885 6.03754 9.17237C5.80406 8.49569 5.96695 7.75479 6.46343 7.23869V7.23862ZM9.62828 9.65615C9.54316 9.65615 9.45941 9.61643 9.40593 9.54205C9.12484 9.15026 9.08847 8.64131 9.31105 8.21354C9.53379 7.78576 9.97324 7.5233 10.4545 7.53006C10.6053 7.53158 10.726 7.65584 10.7243 7.80647C10.7224 7.95651 10.6002 8.07647 10.4509 8.07647C10.4466 8.07686 10.4422 8.07647 10.4381 8.07647C10.1669 8.07647 9.92164 8.22541 9.79621 8.46619C9.6691 8.70963 9.69003 8.99998 9.85003 9.22291C9.93836 9.34569 9.91027 9.51666 9.78754 9.60459C9.73914 9.6394 9.68359 9.65619 9.62824 9.65619L9.62828 9.65615ZM9.31105 5.66154C9.08851 5.23397 9.12484 4.72483 9.40593 4.33303C9.49422 4.21045 9.665 4.1824 9.78757 4.27053C9.91031 4.35846 9.93839 4.52959 9.85007 4.65221C9.69003 4.87529 9.66914 5.16545 9.79625 5.40893C9.92164 5.64994 10.167 5.79885 10.4381 5.79885C10.4423 5.79885 10.4466 5.7983 10.4509 5.79885C10.6002 5.79885 10.7224 5.91862 10.7243 6.06865C10.726 6.21947 10.6053 6.34373 10.4545 6.34561H10.4382C9.96179 6.34561 9.5314 6.08463 9.31109 5.66158L9.31105 5.66154Z" fill="black"/>
</g>
<defs>
<clipPath id="clip0_272_937">
<rect width="20" height="20" fill="white"/>
</clipPath>
</defs>
</svg>
