<svg width="21" height="20" viewBox="0 0 21 20" fill="none" xmlns="http://www.w3.org/2000/svg">
<g clip-path="url(#clip0_272_922)">
<path d="M16.4375 10.625C16.4375 10.0448 16.207 9.48844 15.7968 9.0782C15.3866 8.66797 14.8302 8.4375 14.25 8.4375H11.8159C11.1228 8.43753 10.4403 8.60868 9.82915 8.93577C9.21799 9.26285 8.69703 9.73575 8.3125 10.3125H5.8125V17.5H8.3125C9.09375 18.6713 11.0331 19.375 12.4409 19.375H15.1875" fill="#FFDACC"/>
<path d="M1.125 9.375H6.125V18.4375H1.125V9.375Z" fill="#E6613C"/>
<path d="M12.6875 10.625H18.1562C18.4463 10.625 18.7245 10.7402 18.9296 10.9454C19.1348 11.1505 19.25 11.4287 19.25 11.7188C19.25 12.0088 19.1348 12.287 18.9296 12.4921C18.7245 12.6973 18.4463 12.8125 18.1562 12.8125H14.875" fill="#FFDACC"/>
<path d="M14.875 12.8125H18.7812C19.0713 12.8125 19.3495 12.9277 19.5546 13.1329C19.7598 13.338 19.875 13.6162 19.875 13.9062C19.875 14.1963 19.7598 14.4745 19.5546 14.6796C19.3495 14.8848 19.0713 15 18.7812 15H14.875" fill="#FFDACC"/>
<path d="M14.875 15H18.1562C18.4463 15 18.7245 15.1152 18.9296 15.3204C19.1348 15.5255 19.25 15.8037 19.25 16.0938C19.25 16.3838 19.1348 16.662 18.9296 16.8671C18.7245 17.0723 18.4463 17.1875 18.1562 17.1875H14.875" fill="#FFDACC"/>
<path d="M14.875 17.1875H17.5312C17.8213 17.1875 18.0995 17.3027 18.3046 17.5079C18.5098 17.713 18.625 17.9912 18.625 18.2812C18.625 18.5713 18.5098 18.8495 18.3046 19.0546C18.0995 19.2598 17.8213 19.375 17.5312 19.375H14.875" fill="#FFDACC"/>
<path d="M13.625 5.625H18V10.625H13.625V5.625Z" fill="#BFDE7B"/>
<path d="M13.625 5.625H15.8125V10.625H13.625V5.625Z" fill="#AAD34F"/>
<path d="M15.8125 0.625L18 5.625H13.625L15.8125 0.625Z" fill="#FFDACC"/>
<path d="M20.4219 13.9062C20.4217 13.619 20.3462 13.3368 20.2028 13.0879C20.0595 12.839 19.8534 12.6321 19.605 12.4878C19.7223 12.2673 19.7877 12.0229 19.7961 11.7733C19.8046 11.5237 19.7559 11.2755 19.6539 11.0476C19.5518 10.8196 19.399 10.618 19.2072 10.4581C19.0153 10.2982 18.7895 10.1843 18.5469 10.125V5.62497C18.5468 5.54966 18.5311 5.47519 18.5009 5.40622L16.3134 0.406216C16.2708 0.308855 16.2007 0.226029 16.1117 0.167869C16.0228 0.109709 15.9188 0.0787354 15.8125 0.0787354C15.7062 0.0787354 15.6022 0.109709 15.5133 0.167869C15.4243 0.226029 15.3542 0.308855 15.3116 0.406216L13.1241 5.40622C13.0939 5.47519 13.0782 5.54966 13.0781 5.62497V7.89059H11.8159C11.0831 7.88985 10.3601 8.05873 9.70346 8.38402C9.04681 8.70931 8.47436 9.18217 8.03094 9.76559H6.67188V9.37496C6.67188 9.22993 6.61426 9.09083 6.5117 8.98827C6.40914 8.88571 6.27004 8.82809 6.125 8.82809H1.125C0.97996 8.82809 0.84086 8.88571 0.738301 8.98827C0.635742 9.09083 0.578125 9.22993 0.578125 9.37496V18.4375C0.578125 18.5825 0.635742 18.7216 0.738301 18.8242C0.84086 18.9267 0.97996 18.9843 1.125 18.9843H6.125C6.27004 18.9843 6.40914 18.9267 6.5117 18.8242C6.61426 18.7216 6.67188 18.5825 6.67188 18.4375V18.0468H8.0375C9.03125 19.2656 10.9969 19.9218 12.4409 19.9218H17.5312C17.8143 19.9219 18.0926 19.8488 18.339 19.7095C18.5854 19.5702 18.7915 19.3695 18.9374 19.1269C19.0832 18.8843 19.1638 18.6081 19.1713 18.3251C19.1787 18.0422 19.1128 17.7621 18.98 17.5122C19.347 17.2993 19.6173 16.9525 19.7338 16.5445C19.8504 16.1365 19.8042 15.6993 19.605 15.3247C19.8534 15.1804 20.0595 14.9734 20.2028 14.7245C20.3462 14.4756 20.4217 14.1934 20.4219 13.9062ZM5.57812 17.8906H1.67188V9.92184H5.57812V17.8906ZM17.4531 10.0781H16.3594V6.17184H17.4531V10.0781ZM15.8125 1.98934L17.1637 5.07809H14.4612L15.8125 1.98934ZM15.2656 6.17184V10.0781H14.1719V6.17184H15.2656ZM17.5312 18.8281H12.4409C11.1975 18.8281 9.44094 18.2031 8.7675 17.1965C8.71755 17.1216 8.64989 17.0602 8.57052 17.0178C8.49115 16.9753 8.40252 16.9531 8.3125 16.9531H6.67188V10.8593H8.3125C8.40252 10.8593 8.49115 10.8371 8.57052 10.7947C8.64989 10.7522 8.71755 10.6908 8.7675 10.6159C9.10158 10.1136 9.55477 9.70168 10.0867 9.417C10.6186 9.13233 11.2126 8.98369 11.8159 8.98434H13.0781V10.0781H12.6875C12.5425 10.0781 12.4034 10.1357 12.3008 10.2383C12.1982 10.3408 12.1406 10.4799 12.1406 10.625C12.1406 10.77 12.1982 10.9091 12.3008 11.0117C12.4034 11.1142 12.5425 11.1718 12.6875 11.1718H18.1562C18.3013 11.1718 18.4404 11.2295 18.5429 11.332C18.6455 11.4346 18.7031 11.5737 18.7031 11.7187C18.7031 11.8638 18.6455 12.0029 18.5429 12.1054C18.4404 12.208 18.3013 12.2656 18.1562 12.2656H14.875C14.73 12.2656 14.5909 12.3232 14.4883 12.4258C14.3857 12.5283 14.3281 12.6674 14.3281 12.8125C14.3281 12.9575 14.3857 13.0966 14.4883 13.1992C14.5909 13.3017 14.73 13.3593 14.875 13.3593H18.7812C18.9263 13.3593 19.0654 13.417 19.1679 13.5195C19.2705 13.6221 19.3281 13.7612 19.3281 13.9062C19.3281 14.0513 19.2705 14.1904 19.1679 14.2929C19.0654 14.3955 18.9263 14.4531 18.7812 14.4531H14.875C14.73 14.4531 14.5909 14.5107 14.4883 14.6133C14.3857 14.7158 14.3281 14.8549 14.3281 15C14.3281 15.145 14.3857 15.2841 14.4883 15.3867C14.5909 15.4892 14.73 15.5468 14.875 15.5468H18.1562C18.3013 15.5468 18.4404 15.6045 18.5429 15.707C18.6455 15.8096 18.7031 15.9487 18.7031 16.0937C18.7031 16.2388 18.6455 16.3779 18.5429 16.4804C18.4404 16.583 18.3013 16.6406 18.1562 16.6406H14.875C14.73 16.6406 14.5909 16.6982 14.4883 16.8008C14.3857 16.9033 14.3281 17.0424 14.3281 17.1875C14.3281 17.3325 14.3857 17.4716 14.4883 17.5742C14.5909 17.6767 14.73 17.7343 14.875 17.7343H17.5312C17.6763 17.7343 17.8154 17.792 17.9179 17.8945C18.0205 17.9971 18.0781 18.1362 18.0781 18.2812C18.0781 18.4263 18.0205 18.5654 17.9179 18.6679C17.8154 18.7705 17.6763 18.8281 17.5312 18.8281Z" fill="black"/>
</g>
<defs>
<clipPath id="clip0_272_922">
<rect width="20" height="20" fill="white" transform="translate(0.5)"/>
</clipPath>
</defs>
</svg>
