<svg width="28" height="31" viewBox="0 0 28 31" fill="none" xmlns="http://www.w3.org/2000/svg">
<path d="M13.6296 31C15.7787 31 17.522 29.2757 17.522 27.1481H9.73729C9.73729 29.2757 11.4805 31 13.6296 31ZM26.7353 21.9897C25.5598 20.7402 23.3602 18.8606 23.3602 12.7037C23.3602 8.02731 20.0453 4.28379 15.5755 3.36537V2.11111C15.5755 1.04763 14.7042 0.185181 13.6296 0.185181C12.5551 0.185181 11.6838 1.04763 11.6838 2.11111V3.36537C7.21399 4.28379 3.89908 8.02731 3.89908 12.7037C3.89908 18.8606 1.69948 20.7402 0.523929 21.9897C0.158851 22.3779 -0.00300025 22.8419 4.20685e-05 23.2963C0.00673517 24.2833 0.789828 25.2222 1.95321 25.2222H25.306C26.4694 25.2222 27.2531 24.2833 27.2592 23.2963C27.2623 22.8419 27.1004 22.3773 26.7353 21.9897Z" fill="#F8F9FA"/>
</svg>
