<svg width="25" height="25" viewBox="0 0 25 25" fill="none" xmlns="http://www.w3.org/2000/svg">
<g clip-path="url(#clip0_3007_1209)">
<path d="M18.5938 11.2812C19.1115 11.2812 19.5312 10.8615 19.5312 10.3438C19.5312 9.82598 19.1115 9.40625 18.5938 9.40625C18.076 9.40625 17.6562 9.82598 17.6562 10.3438C17.6562 10.8615 18.076 11.2812 18.5938 11.2812Z" fill="white"/>
<path d="M20.75 2.375H19.5312V1.4375C19.5312 0.919719 19.1115 0.5 18.5938 0.5C18.076 0.5 17.6562 0.919719 17.6562 1.4375V2.375H13.3906V1.4375C13.3906 0.919719 12.9709 0.5 12.4531 0.5C11.9353 0.5 11.5156 0.919719 11.5156 1.4375V2.375H7.29688V1.4375C7.29688 0.919719 6.87716 0.5 6.35938 0.5C5.84159 0.5 5.42188 0.919719 5.42188 1.4375V2.375H4.25C2.18225 2.375 0.5 4.05725 0.5 6.125V20.75C0.5 22.8177 2.18225 24.5 4.25 24.5H11.4219C11.9397 24.5 12.3594 24.0803 12.3594 23.5625C12.3594 23.0447 11.9397 22.625 11.4219 22.625H4.25C3.21613 22.625 2.375 21.7839 2.375 20.75V6.125C2.375 5.09113 3.21613 4.25 4.25 4.25H5.42188V5.1875C5.42188 5.70528 5.84159 6.125 6.35938 6.125C6.87716 6.125 7.29688 5.70528 7.29688 5.1875V4.25H11.5156V5.1875C11.5156 5.70528 11.9353 6.125 12.4531 6.125C12.9709 6.125 13.3906 5.70528 13.3906 5.1875V4.25H17.6562V5.1875C17.6562 5.70528 18.076 6.125 18.5938 6.125C19.1115 6.125 19.5312 5.70528 19.5312 5.1875V4.25H20.75C21.7839 4.25 22.625 5.09113 22.625 6.125V11.4688C22.625 11.9865 23.0447 12.4062 23.5625 12.4062C24.0803 12.4062 24.5 11.9865 24.5 11.4688V6.125C24.5 4.05725 22.8177 2.375 20.75 2.375Z" fill="white"/>
<path d="M18.8281 13.1562C15.7006 13.1562 13.1562 15.7006 13.1562 18.8281C13.1562 21.9556 15.7006 24.5 18.8281 24.5C21.9556 24.5 24.5 21.9556 24.5 18.8281C24.5 15.7006 21.9556 13.1562 18.8281 13.1562ZM18.8281 22.625C16.7345 22.625 15.0312 20.9218 15.0312 18.8281C15.0312 16.7345 16.7345 15.0312 18.8281 15.0312C20.9217 15.0312 22.625 16.7345 22.625 18.8281C22.625 20.9218 20.9217 22.625 18.8281 22.625Z" fill="white"/>
<path d="M20.1875 17.8906H19.7656V16.9062C19.7656 16.3885 19.3459 15.9688 18.8281 15.9688C18.3103 15.9688 17.8906 16.3885 17.8906 16.9062V18.8281C17.8906 19.3459 18.3103 19.7656 18.8281 19.7656H20.1875C20.7053 19.7656 21.125 19.3459 21.125 18.8281C21.125 18.3103 20.7053 17.8906 20.1875 17.8906Z" fill="white"/>
<path d="M14.5156 11.2812C15.0334 11.2812 15.4531 10.8615 15.4531 10.3438C15.4531 9.82598 15.0334 9.40625 14.5156 9.40625C13.9979 9.40625 13.5781 9.82598 13.5781 10.3438C13.5781 10.8615 13.9979 11.2812 14.5156 11.2812Z" fill="white"/>
<path d="M10.4375 15.3594C10.9553 15.3594 11.375 14.9396 11.375 14.4219C11.375 13.9041 10.9553 13.4844 10.4375 13.4844C9.91973 13.4844 9.5 13.9041 9.5 14.4219C9.5 14.9396 9.91973 15.3594 10.4375 15.3594Z" fill="white"/>
<path d="M6.35938 11.2812C6.87714 11.2812 7.29688 10.8615 7.29688 10.3438C7.29688 9.82598 6.87714 9.40625 6.35938 9.40625C5.84161 9.40625 5.42188 9.82598 5.42188 10.3438C5.42188 10.8615 5.84161 11.2812 6.35938 11.2812Z" fill="white"/>
<path d="M6.35938 15.3594C6.87714 15.3594 7.29688 14.9396 7.29688 14.4219C7.29688 13.9041 6.87714 13.4844 6.35938 13.4844C5.84161 13.4844 5.42188 13.9041 5.42188 14.4219C5.42188 14.9396 5.84161 15.3594 6.35938 15.3594Z" fill="white"/>
<path d="M6.35938 19.4375C6.87714 19.4375 7.29688 19.0178 7.29688 18.5C7.29688 17.9822 6.87714 17.5625 6.35938 17.5625C5.84161 17.5625 5.42188 17.9822 5.42188 18.5C5.42188 19.0178 5.84161 19.4375 6.35938 19.4375Z" fill="white"/>
<path d="M10.4375 19.4375C10.9553 19.4375 11.375 19.0178 11.375 18.5C11.375 17.9822 10.9553 17.5625 10.4375 17.5625C9.91973 17.5625 9.5 17.9822 9.5 18.5C9.5 19.0178 9.91973 19.4375 10.4375 19.4375Z" fill="white"/>
<path d="M10.4375 11.2812C10.9553 11.2812 11.375 10.8615 11.375 10.3438C11.375 9.82598 10.9553 9.40625 10.4375 9.40625C9.91973 9.40625 9.5 9.82598 9.5 10.3438C9.5 10.8615 9.91973 11.2812 10.4375 11.2812Z" fill="white"/>
</g>
<defs>
<clipPath id="clip0_3007_1209">
<rect width="24" height="24" fill="white" transform="translate(0.5 0.5)"/>
</clipPath>
</defs>
</svg>
