<svg width="23" height="23" viewBox="0 0 23 23" fill="none" xmlns="http://www.w3.org/2000/svg">
<g clip-path="url(#clip0_74_4309)">
<path d="M0.803223 17.0801C0.803223 13.7799 0.803223 10.4796 0.803223 7.18517C0.814864 7.15607 0.838147 7.12115 0.843967 7.09204C1.05351 5.86391 2.01972 4.97337 3.26531 4.90934C4.01034 4.8686 4.76119 4.89188 5.51204 4.89188C5.6692 4.89188 5.75651 4.83949 5.838 4.71144C6.18723 4.16431 6.55392 3.62882 6.90898 3.08751C7.45611 2.24935 8.24188 1.84191 9.23137 1.83609C10.9252 1.83027 12.6131 1.83027 14.3069 1.83609C15.2964 1.84191 16.0822 2.24935 16.6293 3.08751C16.9843 3.62882 17.351 4.17013 17.7003 4.71144C17.7818 4.83949 17.8691 4.89188 18.0262 4.89188C18.6898 4.88606 19.3533 4.88606 20.0168 4.89188C21.3614 4.90352 22.38 5.68929 22.6652 6.94653C22.7176 7.16771 22.7292 7.40053 22.7292 7.62753C22.735 10.6426 22.7292 13.6518 22.735 16.6668C22.735 17.0801 22.6827 17.4817 22.5022 17.8542C21.9958 18.8961 21.146 19.4025 19.9994 19.4025C14.5164 19.4025 9.03347 19.4025 3.55052 19.4025C3.46321 19.4025 3.38173 19.4025 3.29442 19.3967C2.15941 19.3268 1.2223 18.5876 0.913814 17.5225C0.867249 17.3711 0.838146 17.2256 0.803223 17.0801ZM11.7575 5.43901C8.4747 5.45647 5.82635 8.11064 5.85546 11.3585C5.88456 14.618 8.53873 17.2664 11.775 17.2489C15.0461 17.2314 17.7061 14.5598 17.6828 11.3294C17.6537 8.06408 14.9937 5.41573 11.7575 5.43901ZM19.2602 7.04548C19.0739 7.04548 18.8877 7.03384 18.7072 7.04548C18.3056 7.07458 18.0088 7.39471 17.9913 7.79051C17.9797 8.16302 18.2358 8.51808 18.6257 8.55882C19.039 8.59957 19.4639 8.59957 19.883 8.55882C20.2671 8.5239 20.5232 8.16303 20.5 7.78469C20.4767 7.38889 20.1856 7.07458 19.8015 7.0513C19.6152 7.03384 19.4406 7.04548 19.2602 7.04548Z" fill="white"/>
<path d="M11.7462 14.6122C9.91271 14.5831 8.44593 13.1105 8.47504 11.3178C8.50414 9.50178 10.0117 8.02336 11.7869 8.05828C13.6262 8.09321 15.0872 9.56581 15.0581 11.3527C15.029 13.1745 13.5331 14.6413 11.7462 14.6122Z" fill="white"/>
</g>
<defs>
<clipPath id="clip0_74_4309">
<rect width="21.9318" height="21.9318" fill="white" transform="translate(0.803223 0.265167)"/>
</clipPath>
</defs>
</svg>
