<svg width="25" height="24" viewBox="0 0 25 24" fill="none" xmlns="http://www.w3.org/2000/svg">
<path d="M18.8013 7.58124C18.5188 6.85281 17.9432 6.96779 17.3194 7.09138C16.9469 7.16902 15.2901 7.65399 12.6686 10.4182C11.5807 11.5655 10.8631 12.4801 10.3906 13.1776C10.1019 12.8232 9.77126 12.4441 9.424 12.0967C8.35605 11.029 7.16509 10.2958 7.11503 10.265C6.61525 9.95949 5.96282 10.1167 5.65643 10.6161C5.35043 11.1155 5.50715 11.769 6.00616 12.0757C6.01636 12.0821 7.03909 12.7144 7.9226 13.5981C8.82361 14.4993 9.63998 15.7179 9.64801 15.7297C9.84677 16.0285 10.1805 16.2029 10.5316 16.2029C10.5918 16.2029 10.6527 16.1978 10.7133 16.1873C11.1276 16.1154 11.4605 15.8055 11.5619 15.3973C11.5645 15.3875 11.9855 14.224 14.2093 11.8794C16.0005 9.99035 17.195 9.38996 17.6088 9.22341C17.6128 9.22274 17.6157 9.22245 17.621 9.22133C17.619 9.22182 17.6344 9.21471 17.6594 9.20349C17.7304 9.17683 17.7685 9.16663 17.7707 9.16609C17.7503 9.17117 17.7397 9.17243 17.7397 9.17243L17.739 9.16875C17.9305 9.08522 18.289 8.93096 18.2969 8.92767C18.8367 8.70589 19.0122 8.12523 18.8013 7.58124Z" fill="white"/>
</svg>
