<svg width="24" height="24" viewBox="0 0 24 24" fill="none" xmlns="http://www.w3.org/2000/svg">
<g clip-path="url(#clip0_3059_5667)">
<path d="M12 24C18.6274 24 24 18.6274 24 12C24 5.37258 18.6274 0 12 0C5.37258 0 0 5.37258 0 12C0 18.6274 5.37258 24 12 24Z" fill="#FABE2C"/>
<path d="M24 12C24 5.39841 18.6015 0 12 0V24C18.6015 24 24 18.6015 24 12Z" fill="#FF9100"/>
<path d="M12 21.1406C17.0482 21.1406 21.1406 17.0482 21.1406 12C21.1406 6.95177 17.0482 2.85938 12 2.85938C6.95177 2.85938 2.85938 6.95177 2.85938 12C2.85938 17.0482 6.95177 21.1406 12 21.1406Z" fill="#FED843"/>
<path d="M21.1406 12C21.1406 6.96 17.04 2.85938 12 2.85938V21.1406C17.04 21.1406 21.1406 17.04 21.1406 12Z" fill="#FABE2C"/>
<path d="M18.0184 10.0441C17.9354 9.78931 17.7156 9.60392 17.4506 9.56548L14.1203 9.08141L12.6303 6.06359C12.5122 5.82327 12.2561 5.70312 12 5.70312C11.7439 5.70312 11.4877 5.82327 11.3697 6.06359L9.87965 9.08141L6.54942 9.56548C6.28438 9.60392 6.06463 9.78931 5.98157 10.0434C5.89917 10.2981 5.96784 10.5776 6.15942 10.7644L8.56954 13.1141L8.00099 16.4313C7.95567 16.6949 8.06418 16.9614 8.28046 17.1186C8.4989 17.2772 8.78643 17.2963 9.02067 17.1722L11.9999 15.6066L14.9793 17.1721C15.2155 17.2971 15.5039 17.2772 15.7195 17.1185C15.9358 16.9613 16.0443 16.6949 15.999 16.4312L15.4297 13.114L17.8406 10.7643C18.0322 10.5776 18.1008 10.2981 18.0184 10.0441Z" fill="#FABE2C"/>
<path d="M15.7195 17.1186C15.9358 16.9614 16.0443 16.6949 15.999 16.4313L15.4297 13.1141L17.8406 10.7644C18.0322 10.5776 18.1008 10.2981 18.0184 10.0441C17.9354 9.78931 17.7156 9.60392 17.4506 9.56548L14.1203 9.08141L12.6303 6.06359C12.5122 5.82327 12.2561 5.70312 12 5.70312V15.6066L14.9794 17.1721C15.2155 17.2971 15.5039 17.2772 15.7195 17.1186Z" fill="#FF9100"/>
</g>
<defs>
<clipPath id="clip0_3059_5667">
<rect width="24" height="24" fill="white"/>
</clipPath>
</defs>
</svg>
