<svg width="60" height="60" viewBox="0 0 60 60" fill="none" xmlns="http://www.w3.org/2000/svg">
<rect width="60" height="60" rx="12" fill="#F4754C"/>
<path d="M26.3335 24.8667C24.7161 24.8667 23.4002 26.1822 23.4002 27.8C23.4002 29.4177 24.7161 30.7333 26.3335 30.7333C27.9509 30.7333 29.2668 29.4177 29.2668 27.8C29.2668 26.1822 27.9509 24.8667 26.3335 24.8667ZM25.2335 29.9033V25.6967L28.3888 27.8L25.2335 29.9033ZM38.0667 19.7334H21.9335C20.3161 19.7334 19.0002 21.0489 19.0002 22.6667V32.9333C19.0002 34.551 20.3161 35.8666 21.9335 35.8666H38.0667C39.6841 35.8666 41 34.551 41 32.9333V22.6667C41 21.0489 39.6841 19.7334 38.0667 19.7334ZM26.3335 32.1999C23.9072 32.1999 21.9335 30.2263 21.9335 27.8C21.9335 25.3737 23.9072 23.4 26.3335 23.4C28.7598 23.4 30.7335 25.3737 30.7335 27.8C30.7335 30.2263 28.7598 32.1999 26.3335 32.1999ZM38.0667 31.4666H32.2001V30H38.0667V31.4666ZM38.0667 28.5333H32.2001V27.0667H38.0667V28.5333ZM38.0667 25.6H32.2001V24.1334H38.0667V25.6ZM32.2001 38.7999V37.3332H27.8001V38.7999H24.8668V40.2665H35.1334V38.7999H32.2001Z" fill="white"/>
</svg>
