<svg width="24" height="24" viewBox="0 0 24 24" xmlns="http://www.w3.org/2000/svg">
<path d="M8.33349 6.86674C6.71609 6.86674 5.40019 8.18228 5.40019 9.80004C5.40019 11.4178 6.71609 12.7333 8.33349 12.7333C9.95089 12.7333 11.2668 11.4178 11.2668 9.80004C11.2668 8.18228 9.95089 6.86674 8.33349 6.86674ZM7.2335 11.9033V7.69674L10.3888 9.80004L7.2335 11.9033ZM20.0667 1.73346H3.93354C2.31614 1.73346 1.00024 3.04901 1.00024 4.66676V14.9333C1.00024 16.5511 2.31614 17.8666 3.93354 17.8666H20.0667C21.6841 17.8666 23 16.5511 23 14.9333V4.66676C23 3.04901 21.6841 1.73346 20.0667 1.73346ZM8.33349 14.2C5.90721 14.2 3.93354 12.2263 3.93354 9.80004C3.93354 7.37376 5.90721 5.40009 8.33349 5.40009C10.7598 5.40009 12.7334 7.37376 12.7334 9.80004C12.7334 12.2263 10.7598 14.2 8.33349 14.2ZM20.0667 13.4667H14.2001V12H20.0667V13.4667ZM20.0667 10.5334H14.2001V9.06671H20.0667V10.5334ZM20.0667 7.60006H14.2001V6.13341H20.0667V7.60006ZM14.2001 20.7999V19.3333H9.80014V20.7999H6.86684V22.2666H17.1334V20.7999H14.2001Z"/>
</svg>
