<svg width="60" height="61" viewBox="0 0 60 61" fill="none" xmlns="http://www.w3.org/2000/svg">
<g clip-path="url(#clip0_4415_2730)">
<path d="M57.2932 14.9619H2.70682C1.21188 14.9619 0 16.1738 0 17.6687V52.0163C0 53.5112 1.21188 54.7231 2.70682 54.7231H57.2931C58.788 54.7231 59.9999 53.5112 59.9999 52.0163V17.6687C60 16.1738 58.7881 14.9619 57.2932 14.9619Z" fill="url(#paint0_linear_4415_2730)"/>
<path d="M1.73047 18.8757V50.8097C1.73047 51.7817 2.51847 52.5697 3.49047 52.5697H56.5093C57.4813 52.5697 58.2693 51.7817 58.2693 50.8097V18.8757C58.2693 17.9037 57.4813 17.1157 56.5093 17.1157H3.49047C2.51847 17.1157 1.73047 17.9037 1.73047 18.8757Z" fill="url(#paint1_linear_4415_2730)"/>
<path d="M32.627 54.7232H57.2926C58.7875 54.7232 59.9994 53.5113 59.9994 52.0164V17.6687C59.9994 16.1738 58.7875 14.9619 57.2926 14.9619H32.627V54.7232Z" fill="url(#paint2_linear_4415_2730)"/>
<path d="M57.2925 14.9619H19.1758V33.9798L39.9192 54.7232H57.2925C58.7874 54.7232 59.9993 53.5113 59.9993 52.0164V17.6687C59.9993 16.1738 58.7874 14.9619 57.2925 14.9619Z" fill="url(#paint3_linear_4415_2730)"/>
<path d="M53.3586 20.7814V48.9026C53.3586 49.7829 52.6448 50.4967 51.7645 50.4967H5.35857C4.4788 50.4967 3.76562 49.7835 3.76562 48.9038V41.5879C3.76562 41.0248 4.22198 40.5685 4.78504 40.5685C5.3481 40.5685 5.80445 40.1121 5.80445 39.5491V30.1361C5.80445 29.5731 5.3481 29.1167 4.78504 29.1167C4.22198 29.1167 3.76562 28.6604 3.76562 28.0973V20.7826C3.76562 19.9022 4.47939 19.1885 5.35974 19.1885H51.7656C52.6454 19.1885 53.3586 19.9017 53.3586 20.7814Z" fill="url(#paint4_linear_4415_2730)"/>
<path d="M51.764 19.189H19.1758V33.9799L35.6923 50.4964H51.764C52.6439 50.4964 53.3572 49.7831 53.3572 48.9032V20.7821C53.3572 19.9023 52.6439 19.189 51.764 19.189Z" fill="url(#paint5_linear_4415_2730)"/>
<path d="M7.73042 47.3101H17.0528C17.4821 47.3101 17.8301 47.6581 17.8301 48.0874C17.8301 48.5166 17.4821 48.8646 17.0528 48.8646H7.73042C7.30112 48.8646 6.95312 48.5166 6.95312 48.0874C6.95312 47.6581 7.30112 47.3101 7.73042 47.3101Z" fill="#CA6E59"/>
<path d="M7.73042 44.1729H11.2543C11.6836 44.1729 12.0316 44.5209 12.0316 44.9501C12.0316 45.3794 11.6836 45.7274 11.2543 45.7274H7.73042C7.30112 45.7274 6.95312 45.3794 6.95312 44.9501C6.95312 44.5209 7.30112 44.1729 7.73042 44.1729Z" fill="#CA6E59"/>
<path d="M13.9492 44.1729H14.8301C15.2594 44.1729 15.6074 44.5209 15.6074 44.9501C15.6074 45.3794 15.2594 45.7274 14.8301 45.7274H13.9492C13.5199 45.7274 13.1719 45.3794 13.1719 44.9501C13.1719 44.5209 13.5199 44.1729 13.9492 44.1729Z" fill="#CA6E59"/>
<path d="M7.73042 39.8198H49.3907C49.82 39.8198 50.1679 40.1678 50.1679 40.5971C50.1679 41.0264 49.82 41.3744 49.3907 41.3744H7.73042C7.30112 41.3744 6.95312 41.0264 6.95312 40.5971C6.95312 40.1678 7.30112 39.8198 7.73042 39.8198Z" fill="white"/>
<path d="M24.5287 39.8198H7.73042C7.30112 39.8198 6.95312 40.1678 6.95312 40.5971C6.95312 41.0264 7.30112 41.3744 7.73042 41.3744H24.5287V39.8198Z" fill="url(#paint6_linear_4415_2730)"/>
<path d="M24.5874 42.4795C25.627 42.4795 26.4698 41.6368 26.4698 40.5972C26.4698 39.5576 25.627 38.7148 24.5874 38.7148C23.5478 38.7148 22.7051 39.5576 22.7051 40.5972C22.7051 41.6368 23.5478 42.4795 24.5874 42.4795Z" fill="url(#paint7_linear_4415_2730)"/>
<path d="M42.291 44.1729H45.8149C46.2441 44.1729 46.5921 44.5209 46.5921 44.9501C46.5921 45.3794 46.2441 45.7274 45.8149 45.7274H42.291C41.8617 45.7274 41.5137 45.3794 41.5137 44.9501C41.5136 44.5209 41.8617 44.1729 42.291 44.1729Z" fill="#CA6E59"/>
<path d="M48.5097 44.1729H49.3907C49.82 44.1729 50.168 44.5209 50.168 44.9501C50.168 45.3794 49.82 45.7274 49.3907 45.7274H48.5097C48.0804 45.7274 47.7324 45.3794 47.7324 44.9501C47.7323 44.5209 48.0804 44.1729 48.5097 44.1729Z" fill="#CA6E59"/>
<path d="M39.9655 16.3317L26.132 7.20172C22.4531 4.77372 17.5508 7.41208 17.5508 11.8198V30.0801C17.5508 34.4878 22.4531 37.1262 26.132 34.6982L39.9655 25.568C43.2791 23.3809 43.2791 18.5189 39.9655 16.3317Z" fill="url(#paint8_linear_4415_2730)"/>
<path d="M39.9654 16.3317L34.674 12.8394L17.5508 24.1407V30.0798C17.5508 34.4876 22.4531 37.1259 26.132 34.6979L39.9654 25.5679C43.279 23.3809 43.279 18.5189 39.9654 16.3317Z" fill="url(#paint9_linear_4415_2730)"/>
</g>
<defs>
<linearGradient id="paint0_linear_4415_2730" x1="11.8095" y1="16.6521" x2="47.2788" y2="52.1213" gradientUnits="userSpaceOnUse">
<stop stop-color="#5A5A5A"/>
<stop offset="1" stop-color="#444444"/>
</linearGradient>
<linearGradient id="paint1_linear_4415_2730" x1="44.5432" y1="49.386" x2="13.0928" y2="17.9356" gradientUnits="userSpaceOnUse">
<stop stop-color="#5A5A5A"/>
<stop offset="1" stop-color="#444444"/>
</linearGradient>
<linearGradient id="paint2_linear_4415_2730" x1="50.3158" y1="34.8426" x2="59.3577" y2="34.8426" gradientUnits="userSpaceOnUse">
<stop stop-color="#433F43" stop-opacity="0"/>
<stop offset="1" stop-color="#1A1A1A"/>
</linearGradient>
<linearGradient id="paint3_linear_4415_2730" x1="41.9114" y1="29.8029" x2="35.7938" y2="18.4303" gradientUnits="userSpaceOnUse">
<stop stop-color="#433F43" stop-opacity="0"/>
<stop offset="1" stop-color="#1A1A1A"/>
</linearGradient>
<linearGradient id="paint4_linear_4415_2730" x1="16.5614" y1="22.8419" x2="39.7943" y2="46.0748" gradientUnits="userSpaceOnUse">
<stop stop-color="#FFEEE6"/>
<stop offset="1" stop-color="#FFC4C8"/>
</linearGradient>
<linearGradient id="paint5_linear_4415_2730" x1="44.1474" y1="35.9236" x2="32.618" y2="22.9824" gradientUnits="userSpaceOnUse">
<stop stop-color="#FE99A0" stop-opacity="0"/>
<stop offset="1" stop-color="#FD8087"/>
</linearGradient>
<linearGradient id="paint6_linear_4415_2730" x1="13.8317" y1="35.3918" x2="17.1847" y2="43.9801" gradientUnits="userSpaceOnUse">
<stop stop-color="#7BACDF" stop-opacity="0"/>
<stop offset="1" stop-color="#7BACDF"/>
</linearGradient>
<linearGradient id="paint7_linear_4415_2730" x1="23.2103" y1="39.2199" x2="26.0727" y2="42.0824" gradientUnits="userSpaceOnUse">
<stop stop-color="#AEFFD1"/>
<stop offset="0.1201" stop-color="#A3F9CB"/>
<stop offset="0.3288" stop-color="#87EAB9"/>
<stop offset="0.6012" stop-color="#59D19D"/>
<stop offset="0.9235" stop-color="#19AF77"/>
<stop offset="1" stop-color="#09A76D"/>
</linearGradient>
<linearGradient id="paint8_linear_4415_2730" x1="19.6837" y1="15.1988" x2="36.7387" y2="32.2537" gradientUnits="userSpaceOnUse">
<stop stop-color="#FE860A"/>
<stop offset="0.2435" stop-color="#FB7C0E"/>
<stop offset="0.6648" stop-color="#F55F19"/>
<stop offset="1" stop-color="#EF4424"/>
</linearGradient>
<linearGradient id="paint9_linear_4415_2730" x1="31.1697" y1="27.2108" x2="33.4443" y2="30.5049" gradientUnits="userSpaceOnUse">
<stop stop-color="#CA2E43" stop-opacity="0"/>
<stop offset="0.7782" stop-color="#C30C47" stop-opacity="0.778"/>
<stop offset="1" stop-color="#C00148"/>
</linearGradient>
<clipPath id="clip0_4415_2730">
<rect width="60" height="60" fill="white" transform="translate(0 0.5)"/>
</clipPath>
</defs>
</svg>
