<svg width="1848" height="1953" viewBox="0 0 1848 1953" fill="none" xmlns="http://www.w3.org/2000/svg">
<g opacity="0.6">
<path d="M1170.27 147.057C1172.93 147.057 1172.94 151.057 1170.27 151.057C1167.6 151.057 1167.61 147.057 1170.27 147.057Z" fill="white"/>
<path d="M713.451 107.612C712.715 107.667 712.028 107.998 711.526 108.539C711.025 109.08 710.746 109.79 710.746 110.528C710.746 111.266 711.025 111.976 711.526 112.517C712.028 113.058 712.715 113.389 713.451 113.445C714.187 113.389 714.874 113.058 715.376 112.517C715.877 111.976 716.156 111.266 716.156 110.528C716.156 109.79 715.877 109.08 715.376 108.539C714.874 107.998 714.187 107.667 713.451 107.612Z" fill="white"/>
<path d="M2.32986 712.074C1.71195 712.074 1.11934 712.319 0.682401 712.756C0.245467 713.193 0 713.786 0 714.404C0 715.022 0.245467 715.614 0.682401 716.051C1.11934 716.488 1.71195 716.733 2.32986 716.733C2.94778 716.733 3.54039 716.488 3.97733 716.051C4.41426 715.614 4.65973 715.022 4.65973 714.404C4.65973 713.786 4.41426 713.193 3.97733 712.756C3.54039 712.319 2.94778 712.074 2.32986 712.074Z" fill="white"/>
<path d="M134.075 557.657C128.06 557.657 128.06 566.993 134.075 566.993C140.089 566.993 140.089 557.657 134.075 557.657Z" fill="white"/>
<path d="M40.6004 500.057C39.9824 500.057 39.3898 500.302 38.9529 500.739C38.516 501.176 38.2705 501.769 38.2705 502.387C38.2705 503.004 38.516 503.597 38.9529 504.034C39.3898 504.471 39.9824 504.716 40.6004 504.716C41.2183 504.716 41.8109 504.471 42.2478 504.034C42.6848 503.597 42.9302 503.004 42.9302 502.387C42.9302 501.769 42.6848 501.176 42.2478 500.739C41.8109 500.302 41.2183 500.057 40.6004 500.057Z" fill="white"/>
<path d="M612.903 640.029C612.439 640.029 611.993 640.214 611.665 640.542C611.336 640.871 611.152 641.316 611.152 641.781C611.152 642.245 611.336 642.691 611.665 643.019C611.993 643.348 612.439 643.532 612.903 643.532C613.368 643.532 613.813 643.348 614.142 643.019C614.47 642.691 614.655 642.245 614.655 641.781C614.655 641.316 614.47 640.871 614.142 640.542C613.813 640.214 613.368 640.029 612.903 640.029Z" fill="white"/>
<path d="M120.211 369.747C119.747 369.747 119.301 369.932 118.973 370.26C118.644 370.589 118.46 371.034 118.46 371.499C118.46 371.963 118.644 372.409 118.973 372.737C119.301 373.066 119.747 373.25 120.211 373.25C120.676 373.25 121.121 373.066 121.45 372.737C121.778 372.409 121.963 371.963 121.963 371.499C121.963 371.034 121.778 370.589 121.45 370.26C121.121 369.932 120.676 369.747 120.211 369.747Z" fill="white"/>
<path d="M70.8049 321.084C70.3403 321.084 69.8948 321.269 69.5663 321.597C69.2379 321.925 69.0533 322.371 69.0533 322.836C69.0533 323.3 69.2379 323.746 69.5663 324.074C69.8948 324.403 70.3403 324.587 70.8049 324.587C71.2694 324.587 71.7149 324.403 72.0434 324.074C72.3719 323.746 72.5564 323.3 72.5564 322.836C72.5564 322.371 72.3719 321.925 72.0434 321.597C71.7149 321.269 71.2694 321.084 70.8049 321.084Z" fill="white"/>
<path d="M5.27051 152.057C5.00529 152.057 4.75094 152.162 4.5634 152.35C4.37586 152.537 4.27051 152.791 4.27051 153.057C4.27051 153.322 4.37586 153.576 4.5634 153.764C4.75094 153.951 5.00529 154.057 5.27051 154.057C5.53572 154.057 5.79008 153.951 5.97761 153.764C6.16515 153.576 6.27051 153.322 6.27051 153.057C6.27051 152.791 6.16515 152.537 5.97761 152.35C5.79008 152.162 5.53572 152.057 5.27051 152.057Z" fill="white"/>
<path d="M12.2705 157.057C9.60384 157.057 9.60384 160.057 12.2705 160.057C14.9372 160.057 14.9372 157.057 12.2705 157.057Z" fill="white"/>
<path d="M380.76 212.853C380.024 212.908 379.337 213.239 378.835 213.78C378.333 214.321 378.055 215.031 378.055 215.769C378.055 216.507 378.333 217.217 378.835 217.758C379.337 218.299 380.024 218.63 380.76 218.685C381.495 218.63 382.183 218.299 382.684 217.758C383.186 217.217 383.465 216.507 383.465 215.769C383.465 215.031 383.186 214.321 382.684 213.78C382.183 213.239 381.495 212.908 380.76 212.853Z" fill="white"/>
<path d="M568.77 186.057C566.77 186.057 566.77 189.057 568.77 189.057C570.77 189.057 570.77 186.057 568.77 186.057Z" fill="white"/>
<path d="M570.173 247.123C569.587 247.172 569.04 247.44 568.642 247.873C568.244 248.306 568.023 248.873 568.023 249.461C568.023 250.049 568.244 250.616 568.642 251.049C569.04 251.482 569.587 251.75 570.173 251.799C570.759 251.75 571.305 251.482 571.703 251.049C572.101 250.616 572.322 250.049 572.322 249.461C572.322 248.873 572.101 248.306 571.703 247.873C571.305 247.44 570.759 247.172 570.173 247.123Z" fill="white"/>
<path d="M609.103 305.948C608.818 305.982 608.555 306.12 608.364 306.334C608.174 306.549 608.069 306.826 608.069 307.113C608.069 307.4 608.174 307.677 608.364 307.892C608.555 308.107 608.818 308.244 609.103 308.278C609.388 308.244 609.651 308.107 609.841 307.892C610.032 307.677 610.137 307.4 610.137 307.113C610.137 306.826 610.032 306.549 609.841 306.334C609.651 306.12 609.388 305.982 609.103 305.948Z" fill="white"/>
<path d="M946.768 195.139C946.483 195.173 946.22 195.31 946.03 195.525C945.839 195.739 945.734 196.017 945.734 196.304C945.734 196.591 945.839 196.868 946.03 197.083C946.22 197.297 946.483 197.435 946.768 197.469C947.053 197.435 947.316 197.297 947.506 197.083C947.697 196.868 947.802 196.591 947.802 196.304C947.802 196.017 947.697 195.739 947.506 195.525C947.316 195.31 947.053 195.173 946.768 195.139Z" fill="white"/>
<path d="M1354.48 464.016C1354.01 464.016 1353.57 464.201 1353.24 464.529C1352.91 464.858 1352.73 465.303 1352.73 465.768C1352.73 466.232 1352.91 466.678 1353.24 467.006C1353.57 467.335 1354.01 467.519 1354.48 467.519C1354.94 467.519 1355.39 467.335 1355.72 467.006C1356.04 466.678 1356.23 466.232 1356.23 465.768C1356.23 465.303 1356.04 464.858 1355.72 464.529C1355.39 464.201 1354.94 464.016 1354.48 464.016Z" fill="white"/>
<path d="M913.506 374.143C907.491 374.143 907.491 383.479 913.506 383.479C919.52 383.479 919.52 374.143 913.506 374.143Z" fill="white"/>
<path d="M1342.94 164.718C1342.21 164.774 1341.52 165.105 1341.02 165.646C1340.52 166.187 1340.24 166.897 1340.24 167.635C1340.24 168.372 1340.52 169.083 1341.02 169.624C1341.52 170.164 1342.21 170.496 1342.94 170.551C1343.68 170.496 1344.37 170.164 1344.87 169.624C1345.37 169.083 1345.65 168.372 1345.65 167.635C1345.65 166.897 1345.37 166.187 1344.87 165.646C1344.37 165.105 1343.68 164.774 1342.94 164.718Z" fill="white"/>
<path d="M1036.15 744.874C1035.56 744.923 1035.01 745.191 1034.62 745.624C1034.22 746.057 1034 746.623 1034 747.212C1034 747.8 1034.22 748.367 1034.62 748.8C1035.01 749.233 1035.56 749.5 1036.15 749.55C1036.73 749.5 1037.28 749.233 1037.68 748.8C1038.07 748.367 1038.3 747.8 1038.3 747.212C1038.3 746.623 1038.07 746.057 1037.68 745.624C1037.28 745.191 1036.73 744.923 1036.15 744.874Z" fill="white"/>
<path d="M1456.61 524.395C1452.12 524.395 1452.1 531.401 1456.61 531.401C1461.12 531.401 1461.12 524.395 1456.61 524.395Z" fill="white"/>
<path d="M1409.44 413.965C1404.93 413.965 1404.93 420.971 1409.44 420.971C1413.95 420.971 1413.95 413.965 1409.44 413.965Z" fill="white"/>
<path d="M285.731 116.419C285.298 116.461 284.896 116.663 284.603 116.985C284.311 117.307 284.149 117.727 284.149 118.162C284.149 118.597 284.311 119.017 284.603 119.339C284.896 119.661 285.298 119.863 285.731 119.905C286.164 119.863 286.566 119.661 286.858 119.339C287.15 119.017 287.312 118.597 287.312 118.162C287.312 117.727 287.15 117.307 286.858 116.985C286.566 116.663 286.164 116.461 285.731 116.419Z" fill="white"/>
<path d="M1537.26 80C1536.8 80 1536.35 80.1845 1536.03 80.513C1535.7 80.8415 1535.51 81.287 1535.51 81.7515C1535.51 82.2161 1535.7 82.6616 1536.03 82.9901C1536.35 83.3185 1536.8 83.5031 1537.26 83.5031C1537.73 83.5031 1538.18 83.3185 1538.5 82.9901C1538.83 82.6616 1539.02 82.2161 1539.02 81.7515C1539.02 81.287 1538.83 80.8415 1538.5 80.513C1538.18 80.1845 1537.73 80 1537.26 80Z" fill="white"/>
<path d="M1515.72 302.495C1511.22 302.495 1511.21 309.501 1515.72 309.501C1520.23 309.501 1520.23 302.495 1515.72 302.495Z" fill="white"/>
<path d="M1748.51 793.503C1744.01 793.503 1744 800.493 1748.51 800.493C1753.02 800.493 1753.05 793.503 1748.51 793.503Z" fill="white"/>
<path d="M1718.43 722.583C1717.81 722.583 1717.22 722.828 1716.79 723.265C1716.35 723.702 1716.1 724.294 1716.1 724.912C1716.1 725.53 1716.35 726.123 1716.79 726.56C1717.22 726.997 1717.81 727.242 1718.43 727.242C1719.05 727.242 1719.64 726.997 1720.08 726.56C1720.52 726.123 1720.76 725.53 1720.76 724.912C1720.76 724.294 1720.52 723.702 1720.08 723.265C1719.64 722.828 1719.05 722.583 1718.43 722.583Z" fill="white"/>
<path d="M1668.33 192.165C1661.57 192.165 1661.57 202.657 1668.33 202.657C1675.09 202.657 1675.11 192.165 1668.33 192.165Z" fill="white"/>
<path d="M1772.53 165.594C1771.8 165.649 1771.11 165.981 1770.61 166.522C1770.11 167.062 1769.83 167.773 1769.83 168.51C1769.83 169.248 1770.11 169.959 1770.61 170.499C1771.11 171.04 1771.8 171.372 1772.53 171.427C1773.27 171.372 1773.95 171.04 1774.46 170.499C1774.96 169.959 1775.24 169.248 1775.24 168.51C1775.24 167.773 1774.96 167.062 1774.46 166.522C1773.95 165.981 1773.27 165.649 1772.53 165.594Z" fill="white"/>
<path style="mix-blend-mode:overlay" d="M1060.63 151.413C1065.47 146.572 1118.86 192.128 1149.67 222.945C1180.49 253.762 1177.09 258.191 1172.25 263.032C1167.4 267.874 1162.98 271.294 1132.14 240.477C1101.31 209.66 1055.79 156.255 1060.63 151.413Z" fill="url(#paint0_radial_118_724)"/>
<path style="mix-blend-mode:overlay" d="M1134.98 225.787C1136.64 224.135 1154.42 239.37 1164.73 249.648C1175.04 259.926 1173.86 261.413 1172.26 263.032C1170.66 264.652 1169.16 265.792 1158.88 255.497C1148.6 245.203 1133.36 227.407 1134.98 225.787Z" fill="url(#paint1_radial_118_724)"/>
<path style="mix-blend-mode:overlay" d="M1548.5 242.1C1555.11 235.49 1628.89 298.281 1671.44 340.847C1713.99 383.413 1709.26 389.51 1702.59 396.202C1695.91 402.894 1689.78 407.604 1647.23 365.055C1604.68 322.505 1541.81 248.792 1548.5 242.1Z" fill="url(#paint2_radial_118_724)"/>
<path style="mix-blend-mode:overlay" d="M1651.16 344.763C1653.39 342.532 1677.98 363.518 1692.19 377.728C1706.4 391.939 1704.82 393.971 1702.59 396.202C1700.36 398.433 1698.31 400.002 1684.11 385.792C1669.92 371.581 1648.95 346.994 1651.16 344.763Z" fill="url(#paint3_radial_118_724)"/>
<path style="mix-blend-mode:overlay" d="M100.51 201.286C105.335 196.445 185.939 269.2 233.709 316.954C281.48 364.708 278.324 369.434 273.515 374.275C268.707 379.117 263.965 382.257 216.194 334.486C168.424 286.715 95.5533 206.128 100.51 201.286Z" fill="url(#paint4_radial_118_724)"/>
<path style="mix-blend-mode:overlay" d="M215.698 316.558C217.351 314.905 244.219 339.212 260.164 355.157C276.11 371.103 275.036 372.673 273.383 374.292C271.731 375.912 270.194 376.953 254.249 361.073C238.303 345.194 214.096 318.16 215.698 316.558Z" fill="url(#paint5_radial_118_724)"/>
<g filter="url(#filter0_f_118_724)">
<ellipse cx="1517" cy="842" rx="599" ry="611" fill="#00F0FF" fill-opacity="0.15"/>
</g>
</g>
<defs>
<filter id="filter0_f_118_724" x="418" y="-269" width="2198" height="2222" filterUnits="userSpaceOnUse" color-interpolation-filters="sRGB">
<feFlood flood-opacity="0" result="BackgroundImageFix"/>
<feBlend mode="normal" in="SourceGraphic" in2="BackgroundImageFix" result="shape"/>
<feGaussianBlur stdDeviation="250" result="effect1_foregroundBlur_118_724"/>
</filter>
<radialGradient id="paint0_radial_118_724" cx="0" cy="0" r="1" gradientUnits="userSpaceOnUse" gradientTransform="translate(1108.24 205.229) rotate(-135) scale(78.819 12.3731)">
<stop stop-color="white"/>
<stop offset="0.16" stop-color="white" stop-opacity="0.79"/>
<stop offset="0.38" stop-color="white" stop-opacity="0.51"/>
<stop offset="0.59" stop-color="white" stop-opacity="0.29"/>
<stop offset="0.76" stop-color="white" stop-opacity="0.13"/>
<stop offset="0.9" stop-color="white" stop-opacity="0.04"/>
<stop offset="0.98" stop-color="white" stop-opacity="0"/>
</radialGradient>
<radialGradient id="paint1_radial_118_724" cx="0" cy="0" r="1" gradientUnits="userSpaceOnUse" gradientTransform="translate(1145.39 242.385) rotate(-135) scale(26.273 4.12437)">
<stop stop-color="white"/>
<stop offset="0.16" stop-color="white" stop-opacity="0.79"/>
<stop offset="0.38" stop-color="white" stop-opacity="0.51"/>
<stop offset="0.59" stop-color="white" stop-opacity="0.29"/>
<stop offset="0.76" stop-color="white" stop-opacity="0.13"/>
<stop offset="0.9" stop-color="white" stop-opacity="0.04"/>
<stop offset="0.98" stop-color="white" stop-opacity="0"/>
</radialGradient>
<radialGradient id="paint2_radial_118_724" cx="0" cy="0" r="1" gradientUnits="userSpaceOnUse" gradientTransform="translate(1617.11 317.346) rotate(-135) scale(108.595 17.0474)">
<stop stop-color="white"/>
<stop offset="0.16" stop-color="white" stop-opacity="0.79"/>
<stop offset="0.38" stop-color="white" stop-opacity="0.51"/>
<stop offset="0.59" stop-color="white" stop-opacity="0.29"/>
<stop offset="0.76" stop-color="white" stop-opacity="0.13"/>
<stop offset="0.9" stop-color="white" stop-opacity="0.04"/>
<stop offset="0.98" stop-color="white" stop-opacity="0"/>
</radialGradient>
<radialGradient id="paint3_radial_118_724" cx="0" cy="0" r="1" gradientUnits="userSpaceOnUse" gradientTransform="translate(1668.51 368.744) rotate(-135) scale(36.7822 5.77411)">
<stop stop-color="white"/>
<stop offset="0.16" stop-color="white" stop-opacity="0.79"/>
<stop offset="0.38" stop-color="white" stop-opacity="0.51"/>
<stop offset="0.59" stop-color="white" stop-opacity="0.29"/>
<stop offset="0.76" stop-color="white" stop-opacity="0.13"/>
<stop offset="0.9" stop-color="white" stop-opacity="0.04"/>
<stop offset="0.98" stop-color="white" stop-opacity="0"/>
</radialGradient>
<radialGradient id="paint4_radial_118_724" cx="0" cy="0" r="1" gradientUnits="userSpaceOnUse" gradientTransform="translate(179.681 286.444) rotate(-135) scale(122.169 12.3731)">
<stop stop-color="white"/>
<stop offset="0.16" stop-color="white" stop-opacity="0.79"/>
<stop offset="0.38" stop-color="white" stop-opacity="0.51"/>
<stop offset="0.59" stop-color="white" stop-opacity="0.29"/>
<stop offset="0.76" stop-color="white" stop-opacity="0.13"/>
<stop offset="0.9" stop-color="white" stop-opacity="0.04"/>
<stop offset="0.98" stop-color="white" stop-opacity="0"/>
</radialGradient>
<radialGradient id="paint5_radial_118_724" cx="0" cy="0" r="1" gradientUnits="userSpaceOnUse" gradientTransform="translate(237.272 344.036) rotate(-135) scale(40.7232 4.12437)">
<stop stop-color="white"/>
<stop offset="0.16" stop-color="white" stop-opacity="0.79"/>
<stop offset="0.38" stop-color="white" stop-opacity="0.51"/>
<stop offset="0.59" stop-color="white" stop-opacity="0.29"/>
<stop offset="0.76" stop-color="white" stop-opacity="0.13"/>
<stop offset="0.9" stop-color="white" stop-opacity="0.04"/>
<stop offset="0.98" stop-color="white" stop-opacity="0"/>
</radialGradient>
</defs>
</svg>
