<svg id="Capa_1" enable-background="new 0 0 512 512" height="512" viewBox="0 0 512 512" width="512" xmlns="http://www.w3.org/2000/svg" xmlns:xlink="http://www.w3.org/1999/xlink"><linearGradient id="SVGID_1_" gradientUnits="userSpaceOnUse" x1="256" x2="256" y1="512" y2="122"><stop offset="0" stop-color="#00b59c"/><stop offset="1" stop-color="#9cffac"/></linearGradient><linearGradient id="SVGID_2_" gradientUnits="userSpaceOnUse" x1="256" x2="256" y1="452" y2="0"><stop offset="0" stop-color="#c3ffe8"/><stop offset=".9973" stop-color="#f0fff4"/></linearGradient><g><g><g><path d="m466 122h-120c-1.611 0-3.208.264-4.746.776l-85.254 28.418-85.254-28.418c-1.538-.512-3.135-.776-4.746-.776h-120c-8.291 0-15 6.709-15 15v240c0 8.291 6.709 15 15 15h145.003c-.051.052-.109.094-.159.146l-55.796 58.491c-3.208 3.369-4.673 8.027-3.97 12.627s3.501 8.599 7.559 10.854l65.098 36.006c3.716 2.051 7.953 2.369 11.719 1.201 3.896-1.216 7.134-3.955 8.965-7.617l30.908-61.802c.438-.874.417-1.848.674-2.772.256.925.236 1.899.674 2.772l30.908 61.802c1.831 3.662 5.068 6.401 8.965 7.617 3.766 1.167 8.003.85 11.719-1.201l65.098-36.006c4.058-2.256 6.855-6.255 7.559-10.854.703-4.6-.762-9.258-3.97-12.627l-55.796-58.491c-.048-.051-.1-.097-.149-.146h144.991c8.291 0 15-6.709 15-15v-240c0-8.291-6.709-15-15-15zm-259.983 266.147c3.053-2.744 4.983-6.713 4.983-11.147 0 6.841 1.541 13.327 4.284 19.138-.025-.052-.054-.102-.079-.154-1.828-3.806-5.189-6.626-9.188-7.837zm50.481 40.708c-.342.734-.28 1.547-.498 2.316-.218-.769-.156-1.582-.498-2.316-1.703-3.638-4.762-6.412-8.48-7.757 2.902.59 5.905.901 8.979.901s6.076-.312 8.979-.901c-3.72 1.345-6.778 4.12-8.482 7.757zm40.298-32.871c-.025.052-.054.102-.079.153 2.742-5.811 4.283-12.296 4.283-19.137 0 4.434 1.93 8.403 4.983 11.147-3.999 1.211-7.359 4.031-9.187 7.837z" fill="url(#SVGID_1_)"/></g></g><g><g><path d="m436 0h-360c-8.291 0-15 6.709-15 15s6.709 15 15 15h75v107c0 6.46 4.131 12.188 10.254 14.224l90 30c3.085 1.028 6.371 1.041 9.492 0l90-30c6.123-2.036 10.254-7.764 10.254-14.224v-107h75c8.291 0 15-6.709 15-15s-6.709-15-15-15zm-270 272h-60c-8.291 0-15 6.709-15 15s6.709 15 15 15h60c8.291 0 15-6.709 15-15s-6.709-15-15-15zm240-60h-300c-8.291 0-15 6.709-15 15s6.709 15 15 15h300c8.291 0 15-6.709 15-15s-6.709-15-15-15zm0 60h-60c-8.291 0-15 6.709-15 15s6.709 15 15 15h60c8.291 0 15-6.709 15-15s-6.709-15-15-15zm-150 30c-41.4 0-75 33.6-75 75s33.6 75 75 75 75-33.6 75-75-33.6-75-75-75zm0 90c-8.401 0-15-6.601-15-15 0-8.401 6.599-15 15-15s15 6.599 15 15c0 8.399-6.599 15-15 15z" fill="url(#SVGID_2_)"/></g></g></g></svg>