<svg width="25" height="24" viewBox="0 0 25 24" fill="none" xmlns="http://www.w3.org/2000/svg">
<path d="M8.75009 13.0001L12.9778 16.3822C13.4057 16.7245 14.0294 16.6587 14.3764 16.2346L22.7501 6.00006" stroke="#00F0FF" stroke-width="2" stroke-linecap="round"/>
<path fill-rule="evenodd" clip-rule="evenodd" d="M11.9392 12.2368L16.524 6.63327C16.8737 6.20582 16.8107 5.5758 16.3832 5.22607C15.9558 4.87635 15.3258 4.93935 14.976 5.36679L10.4027 10.9564L11.9392 12.2368ZM8.77292 16.1068L7.23641 14.8263L6.58309 15.6248L3.35 13.2C2.90817 12.8687 2.28137 12.9582 1.95 13.4C1.61863 13.8419 1.70817 14.4687 2.15 14.8L5.38309 17.2248C6.24047 17.8679 7.45234 17.7208 8.131 16.8913L8.77292 16.1068Z" fill="#00F0FF"/>
</svg>
