<svg id="Capa_1" enable-background="new 0 0 512 512" height="512" viewBox="0 0 512 512" width="512" xmlns="http://www.w3.org/2000/svg" xmlns:xlink="http://www.w3.org/1999/xlink"><linearGradient id="SVGID_1_" gradientUnits="userSpaceOnUse" x1="256" x2="256" y1="452" y2="0"><stop offset="0" stop-color="#ffc2cc"/><stop offset="1" stop-color="#fff2f4"/></linearGradient><linearGradient id="SVGID_2_" gradientUnits="userSpaceOnUse" x1="256" x2="256" y1="512" y2="60"><stop offset="0" stop-color="#fd3a84"/><stop offset="1" stop-color="#ffa68d"/></linearGradient><g><g><g><path d="m256 30c15.007 0 20.342 60 60 60 8.291 0 15-6.709 15-15s-6.709-15-15-15c-5.317 0-10.225-8.994-16.582-21.709-8.086-16.157-19.146-38.291-43.418-38.291s-35.332 22.134-43.418 38.291c-6.357 12.715-11.265 21.709-16.582 21.709-8.291 0-15 6.709-15 15s6.709 15 15 15c39.637 0 44.969-60 60-60zm181 150h-61c-8.291 0-15 6.709-15 15v-105h-45-120-45v105c0-8.291-6.709-15-15-15h-61c-24.814 0-45 20.186-45 45v182c0 24.814 20.186 45 45 45h362c24.814 0 45-20.186 45-45v-182c0-24.814-20.186-45-45-45z" fill="url(#SVGID_1_)"/></g></g><g><g><path d="m497 422h-482c-8.291 0-15 6.709-15 15 0 41.353 33.647 75 75 75h362c41.353 0 75-33.647 75-75 0-8.291-6.709-15-15-15zm-331-32h180c24.901 0 45-20.101 45-45v-240c0-24.9-20.099-45-45-45h-180c-24.901 0-45 20.1-45 45v240c0 24.899 20.099 45 45 45zm30-270h120c8.401 0 15 6.599 15 15 0 8.399-6.599 15-15 15h-15v15c0 8.399-6.599 15-15 15s-15-6.601-15-15v-15h-75c-8.401 0-15-6.601-15-15 0-8.401 6.599-15 15-15zm-15 105c0-8.401 6.599-15 15-15h120c8.401 0 15 6.599 15 15v90c0 8.399-6.599 15-15 15h-120c-8.401 0-15-6.601-15-15z" fill="url(#SVGID_2_)"/></g></g></g></svg>