<svg width="26" height="26" viewBox="0 0 26 26" fill="none" xmlns="http://www.w3.org/2000/svg">
<path fill-rule="evenodd" clip-rule="evenodd" d="M4.875 4.0625C4.42627 4.0625 4.0625 4.42627 4.0625 4.875V21.125C4.0625 21.5737 4.42627 21.9375 4.875 21.9375H21.125C21.5737 21.9375 21.9375 21.5737 21.9375 21.125V4.875C21.9375 4.42627 21.5737 4.0625 21.125 4.0625H4.875ZM2.4375 4.875C2.4375 3.52881 3.52881 2.4375 4.875 2.4375H21.125C22.4712 2.4375 23.5625 3.52881 23.5625 4.875V21.125C23.5625 22.4712 22.4712 23.5625 21.125 23.5625H4.875C3.52881 23.5625 2.4375 22.4712 2.4375 21.125V4.875Z" fill="white"/>
<path fill-rule="evenodd" clip-rule="evenodd" d="M6.22916 9.20825C6.22916 8.75952 6.59293 8.39575 7.04166 8.39575H11.375C11.8237 8.39575 12.1875 8.75952 12.1875 9.20825C12.1875 9.65698 11.8237 10.0208 11.375 10.0208H7.85416V16.7916C7.85416 17.2403 7.49038 17.6041 7.04166 17.6041C6.59293 17.6041 6.22916 17.2403 6.22916 16.7916V9.20825Z" fill="white"/>
<path fill-rule="evenodd" clip-rule="evenodd" d="M6.22916 13C6.22916 12.5513 6.59293 12.1875 7.04166 12.1875H11.1042C11.5529 12.1875 11.9167 12.5513 11.9167 13C11.9167 13.4487 11.5529 13.8125 11.1042 13.8125H7.04166C6.59293 13.8125 6.22916 13.4487 6.22916 13Z" fill="white"/>
<path fill-rule="evenodd" clip-rule="evenodd" d="M6.22916 16.7917C6.22916 16.343 6.59293 15.9792 7.04166 15.9792H11.1042C11.5529 15.9792 11.9167 16.343 11.9167 16.7917C11.9167 17.2405 11.5529 17.6042 11.1042 17.6042H7.04166C6.59293 17.6042 6.22916 17.2405 6.22916 16.7917Z" fill="white"/>
<path fill-rule="evenodd" clip-rule="evenodd" d="M14.0833 9.47925C14.5321 9.47925 14.8958 9.84302 14.8958 10.2917V16.7917C14.8958 17.2405 14.5321 17.6042 14.0833 17.6042C13.6346 17.6042 13.2708 17.2405 13.2708 16.7917V10.2917C13.2708 9.84302 13.6346 9.47925 14.0833 9.47925Z" fill="white"/>
<path fill-rule="evenodd" clip-rule="evenodd" d="M16.5208 11.6458C15.6234 11.6458 14.8958 12.3733 14.8958 13.2708V16.7916C14.8958 17.2403 14.5321 17.6041 14.0833 17.6041C13.6346 17.6041 13.2708 17.2403 13.2708 16.7916V13.2708C13.2708 11.4758 14.7259 10.0208 16.5208 10.0208C18.3158 10.0208 19.7708 11.4758 19.7708 13.2708V16.7916C19.7708 17.2403 19.4071 17.6041 18.9583 17.6041C18.5096 17.6041 18.1458 17.2403 18.1458 16.7916V13.2708C18.1458 12.3733 17.4183 11.6458 16.5208 11.6458Z" fill="white"/>
</svg>
