<svg width="24" height="24" viewBox="0 0 24 24" xmlns="http://www.w3.org/2000/svg">
<path d="M14.1638 5.41125H7.71375C7.101 5.41125 6.60375 4.914 6.60375 4.30125V2.61C6.60375 1.99725 7.101 1.5 7.71375 1.5H14.1638C14.7765 1.5 15.2738 1.99725 15.2738 2.61V4.30125C15.2738 4.91475 14.7765 5.41125 14.1638 5.41125Z" />
<path d="M21.6225 13.4925C20.9325 12.8025 19.8075 12.8025 19.1175 13.4925L18.2985 14.316L20.805 16.8217L21.6225 16.0042C22.32 15.3075 22.32 14.19 21.6225 13.4925Z" />
<path d="M17.505 15.1125L13.1325 19.4775C13.0425 19.575 12.9825 19.695 12.96 19.8225L12.63 21.765C12.555 22.1925 12.93 22.56 13.3575 22.4925L15.3 22.1625C15.4275 22.14 15.5475 22.08 15.6375 21.99L20.01 17.6175L17.505 15.1125Z" />
<path d="M17.3325 3.45752H16.3988V4.30127C16.3988 5.53352 15.396 6.53627 14.1638 6.53627H7.71375C6.48075 6.53627 5.47875 5.53352 5.47875 4.30127V3.45752H4.53C3.0525 3.45752 1.8525 4.65752 1.8525 6.13502V19.8225C1.8525 21.3 3.0525 22.5 4.53 22.5H11.6228C11.5088 22.2068 11.466 21.8888 11.5215 21.5715L11.8507 19.6343C11.9093 19.2908 12.0668 18.9735 12.3038 18.7148L17.0775 13.9478L18.3188 12.6998C18.78 12.2378 19.3718 11.964 20.0085 11.8853V6.14252C20.01 4.65002 18.8175 3.45752 17.3325 3.45752ZM9.771 14.5823H6.51675C6.144 14.5823 5.84175 14.28 5.84175 13.9073C5.84175 13.5345 6.144 13.2323 6.51675 13.2323H9.771C10.1438 13.2323 10.446 13.5345 10.446 13.9073C10.446 14.28 10.1438 14.5823 9.771 14.5823ZM13.755 10.7513H6.5175C6.14475 10.7513 5.8425 10.449 5.8425 10.0763C5.8425 9.70352 6.14475 9.40127 6.5175 9.40127H13.755C14.1278 9.40127 14.43 9.70352 14.43 10.0763C14.43 10.449 14.1278 10.7513 13.755 10.7513Z" />
</svg>
