<?xml version="1.0" encoding="UTF-8"?>
<svg id="Layer_2" data-name="Layer 2" xmlns="http://www.w3.org/2000/svg" viewBox="0 0 908.64 908.64">
  <defs>
    <style>
      .cls-1 {
        fill: #fff;
      }

      .cls-2 {
        fill: #c62c2c;
      }
    </style>
  </defs>
  <g id="Objects">
    <g>
      <path class="cls-2" d="M454.32,908.64c-61.32,0-120.82-12.02-176.85-35.71-54.1-22.88-102.69-55.64-144.4-97.35-41.71-41.71-74.47-90.3-97.35-144.4C12.02,575.14,0,515.64,0,454.32s12.02-120.82,35.71-176.85c22.88-54.1,55.64-102.69,97.35-144.4,41.71-41.71,90.3-74.47,144.4-97.35C333.5,12.02,393,0,454.32,0s120.82,12.02,176.85,35.71c54.1,22.88,102.69,55.64,144.4,97.35,41.71,41.71,74.47,90.3,97.35,144.4,23.7,56.03,35.71,115.53,35.71,176.85s-12.02,120.82-35.71,176.85c-22.88,54.1-55.64,102.69-97.35,144.4-41.71,41.71-90.3,74.47-144.4,97.35-56.03,23.7-115.53,35.71-176.85,35.71Z"/>
      <path class="cls-1" d="M503.09,454.32l136.06-136.06c13.47-13.47,13.47-35.31,0-48.78-13.47-13.47-35.31-13.47-48.78,0l-136.06,136.06-136.06-136.06c-13.47-13.47-35.31-13.47-48.78,0-13.47,13.47-13.47,35.31,0,48.78l136.06,136.06-136.06,136.06c-13.47,13.47-13.47,35.31,0,48.78,6.74,6.74,15.56,10.1,24.39,10.1s17.65-3.37,24.39-10.1l136.06-136.06,136.06,136.06c6.73,6.73,15.56,10.1,24.39,10.1s17.65-3.37,24.39-10.1c13.47-13.47,13.47-35.31,0-48.78l-136.06-136.06Z"/>
    </g>
  </g>
</svg>