<svg width="25" height="24" viewBox="0 0 25 24" fill="none" xmlns="http://www.w3.org/2000/svg">
<path d="M12.4426 22.9388C18.5162 22.9388 23.4398 18.0152 23.4398 11.9416C23.4398 5.86797 18.5162 0.944336 12.4426 0.944336C6.36895 0.944336 1.44531 5.86797 1.44531 11.9416C1.44531 18.0152 6.36895 22.9388 12.4426 22.9388Z" fill="#12C024"/>
<path fill-rule="evenodd" clip-rule="evenodd" d="M8.05453 11.1676C7.64953 10.8971 7.10852 10.9586 6.77352 11.3126C6.43902 11.6661 6.40752 12.2101 6.70002 12.5996L9.70002 16.5996C9.88102 16.8406 10.161 16.9876 10.4625 16.9991C10.7635 17.0101 11.054 16.8851 11.2525 16.6581L18.2525 8.6581C18.598 8.2636 18.5795 7.6691 18.2105 7.2961C17.8415 6.9231 17.2475 6.8991 16.849 7.2401L10.4245 12.7471L8.05453 11.1676Z" fill="#FAFAFA"/>
</svg>
