<svg xmlns="http://www.w3.org/2000/svg" width="32" height="32" viewBox="0 0 32 32" fill="none">
<path d="M3.57988 16.7005L11.0199 20.5005C11.2399 20.6105 11.7199 20.8805 11.9899 20.4405C12.2399 20.0305 11.8199 19.7005 11.6199 19.5505L2.95988 12.9205C2.32988 12.4205 2.18988 11.4505 2.66988 10.7905C3.14988 10.1005 4.14988 9.90051 4.82988 10.3705L13.6299 16.6805C13.7899 16.8005 14.2299 17.1205 14.5499 16.7505C14.8699 16.4005 14.5199 16.0005 14.3799 15.8505L6.20988 7.23051C5.61988 6.58051 5.65988 5.50051 6.44988 4.77051C7.07988 4.19051 8.18988 4.17051 8.78988 4.79051L16.8199 13.1505C16.9399 13.2705 17.3099 13.6505 17.6899 13.3705C18.0799 13.0705 17.7999 12.6305 17.7299 12.4605L12.7399 4.18051C12.3999 3.65051 12.3899 2.56051 13.3099 2.01051C14.2599 1.45051 15.1699 2.01051 15.5199 2.60051L21.0699 11.5205C21.8599 12.8405 23.0999 13.9505 24.1999 14.4705C25.0499 14.8705 25.7099 14.3605 25.8199 13.4705C25.9899 12.0905 26.2599 10.3805 26.7399 8.94051C27.2399 7.43051 28.9999 6.68051 30.4999 7.44051L29.9899 9.45051C29.4799 11.4905 29.4199 13.6305 29.7699 15.7105C30.0699 17.4505 30.3699 19.6905 30.3299 21.6805C30.2799 24.6805 28.2599 25.9905 26.4499 27.6205C18.6399 34.7105 12.9599 25.0705 10.1899 23.7005L2.13988 19.2305C1.45988 18.8405 1.30988 17.9305 1.70988 17.2705C2.09988 16.6305 2.89988 16.3505 3.57988 16.7005Z" fill="#FFD869"/>
<path d="M28.1599 7.40055C28.3999 7.45055 28.6299 7.52055 28.8599 7.63055L28.3499 9.64055C27.8399 11.6805 27.7799 13.8205 28.1299 15.9005C28.4299 17.6405 28.7299 19.8805 28.6899 21.8705C28.6399 24.8705 26.6199 26.1805 24.8099 27.8105C23.3299 29.1505 21.9299 29.8906 20.6099 30.2006C22.3899 30.2306 24.3399 29.5405 26.4399 27.6305C28.2499 26.0005 30.2599 24.6905 30.3199 21.6905C30.3599 19.6905 30.0599 17.4505 29.7599 15.7205C29.3999 13.6405 29.4699 11.5005 29.9799 9.46055L30.4899 7.45055C29.7199 7.06055 28.8699 7.08055 28.1599 7.40055Z" fill="#F2C34E"/>
<path d="M28.1398 14.911C28.4398 16.651 28.7398 18.891 28.6998 20.881C28.6498 23.881 26.6298 25.191 24.8198 26.821C21.6998 29.651 18.9198 29.811 16.5298 28.901C19.2498 30.551 22.5898 31.141 26.4498 27.631C28.2598 26.001 30.2698 24.691 30.3298 21.691C30.3698 19.691 30.0698 17.451 29.7698 15.721C29.4198 13.641 27.7798 12.831 28.1398 14.911Z" fill="#F2C34E"/>
<path d="M7.14989 4.97067L16.0499 14.1407C16.1699 14.2607 16.5399 14.6407 16.9199 14.3607C17.3099 14.0607 17.0299 13.6207 16.9599 13.4507L16.5699 12.8007L8.78989 4.80067C8.23989 4.23067 7.27989 4.20067 6.63989 4.63067C6.82989 4.71067 6.99989 4.82067 7.14989 4.97067Z" fill="#F2C34E"/>
<path d="M3.10991 10.611L12.8699 17.601C13.0499 17.731 13.5399 18.081 13.8899 17.671C14.1999 17.341 13.9499 16.961 13.7799 16.761L4.91991 10.411C4.32991 10.001 3.48991 10.061 2.90991 10.501C2.97991 10.541 3.04991 10.571 3.10991 10.611Z" fill="#F2C34E"/>
<path d="M13.8799 2.78051L19.4299 11.7005C20.2199 13.0205 21.4599 14.1305 22.5599 14.6505C23.1499 14.9305 23.6499 14.7505 23.9399 14.3205C22.9099 13.7605 21.8099 12.7405 21.0699 11.5205L15.5199 2.60051C15.1699 2.01051 14.2599 1.45051 13.3099 2.01051C13.2499 2.04051 13.2099 2.08051 13.1599 2.12051C13.4699 2.29051 13.7299 2.53051 13.8799 2.78051Z" fill="#F2C34E"/>
<path d="M10.4599 21.4304C10.7099 21.5604 11.2799 21.8704 11.5899 21.3604C11.7099 21.1604 11.6799 20.9904 11.6099 20.8404L3.66985 16.7804C3.03985 16.4604 2.33985 16.6004 1.84985 17.0304L10.4599 21.4304Z" fill="#F2C34E"/>
<path d="M20.75 30.7107C17.15 30.7107 14.22 27.9307 12.18 26.0007C11.3 25.1607 10.53 24.4407 9.97003 24.1607L1.90003 19.6807C1.48003 19.4407 1.18003 19.0507 1.06003 18.5707C0.920026 18.0507 1.01003 17.4907 1.28003 17.0207C1.81003 16.1207 2.89003 15.7907 3.80003 16.2507L11.24 20.0507C11.32 20.0907 11.51 20.1807 11.57 20.1807C11.54 20.1507 11.46 20.0707 11.31 19.9507L2.65003 13.3207C1.80003 12.6407 1.63003 11.3807 2.25003 10.5007C2.56003 10.0607 3.05003 9.74072 3.61003 9.65072C4.15003 9.55072 4.68003 9.67072 5.10003 9.97072L13.91 16.2807C14.09 16.4207 14.16 16.4307 14.18 16.4307C14.17 16.4207 14.15 16.3407 14.02 16.2007L5.84003 7.58072C5.04003 6.68072 5.15003 5.29072 6.10003 4.41072C6.95003 3.64072 8.37003 3.66072 9.14003 4.45072L17.17 12.8107C17.31 12.9507 17.37 12.9707 17.4 12.9807C17.39 12.9307 17.32 12.7907 17.3 12.7407L12.3 4.45072C12.03 4.04072 11.94 3.44072 12.07 2.90072C12.2 2.35072 12.54 1.90072 13.04 1.60072C14.17 0.930721 15.4 1.46072 15.94 2.36072L21.48 11.2807C22.18 12.4507 23.33 13.5307 24.4 14.0507C24.55 14.1207 24.78 14.1807 24.96 14.0807C25.14 13.9807 25.27 13.7507 25.31 13.4307C25.47 12.1907 25.73 10.3507 26.25 8.81072C26.53 7.95072 27.18 7.26072 28.03 6.91072C28.89 6.56072 29.87 6.60072 30.72 7.02072C30.93 7.13072 31.04 7.36072 30.98 7.59072L30.47 9.60072C29.98 11.5607 29.91 13.6007 30.26 15.6507C30.67 18.0007 30.86 20.0407 30.83 21.7207C30.78 24.5507 29.11 26.0007 27.49 27.4107C27.26 27.6107 27.02 27.8207 26.79 28.0307C24.63 29.9707 22.6 30.7107 20.75 30.7107ZM2.95003 17.0507C2.63003 17.0507 2.33003 17.2207 2.15003 17.5307V17.5407C2.01003 17.7707 1.97003 18.0607 2.03003 18.3207C2.07003 18.4707 2.17003 18.6807 2.39003 18.8107L10.43 23.2807C11.11 23.6107 11.92 24.3807 12.86 25.2807C16.05 28.3007 20.41 32.4407 26.11 27.2707C26.35 27.0507 26.59 26.8507 26.83 26.6407C28.41 25.2607 29.78 24.0807 29.83 21.6907C29.86 20.0807 29.67 18.1007 29.28 15.8107C28.9 13.6207 28.98 11.4407 29.5 9.34072L29.9 7.75072C29.41 7.60072 28.89 7.62072 28.41 7.82072C27.83 8.06072 27.39 8.53072 27.2 9.11072C26.71 10.5807 26.45 12.3407 26.3 13.5407C26.22 14.1707 25.91 14.6807 25.45 14.9407C25.02 15.1807 24.49 15.1807 23.98 14.9407C22.72 14.3407 21.44 13.1307 20.64 11.7907L15.09 2.87072C14.93 2.61072 14.32 1.99072 13.56 2.45072C13.29 2.61072 13.12 2.84072 13.05 3.12072C12.97 3.44072 13.05 3.75072 13.15 3.91072L18.15 12.2007C18.59 13.0707 18.3 13.5207 17.99 13.7607C17.72 13.9607 17.17 14.2007 16.47 13.5107L8.43003 5.14072C8.03003 4.74072 7.23003 4.74072 6.79003 5.14072C6.18003 5.71072 6.20003 6.48072 6.58003 6.90072L14.74 15.5007C15.35 16.1407 15.23 16.7407 14.91 17.0907C14.77 17.2507 14.22 17.7607 13.32 17.0807L4.52003 10.7807C4.32003 10.6407 4.06003 10.5807 3.78003 10.6307C3.49003 10.6807 3.23003 10.8407 3.07003 11.0707C2.75003 11.5207 2.84003 12.1907 3.26003 12.5307L11.91 19.1507C12.71 19.7807 12.62 20.3407 12.4 20.6907C12.17 21.0707 11.7 21.4207 10.79 20.9407L3.34003 17.1307C3.22003 17.0807 3.09003 17.0507 2.95003 17.0507Z" fill="#455A64"/>
<path d="M7.87 28.8605C4.95 28.8605 2.24 27.2005 0.919997 24.5705C0.799997 24.3305 0.899997 24.0305 1.15 23.9005C1.4 23.7805 1.7 23.8805 1.82 24.1205C3 26.4605 5.45 27.9305 8.07 27.8505C8.35 27.8605 8.58 28.0605 8.58 28.3405C8.59 28.6205 8.37 28.8505 8.09 28.8505C8.02 28.8605 7.95 28.8605 7.87 28.8605Z" fill="#455A64"/>
<path d="M7.82004 26.3803C7.80004 26.3803 7.79004 26.3803 7.77004 26.3803C5.85004 26.1903 4.14004 25.0703 3.21004 23.3803C3.08004 23.1403 3.16004 22.8303 3.41004 22.7003C3.65004 22.5703 3.96004 22.6503 4.09004 22.9003C4.86004 24.3003 6.28004 25.2303 7.87004 25.3903C8.14004 25.4203 8.35004 25.6603 8.32004 25.9403C8.29004 26.1903 8.07004 26.3803 7.82004 26.3803Z" fill="#455A64"/>
<path d="M24.63 8.18031C24.38 8.18031 24.16 7.99031 24.13 7.73031C23.85 5.13031 22.06 2.90031 19.58 2.05031C19.32 1.96031 19.18 1.68031 19.27 1.42031C19.36 1.16031 19.64 1.02031 19.9 1.11031C22.74 2.08031 24.79 4.64031 25.12 7.63031C25.15 7.90031 24.95 8.15031 24.68 8.18031C24.67 8.18031 24.65 8.18031 24.63 8.18031Z" fill="#455A64"/>
<path d="M22.1999 8.68003C21.9599 8.68003 21.7399 8.50003 21.7099 8.25003C21.4699 6.67003 20.4699 5.30003 19.0299 4.60003C18.7799 4.48003 18.6799 4.18003 18.7999 3.93003C18.9199 3.68003 19.2199 3.58003 19.4699 3.70003C21.1999 4.55003 22.4099 6.19003 22.6999 8.10003C22.7399 8.37003 22.5499 8.63003 22.2799 8.67003C22.2499 8.67003 22.2299 8.68003 22.1999 8.68003Z" fill="#455A64"/>
</svg>