<svg width="60" height="60" viewBox="0 0 60 60" fill="none" xmlns="http://www.w3.org/2000/svg">
<g clip-path="url(#clip0_4415_2677)">
<path d="M49.4531 14.0625V54.6094C49.4531 57.5218 47.0921 60 44.1797 60H5.27344C2.36098 60 0 57.5218 0 54.6094V5.27344C0 2.36098 2.36098 0 5.27344 0H35.3906L49.4531 14.0625Z" fill="#CAE8F9"/>
<path d="M49.4531 14.0625V54.6094C49.4531 57.5218 47.0921 60 44.1797 60H24.8438V0H35.3906L49.4531 14.0625Z" fill="url(#paint0_linear_4415_2677)"/>
<path d="M48.4232 10.5469L38.9062 1.02996C38.3679 0.491602 37.9804 0 37.1484 0H35.3906V12.3047C35.3906 13.2755 36.1777 14.0625 37.1484 14.0625H49.4531V12.3047C49.4531 11.5091 48.9486 11.0723 48.4232 10.5469Z" fill="#CAE8F9"/>
<path d="M17.6953 17.5781C11.8944 17.5781 7.03125 22.3241 7.03125 28.125V29.8828C7.03125 30.8673 7.80457 31.6406 8.78906 31.6406H26.6016C27.5861 31.6406 28.3594 30.8673 28.3594 29.8828V28.125C28.3594 22.3241 23.4962 17.5781 17.6953 17.5781Z" fill="#1689FC"/>
<path d="M28.3594 28.125V29.8828C28.3594 30.8673 27.5861 31.6406 26.6016 31.6406H17.6953V17.5781C23.4962 17.5781 28.3594 22.3241 28.3594 28.125Z" fill="url(#paint1_linear_4415_2677)"/>
<path d="M17.6953 7.03125C13.8282 7.03125 10.5469 10.1954 10.5469 14.0625C10.5469 17.9296 13.8282 21.0938 17.6953 21.0938C21.5624 21.0938 24.8438 17.9296 24.8438 14.0625C24.8438 10.1954 21.5624 7.03125 17.6953 7.03125Z" fill="#18A7FC"/>
<path d="M24.8438 14.0625C24.8438 17.9296 21.5624 21.0938 17.6953 21.0938V7.03125C21.5624 7.03125 24.8438 10.1954 24.8438 14.0625Z" fill="url(#paint2_linear_4415_2677)"/>
<path d="M40.6641 21.0938H33.6328C32.6612 21.0938 31.875 20.3075 31.875 19.3359C31.875 18.3643 32.6612 17.5781 33.6328 17.5781H40.6641C41.6357 17.5781 42.4219 18.3643 42.4219 19.3359C42.4219 20.3075 41.6357 21.0938 40.6641 21.0938Z" fill="white"/>
<path d="M40.6641 28.125H33.6328C32.6612 28.125 31.875 27.3388 31.875 26.3672C31.875 25.3956 32.6612 24.6094 33.6328 24.6094H40.6641C41.6357 24.6094 42.4219 25.3956 42.4219 26.3672C42.4219 27.3388 41.6357 28.125 40.6641 28.125Z" fill="white"/>
<g filter="url(#filter0_d_4415_2677)">
<path d="M23.0859 38.6719H8.78906C7.81746 38.6719 7.03125 37.8857 7.03125 36.9141C7.03125 35.9425 7.81746 35.1562 8.78906 35.1562H23.0859C24.0575 35.1562 24.8438 35.9425 24.8438 36.9141C24.8438 37.8857 24.0575 38.6719 23.0859 38.6719Z" fill="white"/>
</g>
<g filter="url(#filter1_d_4415_2677)">
<path d="M23.0859 45.7031H8.78906C7.81746 45.7031 7.03125 44.9169 7.03125 43.9453C7.03125 42.9737 7.81746 42.1875 8.78906 42.1875H23.0859C24.0575 42.1875 24.8438 42.9737 24.8438 43.9453C24.8438 44.9169 24.0575 45.7031 23.0859 45.7031Z" fill="white"/>
</g>
<g filter="url(#filter2_d_4415_2677)">
<path d="M28.3594 50.9766C28.3594 51.9608 27.5861 52.7344 26.6016 52.7344H19.5703C18.5858 52.7344 17.6953 51.9608 17.6953 50.9766C17.6953 49.9921 18.5858 49.2188 19.5703 49.2188H26.6016C27.5861 49.2188 28.3594 49.9921 28.3594 50.9766Z" fill="white"/>
</g>
<path d="M58.4525 27.3572L54.7236 31.0861H49.7518L47.2659 28.6002V23.6284L50.9948 19.8995C53.0581 17.8362 56.3892 17.8362 58.4526 19.8995C60.5159 21.9629 60.5159 25.2939 58.4525 27.3572Z" fill="#0F60CF"/>
<path d="M58.4515 27.3572L54.7226 31.0861H49.7508L48.5078 29.8431L58.4515 19.8994C60.515 21.9629 60.515 25.2939 58.4515 27.3572Z" fill="#0A4EAF"/>
<path d="M54.7238 31.0862L38.5652 47.2447H36.0793L31.1074 42.2728V39.7869L47.2659 23.6284L54.7238 31.0862Z" fill="#FEA832"/>
<path d="M54.7242 31.0863L38.5657 47.2448H36.0798L33.5938 44.7588L50.9953 27.3574L54.7242 31.0863Z" fill="#FE9923"/>
<path d="M39.0618 46.0016C39.0618 44.162 38.316 42.4717 37.098 41.2535C35.8799 40.0355 34.1895 39.2897 32.3499 39.2897C31.6786 39.2648 31.082 39.6623 30.7839 40.2591L25.8121 50.2028C25.4641 50.8492 25.5883 51.6695 26.1352 52.2164C26.682 52.7632 27.5024 52.8875 28.1488 52.5395L38.0925 47.5677C38.6893 47.2694 39.0868 46.6728 39.0618 46.0016Z" fill="#FEDB41"/>
<path d="M39.0615 46.0016C39.0863 46.6729 38.6888 47.2695 38.0921 47.5676L28.1484 52.5394C27.502 52.8874 26.6817 52.7632 26.1348 52.2163L37.0977 41.2534C38.3158 42.4717 39.0615 44.162 39.0615 46.0016Z" fill="#FCBF29"/>
</g>
<defs>
<filter id="filter0_d_4415_2677" x="3.03125" y="33.1562" width="25.8125" height="11.5156" filterUnits="userSpaceOnUse" color-interpolation-filters="sRGB">
<feFlood flood-opacity="0" result="BackgroundImageFix"/>
<feColorMatrix in="SourceAlpha" type="matrix" values="0 0 0 0 0 0 0 0 0 0 0 0 0 0 0 0 0 0 127 0" result="hardAlpha"/>
<feOffset dy="2"/>
<feGaussianBlur stdDeviation="2"/>
<feComposite in2="hardAlpha" operator="out"/>
<feColorMatrix type="matrix" values="0 0 0 0 0.0862745 0 0 0 0 0.537255 0 0 0 0 0.988235 0 0 0 0.2 0"/>
<feBlend mode="normal" in2="BackgroundImageFix" result="effect1_dropShadow_4415_2677"/>
<feBlend mode="normal" in="SourceGraphic" in2="effect1_dropShadow_4415_2677" result="shape"/>
</filter>
<filter id="filter1_d_4415_2677" x="3.03125" y="40.1875" width="25.8125" height="11.5156" filterUnits="userSpaceOnUse" color-interpolation-filters="sRGB">
<feFlood flood-opacity="0" result="BackgroundImageFix"/>
<feColorMatrix in="SourceAlpha" type="matrix" values="0 0 0 0 0 0 0 0 0 0 0 0 0 0 0 0 0 0 127 0" result="hardAlpha"/>
<feOffset dy="2"/>
<feGaussianBlur stdDeviation="2"/>
<feComposite in2="hardAlpha" operator="out"/>
<feColorMatrix type="matrix" values="0 0 0 0 0.0862745 0 0 0 0 0.537255 0 0 0 0 0.988235 0 0 0 0.2 0"/>
<feBlend mode="normal" in2="BackgroundImageFix" result="effect1_dropShadow_4415_2677"/>
<feBlend mode="normal" in="SourceGraphic" in2="effect1_dropShadow_4415_2677" result="shape"/>
</filter>
<filter id="filter2_d_4415_2677" x="13.6953" y="47.2188" width="18.6641" height="11.5156" filterUnits="userSpaceOnUse" color-interpolation-filters="sRGB">
<feFlood flood-opacity="0" result="BackgroundImageFix"/>
<feColorMatrix in="SourceAlpha" type="matrix" values="0 0 0 0 0 0 0 0 0 0 0 0 0 0 0 0 0 0 127 0" result="hardAlpha"/>
<feOffset dy="2"/>
<feGaussianBlur stdDeviation="2"/>
<feComposite in2="hardAlpha" operator="out"/>
<feColorMatrix type="matrix" values="0 0 0 0 0.0862745 0 0 0 0 0.537255 0 0 0 0 0.988235 0 0 0 0.2 0"/>
<feBlend mode="normal" in2="BackgroundImageFix" result="effect1_dropShadow_4415_2677"/>
<feBlend mode="normal" in="SourceGraphic" in2="effect1_dropShadow_4415_2677" result="shape"/>
</filter>
<linearGradient id="paint0_linear_4415_2677" x1="25" y1="34" x2="52.5" y2="34" gradientUnits="userSpaceOnUse">
<stop stop-color="#CAE8F9"/>
<stop offset="1" stop-color="#18A7FC"/>
</linearGradient>
<linearGradient id="paint1_linear_4415_2677" x1="18" y1="26.5" x2="28" y2="26.5" gradientUnits="userSpaceOnUse">
<stop stop-color="#1689FC"/>
<stop offset="1" stop-color="#0F60CF"/>
</linearGradient>
<linearGradient id="paint2_linear_4415_2677" x1="17" y1="14.5" x2="24.5" y2="14.5" gradientUnits="userSpaceOnUse">
<stop stop-color="#18A7FC"/>
<stop offset="1" stop-color="#1689FC"/>
</linearGradient>
<clipPath id="clip0_4415_2677">
<rect width="60" height="60" fill="white"/>
</clipPath>
</defs>
</svg>
