<svg width="33" height="32" viewBox="0 0 33 32" fill="none" xmlns="http://www.w3.org/2000/svg">
<g clip-path="url(#clip0_4415_2657)">
<path d="M2.5001 2.17723C-0.0145637 4.78923 0.500103 7.5639 0.500103 15.9932C0.500103 22.9932 -0.721231 30.0106 5.67077 31.6626C7.66677 32.1759 25.3521 32.1759 27.3454 31.6599C30.0068 30.9732 32.1721 28.8146 32.4681 25.0506C32.5094 24.5252 32.5094 7.47057 32.4668 6.93457C32.1521 2.92523 29.6841 0.614566 26.4321 0.146566C25.6868 0.0385658 25.5374 0.00656577 21.7134 -0.000100899C8.14944 0.00656577 5.1761 -0.597434 2.5001 2.17723Z" fill="url(#paint0_linear_4415_2657)"/>
<path d="M16.4972 4.18523C11.6559 4.18523 7.05858 3.75456 5.30258 8.26123C4.57725 10.1226 4.68258 12.5399 4.68258 16.0012C4.68258 19.0386 4.58525 21.8932 5.30258 23.7399C7.05458 28.2492 11.6892 27.8172 16.4946 27.8172C21.1306 27.8172 25.9106 28.2999 27.6879 23.7399C28.4146 21.8599 28.3079 19.4786 28.3079 16.0012C28.3079 11.3852 28.5626 8.40523 26.3239 6.1679C24.0572 3.90123 20.9919 4.18523 16.4919 4.18523H16.4972ZM15.4386 6.31456C25.5372 6.29856 26.8226 5.1759 26.1132 20.7719C25.8612 26.2879 21.6612 25.6826 16.4986 25.6826C7.08525 25.6826 6.81458 25.4132 6.81458 15.9959C6.81458 6.46923 7.56125 6.3199 15.4386 6.3119V6.31456ZM22.8039 8.2759C22.0212 8.2759 21.3866 8.91056 21.3866 9.69323C21.3866 10.4759 22.0212 11.1106 22.8039 11.1106C23.5866 11.1106 24.2212 10.4759 24.2212 9.69323C24.2212 8.91056 23.5866 8.2759 22.8039 8.2759ZM16.4972 9.93323C13.1466 9.93323 10.4306 12.6506 10.4306 16.0012C10.4306 19.3519 13.1466 22.0679 16.4972 22.0679C19.8479 22.0679 22.5626 19.3519 22.5626 16.0012C22.5626 12.6506 19.8479 9.93323 16.4972 9.93323ZM16.4972 12.0626C21.7039 12.0626 21.7106 19.9399 16.4972 19.9399C11.2919 19.9399 11.2839 12.0626 16.4972 12.0626Z" fill="white"/>
</g>
<defs>
<linearGradient id="paint0_linear_4415_2657" x1="2.56146" y1="29.956" x2="32.3021" y2="4.21587" gradientUnits="userSpaceOnUse">
<stop stop-color="#FFDD55"/>
<stop offset="0.5" stop-color="#FF543E"/>
<stop offset="1" stop-color="#C837AB"/>
</linearGradient>
<clipPath id="clip0_4415_2657">
<rect width="32" height="32" fill="white" transform="translate(0.5)"/>
</clipPath>
</defs>
</svg>
