<svg width="24" height="24" viewBox="0 0 24 24" xmlns="http://www.w3.org/2000/svg">
<g clip-path="url(#clip0_105_912)">
<path d="M21.8672 0C20.7732 0 19.8817 0.84 19.7782 1.90739L15.121 3.06009C14.3848 1.26773 12.6247 0 10.5703 0C8.6513 0 7.00294 1.11511 6.19158 2.72161L4.19137 2.07047C4.17009 0.925594 3.23583 0 2.08594 0C0.922781 0 0 0.946219 0 2.10938C0 3.27253 0.922781 4.21875 2.08594 4.21875C2.75981 4.21875 3.354 3.89536 3.74039 3.402L5.73637 4.05173C5.68542 4.33523 5.64844 4.62389 5.64844 4.92188C5.64844 6.02658 6.02212 7.03838 6.64237 7.85555L4.44277 10.0552C4.1678 9.92358 3.86377 9.84375 3.53906 9.84375C2.37591 9.84375 1.42969 10.79 1.42969 11.9531C1.42969 13.1163 2.37591 14.0625 3.53906 14.0625C4.70222 14.0625 5.64844 13.1163 5.64844 11.9531C5.64844 11.6284 5.56861 11.3244 5.43703 11.0494L7.578 8.79895C7.7467 8.92997 7.9238 9.05077 8.10938 9.159V7.42627C7.45997 6.78802 7.05469 5.90217 7.05469 4.92188C7.05469 2.98345 8.63189 1.40625 10.5703 1.40625C12.5087 1.40625 14.0859 2.98345 14.0859 4.92188C14.0859 5.90217 13.6807 6.78802 13.0312 7.42627V8.67511C13.3236 8.53589 13.6498 8.46155 13.991 8.44819C14.2181 8.22778 14.4233 7.98516 14.6053 7.72533L16.9243 8.88506C16.9139 8.96986 16.8984 9.05311 16.8984 9.14067C16.8984 10.3038 17.8447 11.25 19.0078 11.25C20.171 11.25 21.1172 10.3038 21.1172 9.14067C21.1172 7.97752 20.171 7.0313 19.0078 7.0313C18.4406 7.0313 17.9272 7.25892 17.5477 7.62441L15.2183 6.45938C15.3811 5.97295 15.4922 5.46286 15.4922 4.92188C15.4922 4.75294 15.459 4.59323 15.4423 4.42861L20.1105 3.27314C20.4887 3.84211 21.1342 4.21875 21.8672 4.21875C23.0303 4.21875 24 3.27253 24 2.10938C24 0.946219 23.0303 0 21.8672 0Z"/>
<path d="M21.1172 12.6562C20.5407 12.6562 20.0625 13.1343 20.0625 13.7109C20.0625 14.3042 20.0625 14.1675 20.0625 14.7656C20.0625 15.1539 19.7477 15.4688 19.3594 15.4688C18.9711 15.4688 18.6562 15.1539 18.6562 14.7656C18.6562 13.6919 18.6562 13.4061 18.6562 12.3047C18.6562 11.7281 18.1781 11.25 17.6016 11.25C17.025 11.25 16.5469 11.7281 16.5469 12.3047C16.5469 13.1483 16.5469 13.5882 16.5469 14.7656C16.5469 15.1539 16.2321 15.4688 15.8438 15.4688C15.4554 15.4688 15.1406 15.1539 15.1406 14.7656C15.1406 14.6043 15.1406 13.405 15.1406 10.8984C15.1406 10.3159 14.6684 9.84375 14.0859 9.84375C13.5035 9.84375 13.0312 10.3159 13.0312 10.8984C13.0312 12.2269 13.0312 12.9203 13.0312 14.7656C13.0312 15.1539 12.7164 15.4688 12.3281 15.4688C11.9398 15.4688 11.625 15.1539 11.625 14.7656C11.625 14.4481 11.625 10.4222 11.625 5.27344C11.625 4.69092 11.1528 4.21875 10.5703 4.21875C9.98784 4.21875 9.51562 4.69092 9.51562 5.27344C9.51562 11.1821 9.51562 9.22833 9.51562 13.0219L7.15312 14.9062C6.37969 15.525 6.14058 16.6219 6.57651 17.5078L9.2063 22.8328C9.55786 23.55 10.2891 24 11.0906 24C13.0087 24 12.0893 24 19.036 24C19.9053 24 20.7604 23.4723 21.061 22.4953C21.5672 20.7796 22.1719 17.9859 22.1719 14.7656V13.7109C22.1719 13.1343 21.6937 12.6562 21.1172 12.6562Z"/>
</g>
<defs>
<clipPath id="clip0_105_912">
<rect width="24" height="24"/>
</clipPath>
</defs>
</svg>
