<svg id="Capa_1" enable-background="new 0 0 512 512" height="512" viewBox="0 0 512 512" width="512" xmlns="http://www.w3.org/2000/svg" xmlns:xlink="http://www.w3.org/1999/xlink"><linearGradient id="SVGID_1_" gradientUnits="userSpaceOnUse" x1="286" x2="286" y1="479.6" y2="15"><stop offset="0" stop-color="#fd3a84"/><stop offset="1" stop-color="#ffa68d"/></linearGradient><linearGradient id="SVGID_2_" gradientUnits="userSpaceOnUse" x1="256" x2="256" y1="512" y2="0"><stop offset="0" stop-color="#ffc2cc"/><stop offset="1" stop-color="#fff2f4"/></linearGradient><g><g><g><path d="m436 122c-8.276 0-15-6.724-15-15v-92h-30v92c0 24.814 20.186 45 45 45 8.291 0 15-6.709 15-15s-6.709-15-15-15zm-120.3 13.799c-3.6-1.8-7.5-2.099-11.4-.599l-48.3 15.899-48.3-15.899c-3.9-1.5-7.8-1.201-11.4.599-45.901 22.5-75.3 70.201-75.3 121.201 0 52.8 35.099 103.5 71.4 141.599l-9.3 81h145.8l-9.3-81c36.301-38.099 71.4-88.799 71.4-141.599 0-51-29.399-98.701-75.3-121.201zm-59.7 196.201c-41.353 0-75-33.647-75-75s33.647-75 75-75 75 33.647 75 75-33.647 75-75 75z" fill="url(#SVGID_1_)"/></g></g><g><g><path d="m436 0h-360c-8.291 0-15 6.709-15 15s6.709 15 15 15h75v107c0 6.46 4.131 12.188 10.254 14.224l90 30c3.085 1.028 6.371 1.041 9.492 0l90-30c6.123-2.036 10.254-7.764 10.254-14.224v-107h75c8.291 0 15-6.709 15-15s-6.709-15-15-15zm-116.4 398.599c-16.309 18.535-50.607 48.416-54.6 50.4-5.138 3.998-12.863 3.997-17.999 0-3.993-1.984-38.292-31.865-54.6-50.4-38.101 8.401-71.401 25.501-71.401 53.401 0 39.3 67.8 60 135 60s135-20.7 135-60c0-27.9-33.3-45-71.4-53.401z" fill="url(#SVGID_2_)"/></g></g></g></svg>