<svg width="19" height="18" viewBox="0 0 19 18" fill="none" xmlns="http://www.w3.org/2000/svg">
<path d="M3.1665 10.35C3.1665 8.85011 3.1665 8.10016 3.54847 7.57443C3.67183 7.40464 3.82114 7.25533 3.99093 7.13197C4.51666 6.75 5.26661 6.75 6.7665 6.75H12.2332C13.7331 6.75 14.483 6.75 15.0087 7.13197C15.1785 7.25533 15.3278 7.40464 15.4512 7.57443C15.8332 8.10016 15.8332 8.85011 15.8332 10.35V10.35C15.8332 12.5998 15.8332 13.7248 15.2602 14.5134C15.0752 14.768 14.8512 14.992 14.5965 15.1771C13.8079 15.75 12.683 15.75 10.4332 15.75H8.56651C6.31667 15.75 5.19174 15.75 4.40315 15.1771C4.14846 14.992 3.92449 14.768 3.73945 14.5134C3.1665 13.7248 3.1665 12.5998 3.1665 10.35V10.35Z" stroke="white" stroke-width="2"/>
<path d="M12.6663 6V5.41667C12.6663 3.66776 11.2486 2.25 9.49967 2.25V2.25C7.75077 2.25 6.33301 3.66776 6.33301 5.41667V6" stroke="white" stroke-width="2" stroke-linecap="round"/>
<ellipse cx="9.49984" cy="11.25" rx="1.58333" ry="1.5" fill="white"/>
</svg>
