<svg width="168" height="124" viewBox="0 0 168 124" fill="none" xmlns="http://www.w3.org/2000/svg">
<path d="M155.516 0H11.9836C5.35621 0 0 5.37258 0 12V111.5C0 118.127 5.37258 123.5 12 123.5H116C122.627 123.5 128 118.127 128 111.5V97.5C128 90.8726 133.373 85.5 140 85.5H155.5C162.127 85.5 167.5 80.1274 167.5 73.5V12C167.5 5.37258 162.143 0 155.516 0Z" fill="white"/>
<path d="M151.5 92C142.677 92 135.5 99.1773 135.5 108C135.5 116.823 142.677 124 151.5 124C160.323 124 167.5 116.823 167.5 108C167.5 99.1773 160.323 92 151.5 92Z" fill="white"/>
<path d="M149.707 113.707L154.707 108.707C155.098 108.316 155.098 107.684 154.707 107.293L149.707 102.293C149.316 101.902 148.684 101.902 148.293 102.293C147.902 102.684 147.902 103.316 148.293 103.707L152.586 108L148.293 112.293C147.902 112.684 147.902 113.316 148.293 113.707C148.488 113.902 148.744 114 149 114C149.256 114 149.512 113.902 149.707 113.707Z" fill="#3060CF"/>
</svg>
