<svg width="43" height="44" viewBox="0 0 43 44" fill="none" xmlns="http://www.w3.org/2000/svg">
<g filter="url(#filter0_di_118_552)">
<g clip-path="url(#clip0_118_552)">
<path d="M17.08 22.89L22.85 18.82C23.41 18.42 23.41 17.58 22.85 17.19L17.08 13.11C16.41 12.65 15.5 13.12 15.5 13.93V22.07C15.5 22.88 16.41 23.35 17.08 22.89ZM25.5 13V23C25.5 23.55 25.95 24 26.5 24C27.05 24 27.5 23.55 27.5 23V13C27.5 12.45 27.05 12 26.5 12C25.95 12 25.5 12.45 25.5 13Z" fill="#F8F9FF"/>
</g>
</g>
<defs>
<filter id="filter0_di_118_552" x="0" y="-0.5" width="43" height="44" filterUnits="userSpaceOnUse" color-interpolation-filters="sRGB">
<feFlood flood-opacity="0" result="BackgroundImageFix"/>
<feColorMatrix in="SourceAlpha" type="matrix" values="0 0 0 0 0 0 0 0 0 0 0 0 0 0 0 0 0 0 127 0" result="hardAlpha"/>
<feOffset dy="4"/>
<feGaussianBlur stdDeviation="2"/>
<feComposite in2="hardAlpha" operator="out"/>
<feColorMatrix type="matrix" values="0 0 0 0 0 0 0 0 0 0 0 0 0 0 0 0 0 0 0.25 0"/>
<feBlend mode="normal" in2="BackgroundImageFix" result="effect1_dropShadow_118_552"/>
<feBlend mode="normal" in="SourceGraphic" in2="effect1_dropShadow_118_552" result="shape"/>
<feColorMatrix in="SourceAlpha" type="matrix" values="0 0 0 0 0 0 0 0 0 0 0 0 0 0 0 0 0 0 127 0" result="hardAlpha"/>
<feOffset dx="2" dy="-1"/>
<feGaussianBlur stdDeviation="1"/>
<feComposite in2="hardAlpha" operator="arithmetic" k2="-1" k3="1"/>
<feColorMatrix type="matrix" values="0 0 0 0 0.604167 0 0 0 0 0.604167 0 0 0 0 0.604167 0 0 0 0.3 0"/>
<feBlend mode="normal" in2="shape" result="effect2_innerShadow_118_552"/>
</filter>
<clipPath id="clip0_118_552">
<rect x="4" y="0.5" width="35" height="35" rx="17.5" fill="white"/>
</clipPath>
</defs>
</svg>
