<svg width="60" height="60" viewBox="0 0 60 60" fill="none" xmlns="http://www.w3.org/2000/svg">
<rect width="60" height="60" rx="12" fill="#93D3E6"/>
<path d="M32.1635 23.4113H25.7135C25.1008 23.4113 24.6035 22.914 24.6035 22.3012V20.61C24.6035 19.9973 25.1008 19.5 25.7135 19.5H32.1635C32.7763 19.5 33.2735 19.9973 33.2735 20.61V22.3012C33.2735 22.9148 32.7763 23.4113 32.1635 23.4113Z" fill="white"/>
<path d="M39.6209 31.4921C38.9309 30.8021 37.8059 30.8021 37.1159 31.4921L36.2969 32.3156L38.8034 34.8214L39.6209 34.0039C40.3184 33.3071 40.3184 32.1896 39.6209 31.4921Z" fill="white"/>
<path d="M35.5038 33.1123L31.1313 37.4773C31.0413 37.5748 30.9813 37.6948 30.9588 37.8223L30.6288 39.7648C30.5538 40.1923 30.9288 40.5598 31.3563 40.4923L33.2988 40.1623C33.4263 40.1398 33.5463 40.0798 33.6363 39.9898L38.0088 35.6173L35.5038 33.1123Z" fill="white"/>
<path d="M35.3316 21.457H34.3978V22.3008C34.3978 23.533 33.3951 24.5358 32.1628 24.5358H25.7128C24.4798 24.5358 23.4778 23.533 23.4778 22.3008V21.457H22.5291C21.0516 21.457 19.8516 22.657 19.8516 24.1345V37.822C19.8516 39.2995 21.0516 40.4995 22.5291 40.4995H29.6218C29.5078 40.2063 29.4651 39.8883 29.5206 39.571L29.8498 37.6338C29.9083 37.2903 30.0658 36.973 30.3028 36.7143L35.0766 31.9473L36.3178 30.6993C36.7791 30.2373 37.3708 29.9635 38.0076 29.8848V24.142C38.0091 22.6495 36.8166 21.457 35.3316 21.457ZM27.7701 32.5818H24.5158C24.1431 32.5818 23.8408 32.2795 23.8408 31.9068C23.8408 31.534 24.1431 31.2318 24.5158 31.2318H27.7701C28.1428 31.2318 28.4451 31.534 28.4451 31.9068C28.4451 32.2795 28.1428 32.5818 27.7701 32.5818ZM31.7541 28.7508H24.5166C24.1438 28.7508 23.8416 28.4485 23.8416 28.0758C23.8416 27.703 24.1438 27.4008 24.5166 27.4008H31.7541C32.1268 27.4008 32.4291 27.703 32.4291 28.0758C32.4291 28.4485 32.1268 28.7508 31.7541 28.7508Z" fill="white"/>
</svg>
