<svg width="43" height="44" viewBox="0 0 43 44" fill="none" xmlns="http://www.w3.org/2000/svg">
<g filter="url(#filter0_di_118_547)">
<g clip-path="url(#clip0_118_547)">
<path d="M25.92 22.89L20.15 18.82C19.59 18.42 19.59 17.58 20.15 17.19L25.92 13.11C26.59 12.65 27.5 13.12 27.5 13.93V22.07C27.5 22.88 26.59 23.35 25.92 22.89ZM17.5 13V23C17.5 23.55 17.05 24 16.5 24C15.95 24 15.5 23.55 15.5 23V13C15.5 12.45 15.95 12 16.5 12C17.05 12 17.5 12.45 17.5 13Z" fill="#F8F9FF"/>
</g>
</g>
<defs>
<filter id="filter0_di_118_547" x="0" y="-0.5" width="43" height="44" filterUnits="userSpaceOnUse" color-interpolation-filters="sRGB">
<feFlood flood-opacity="0" result="BackgroundImageFix"/>
<feColorMatrix in="SourceAlpha" type="matrix" values="0 0 0 0 0 0 0 0 0 0 0 0 0 0 0 0 0 0 127 0" result="hardAlpha"/>
<feOffset dy="4"/>
<feGaussianBlur stdDeviation="2"/>
<feComposite in2="hardAlpha" operator="out"/>
<feColorMatrix type="matrix" values="0 0 0 0 0 0 0 0 0 0 0 0 0 0 0 0 0 0 0.25 0"/>
<feBlend mode="normal" in2="BackgroundImageFix" result="effect1_dropShadow_118_547"/>
<feBlend mode="normal" in="SourceGraphic" in2="effect1_dropShadow_118_547" result="shape"/>
<feColorMatrix in="SourceAlpha" type="matrix" values="0 0 0 0 0 0 0 0 0 0 0 0 0 0 0 0 0 0 127 0" result="hardAlpha"/>
<feOffset dx="2" dy="-1"/>
<feGaussianBlur stdDeviation="1"/>
<feComposite in2="hardAlpha" operator="arithmetic" k2="-1" k3="1"/>
<feColorMatrix type="matrix" values="0 0 0 0 0.604167 0 0 0 0 0.604167 0 0 0 0 0.604167 0 0 0 0.3 0"/>
<feBlend mode="normal" in2="shape" result="effect2_innerShadow_118_547"/>
</filter>
<clipPath id="clip0_118_547">
<rect width="35" height="35" rx="17.5" transform="matrix(-1 0 0 1 39 0.5)" fill="white"/>
</clipPath>
</defs>
</svg>
