<svg width="16" height="16" viewBox="0 0 16 16" fill="none" xmlns="http://www.w3.org/2000/svg">
<g clip-path="url(#clip0_114_1507)">
<path d="M3.2001 1.59998H1.6001V3.19998H3.2001V1.59998Z" fill="#03163E"/>
<path d="M11.1999 0V0.8H10.3999V1.6H11.1999V4.8H11.9999V5.6H11.1999V6.4H11.9999H12.7999V4.8H15.1999V5.6H15.9999V4.8V0H11.1999ZM15.1999 4H11.9999V0.8H15.1999V4Z" fill="#03163E"/>
<path d="M14.4 1.59998H12.8V3.19998H14.4V1.59998Z" fill="#03163E"/>
<path d="M3.2001 12.8H1.6001V14.4H3.2001V12.8Z" fill="#03163E"/>
<path d="M12 11.2H11.2V12H12V11.2Z" fill="#03163E"/>
<path d="M7.99995 15.2H7.19995V16H7.99995V15.2Z" fill="#03163E"/>
<path d="M8.8 12H8V12.8H8.8V12Z" fill="#03163E"/>
<path d="M8.8 13.6H8V14.4H8.8V13.6Z" fill="#03163E"/>
<path d="M16 9.59998H15.2V10.4H16V9.59998Z" fill="#03163E"/>
<path d="M0.8 9.59998H0V10.4H0.8V9.59998Z" fill="#03163E"/>
<path d="M0.8 5.59998H0V6.39998H0.8V5.59998Z" fill="#03163E"/>
<path d="M8.79995 0.799988V1.59999H7.19995V2.39999H9.59995V1.59999V0.799988H8.79995Z" fill="#03163E"/>
<path d="M15.2001 6.40002V7.20002H13.6001V8.00002H11.2001V7.20002H10.4001V8.00002H8.8001V8.80002H11.2001V9.60002H9.6001H8.8001V8.80002H8.0001V9.60002H7.2001V8.80002H6.4001V9.60002H5.6001V10.4H7.2001V11.2H8.0001V10.4H9.6001V11.2H8.8001V12H9.6001V13.6H10.4001V14.4H11.2001V13.6H13.6001V12H14.4001V11.2H13.6001V9.60002H12.0001V8.80002H13.6001V9.60002H14.4001V8.80002H15.2001V8.00002H16.0001V7.20002V6.40002H15.2001ZM12.8001 10.4V12.8H10.4001V10.4H12.8001Z" fill="#03163E"/>
<path d="M10.4 4.79999H9.60005V5.59999H8.80005V6.39999V7.19999H9.60005V6.39999H10.4V5.59999H11.2V4.79999H10.4Z" fill="#03163E"/>
<path d="M10.4 15.2H8.80005V16H10.4V15.2Z" fill="#03163E"/>
<path d="M7.1999 0.799988H6.3999V1.59999H7.1999V0.799988Z" fill="#03163E"/>
<path d="M13.6 6.40002H12.8V7.20002H13.6V6.40002Z" fill="#03163E"/>
<path d="M14.4001 5.59998H13.6001V6.39998H14.4001V5.59998Z" fill="#03163E"/>
<path d="M3.99995 9.59998H3.19995V10.4H3.99995V9.59998Z" fill="#03163E"/>
<path d="M4.8 15.2V12H5.6V11.2V10.4H4.8V11.2H2.4V10.4H1.6H0.8V11.2H0V16H4.8H6.4V15.2H4.8ZM4 15.2H0.8V12H4V15.2Z" fill="#03163E"/>
<path d="M5.60005 4.79999H4.80005V5.59999H5.60005V4.79999Z" fill="#03163E"/>
<path d="M5.6 0H4.8H0V4.8H0.8V5.6H1.6V4.8H2.4V5.6H3.2V4.8H4.8V3.2H5.6V2.4H4.8V0.8H5.6H6.4V0H5.6ZM4 4H0.8V0.8H4V4Z" fill="#03163E"/>
<path d="M10.4001 2.40002H9.6001V3.20002H10.4001V2.40002Z" fill="#03163E"/>
<path d="M8.8 0H8V0.8H8.8V0Z" fill="#03163E"/>
<path d="M9.6 4.80001V4.00001H8.8V3.20001H8V4.00001H6.4V3.20001H5.6V4.00001V4.80001H6.4V6.40001H4V5.60001H3.2V6.40001H0.8V7.20001H2.4V8.00001H0V8.80001H2.4V9.60001H3.2V8.80001H4V9.60001H4.8V8.80001H6.4V8.00001H5.6V7.20001H6.4H7.2V8.00001H8H8.8V7.20001H8V6.40001H7.2V4.80001H9.6ZM4.8 8.00001H3.2V7.20001H4.8V8.00001Z" fill="#03163E"/>
<path d="M7.2001 12.8V12V11.2H6.4001V12H5.6001V12.8H6.4001V13.6H5.6001V14.4H7.2001V13.6H8.0001V12.8H7.2001Z" fill="#03163E"/>
<path d="M14.4 14.4V13.6H13.6V14.4H11.2V15.2H12.8V16H13.6V15.2H15.2V16H16V15.2V14.4H14.4Z" fill="#03163E"/>
<path d="M15.1999 11.2V12H14.3999V12.8H15.9999V12V11.2H15.1999Z" fill="#03163E"/>
</g>
<defs>
<clipPath id="clip0_114_1507">
<rect width="16" height="16" fill="white"/>
</clipPath>
</defs>
</svg>
