<svg width="253" height="253" viewBox="0 0 253 253" fill="none" xmlns="http://www.w3.org/2000/svg">
<path fill-rule="evenodd" clip-rule="evenodd" d="M13.5525 13.504V33.6625C13.5525 36.5014 11.5264 38.8242 9.04997 38.8242H4.54745C2.07106 38.8242 0.0449219 36.5014 0.0449219 33.6625V5.27304C0.0449219 5.22203 0.045576 5.17119 0.046875 5.12053V4.50132C0.046875 2.84453 1.08712 1.38933 2.62617 0.607895C2.91814 0.44866 3.22716 0.324452 3.54902 0.240086C4.07042 0.0845035 4.62874 0 5.20859 0H33.598C36.437 0 38.7597 2.02559 38.7597 4.50132V9.00264C38.7597 11.4784 36.437 13.504 33.598 13.504H13.5525ZM213.474 9.00264V4.50132C213.474 2.02559 215.797 0 218.636 0H247.026C247.63 0 248.212 0.0919045 248.752 0.260488C249.016 0.334887 249.271 0.436158 249.515 0.561598C251.105 1.33092 252.187 2.81123 252.187 4.50132V9.00264C252.187 9.04336 252.187 9.08395 252.185 9.12442V33.6636C252.185 36.5026 250.159 38.8254 247.683 38.8254H243.18C240.704 38.8254 238.678 36.5026 238.678 33.6636V13.504H218.636C215.797 13.504 213.474 11.4784 213.474 9.00264ZM243.417 213.474H247.919C250.396 213.474 252.422 215.797 252.422 218.635V247.025C252.422 248.046 252.159 249.001 251.708 249.805C251.522 250.152 251.287 250.476 251.011 250.769C250.62 251.194 250.162 251.54 249.659 251.784C248.887 252.186 247.986 252.418 247.026 252.418H218.636C215.797 252.418 213.474 250.392 213.474 247.916V243.415C213.474 240.939 215.797 238.914 218.636 238.914H238.914V218.635C238.914 215.771 240.94 213.474 243.417 213.474ZM38.7128 243.184V247.685C38.7128 250.161 36.3901 252.187 33.5511 252.187H9.02703C9.01971 252.187 9.01238 252.187 9.00505 252.187H4.50252C3.31095 252.187 2.22363 251.649 1.41611 250.774C0.539433 249.967 0 248.878 0 247.685V247.025V243.184V218.635C0 215.796 2.02614 213.474 4.50252 213.474H9.00505C11.4814 213.474 13.5076 215.796 13.5076 218.635V238.683H33.5511C36.3901 238.683 38.7128 240.686 38.7128 243.184Z" fill="#00B7F0"/>
</svg>
