<svg width="60" height="61" viewBox="0 0 60 61" fill="none" xmlns="http://www.w3.org/2000/svg">
<g clip-path="url(#clip0_4415_2705)">
<path d="M47.6896 21.8613H31.0432C24.2443 21.8613 18.7327 27.3729 18.7327 34.1719V42.9041C18.7327 49.703 24.2442 55.2146 31.0432 55.2146H40.5976C40.7672 55.2146 40.9202 55.3082 41.0054 55.4549C42.381 57.8241 45.2441 59.5121 49.0045 60.484C49.4695 60.6041 49.7816 60.0252 49.4343 59.6937C48.0295 58.3527 47.3395 57.0278 47.2236 55.7303C47.1989 55.4542 47.4124 55.2146 47.6897 55.2146C54.4886 55.2146 60.0002 49.7031 60.0002 42.9041V34.172C60.0001 27.3729 54.4884 21.8613 47.6896 21.8613Z" fill="url(#paint0_linear_4415_2705)"/>
<path d="M47.6904 21.8613H36.6465V55.2145H40.5984C40.768 55.2145 40.921 55.308 41.0062 55.4548C42.3818 57.8239 45.2449 59.512 49.0053 60.4839C49.4703 60.604 49.7824 60.0251 49.435 59.6936C48.0303 58.3526 47.3403 57.0277 47.2244 55.7302C47.1997 55.4541 47.4132 55.2145 47.6905 55.2145C54.4895 55.2145 60.001 49.7028 60.001 42.904V34.1719C60.0009 27.3729 54.4892 21.8613 47.6904 21.8613Z" fill="url(#paint1_linear_4415_2705)"/>
<path d="M60 34.374V42.9041C60 49.703 54.4884 55.2146 47.6895 55.2146C47.4122 55.2146 47.1988 55.4542 47.2234 55.7303C47.3394 57.0277 48.0293 58.3527 49.434 59.6937C49.7814 60.0253 49.4693 60.6042 49.0043 60.484C45.244 59.5121 42.3807 57.8241 41.0052 55.4549C40.9201 55.3083 40.767 55.2146 40.5974 55.2146H31.043C24.2441 55.2146 18.7324 49.7031 18.7324 42.9041V34.374H60Z" fill="url(#paint2_linear_4415_2705)"/>
<path d="M15.4118 0.5H36.2517C44.7634 0.5 51.6635 7.40012 51.6635 15.9118V26.8438C51.6635 35.3554 44.7634 42.2556 36.2517 42.2556H24.2903C24.078 42.2556 23.8863 42.3727 23.7798 42.5563C22.0579 45.5224 18.4733 47.6357 13.7657 48.8524C13.1836 49.0029 12.7928 48.278 13.2277 47.863C14.9863 46.1841 15.8501 44.5255 15.9953 42.9011C16.0262 42.5554 15.7589 42.2557 15.4118 42.2557C6.90012 42.2556 0 35.3554 0 26.8438V15.9118C0 7.40012 6.90012 0.5 15.4118 0.5Z" fill="url(#paint3_linear_4415_2705)"/>
<path d="M36.2522 0.5H23.5254V42.9603C23.6129 42.8268 23.7007 42.6934 23.7803 42.5563C23.8868 42.3726 24.0785 42.2556 24.2907 42.2556H36.2522C44.7639 42.2556 51.664 35.3554 51.664 26.8438V15.9118C51.664 7.40012 44.7639 0.5 36.2522 0.5Z" fill="url(#paint4_linear_4415_2705)"/>
<path d="M0 16.165V26.844C0 35.3557 6.90012 42.2558 15.4118 42.2558C15.7589 42.2558 16.0261 42.5557 15.9953 42.9014C15.8501 44.5257 14.9863 46.1844 13.2277 47.8632C12.7928 48.2784 13.1836 49.0031 13.7657 48.8526C18.4733 47.636 22.0579 45.5226 23.7798 42.5565C23.8863 42.3729 24.078 42.2558 24.2903 42.2558H36.2517C44.7634 42.2558 51.6635 35.3557 51.6635 26.844V16.165H0Z" fill="url(#paint5_linear_4415_2705)"/>
<path d="M47.6893 21.8613H31.043C24.2441 21.8613 18.7324 27.3729 18.7324 34.1719V42.9041C18.7324 44.2262 18.9417 45.4993 19.3275 46.693C21.2992 45.5807 22.8257 44.1996 23.7797 42.5564C23.8862 42.3728 24.0779 42.2557 24.2902 42.2557H36.2516C44.7633 42.2557 51.6634 35.3556 51.6634 26.8439V22.5172C50.4166 22.0922 49.08 21.8613 47.6893 21.8613Z" fill="url(#paint6_linear_4415_2705)"/>
<path d="M15.1568 8.73096L6.99609 24.5058L24.7458 42.2555H36.252C39.7474 42.2555 42.9704 41.0911 45.5561 39.1301L15.1568 8.73096Z" fill="url(#paint7_linear_4415_2705)"/>
<path d="M11.0009 26.1596C9.43223 26.1596 8.09781 25.6084 6.99543 24.5059C5.89305 23.4035 5.3418 22.0933 5.3418 20.5739C5.3418 20.3787 5.37848 20.1215 5.45207 19.8022C5.52555 19.4841 5.7093 18.933 6.00332 18.1486C6.29723 17.3655 6.74969 16.2378 7.36293 14.7679C7.975 13.2979 8.82016 11.3135 9.89852 8.81475C10.1431 8.27615 10.4739 7.92131 10.8907 7.74904C11.3064 7.57795 11.7107 7.4917 12.1034 7.4917C12.8866 7.4917 13.695 7.73744 14.5288 8.2267C15.3614 8.71701 15.7783 9.42787 15.7783 10.3581C15.7783 10.7509 15.6795 11.1424 15.4843 11.5341L13.6469 15.5029C14.5288 16.0426 15.2385 16.7408 15.7783 17.5975C16.3169 18.4553 16.5866 19.4234 16.5866 20.5006C16.5866 22.0692 16.0469 23.4037 14.9698 24.506C13.8913 25.6083 12.5684 26.1596 11.0009 26.1596ZM25.7001 26.1596C24.1314 26.1596 22.797 25.6084 21.6945 24.5059C20.5921 23.4035 20.0409 22.0933 20.0409 20.5739C20.0409 20.3787 20.0777 20.1215 20.1511 19.8022C20.2246 19.4841 20.4084 18.933 20.7023 18.1486C20.9963 17.3655 21.4488 16.2378 22.0619 14.7679C22.6739 13.2979 23.5192 11.3135 24.5976 8.81475C24.8421 8.27615 25.1729 7.92131 25.5897 7.74904C26.0055 7.57795 26.4096 7.4917 26.8025 7.4917C27.5856 7.4917 28.3941 7.73744 29.2279 8.2267C30.0604 8.71701 30.4772 9.42787 30.4772 10.3581C30.4772 10.7509 30.3786 11.1424 30.1833 11.5341L28.3459 15.5029C29.2279 16.0426 29.9376 16.7408 30.4773 17.5975C31.0159 18.4553 31.2858 19.4234 31.2858 20.5006C31.2858 22.0692 30.7461 23.4037 29.669 24.506C28.5905 25.6083 27.2676 26.1596 25.7001 26.1596Z" fill="url(#paint8_linear_4415_2705)"/>
<path d="M42.8526 24.5308C43.8138 24.5308 44.6314 24.8685 45.3069 25.544C45.9823 26.2194 46.3201 27.0223 46.3201 27.9531C46.3201 28.0728 46.2976 28.2304 46.2526 28.426C46.2076 28.6208 46.095 28.9586 45.9148 29.4392C45.7347 29.919 45.4575 30.61 45.0818 31.5107C44.7068 32.4114 44.1889 33.6272 43.5282 35.1583C43.3783 35.4883 43.1757 35.7056 42.9202 35.8112C42.6656 35.9161 42.4178 35.9688 42.1773 35.9688C41.6974 35.9688 41.202 35.8183 40.6912 35.5185C40.1811 35.218 39.9256 34.7824 39.9256 34.2126C39.9256 33.9719 39.9861 33.732 40.1057 33.4921L41.2316 31.0603C40.6912 30.7296 40.2563 30.3018 39.9256 29.777C39.5956 29.2514 39.4303 28.6582 39.4303 27.9982C39.4303 27.037 39.761 26.2194 40.421 25.544C41.0817 24.8685 41.8923 24.5308 42.8526 24.5308ZM33.8463 24.5308C34.8075 24.5308 35.6251 24.8685 36.3005 25.544C36.976 26.2194 37.3138 27.0223 37.3138 27.9531C37.3138 28.0728 37.2912 28.2304 37.2461 28.426C37.2011 28.6208 37.0885 28.9586 36.9084 29.4392C36.7283 29.919 36.451 30.61 36.0753 31.5107C35.7003 32.4114 35.1823 33.6272 34.5216 35.1583C34.3718 35.4883 34.1691 35.7056 33.9138 35.8112C33.659 35.9161 33.4114 35.9688 33.1707 35.9688C32.6908 35.9688 32.1955 35.8183 31.6846 35.5185C31.1745 35.218 30.9192 34.7824 30.9192 34.2126C30.9192 33.9719 30.9796 33.732 31.0993 33.4921L32.2251 31.0603C31.6848 30.7296 31.2499 30.3018 30.9192 29.777C30.5892 29.2514 30.4238 28.6582 30.4238 27.9982C30.4238 27.037 30.7545 26.2194 31.4145 25.544C32.0752 24.8685 32.8858 24.5308 33.8463 24.5308Z" fill="url(#paint9_linear_4415_2705)"/>
<path d="M51.3013 30.1763L29.856 8.73096L21.6953 24.5058L39.1682 41.9787C45.2015 40.8231 49.9843 36.1505 51.3013 30.1763Z" fill="url(#paint10_linear_4415_2705)"/>
<path d="M25.7001 26.1596C24.1314 26.1596 22.797 25.6084 21.6946 24.5059C20.5923 23.4035 20.041 22.0933 20.041 20.5739C20.041 20.3787 20.0777 20.1215 20.1513 19.8022C20.2248 19.4841 20.4085 18.933 20.7025 18.1486C20.9964 17.3655 21.4489 16.2378 22.0621 14.7679C22.6742 13.2979 23.5194 11.3135 24.5977 8.81475C24.8423 8.27615 25.1731 7.92131 25.59 7.74904C26.0056 7.57795 26.4099 7.4917 26.8026 7.4917C27.5858 7.4917 28.3943 7.73744 29.228 8.2267C30.0607 8.71701 30.4775 9.42787 30.4775 10.3581C30.4775 10.7509 30.3787 11.1424 30.1835 11.5341L28.3461 15.5029C29.228 16.0426 29.9377 16.7408 30.4775 17.5975C31.0161 18.4553 31.2859 19.4234 31.2859 20.5006C31.2859 22.0692 30.7461 23.4037 29.669 24.506C28.5907 25.6083 27.2677 26.1596 25.7001 26.1596Z" fill="url(#paint11_linear_4415_2705)"/>
</g>
<defs>
<linearGradient id="paint0_linear_4415_2705" x1="33.8166" y1="25.9869" x2="46.8288" y2="55.4145" gradientUnits="userSpaceOnUse">
<stop stop-color="#B3DAFE"/>
<stop offset="1" stop-color="#0182FC"/>
</linearGradient>
<linearGradient id="paint1_linear_4415_2705" x1="51.8608" y1="41.1806" x2="59.8733" y2="41.1806" gradientUnits="userSpaceOnUse">
<stop stop-color="#314DC9" stop-opacity="0"/>
<stop offset="0.2761" stop-color="#304BC4" stop-opacity="0.276"/>
<stop offset="0.5628" stop-color="#2B45B8" stop-opacity="0.563"/>
<stop offset="0.8535" stop-color="#243BA3" stop-opacity="0.854"/>
<stop offset="1" stop-color="#1F3596"/>
</linearGradient>
<linearGradient id="paint2_linear_4415_2705" x1="39.3663" y1="46.01" x2="39.3663" y2="56.4919" gradientUnits="userSpaceOnUse">
<stop stop-color="#314DC9" stop-opacity="0"/>
<stop offset="0.2761" stop-color="#304BC4" stop-opacity="0.276"/>
<stop offset="0.5628" stop-color="#2B45B8" stop-opacity="0.563"/>
<stop offset="0.8535" stop-color="#243BA3" stop-opacity="0.854"/>
<stop offset="1" stop-color="#1F3596"/>
</linearGradient>
<linearGradient id="paint3_linear_4415_2705" x1="16.6665" y1="3.0473" x2="33.1341" y2="35.9823" gradientUnits="userSpaceOnUse">
<stop stop-color="#FEF0AE"/>
<stop offset="1" stop-color="#FAC600"/>
</linearGradient>
<linearGradient id="paint4_linear_4415_2705" x1="41.7347" y1="21.7302" x2="51.7652" y2="21.7302" gradientUnits="userSpaceOnUse">
<stop stop-color="#FE9738" stop-opacity="0"/>
<stop offset="1" stop-color="#FE9738"/>
</linearGradient>
<linearGradient id="paint5_linear_4415_2705" x1="25.8318" y1="30.7324" x2="25.8318" y2="43.8547" gradientUnits="userSpaceOnUse">
<stop stop-color="#FE9738" stop-opacity="0"/>
<stop offset="1" stop-color="#FE9738"/>
</linearGradient>
<linearGradient id="paint6_linear_4415_2705" x1="18.0526" y1="21.4225" x2="54.3088" y2="48.8235" gradientUnits="userSpaceOnUse">
<stop stop-color="#314DC9" stop-opacity="0"/>
<stop offset="0.2761" stop-color="#304BC4" stop-opacity="0.276"/>
<stop offset="0.5628" stop-color="#2B45B8" stop-opacity="0.563"/>
<stop offset="0.8535" stop-color="#243BA3" stop-opacity="0.854"/>
<stop offset="1" stop-color="#1F3596"/>
</linearGradient>
<linearGradient id="paint7_linear_4415_2705" x1="20.6914" y1="25.8372" x2="6.34605" y2="19.1697" gradientUnits="userSpaceOnUse">
<stop stop-color="#FE9738" stop-opacity="0"/>
<stop offset="1" stop-color="#FE9738"/>
</linearGradient>
<linearGradient id="paint8_linear_4415_2705" x1="14.6334" y1="10.1002" x2="21.4727" y2="22.1242" gradientUnits="userSpaceOnUse">
<stop stop-color="#F5FBFF"/>
<stop offset="1" stop-color="#D8ECFE"/>
</linearGradient>
<linearGradient id="paint9_linear_4415_2705" x1="36.7142" y1="25.1397" x2="39.7217" y2="34.2872" gradientUnits="userSpaceOnUse">
<stop stop-color="#F5FBFF"/>
<stop offset="1" stop-color="#D8ECFE"/>
</linearGradient>
<linearGradient id="paint10_linear_4415_2705" x1="32.1189" y1="24.2425" x2="21.7953" y2="19.4441" gradientUnits="userSpaceOnUse">
<stop stop-color="#FE9738" stop-opacity="0"/>
<stop offset="1" stop-color="#FE9738"/>
</linearGradient>
<linearGradient id="paint11_linear_4415_2705" x1="23.197" y1="12.2344" x2="27.9727" y2="20.6305" gradientUnits="userSpaceOnUse">
<stop stop-color="#F5FBFF"/>
<stop offset="1" stop-color="#D8ECFE"/>
</linearGradient>
<clipPath id="clip0_4415_2705">
<rect width="60" height="60" fill="white" transform="translate(0 0.5)"/>
</clipPath>
</defs>
</svg>
