<svg width="24" height="24" viewBox="0 0 24 24" xmlns="http://www.w3.org/2000/svg">
<path d="M17.55 11.13C17.3392 11.341 17.0533 11.4597 16.755 11.46H15.165C14.8666 11.46 14.5805 11.3414 14.3695 11.1305C14.1585 10.9195 14.04 10.6333 14.04 10.335V8.74498C14.0403 8.44671 14.159 8.16075 14.37 7.94998L17.4225 4.88998L17.25 4.87498H3.75C3.25272 4.87498 2.77581 5.07252 2.42417 5.42415C2.07254 5.77578 1.875 6.25269 1.875 6.74998V16.5C1.875 16.9973 2.07254 17.4742 2.42417 17.8258C2.77581 18.1774 3.25272 18.375 3.75 18.375H4.1175L5.3025 20.4375C5.33413 20.4954 5.38077 20.5437 5.43752 20.5773C5.49426 20.611 5.55902 20.6288 5.625 20.6288C5.69098 20.6288 5.75574 20.611 5.81248 20.5773C5.86923 20.5437 5.91586 20.4954 5.9475 20.4375L7.1325 18.375H17.25C17.7473 18.375 18.2242 18.1774 18.5758 17.8258C18.9275 17.4742 19.125 16.9973 19.125 16.5V9.55498L17.55 11.13ZM5.25 8.24998H11.25C11.3495 8.24998 11.4448 8.28948 11.5152 8.35981C11.5855 8.43014 11.625 8.52552 11.625 8.62498C11.625 8.72443 11.5855 8.81981 11.5152 8.89014C11.4448 8.96047 11.3495 8.99998 11.25 8.99998H5.25C5.15054 8.99998 5.05516 8.96047 4.98484 8.89014C4.91451 8.81981 4.875 8.72443 4.875 8.62498C4.875 8.52552 4.91451 8.43014 4.98484 8.35981C5.05516 8.28948 5.15054 8.24998 5.25 8.24998ZM5.25 11.25H11.25C11.3495 11.25 11.4448 11.2895 11.5152 11.3598C11.5855 11.4301 11.625 11.5255 11.625 11.625C11.625 11.7244 11.5855 11.8198 11.5152 11.8901C11.4448 11.9605 11.3495 12 11.25 12H5.25C5.15054 12 5.05516 11.9605 4.98484 11.8901C4.91451 11.8198 4.875 11.7244 4.875 11.625C4.875 11.5255 4.91451 11.4301 4.98484 11.3598C5.05516 11.2895 5.15054 11.25 5.25 11.25ZM15.75 15H5.25C5.15054 15 5.05516 14.9605 4.98484 14.8901C4.91451 14.8198 4.875 14.7244 4.875 14.625C4.875 14.5255 4.91451 14.4301 4.98484 14.3598C5.05516 14.2895 5.15054 14.25 5.25 14.25H15.75C15.8495 14.25 15.9448 14.2895 16.0152 14.3598C16.0855 14.4301 16.125 14.5255 16.125 14.625C16.125 14.7244 16.0855 14.8198 16.0152 14.8901C15.9448 14.9605 15.8495 15 15.75 15ZM21.6825 3.81748C21.9619 4.09852 22.1187 4.4787 22.1187 4.87498C22.1187 5.27125 21.9619 5.65143 21.6825 5.93248L17.025 10.5975C16.9901 10.6337 16.9481 10.6624 16.9017 10.6817C16.8552 10.7011 16.8053 10.7107 16.755 10.71H15.165C15.0661 10.7081 14.9719 10.6679 14.902 10.598C14.832 10.5281 14.7919 10.4338 14.79 10.335V8.74498C14.7893 8.69467 14.7989 8.64474 14.8182 8.5983C14.8376 8.55186 14.8663 8.50988 14.9025 8.47498L19.5675 3.81748C19.8485 3.5381 20.2287 3.38129 20.625 3.38129C21.0213 3.38129 21.4015 3.5381 21.6825 3.81748Z"/>
</svg>
