<svg width="816" height="1139" viewBox="0 0 816 1139" fill="none" xmlns="http://www.w3.org/2000/svg">
<path d="M173.129 72.2585C180.302 72.2585 186.117 66.4451 186.117 59.2739C186.117 52.1027 180.302 46.2893 173.129 46.2893C165.957 46.2893 160.142 52.1027 160.142 59.2739C160.142 66.4451 165.957 72.2585 173.129 72.2585Z" fill="#FCE1A8"/>
<path d="M173.129 141.738C173.357 141.738 173.357 141.738 173.129 141.738C173.357 141.738 173.585 141.738 173.585 141.738H173.813C173.813 141.738 174.041 141.738 174.041 141.965C174.041 141.965 174.041 141.965 174.269 142.193V142.421V142.649V142.877C174.269 143.104 174.041 143.56 174.041 143.788C173.585 144.243 172.902 144.243 172.446 143.788C172.218 143.56 171.99 143.332 171.99 142.877C171.99 142.649 172.218 142.193 172.446 141.965C172.446 141.965 172.446 141.965 172.674 141.738H172.902C172.902 141.738 172.902 141.738 173.129 141.738Z" fill="#434345"/>
<path d="M173.129 85.2432C172.446 85.2432 171.99 85.6988 171.99 86.3822C171.99 87.0656 172.446 87.5212 173.129 87.5212C173.813 87.5212 174.269 87.0656 174.269 86.3822C174.497 85.9266 173.813 85.2432 173.129 85.2432ZM173.129 90.027C172.446 90.027 171.99 90.4826 171.99 91.166C171.99 91.8494 172.446 92.305 173.129 92.305C173.813 92.305 174.269 91.8494 174.269 91.166C174.497 90.4826 173.813 90.027 173.129 90.027ZM173.129 94.8108C172.446 94.8108 171.99 95.2664 171.99 95.9498C171.99 96.6332 172.446 97.0888 173.129 97.0888C173.813 97.0888 174.269 96.6332 174.269 95.9498C174.497 95.2664 173.813 94.8108 173.129 94.8108ZM173.129 99.3668C172.446 99.3668 171.99 99.8224 171.99 100.506C171.99 101.189 172.446 101.645 173.129 101.645C173.813 101.645 174.269 101.189 174.269 100.506C174.497 100.05 173.813 99.3668 173.129 99.3668ZM173.129 104.151C172.446 104.151 171.99 104.606 171.99 105.29C171.99 105.973 172.446 106.429 173.129 106.429C173.813 106.429 174.269 105.973 174.269 105.29C174.497 104.606 173.813 104.151 173.129 104.151ZM173.129 108.707C172.446 108.707 171.99 109.162 171.99 109.846C171.99 110.529 172.446 110.985 173.129 110.985C173.813 110.985 174.269 110.529 174.269 109.846C174.497 109.39 173.813 108.707 173.129 108.707ZM173.129 113.49C172.446 113.49 171.99 113.946 171.99 114.629C171.99 115.313 172.446 115.768 173.129 115.768C173.813 115.768 174.269 115.313 174.269 114.629C174.497 113.946 173.813 113.49 173.129 113.49ZM173.129 118.274C172.446 118.274 171.99 118.73 171.99 119.413C171.99 120.097 172.446 120.552 173.129 120.552C173.813 120.552 174.269 120.097 174.269 119.413C174.269 118.73 173.813 118.274 173.129 118.274ZM173.129 122.83C172.446 122.83 171.99 123.286 171.99 123.969C171.99 124.653 172.446 125.108 173.129 125.108C173.813 125.108 174.269 124.653 174.269 123.969C174.497 123.514 173.813 122.83 173.129 122.83ZM173.129 127.614C172.446 127.614 171.99 128.07 171.99 128.753C171.99 129.436 172.446 129.892 173.129 129.892C173.813 129.892 174.269 129.436 174.269 128.753C174.497 128.07 173.813 127.614 173.129 127.614ZM173.129 132.17C172.446 132.17 171.99 132.626 171.99 133.309C171.99 133.992 172.446 134.448 173.129 134.448C173.813 134.448 174.269 133.992 174.269 133.309C174.269 132.626 173.813 132.17 173.129 132.17ZM173.129 136.954C172.446 136.954 171.99 137.409 171.99 138.093C171.99 138.776 172.446 139.232 173.129 139.232C173.813 139.232 174.269 138.776 174.269 138.093C174.497 137.409 173.813 136.954 173.129 136.954Z" fill="white" fill-opacity="0.8"/>
<path d="M173.129 80.6871C173.357 80.6871 173.357 80.6871 173.585 80.6871C173.813 80.6871 173.813 80.9149 174.041 80.9149C174.269 81.1427 174.269 81.3705 174.269 81.8261V82.0539V82.2817V82.5095C174.269 82.5095 174.269 82.7373 174.041 82.7373C173.813 82.9651 173.357 83.1929 172.902 82.9651H172.674H172.446C172.446 82.9651 172.218 82.9651 172.218 82.7373C172.218 82.7373 172.218 82.7373 171.99 82.5095V82.2817V82.0539V81.8261C171.99 81.5983 172.218 81.1427 172.446 80.9149C172.446 80.9149 172.446 80.9149 172.674 80.6871H172.902C172.902 80.6871 172.902 80.6871 173.129 80.6871Z" fill="#434345"/>
<path d="M171.307 39.2275C170.623 39.2275 170.167 39.9109 170.167 40.3665C170.167 41.0499 170.623 41.5055 171.307 41.5055H171.534C172.218 41.5055 172.674 40.8221 172.674 40.1387C172.446 39.6831 171.762 39.2275 171.307 39.2275ZM176.091 39.2275C175.408 39.2275 174.724 39.6831 174.724 40.1387V40.3665C174.724 40.8221 175.18 41.5055 175.636 41.5055C175.636 41.5055 175.636 41.5055 175.864 41.5055C176.319 41.5055 177.003 41.0499 177.003 40.5943C177.231 39.9109 176.775 39.4553 176.091 39.2275ZM167.889 41.0499C167.661 40.5943 167.205 40.3665 166.75 40.3665C166.522 40.3665 166.522 40.3665 166.294 40.3665C165.838 40.5943 165.61 41.0499 165.61 41.5055C165.61 41.7333 165.61 41.7333 165.61 41.9611C165.838 42.4167 166.294 42.6445 166.75 42.6445C166.977 42.6445 166.977 42.6445 167.205 42.6445C167.661 42.4167 168.117 41.7333 167.889 41.0499ZM180.876 40.5943C180.648 40.5943 180.648 40.5943 180.421 40.5943C179.965 40.5943 179.509 40.8221 179.281 41.2777C179.281 41.5055 179.281 41.5055 179.281 41.7333C179.281 42.1889 179.509 42.6445 179.965 42.8723C180.193 42.8723 180.193 42.8723 180.421 42.8723C180.876 42.8723 181.332 42.6445 181.56 42.1889C181.788 41.5055 181.56 40.8221 180.876 40.5943ZM163.56 42.8723C163.332 42.6445 162.876 42.4167 162.648 42.4167C162.42 42.4167 162.193 42.4167 161.965 42.6445C161.737 42.8723 161.509 43.3279 161.509 43.5557C161.509 43.7835 161.509 44.0113 161.737 44.2391C161.965 44.4669 162.42 44.6947 162.648 44.6947C162.876 44.6947 163.104 44.6947 163.332 44.4669C163.788 44.2391 164.015 43.3279 163.56 42.8723ZM185.205 43.1001C184.978 42.8723 184.75 42.8723 184.522 42.8723C184.066 42.8723 183.838 43.1001 183.611 43.3279C183.383 43.5557 183.383 43.7835 183.383 44.0113C183.383 44.4669 183.611 44.6947 183.838 44.9225C184.066 45.1503 184.294 45.1503 184.522 45.1503C184.978 45.1503 185.206 44.9225 185.433 44.6947C185.889 44.0113 185.661 43.3279 185.205 43.1001ZM159.914 45.8337C159.686 45.6059 159.458 45.6059 159.231 45.6059C159.003 45.6059 158.547 45.8337 158.319 46.0615C158.091 46.2893 158.091 46.5171 158.091 46.7449C158.091 46.9727 158.319 47.4283 158.547 47.6561C158.775 47.8839 159.003 47.8839 159.231 47.8839C159.458 47.8839 159.914 47.6561 160.142 47.4283C160.37 46.9727 160.37 46.0615 159.914 45.8337ZM188.851 46.2893C188.623 46.0615 188.395 45.8337 187.94 45.8337C187.712 45.8337 187.484 45.8337 187.256 46.0615C187.028 46.2893 186.8 46.5171 186.8 46.9727C186.8 47.2005 186.8 47.4283 187.028 47.6561C187.256 47.8839 187.484 48.1117 187.94 48.1117C188.168 48.1117 188.395 48.1117 188.623 47.8839C189.079 47.6561 189.079 46.9727 188.851 46.2893ZM156.952 49.2507C156.724 49.2507 156.496 49.0229 156.496 49.0229C156.041 49.0229 155.585 49.2507 155.585 49.7063C155.585 49.9341 155.357 50.1619 155.357 50.1619C155.357 50.6175 155.585 51.0731 156.041 51.3009C156.268 51.3009 156.496 51.5287 156.496 51.5287C156.952 51.5287 157.408 51.3009 157.636 50.8453C157.636 50.3897 157.636 49.7063 156.952 49.2507ZM191.357 50.6175C191.13 50.1619 190.674 49.9341 190.218 49.9341C189.99 49.9341 189.763 49.9341 189.763 50.1619C189.307 50.3897 189.079 50.8453 189.079 51.3009C189.079 51.5287 189.079 51.5287 189.307 51.7565C189.535 52.2121 189.99 52.4399 190.446 52.4399C190.674 52.4399 190.674 52.4399 190.902 52.2121C191.357 51.7565 191.813 51.0731 191.357 50.6175ZM154.901 53.5789H154.674C154.218 53.5789 153.762 54.0345 153.534 54.4901V54.7179C153.534 55.1735 153.99 55.6291 154.446 55.8569H154.674C155.129 55.8569 155.585 55.4013 155.813 54.9457C156.041 54.2623 155.585 53.8067 154.901 53.5789ZM192.952 55.1735C192.952 54.7179 192.269 54.2623 191.813 54.2623H191.585C191.13 54.2623 190.674 54.9457 190.674 55.4013V55.6291C190.674 56.0847 191.13 56.5403 191.813 56.5403H192.041C192.725 56.5403 193.18 55.8569 192.952 55.1735ZM154.218 58.1349C153.534 58.1349 153.079 58.5905 153.079 59.2739C153.079 59.9573 153.534 60.4129 154.218 60.4129C154.901 60.4129 155.357 59.9573 155.357 59.2739C155.357 58.5905 154.901 58.1349 154.218 58.1349ZM192.269 58.8183C191.585 58.8183 191.13 59.2739 191.13 59.9573C191.13 60.6407 191.585 61.0963 192.269 61.0963C192.952 61.0963 193.408 60.6407 193.408 59.9573C193.408 59.5017 192.952 58.8183 192.269 58.8183ZM154.446 61.3241C153.762 61.5519 153.306 62.0075 153.306 62.4631C153.306 62.4631 153.306 62.4631 153.306 62.6909C153.306 63.1465 153.99 63.6021 154.446 63.6021H154.674C155.357 63.6021 155.813 62.9187 155.585 62.2353C155.585 61.7797 154.901 61.3241 154.446 61.3241ZM191.813 63.6021H191.585C191.13 63.6021 190.674 63.8299 190.446 64.5133V64.7411C190.446 65.1967 190.902 65.6523 191.357 65.8801H191.585C192.041 65.8801 192.497 65.6523 192.725 64.9689C192.725 64.2855 192.497 63.8299 191.813 63.6021ZM156.952 66.5635C156.724 66.1079 156.268 65.8801 155.813 65.8801C155.585 65.8801 155.585 65.8801 155.357 65.8801C154.901 66.1079 154.674 66.5635 154.674 67.0191C154.674 67.2469 154.674 67.2469 154.674 67.4747C154.901 67.9303 155.357 68.1581 155.813 68.1581C156.041 68.1581 156.041 68.1581 156.268 67.9303C156.724 67.7025 157.18 67.0191 156.952 66.5635ZM190.218 67.9303C189.99 67.7025 189.762 67.7025 189.535 67.7025C189.079 67.7025 188.851 67.9303 188.623 68.1581C188.395 68.3859 188.395 68.6137 188.395 68.8415C188.395 69.2971 188.623 69.5249 189.079 69.7527C189.307 69.9805 189.535 69.9805 189.535 69.9805C189.99 69.9805 190.218 69.7527 190.446 69.5249C191.13 68.8415 190.902 68.1581 190.218 67.9303ZM159.003 70.2083C158.775 69.9805 158.319 69.7527 158.091 69.7527C157.863 69.7527 157.636 69.7527 157.408 69.9805C157.18 70.2083 156.952 70.4361 156.952 70.8917C156.952 71.1195 156.952 71.3473 157.18 71.5751C157.408 71.8029 157.636 72.0307 158.091 72.0307C158.319 72.0307 158.547 72.0307 158.775 71.8029C159.458 71.5751 159.458 70.6639 159.003 70.2083ZM187.712 71.8029C187.484 71.5751 187.256 71.5751 186.8 71.5751C186.573 71.5751 186.117 71.8029 185.889 72.0307C185.661 72.2585 185.661 72.4863 185.661 72.9419C185.661 73.1697 185.889 73.6253 186.117 73.8531C186.345 74.0809 186.573 74.0809 187.028 74.0809C187.256 74.0809 187.712 73.8531 187.94 73.6253C188.168 72.9419 188.168 72.2585 187.712 71.8029ZM162.193 73.3975C161.965 73.1697 161.737 73.1697 161.509 73.1697C161.053 73.1697 160.825 73.3975 160.598 73.6253C160.37 73.8531 160.37 74.0809 160.37 74.3087C160.37 74.7643 160.598 74.9921 160.825 75.2199C161.053 75.4477 161.281 75.4477 161.509 75.4477C161.965 75.4477 162.193 75.2199 162.42 74.9921C162.648 74.5365 162.648 73.6253 162.193 73.3975ZM184.294 74.9921C184.066 74.5365 183.611 74.5365 183.383 74.5365C183.155 74.5365 182.927 74.5365 182.699 74.7643C182.243 74.9921 182.243 75.4477 182.243 75.6755C182.243 75.9033 182.243 76.1311 182.471 76.3589C182.699 76.8145 183.155 76.8145 183.383 76.8145C183.611 76.8145 183.838 76.8145 184.066 76.5867C184.294 76.1311 184.522 75.4477 184.294 74.9921ZM165.838 75.6755C165.61 75.6755 165.61 75.6755 165.383 75.6755C164.927 75.6755 164.471 75.9033 164.243 76.3589C164.243 76.5867 164.015 76.5867 164.015 76.8145C164.015 77.2701 164.243 77.7257 164.699 77.9535C164.927 77.9535 164.927 77.9535 165.155 77.9535C165.61 77.9535 166.066 77.7257 166.294 77.2701C166.75 76.5867 166.522 75.9033 165.838 75.6755ZM180.193 77.0423C179.965 76.5867 179.509 76.1311 179.054 76.1311C178.826 76.1311 178.826 76.1311 178.826 76.1311C178.37 76.3589 177.914 76.8145 177.914 77.2701C177.914 77.2701 177.914 77.4979 177.914 77.7257C178.142 78.1813 178.598 78.6369 179.054 78.6369C179.281 78.6369 179.281 78.6369 179.509 78.6369C179.965 78.4091 180.421 77.7257 180.193 77.0423ZM169.94 76.8145C169.256 76.8145 168.572 77.2701 168.572 77.7257V77.9535C168.572 78.4091 169.028 79.0925 169.484 79.0925H169.712C170.167 79.0925 170.851 78.6369 170.851 78.1813C171.079 77.7257 170.623 77.0423 169.94 76.8145ZM174.497 77.2701C173.813 77.2701 173.357 77.7257 173.357 78.4091C173.357 79.0925 173.813 79.5481 174.497 79.5481C175.18 79.5481 175.636 78.8647 175.636 78.4091C175.636 77.7257 175.18 77.2701 174.497 77.2701Z" fill="white" fill-opacity="0.8"/>
<path d="M815.842 815.296C815.842 893.887 752.044 957.671 673.436 957.671H389.534C383.837 957.671 378.141 958.355 372.673 959.494C371.761 959.721 370.85 959.949 369.939 960.177C355.356 964.05 342.824 972.25 333.027 983.185C332.343 983.868 331.66 984.779 331.204 985.463C330.976 985.691 330.748 985.918 330.52 986.146C329.837 986.83 329.381 987.741 328.698 988.424C324.824 993.664 321.862 999.359 319.584 1005.28C318.672 1007.56 317.989 1009.84 317.305 1012.12C316.166 1015.99 315.482 1019.86 315.027 1023.96C314.799 1026.69 314.571 1029.66 314.571 1032.62V1139H273.558V1032.62C273.558 1022.37 274.925 1012.34 277.431 1002.78C278.798 997.308 280.621 992.069 282.9 987.057C283.811 985.007 284.722 982.957 285.634 981.135C291.102 969.972 298.394 959.949 307.052 951.065C308.647 949.243 310.47 947.648 312.292 946.053C316.622 941.953 321.406 938.536 326.419 935.119C328.698 933.752 330.976 932.158 333.482 931.019C337.128 928.968 341.229 926.918 345.103 925.324C347.837 924.185 350.571 923.046 353.533 922.134C360.825 919.629 368.344 918.034 376.091 917.123C380.42 916.667 384.977 916.439 389.534 916.439H673.436C729.259 916.439 774.829 870.879 774.829 815.068C774.829 759.257 729.259 713.697 673.436 713.697H142.544C119.303 713.697 97.4293 708.23 78.062 698.207C76.6949 697.524 75.5557 696.84 74.1886 696.157C68.2644 692.968 62.5682 689.323 57.3276 685.222C22.6943 659.253 0.137115 617.794 0.137115 571.095C0.137115 492.504 63.9353 428.72 142.544 428.72H673.436C729.259 428.72 774.829 383.16 774.829 327.349C774.829 271.538 729.259 225.978 673.436 225.978H116.113C52.0871 225.978 0.137115 174.039 0.137115 110.027V0H41.1502V110.483C41.1502 151.715 74.8721 185.429 116.113 185.429H673.436C752.044 185.429 815.842 249.213 815.842 327.804C815.842 406.395 752.044 470.179 673.436 470.179H142.544C86.7204 470.179 41.1502 515.739 41.1502 571.55C41.1502 600.253 53.2263 626.222 72.3658 644.674C76.9228 649.002 81.9355 653.103 87.4039 656.52C88.3153 657.203 89.2267 657.659 90.1381 658.342C99.9357 664.265 110.872 668.593 122.721 670.871C123.404 671.099 124.088 671.099 124.771 671.327C130.468 672.466 136.392 672.921 142.316 672.921H673.208C751.816 672.921 815.842 736.705 815.842 815.296Z" fill="#313246"/>
<path d="M290.647 1110.52V1126.47H297.482V1110.52H290.647ZM290.647 1078.63V1094.58H297.482V1078.63H290.647ZM290.647 1046.74V1062.69H297.482V1046.74H290.647ZM292.242 1014.39C292.242 1014.62 292.014 1015.08 292.014 1015.3C291.102 1020.32 290.647 1025.56 290.419 1030.79H297.254C297.254 1026.69 297.71 1022.59 298.393 1018.72C298.621 1017.58 298.621 1016.67 298.849 1015.53L292.242 1014.39ZM303.634 983.413C301.356 987.285 299.305 991.613 297.71 995.714C297.254 996.625 297.026 997.308 296.799 998.22L303.178 1000.5C303.406 1000.27 303.406 999.814 303.634 999.586C305.229 995.258 307.28 990.702 309.786 986.602L303.634 983.413ZM328.925 963.138L324.596 958.127C322.773 959.721 320.951 961.316 319.356 963.138C317.989 964.505 316.849 965.872 315.482 967.239C314.571 968.15 313.887 969.061 312.976 969.972L318.216 974.301C318.444 974.073 318.444 974.073 318.672 973.845C320.267 972.023 321.862 970.2 323.457 968.378C323.685 968.15 323.685 968.15 323.913 967.922C324.596 967.239 325.052 966.783 325.736 966.1C325.963 965.872 326.191 965.644 326.419 965.416C326.647 965.189 326.647 965.189 326.875 964.961C327.103 964.733 327.103 964.733 327.331 964.505C327.558 964.277 327.786 964.05 327.786 964.05C328.014 963.822 328.242 963.594 328.698 963.366C328.925 963.366 328.925 963.366 328.925 963.138ZM352.394 940.814C350.116 941.725 347.609 942.864 345.331 944.003C343.736 944.687 342.369 945.598 340.774 946.281C339.634 946.965 338.723 947.42 337.584 948.104L340.774 953.571L341.002 954.026C342.596 953.115 344.191 952.204 345.786 951.293C348.748 949.698 351.711 948.331 354.673 947.192L352.394 940.814ZM384.521 933.752C379.053 933.98 373.584 934.663 368.116 936.03L369.483 942.636C374.496 941.497 379.508 940.814 384.749 940.586L384.521 933.752ZM655.891 933.752V940.586H671.841V933.752H655.891ZM623.992 933.752V940.586H639.941V933.752H623.992ZM592.093 933.752V940.586H608.042V933.752H592.093ZM560.194 933.752V940.586H576.143V933.752H560.194ZM528.295 933.752V940.586H544.244V933.752H528.295ZM496.396 933.752V940.586H512.345V933.752H496.396ZM464.497 933.752V940.586H480.446V933.752H464.497ZM432.597 933.752V940.586H448.547V933.752H432.597ZM400.698 933.752V940.586H416.648V933.752H400.698ZM702.6 930.107C697.588 931.474 692.575 932.385 687.334 932.841L688.246 939.675C693.714 938.992 699.183 938.08 704.423 936.714L702.6 930.107ZM731.31 918.717C726.753 921.223 722.195 923.501 717.411 925.324L719.917 931.702C724.93 929.652 729.942 927.374 734.727 924.64L731.31 918.717ZM756.145 900.038C752.5 903.683 748.398 907.1 744.297 910.061L748.398 915.528C752.727 912.339 757.057 908.694 760.93 904.822L756.145 900.038ZM775.285 875.891C772.55 880.219 769.588 884.547 766.398 888.648L771.867 892.976C775.285 888.648 778.247 884.092 781.209 879.536L775.285 875.891ZM787.361 847.416C785.994 852.428 784.171 857.211 782.12 861.995L788.5 864.729C790.551 859.717 792.601 854.478 793.968 849.238L787.361 847.416ZM791.918 816.891C791.918 822.13 791.462 827.37 790.779 832.381L797.614 833.292C798.298 827.825 798.753 822.358 798.981 816.891H791.918ZM794.88 784.543L788.272 786.138C789.639 791.149 790.551 796.161 791.006 801.4L797.842 800.717C797.158 795.25 796.247 789.783 794.88 784.543ZM782.804 754.246L776.88 757.663C779.386 762.219 781.664 766.775 783.487 771.559L789.867 769.053C787.817 763.813 785.538 758.802 782.804 754.246ZM763.209 728.049L758.196 732.833C761.841 736.477 765.259 740.578 768.221 744.678L773.69 740.578C770.728 736.022 767.082 731.921 763.209 728.049ZM737.689 707.775L734.272 713.697C738.601 716.431 742.93 719.392 747.031 722.582L751.36 717.114C746.803 713.697 742.246 710.508 737.689 707.775ZM707.613 694.79L705.79 701.396C710.803 702.763 715.588 704.585 720.373 706.636L723.107 700.257C718.094 697.979 712.854 696.157 707.613 694.79ZM675.258 690.006L675.03 696.84C680.271 696.84 685.512 697.296 690.524 697.979L691.436 691.145C686.195 690.462 680.727 690.006 675.258 690.006ZM643.359 690.006V696.84H659.309V690.006H643.359ZM611.46 690.006V696.84H627.41V690.006H611.46ZM579.561 690.006V696.84H595.511V690.006H579.561ZM547.662 690.006V696.84H563.612V690.006H547.662ZM515.763 690.006V696.84H531.712V690.006H515.763ZM483.864 690.006V696.84H499.813V690.006H483.864ZM451.965 690.006V696.84H467.914V690.006H451.965ZM420.066 690.006V696.84H436.015V690.006H420.066ZM388.167 690.006V696.84H404.116V690.006H388.167ZM356.268 690.006V696.84H372.217V690.006H356.268ZM324.368 690.006V696.84H340.318V690.006H324.368ZM292.469 690.006V696.84H308.419V690.006H292.469ZM260.57 690.006V696.84H276.52V690.006H260.57ZM228.671 690.006V696.84H244.621V690.006H228.671ZM196.772 690.006V696.84H212.722V690.006H196.772ZM164.873 690.006V696.84H180.823V690.006H164.873ZM142.088 690.006C140.265 690.006 138.215 690.006 136.164 689.778C135.708 689.778 135.252 689.778 134.797 689.778C134.341 689.778 133.658 689.778 133.202 689.778L132.746 695.929V696.612C133.202 696.612 133.43 696.612 133.885 696.612C136.847 696.84 139.582 696.84 142.544 696.84H148.924V690.006H142.088ZM111.1 685.678C110.645 685.45 109.961 685.45 109.505 685.222C108.594 684.995 107.91 684.767 107.227 684.539C106.771 684.539 106.315 684.311 105.86 684.083C104.948 683.856 103.809 683.4 102.898 682.944L100.619 689.323C101.531 689.778 102.67 690.006 103.581 690.462C104.037 690.69 104.493 690.69 104.948 690.917C107.455 691.601 109.961 692.284 112.467 692.968C112.923 693.195 113.607 693.195 114.062 693.423C114.974 693.651 115.657 693.879 116.569 693.879L117.936 687.273C115.657 687.045 113.379 686.361 111.1 685.678ZM79.4291 671.782C79.2013 671.782 78.9734 671.554 78.9734 671.554C77.8341 670.871 76.6949 669.96 75.5556 669.276L71.6822 674.971C73.2771 676.11 75.0999 677.249 76.9227 678.388C77.1506 678.388 77.1506 678.616 77.3784 678.616C80.1127 680.439 83.0747 681.805 85.8089 683.4L88.9988 677.249C85.5811 675.427 82.3912 673.832 79.4291 671.782ZM63.0239 659.481C59.1504 656.064 55.7326 652.419 52.3149 648.547L47.0743 653.103C50.7199 657.203 54.3655 661.076 58.4668 664.72L62.5682 659.937L63.0239 659.481C63.2517 659.481 63.2517 659.481 63.0239 659.481ZM35.4539 622.577L29.302 625.539C31.5805 630.323 34.3147 635.334 37.2768 639.89L42.973 636.245C40.2388 631.917 37.7324 627.361 35.4539 622.577ZM25.8842 593.191L19.0487 594.33C19.9601 599.797 21.3272 605.037 23.15 610.276L29.5298 608.226C28.1627 603.442 26.7956 598.203 25.8842 593.191ZM24.2893 562.438L17.4537 561.983C17.2259 565.172 16.998 568.361 16.998 571.55C16.998 573.828 16.998 576.106 17.2259 578.156L24.0614 577.701C23.8336 575.651 23.8336 573.6 23.8336 571.322C24.0614 568.589 24.0614 565.4 24.2893 562.438ZM24.2893 529.863C22.4665 534.874 21.0994 540.342 19.9601 545.581L26.5678 546.948C27.707 541.936 29.0741 536.925 30.6691 532.141L24.2893 529.863ZM39.0995 500.704C36.1375 505.26 33.1754 509.816 30.6691 514.828L36.821 518.017C39.0995 513.461 41.8337 508.905 44.7958 504.577L39.0995 500.704ZM60.9732 476.33C56.8719 479.975 52.9984 483.619 49.3528 487.72L54.3655 492.276C57.7833 488.403 61.6568 484.758 65.5302 481.341L60.9732 476.33ZM88.3153 458.561C83.5304 460.839 78.5177 463.573 73.9607 466.534L77.6063 472.229C81.9355 469.496 86.4925 466.762 91.0495 464.712L88.3153 458.561ZM119.303 448.31C113.835 449.222 108.594 450.588 103.353 452.411L105.404 459.017C110.189 457.422 115.429 456.056 120.442 455.144L119.303 448.31ZM142.544 446.26C140.265 446.26 137.987 446.26 135.708 446.488L136.164 453.322C138.215 453.094 140.493 453.094 142.772 453.094H152.113V446.26H142.544ZM646.093 446.26V453.094H662.043V446.26H646.093ZM614.194 446.26V453.094H630.144V446.26H614.194ZM582.295 446.26V453.094H598.245V446.26H582.295ZM550.396 446.26V453.094H566.346V446.26H550.396ZM518.497 446.26V453.094H534.447V446.26H518.497ZM486.598 446.26V453.094H502.548V446.26H486.598ZM454.699 446.26V453.094H470.649V446.26H454.699ZM422.8 446.26V453.094H438.749V446.26H422.8ZM390.901 446.26V453.094H406.85V446.26H390.901ZM359.002 446.26V453.094H374.951V446.26H359.002ZM327.103 446.26V453.094H343.052V446.26H327.103ZM295.204 446.26V453.094H311.153V446.26H295.204ZM263.305 446.26V453.094H279.254V446.26H263.305ZM231.405 446.26V453.094H247.355V446.26H231.405ZM199.506 446.26V453.094H215.456V446.26H199.506ZM167.607 446.26V453.094H183.557V446.26H167.607ZM693.258 444.438C688.246 445.349 683.005 445.805 677.765 446.032L677.993 452.866C683.461 452.639 688.929 452.183 694.17 451.272L693.258 444.438ZM722.879 435.326C718.094 437.376 713.309 439.426 708.524 440.793L710.575 447.399C715.816 445.805 720.828 443.754 725.841 441.476L722.879 435.326ZM749.082 418.924C745.208 422.113 740.879 425.303 736.55 428.036L740.196 433.731C744.753 430.77 749.31 427.581 753.411 424.164L749.082 418.924ZM770.044 396.372C767.082 400.472 763.664 404.573 760.247 408.445L765.259 413.001C768.905 408.901 772.323 404.801 775.513 400.245L770.044 396.372ZM784.399 369.036C782.576 373.82 780.525 378.604 778.019 383.16L783.943 386.349C786.449 381.565 788.728 376.553 790.551 371.314L784.399 369.036ZM791.234 338.966C790.779 343.978 789.867 349.217 788.728 354.229L795.336 355.824C796.475 350.584 797.386 345.117 797.842 339.65L791.234 338.966ZM796.93 306.847L790.095 307.986C791.006 312.997 791.462 318.237 791.69 323.476L798.525 323.248C798.298 317.553 797.842 312.086 796.93 306.847ZM787.361 275.638L781.209 278.372C783.259 282.928 785.31 287.939 786.677 292.951L793.285 290.901C791.462 285.661 789.639 280.422 787.361 275.638ZM770.044 247.846L764.804 252.175C767.994 256.047 771.183 260.375 773.918 264.704L779.614 261.059C776.652 256.503 773.462 252.175 770.044 247.846ZM745.892 225.75L742.019 231.217C746.12 234.178 750.221 237.595 754.095 241.012L758.652 236.001C754.778 232.356 750.449 228.711 745.892 225.75ZM717.183 210.259L714.676 216.638C719.461 218.46 724.246 220.51 728.803 223.016L731.993 216.866C727.208 214.588 722.195 212.31 717.183 210.259ZM685.284 202.97L684.6 209.804C689.613 210.259 694.853 211.171 699.866 212.31L701.461 205.703C695.993 204.337 690.524 203.653 685.284 202.97ZM652.929 202.514V209.348H668.878V202.514H652.929ZM621.03 202.514V209.348H636.979V202.514H621.03ZM589.131 202.514V209.348H605.08V202.514H589.131ZM557.232 202.514V209.348H573.181V202.514H557.232ZM525.333 202.514V209.348H541.282V202.514H525.333ZM493.434 202.514V209.348H509.383V202.514H493.434ZM461.534 202.514V209.348H477.484V202.514H461.534ZM429.635 202.514V209.348H445.585V202.514H429.635ZM397.736 202.514V209.348H413.686V202.514H397.736ZM365.837 202.514V209.348H381.787V202.514H365.837ZM333.938 202.514V209.348H349.888V202.514H333.938ZM302.039 202.514V209.348H317.989V202.514H302.039ZM270.14 202.514V209.348H286.09V202.514H270.14ZM238.241 202.514V209.348H254.19V202.514H238.241ZM206.342 202.514V209.348H222.291V202.514H206.342ZM174.443 202.514V209.348H190.392V202.514H174.443ZM142.544 202.514V209.348H158.493V202.514H142.544ZM116.113 202.514C114.29 202.514 112.695 202.514 110.872 202.286L110.417 209.12C112.24 209.348 114.062 209.348 115.885 209.348H126.594V202.514H116.113ZM81.024 195.68L78.5177 202.059C83.5304 204.109 88.771 205.931 94.2394 207.07L95.8344 200.464C90.8216 199.097 85.8089 197.503 81.024 195.68ZM55.0491 179.506L50.4921 184.518C54.5934 188.163 59.1504 191.58 63.7074 194.313L67.353 188.618C63.0239 185.885 58.9225 182.923 55.0491 179.506ZM35.9097 155.587L29.9855 159.004C32.7197 163.788 35.6818 168.344 39.3274 172.672L44.568 168.344C41.3781 164.472 38.416 160.143 35.9097 155.587ZM25.4285 126.885L18.8209 128.024C19.7323 133.491 21.3272 138.73 23.15 143.97L29.5298 141.692C27.707 136.908 26.3399 131.896 25.4285 126.885ZM17.2259 95.676V111.622H24.0614V95.676H17.2259ZM17.2259 63.784V79.73H24.0614V63.784H17.2259ZM17.2259 31.892V47.838H24.0614V31.892H17.2259ZM17.2259 0V15.946H24.0614V0H17.2259Z" fill="#55566A"/>
<path d="M173.404 251.217C202.802 251.217 226.634 227.391 226.634 198C226.634 168.609 202.802 144.782 173.404 144.782C144.007 144.782 120.175 168.609 120.175 198C120.175 227.391 144.007 251.217 173.404 251.217Z" fill="#FCE1A8"/>
<path d="M198.157 230.245C212.86 215.545 212.86 191.712 198.157 177.012C183.454 162.312 159.616 162.312 144.913 177.012C130.21 191.712 130.21 215.545 144.913 230.245C159.616 244.945 183.454 244.945 198.157 230.245Z" fill="#BCBEC0"/>
<path d="M200.012 224.682C214.715 209.982 214.715 186.149 200.012 171.449C185.309 156.749 161.471 156.749 146.768 171.449C132.064 186.149 132.064 209.982 146.768 224.682C161.471 239.382 185.309 239.382 200.012 224.682Z" fill="white"/>
<path d="M370.11 1087.75C370.11 1080.58 364.296 1074.76 357.125 1074.76C349.953 1074.76 344.14 1080.58 344.14 1087.75C344.14 1094.92 349.953 1100.74 357.125 1100.74C364.296 1100.74 370.11 1094.92 370.11 1087.75Z" fill="#AE59F0"/>
<path d="M357.125 1005.5C356.897 1005.5 356.669 1005.5 356.669 1005.5H356.441C356.441 1005.5 356.213 1005.5 356.213 1005.27C356.213 1005.27 356.213 1005.27 355.986 1005.04V1004.81V1004.59V1004.36C355.986 1004.13 356.213 1003.67 356.213 1003.45C356.669 1002.99 357.352 1002.99 357.808 1003.45C358.036 1003.67 358.264 1003.9 358.264 1004.36C358.264 1004.81 358.036 1005.04 357.808 1005.27C357.808 1005.27 357.808 1005.27 357.58 1005.5H357.352C357.58 1005.27 357.352 1005.27 357.125 1005.5Z" fill="#434345"/>
<path d="M355.986 1060.64C355.986 1061.32 356.441 1061.77 357.125 1061.77C357.808 1061.77 358.264 1061.32 358.264 1060.64C358.264 1059.95 357.808 1059.5 357.125 1059.5C356.441 1059.5 355.986 1059.95 355.986 1060.64ZM355.986 1055.85C355.986 1056.53 356.441 1056.99 357.125 1056.99C357.808 1056.99 358.264 1056.53 358.264 1055.85C358.264 1055.17 357.808 1054.71 357.125 1054.71C356.441 1054.71 355.986 1055.17 355.986 1055.85ZM355.986 1051.07C355.986 1051.75 356.441 1052.2 357.125 1052.2C357.808 1052.2 358.264 1051.75 358.264 1051.07C358.264 1050.38 357.808 1049.93 357.125 1049.93C356.441 1049.93 355.986 1050.61 355.986 1051.07ZM355.986 1046.51C355.986 1047.19 356.441 1047.65 357.125 1047.65C357.808 1047.65 358.264 1047.19 358.264 1046.51C358.264 1045.83 357.808 1045.37 357.125 1045.37C356.441 1045.37 355.986 1045.83 355.986 1046.51ZM355.986 1041.72C355.986 1042.41 356.441 1042.86 357.125 1042.86C357.808 1042.86 358.264 1042.41 358.264 1041.72C358.264 1041.04 357.808 1040.58 357.125 1040.58C356.441 1040.58 355.986 1041.04 355.986 1041.72ZM355.986 1037.17C355.986 1037.85 356.441 1038.31 357.125 1038.31C357.808 1038.31 358.264 1037.85 358.264 1037.17C358.264 1036.48 357.808 1036.03 357.125 1036.03C356.441 1036.03 355.986 1036.48 355.986 1037.17ZM355.986 1032.38C355.986 1033.07 356.441 1033.52 357.125 1033.52C357.808 1033.52 358.264 1033.07 358.264 1032.38C358.264 1031.7 357.808 1031.24 357.125 1031.24C356.441 1031.24 355.986 1031.7 355.986 1032.38ZM355.986 1027.83C355.986 1028.51 356.441 1028.96 357.125 1028.96C357.808 1028.96 358.264 1028.51 358.264 1027.83C358.264 1027.14 357.808 1026.69 357.125 1026.69C356.441 1026.46 355.986 1027.14 355.986 1027.83ZM355.986 1023.04C355.986 1023.72 356.441 1024.18 357.125 1024.18C357.808 1024.18 358.264 1023.72 358.264 1023.04C358.264 1022.36 357.808 1021.9 357.125 1021.9C356.441 1021.9 355.986 1022.36 355.986 1023.04ZM355.986 1018.26C355.986 1018.94 356.441 1019.4 357.125 1019.4C357.808 1019.4 358.264 1018.94 358.264 1018.26C358.264 1017.57 357.808 1017.12 357.125 1017.12C356.441 1017.12 355.986 1017.57 355.986 1018.26ZM355.986 1013.7C355.986 1014.38 356.441 1014.84 357.125 1014.84C357.808 1014.84 358.264 1014.38 358.264 1013.7C358.264 1013.02 357.808 1012.56 357.125 1012.56C356.441 1012.33 355.986 1013.02 355.986 1013.7ZM355.986 1008.91C355.986 1009.6 356.441 1010.05 357.125 1010.05C357.808 1010.05 358.264 1009.6 358.264 1008.91C358.264 1008.23 357.808 1007.78 357.125 1007.78C356.441 1007.78 355.986 1008.23 355.986 1008.91Z" fill="white" fill-opacity="0.8"/>
<path d="M357.125 1066.33C356.897 1066.33 356.897 1066.33 356.669 1066.33C356.441 1066.33 356.441 1066.1 356.213 1066.1C355.986 1065.88 355.986 1065.65 355.986 1065.19V1064.96V1064.74V1064.51C355.986 1064.51 355.986 1064.28 356.213 1064.28C356.441 1064.05 356.897 1063.82 357.352 1064.05H357.58H357.808C357.808 1064.05 358.036 1064.05 358.036 1064.28C358.036 1064.28 358.036 1064.28 358.264 1064.51V1064.74V1064.96V1065.19C358.264 1065.42 358.036 1065.88 357.808 1066.1C357.808 1066.1 357.808 1066.1 357.58 1066.33H357.352C357.58 1066.33 357.352 1066.33 357.125 1066.33Z" fill="#434345"/>
<path d="M358.036 1106.89C358.036 1107.57 358.492 1108.03 359.175 1108.03C359.175 1108.03 359.175 1108.03 359.403 1108.03C360.086 1108.03 360.542 1107.57 360.542 1106.89V1106.66C360.542 1105.98 360.086 1105.52 359.403 1105.52H359.175C358.264 1105.52 357.808 1106.2 358.036 1106.89ZM353.252 1106.43C353.252 1107.12 353.708 1107.57 354.163 1107.8C354.163 1107.8 354.163 1107.8 354.391 1107.8C354.847 1107.8 355.53 1107.34 355.53 1106.89V1106.66C355.53 1106.2 355.074 1105.52 354.619 1105.52H354.391C353.935 1105.52 353.48 1105.75 353.252 1106.43ZM363.275 1104.61C362.592 1104.84 362.364 1105.52 362.592 1105.98C362.82 1106.43 363.275 1106.66 363.731 1106.66C363.959 1106.66 363.959 1106.66 364.187 1106.66C364.642 1106.43 364.87 1105.98 364.87 1105.52C364.87 1105.29 364.87 1105.29 364.87 1105.06C364.642 1104.61 364.187 1104.38 363.731 1104.38C363.503 1104.61 363.275 1104.61 363.275 1104.61ZM348.924 1104.84C348.696 1105.52 348.924 1106.2 349.607 1106.43C349.835 1106.43 349.835 1106.43 350.063 1106.43C350.518 1106.43 350.974 1106.2 351.202 1105.75C351.202 1105.52 351.202 1105.52 351.202 1105.29C351.202 1104.84 350.974 1104.38 350.518 1104.15C350.29 1104.15 350.29 1104.15 350.063 1104.15C349.607 1104.15 349.151 1104.61 348.924 1104.84ZM367.148 1102.56C366.693 1103.01 366.465 1103.7 366.92 1104.15C367.148 1104.61 367.604 1104.61 367.832 1104.61C368.059 1104.61 368.287 1104.61 368.515 1104.38C368.743 1104.15 368.971 1103.7 368.971 1103.47C368.971 1103.24 368.971 1103.01 368.743 1102.79C368.515 1102.33 368.287 1102.33 367.832 1102.33C367.604 1102.33 367.376 1102.33 367.148 1102.56ZM345.051 1102.33C344.595 1102.79 344.823 1103.7 345.279 1103.93C345.507 1104.15 345.734 1104.15 345.962 1104.15C346.418 1104.15 346.646 1103.93 346.873 1103.7C347.101 1103.47 347.101 1103.24 347.101 1103.01C347.101 1102.56 346.873 1102.33 346.646 1102.1C346.418 1101.87 346.19 1101.87 345.962 1101.87C345.507 1101.87 345.279 1102.1 345.051 1102.33ZM370.337 1099.82C369.882 1100.28 369.882 1100.96 370.337 1101.42C370.565 1101.65 370.793 1101.65 371.021 1101.65C371.249 1101.65 371.704 1101.42 371.932 1101.19C372.16 1100.96 372.16 1100.74 372.16 1100.51C372.16 1100.28 371.932 1099.82 371.704 1099.6C371.476 1099.37 371.249 1099.37 371.021 1099.37C371.021 1099.37 370.565 1099.6 370.337 1099.82ZM341.862 1099.14C341.406 1099.6 341.406 1100.28 341.634 1100.74C341.862 1100.96 342.089 1101.19 342.545 1101.19C342.773 1101.19 343.001 1101.19 343.228 1100.96C343.456 1100.74 343.684 1100.51 343.684 1100.05C343.684 1099.82 343.684 1099.6 343.456 1099.37C343.228 1099.14 343.001 1098.91 342.545 1098.91C342.317 1098.69 341.862 1098.91 341.862 1099.14ZM372.843 1096.18C372.616 1096.63 372.843 1097.55 373.299 1097.77C373.527 1097.77 373.527 1098 373.755 1098C374.21 1098 374.666 1097.77 374.894 1097.32C374.894 1097.09 375.121 1096.86 375.121 1096.86C375.121 1096.41 374.894 1095.95 374.438 1095.72C374.21 1095.72 373.982 1095.5 373.982 1095.5C373.527 1095.5 373.071 1095.72 372.843 1096.18ZM339.584 1095.04C339.128 1095.27 338.672 1095.95 339.128 1096.63C339.356 1097.09 339.811 1097.32 340.267 1097.32C340.495 1097.32 340.495 1097.32 340.723 1097.09C341.178 1096.86 341.406 1096.41 341.406 1095.95C341.406 1095.72 341.406 1095.72 341.406 1095.5C341.178 1095.04 340.723 1094.81 340.267 1094.81C339.811 1094.81 339.584 1095.04 339.584 1095.04ZM374.438 1092.08C374.21 1092.76 374.666 1093.22 375.349 1093.44H375.577C376.033 1093.44 376.488 1092.99 376.716 1092.53V1092.31C376.716 1091.85 376.488 1091.39 375.805 1091.17H375.577C375.121 1091.17 374.666 1091.62 374.438 1092.08ZM338.217 1090.48C337.533 1090.71 337.078 1091.17 337.305 1091.85C337.533 1092.31 337.989 1092.76 338.445 1092.76H338.672C339.128 1092.53 339.584 1092.08 339.584 1091.62V1091.39C339.584 1090.94 338.9 1090.48 338.445 1090.48C338.445 1090.48 338.445 1090.48 338.217 1090.48ZM374.894 1087.75C374.894 1088.43 375.349 1088.89 376.033 1088.89C376.716 1088.89 377.172 1088.43 377.172 1087.75C377.172 1087.07 376.716 1086.61 376.033 1086.61C375.577 1086.61 374.894 1087.07 374.894 1087.75ZM336.85 1087.07C336.85 1087.75 337.305 1088.2 337.989 1088.2C338.672 1088.2 339.128 1087.75 339.128 1087.07C339.128 1086.38 338.672 1085.93 337.989 1085.93C337.533 1085.93 337.078 1086.38 336.85 1087.07ZM375.805 1083.42C375.121 1083.65 374.666 1084.1 374.894 1084.79C374.894 1085.24 375.577 1085.7 376.033 1085.7H376.26C376.716 1085.7 377.172 1085.24 377.172 1084.56V1084.33C376.944 1083.88 376.488 1083.42 375.805 1083.42ZM337.761 1082.05C337.533 1082.74 337.989 1083.42 338.672 1083.42H338.9C339.356 1083.42 339.811 1083.19 340.039 1082.51C340.039 1082.28 340.039 1082.28 340.039 1082.28C340.039 1081.82 339.811 1081.37 339.128 1081.14C338.9 1081.14 338.9 1081.14 338.9 1081.14C338.445 1081.37 337.761 1081.6 337.761 1082.05ZM374.21 1079.09C373.527 1079.32 373.299 1080 373.527 1080.69C373.755 1081.14 374.21 1081.37 374.666 1081.37C374.894 1081.37 374.894 1081.37 375.121 1081.37C375.577 1081.14 375.805 1080.69 375.805 1080.23C375.805 1080 375.805 1080 375.577 1079.77C375.349 1079.32 374.894 1079.09 374.438 1079.09C374.438 1078.86 374.21 1079.09 374.21 1079.09ZM339.584 1077.5C339.356 1077.95 339.356 1078.86 340.039 1079.09C340.267 1079.32 340.495 1079.32 340.495 1079.32C340.95 1079.32 341.178 1079.09 341.406 1078.86C341.634 1078.63 341.634 1078.41 341.634 1078.41C341.634 1077.95 341.406 1077.5 340.95 1077.27C340.723 1077.27 340.495 1077.04 340.495 1077.04C340.267 1077.04 339.811 1077.27 339.584 1077.5ZM371.476 1075.22C371.021 1075.67 370.793 1076.36 371.249 1076.81C371.476 1077.04 371.932 1077.27 372.16 1077.27C372.388 1077.27 372.616 1077.27 372.843 1077.04C373.071 1076.81 373.299 1076.58 373.299 1076.13C373.299 1075.9 373.299 1075.67 373.071 1075.45C372.843 1075.22 372.615 1074.99 372.16 1074.99C371.932 1074.99 371.704 1074.99 371.476 1075.22ZM342.773 1073.62C342.317 1074.08 342.317 1074.76 342.773 1075.22C343.001 1075.45 343.228 1075.45 343.684 1075.45C344.14 1075.45 344.368 1075.45 344.595 1075.22C344.823 1074.99 344.823 1074.76 344.823 1074.31C344.823 1073.85 344.595 1073.62 344.368 1073.39C344.14 1073.17 343.912 1073.17 343.456 1073.17C343.001 1073.17 343.001 1073.39 342.773 1073.62ZM368.059 1072.03C367.604 1072.48 367.832 1073.17 368.287 1073.62C368.515 1073.85 368.743 1073.85 368.971 1073.85C369.198 1073.85 369.654 1073.62 369.882 1073.39C370.11 1073.17 370.11 1072.94 370.11 1072.71C370.11 1072.48 369.882 1072.03 369.654 1071.8C369.426 1071.57 369.198 1071.57 368.971 1071.57C368.515 1071.57 368.287 1071.8 368.059 1072.03ZM346.418 1070.43C345.962 1070.89 345.734 1071.57 345.962 1072.03C346.19 1072.26 346.646 1072.48 346.873 1072.48C347.101 1072.48 347.329 1072.48 347.557 1072.26C348.012 1072.03 348.012 1071.57 348.012 1071.34C348.012 1071.12 348.012 1070.89 347.785 1070.66C347.557 1070.2 347.101 1070.2 346.873 1070.2C346.873 1070.43 346.646 1070.43 346.418 1070.43ZM363.959 1069.98C363.731 1070.66 363.959 1071.34 364.414 1071.57C364.642 1071.57 364.642 1071.57 364.87 1071.57C365.326 1071.57 365.781 1071.34 366.009 1070.89C366.009 1070.66 366.237 1070.66 366.237 1070.43C366.237 1069.98 366.009 1069.52 365.553 1069.29C365.326 1069.29 365.326 1069.29 365.098 1069.29C364.642 1069.29 364.187 1069.52 363.959 1069.98ZM350.974 1068.38C350.29 1068.61 350.063 1069.29 350.29 1069.75C350.518 1070.2 350.974 1070.66 351.43 1070.66C351.43 1070.66 351.657 1070.66 351.885 1070.66C352.341 1070.43 352.796 1069.98 352.796 1069.52C352.796 1069.29 352.796 1069.29 352.796 1069.07C352.569 1068.61 352.113 1068.15 351.657 1068.15C351.202 1068.38 351.202 1068.38 350.974 1068.38ZM359.403 1068.84C359.175 1069.52 359.631 1069.98 360.314 1070.2H360.542C360.997 1070.2 361.681 1069.75 361.681 1069.29V1069.07C361.681 1068.61 361.225 1067.93 360.77 1067.93H360.542C360.086 1067.93 359.403 1068.15 359.403 1068.84ZM354.847 1068.84C354.847 1069.52 355.302 1069.98 355.986 1069.98C356.669 1069.98 357.125 1069.52 357.125 1068.84C357.125 1068.15 356.669 1067.7 355.986 1067.7C355.302 1067.7 354.619 1068.15 354.847 1068.84Z" fill="white" fill-opacity="0.8"/>
<path d="M611.61 854.842C618.782 854.842 624.597 849.029 624.597 841.858C624.597 834.687 618.782 828.873 611.61 828.873C604.437 828.873 598.622 834.687 598.622 841.858C598.622 849.029 604.437 854.842 611.61 854.842Z" fill="#AFCD58"/>
<path d="M611.61 759.622C611.382 759.622 611.154 759.622 611.154 759.622H610.926C610.926 759.622 610.698 759.622 610.698 759.394C610.698 759.394 610.698 759.394 610.47 759.166V758.939V758.711V758.483C610.47 758.255 610.698 757.8 610.698 757.572C611.154 757.116 611.837 757.116 612.293 757.572C612.521 757.8 612.749 758.027 612.749 758.483C612.749 758.711 612.521 759.166 612.293 759.394C612.293 759.394 612.293 759.394 612.065 759.622H611.838C612.065 759.622 612.065 759.622 611.61 759.622C611.838 759.622 611.838 759.622 611.61 759.622Z" fill="#434345"/>
<path d="M611.61 813.611C610.926 813.611 610.47 814.066 610.47 814.75C610.47 815.433 610.926 815.889 611.61 815.889C612.293 815.889 612.749 815.433 612.749 814.75C612.977 814.066 612.293 813.611 611.61 813.611ZM611.61 808.827C610.926 808.827 610.47 809.282 610.47 809.966C610.47 810.649 610.926 811.105 611.61 811.105C612.293 811.105 612.749 810.649 612.749 809.966C612.977 809.51 612.293 808.827 611.61 808.827ZM611.61 804.271C610.926 804.271 610.47 804.726 610.47 805.41C610.47 806.093 610.926 806.549 611.61 806.549C612.293 806.549 612.749 806.093 612.749 805.41C612.749 804.726 612.293 804.271 611.61 804.271ZM611.61 799.487C610.926 799.487 610.47 799.943 610.47 800.626C610.47 801.309 610.926 801.765 611.61 801.765C612.293 801.765 612.749 801.309 612.749 800.626C612.749 799.943 612.293 799.487 611.61 799.487ZM611.61 794.931C610.926 794.931 610.47 795.387 610.47 796.07C610.47 796.753 610.926 797.209 611.61 797.209C612.293 797.209 612.749 796.753 612.749 796.07C612.749 795.387 612.293 794.931 611.61 794.931ZM611.61 790.147C610.926 790.147 610.47 790.603 610.47 791.286C610.47 791.97 610.926 792.425 611.61 792.425C612.293 792.425 612.749 791.97 612.749 791.286C612.749 790.603 612.293 790.147 611.61 790.147ZM611.61 785.363C610.926 785.363 610.47 785.819 610.47 786.502C610.47 787.186 610.926 787.641 611.61 787.641C612.293 787.641 612.749 787.186 612.749 786.502C612.977 785.819 612.293 785.363 611.61 785.363ZM611.61 780.807C610.926 780.807 610.47 781.263 610.47 781.946C610.47 782.63 610.926 783.085 611.61 783.085C612.293 783.085 612.749 782.63 612.749 781.946C612.977 781.263 612.293 780.807 611.61 780.807ZM611.61 776.024C610.926 776.024 610.47 776.479 610.47 777.163C610.47 777.846 610.926 778.302 611.61 778.302C612.293 778.302 612.749 777.846 612.749 777.163C612.977 776.479 612.293 776.024 611.61 776.024ZM611.61 771.24C610.926 771.24 610.47 771.695 610.47 772.379C610.47 773.062 610.926 773.518 611.61 773.518C612.293 773.518 612.749 773.062 612.749 772.379C612.749 771.695 612.293 771.24 611.61 771.24ZM611.61 766.684C610.926 766.684 610.47 767.139 610.47 767.823C610.47 768.506 610.926 768.962 611.61 768.962C612.293 768.962 612.749 768.506 612.749 767.823C612.749 767.139 612.293 766.684 611.61 766.684ZM611.61 761.9C610.926 761.9 610.47 762.356 610.47 763.039C610.47 763.722 610.926 764.178 611.61 764.178C612.293 764.178 612.749 763.722 612.749 763.039C612.749 762.356 612.293 761.9 611.61 761.9Z" fill="white" fill-opacity="0.8"/>
<path d="M611.61 820.672C611.382 820.672 611.382 820.672 611.154 820.672C610.926 820.672 610.926 820.445 610.698 820.445C610.47 820.217 610.47 819.989 610.47 819.533V819.306V819.078V818.85C610.47 818.85 610.47 818.622 610.698 818.622C610.926 818.394 611.382 818.167 611.838 818.394H612.065H612.293C612.293 818.394 612.521 818.394 612.521 818.622C612.521 818.622 612.521 818.622 612.749 818.85V819.078V819.306V819.533C612.749 819.761 612.521 820.217 612.293 820.445C612.293 820.445 612.293 820.445 612.065 820.672H611.838C612.065 820.672 612.065 820.672 611.61 820.672C611.838 820.672 611.838 820.672 611.61 820.672Z" fill="#434345"/>
<path d="M613.66 859.626C612.977 859.626 612.521 860.31 612.521 860.993C612.521 861.676 612.977 862.132 613.66 862.132C614.344 862.132 614.799 861.676 614.799 860.993V860.765C614.799 860.082 614.344 859.626 613.66 859.626ZM609.103 859.626C608.42 859.626 607.964 860.082 607.736 860.537C607.736 861.221 607.964 861.676 608.648 861.904C608.648 861.904 608.648 861.904 608.875 861.904C609.331 861.904 610.015 861.449 610.015 860.993V860.765C610.242 860.082 609.787 859.626 609.103 859.626ZM619.357 859.398C619.129 858.943 618.673 858.715 618.217 858.715C617.989 858.715 617.989 858.715 617.762 858.715C617.078 858.943 616.85 859.626 617.078 860.082C617.306 860.537 617.762 860.765 618.217 860.765C618.445 860.765 618.445 860.765 618.673 860.765C619.129 860.537 619.357 860.082 619.357 859.626C619.357 859.626 619.357 859.626 619.357 859.398ZM605.002 858.487C604.774 858.487 604.774 858.487 604.546 858.487C604.091 858.487 603.635 858.715 603.407 859.171C603.179 859.854 603.407 860.537 604.09 860.765C604.318 860.765 604.318 860.765 604.546 860.765C605.002 860.765 605.458 860.537 605.685 860.082C605.685 859.854 605.685 859.854 605.685 859.626C605.685 859.171 605.458 858.715 605.002 858.487ZM623.23 857.12C623.002 856.893 622.774 856.665 622.319 856.665C622.091 856.665 621.863 856.665 621.635 856.893C621.179 857.348 620.951 858.032 621.407 858.487C621.635 858.715 622.091 858.943 622.319 858.943C622.546 858.943 622.774 858.943 623.002 858.715C623.23 858.487 623.458 858.032 623.458 857.804C623.458 857.576 623.458 857.348 623.23 857.12ZM601.128 856.437C600.901 856.209 600.673 856.209 600.445 856.209C599.989 856.209 599.761 856.437 599.533 856.665C599.078 857.12 599.306 857.804 599.761 858.259C599.989 858.487 600.217 858.487 600.445 858.487C600.901 858.487 601.128 858.259 601.356 858.032C601.584 857.804 601.584 857.576 601.584 857.348C601.584 856.893 601.356 856.665 601.128 856.437ZM626.648 853.931C626.42 853.703 626.192 853.703 625.736 853.703C625.508 853.703 625.053 853.931 624.825 854.159C624.369 854.615 624.369 855.298 624.825 855.754C625.053 855.981 625.281 855.981 625.509 855.981C625.736 855.981 626.192 855.754 626.42 855.526C626.648 855.298 626.648 855.07 626.648 854.842C627.103 854.387 626.876 854.159 626.648 853.931ZM597.939 853.248C597.711 853.02 597.483 852.792 597.027 852.792C596.799 852.792 596.571 852.792 596.344 853.02C595.888 853.476 595.888 854.159 596.116 854.615C596.344 854.842 596.571 855.07 597.027 855.07C597.255 855.07 597.483 855.07 597.711 854.842C597.939 854.615 598.166 854.387 598.166 853.931C598.166 853.931 598.166 853.476 597.939 853.248ZM629.154 849.831C628.926 849.831 628.926 849.603 628.698 849.603C628.243 849.603 627.787 849.831 627.559 850.286C627.331 850.742 627.559 851.425 628.015 851.881C628.243 851.881 628.243 852.109 628.471 852.109C628.926 852.109 629.382 851.881 629.61 851.425C629.61 851.198 629.838 850.97 629.838 850.97C629.61 850.514 629.382 850.059 629.154 849.831ZM595.66 849.603C595.432 849.147 594.977 848.92 594.521 848.92C594.293 848.92 594.293 848.92 594.065 848.92C593.382 849.147 593.154 849.831 593.609 850.514C593.837 850.97 594.293 851.198 594.749 851.198C594.977 851.198 594.976 851.198 595.204 851.198C595.66 850.97 595.888 850.514 595.888 850.059C595.66 850.059 595.66 849.831 595.66 849.603ZM630.521 845.503H630.293C629.838 845.503 629.382 845.73 629.154 846.414C628.926 847.097 629.382 847.553 630.066 847.781H630.293C630.749 847.781 631.205 847.553 631.433 846.869V846.642C631.433 845.958 630.977 845.503 630.521 845.503ZM594.293 845.503C594.293 845.047 593.609 844.591 593.154 844.591H592.926C592.242 844.819 591.787 845.275 592.014 845.958C592.242 846.414 592.698 846.869 593.154 846.869H593.382C593.837 846.869 594.293 846.186 594.293 845.73C594.293 845.73 594.293 845.73 594.293 845.503ZM630.749 840.719C630.065 840.719 629.61 841.174 629.61 841.858C629.61 842.541 630.065 842.997 630.749 842.997C631.433 842.997 631.888 842.541 631.888 841.858C631.888 841.174 631.433 840.719 630.749 840.719ZM592.698 840.035C592.014 840.035 591.559 840.491 591.559 841.174C591.559 841.858 592.014 842.313 592.698 842.313C593.382 842.313 593.837 841.858 593.837 841.174C593.837 840.491 593.382 840.035 592.698 840.035ZM631.66 838.441C631.66 837.985 630.977 837.53 630.521 837.53H630.293C629.61 837.53 629.154 838.213 629.382 838.896C629.382 839.352 630.065 839.808 630.521 839.808H630.749C631.205 839.808 631.66 839.352 631.66 838.441C631.66 838.669 631.66 838.669 631.66 838.441ZM593.837 835.479C593.609 835.479 593.609 835.479 593.609 835.479C593.154 835.479 592.698 835.707 592.47 836.391C592.242 837.074 592.698 837.757 593.382 837.757H593.609C594.065 837.757 594.521 837.53 594.749 836.846V836.618C594.521 836.163 594.293 835.707 593.837 835.479ZM630.293 833.885C630.065 833.429 629.61 833.201 629.154 833.201C628.926 833.201 628.926 833.201 628.698 833.201C628.015 833.429 627.787 834.113 628.015 834.796C628.243 835.252 628.698 835.479 629.154 835.479C629.382 835.479 629.382 835.479 629.61 835.479C630.065 835.252 630.293 834.796 630.293 834.34C630.293 834.113 630.293 833.885 630.293 833.885ZM595.888 831.379C595.66 831.379 595.432 831.151 595.432 831.151C594.977 831.151 594.521 831.379 594.521 831.835C594.293 832.29 594.293 832.974 594.976 833.429C595.204 833.429 595.432 833.657 595.432 833.657C595.888 833.657 596.116 833.429 596.344 832.974C596.571 832.746 596.571 832.518 596.571 832.518C596.344 831.835 596.344 831.607 595.888 831.379ZM627.787 829.557C627.559 829.329 627.331 829.101 626.876 829.101C626.648 829.101 626.42 829.101 626.192 829.329C625.736 829.784 625.508 830.468 625.964 830.923C626.192 831.151 626.648 831.379 626.876 831.379C627.103 831.379 627.331 831.379 627.559 831.151C627.787 830.923 628.015 830.696 628.015 830.24C628.015 830.012 627.787 829.784 627.787 829.557ZM598.85 827.734C598.622 827.506 598.394 827.506 597.939 827.506C597.483 827.506 597.255 827.506 597.027 827.962C596.571 828.418 596.571 829.101 597.027 829.557C597.255 829.784 597.483 829.784 597.939 829.784C598.394 829.784 598.622 829.784 598.85 829.557C599.078 829.329 599.078 829.101 599.078 828.645C599.078 828.19 599.078 827.962 598.85 827.734ZM624.141 826.14C623.914 825.912 623.686 825.912 623.458 825.912C623.23 825.912 622.774 826.14 622.546 826.367C622.091 826.823 622.319 827.506 622.774 827.962C623.002 828.19 623.23 828.19 623.458 828.19C623.913 828.19 624.141 827.962 624.369 827.734C624.597 827.506 624.597 827.279 624.597 827.051C624.825 826.595 624.597 826.367 624.141 826.14ZM602.723 825.001C602.496 824.773 602.04 824.545 601.812 824.545C601.584 824.545 601.356 824.545 601.128 824.773C600.673 825.228 600.445 825.912 600.673 826.367C600.901 826.823 601.356 826.823 601.584 826.823C601.812 826.823 602.04 826.823 602.268 826.595C602.723 826.367 602.723 825.912 602.723 825.684C602.951 825.456 602.723 825.228 602.723 825.001ZM620.04 823.406C619.812 823.406 619.812 823.406 619.584 823.406C619.129 823.406 618.673 823.634 618.445 824.089C618.217 824.773 618.445 825.456 618.901 825.684C619.129 825.684 619.129 825.684 619.357 825.684C619.812 825.684 620.268 825.456 620.496 825.001C620.496 824.773 620.496 824.773 620.496 824.545C620.724 824.089 620.496 823.634 620.04 823.406ZM607.053 823.406C606.825 822.95 606.369 822.495 605.913 822.495C605.913 822.495 605.685 822.495 605.458 822.495C604.774 822.723 604.546 823.406 604.774 823.862C605.002 824.317 605.458 824.773 605.913 824.773C606.141 824.773 606.141 824.773 606.369 824.773C606.825 824.545 607.28 824.089 607.28 823.634C607.053 823.634 607.053 823.634 607.053 823.406ZM615.255 822.039C614.572 822.039 613.888 822.495 613.888 822.95C613.66 823.634 614.116 824.089 614.799 824.317H615.027C615.483 824.317 616.167 823.862 616.167 823.406V823.178C616.394 822.723 615.939 822.039 615.255 822.039ZM610.47 821.811C609.787 821.811 609.331 822.495 609.331 823.178C609.331 823.862 609.787 824.317 610.47 824.317C611.154 824.317 611.61 823.862 611.61 823.178C611.61 822.267 611.154 821.811 610.47 821.811Z" fill="white" fill-opacity="0.8"/>
<path d="M350.981 1001.92C381.225 1001.92 405.742 977.412 405.742 947.175C405.742 916.939 381.225 892.427 350.981 892.427C320.737 892.427 296.22 916.939 296.22 947.175C296.22 977.412 320.737 1001.92 350.981 1001.92Z" fill="#AE59F0"/>
<path d="M365.569 987.958C384.91 978.82 393.178 955.736 384.037 936.4C374.897 917.064 351.808 908.798 332.468 917.936C313.127 927.075 304.859 950.158 314 969.494C323.14 988.831 346.229 997.097 365.569 987.958Z" fill="#BCBEC0"/>
<path d="M367.48 982.231C386.818 973.088 395.081 950.003 385.936 930.669C376.791 911.335 353.701 903.074 334.363 912.217C315.025 921.36 306.761 944.445 315.906 963.779C325.051 983.113 348.142 991.374 367.48 982.231Z" fill="white"/>
<path d="M611.366 749.335C641.495 749.335 665.92 724.915 665.92 694.792C665.92 664.669 641.495 640.25 611.366 640.25C581.236 640.25 556.811 664.669 556.811 694.792C556.811 724.915 581.236 749.335 611.366 749.335Z" fill="#AFCD58"/>
<path d="M626.823 735.006C645.866 725.44 653.547 702.25 643.978 683.21C634.41 664.171 611.215 656.492 592.171 666.058C573.127 675.625 565.446 698.815 575.015 717.854C584.584 736.894 607.779 744.573 626.823 735.006Z" fill="#BCBEC0"/>
<path d="M628.663 729.257C647.703 719.686 655.377 696.496 645.804 677.461C636.231 658.426 613.036 650.753 593.996 660.324C574.957 669.895 567.283 693.085 576.856 712.12C586.429 731.155 609.624 738.828 628.663 729.257Z" fill="white"/>
<path d="M123.632 549.454C130.805 549.454 136.62 543.64 136.62 536.469C136.62 529.298 130.805 523.484 123.632 523.484C116.459 523.484 110.645 529.298 110.645 536.469C110.645 543.64 116.459 549.454 123.632 549.454Z" fill="#FF64AE"/>
<path d="M123.632 618.933C123.86 618.933 123.86 618.933 123.632 618.933C123.86 618.933 124.088 618.933 124.088 618.933H124.316C124.316 618.933 124.543 618.933 124.543 619.16C124.543 619.16 124.544 619.16 124.771 619.388V619.616V619.844V620.072C124.771 620.299 124.543 620.755 124.543 620.983C124.088 621.438 123.404 621.438 122.949 620.983C122.721 620.755 122.493 620.527 122.493 620.072C122.493 619.844 122.721 619.388 122.949 619.16C122.949 619.16 122.949 619.16 123.176 618.933H123.404C123.404 618.933 123.404 618.933 123.632 618.933Z" fill="#434345"/>
<path d="M123.632 562.438C122.949 562.438 122.493 562.894 122.493 563.577C122.493 564.261 122.949 564.716 123.632 564.716C124.316 564.716 124.771 564.261 124.771 563.577C124.771 563.122 124.316 562.438 123.632 562.438ZM123.632 567.222C122.949 567.222 122.493 567.678 122.493 568.361C122.493 569.044 122.949 569.5 123.632 569.5C124.316 569.5 124.771 569.044 124.771 568.361C124.771 567.678 124.316 567.222 123.632 567.222ZM123.632 572.006C122.949 572.006 122.493 572.461 122.493 573.145C122.493 573.828 122.949 574.284 123.632 574.284C124.316 574.284 124.771 573.828 124.771 573.145C124.771 572.461 124.316 572.006 123.632 572.006ZM123.632 576.562C122.949 576.562 122.493 577.017 122.493 577.701C122.493 578.384 122.949 578.84 123.632 578.84C124.316 578.84 124.771 578.384 124.771 577.701C124.771 577.017 124.316 576.562 123.632 576.562ZM123.632 581.346C122.949 581.346 122.493 581.801 122.493 582.485C122.493 583.168 122.949 583.624 123.632 583.624C124.316 583.624 124.771 583.168 124.771 582.485C124.771 581.801 124.316 581.346 123.632 581.346ZM123.632 586.129C122.949 586.129 122.493 586.585 122.493 587.268C122.493 587.952 122.949 588.407 123.632 588.407C124.316 588.407 124.771 587.952 124.771 587.268C124.771 586.585 124.316 586.129 123.632 586.129ZM123.632 590.685C122.949 590.685 122.493 591.141 122.493 591.824C122.493 592.508 122.949 592.963 123.632 592.963C124.316 592.963 124.771 592.508 124.771 591.824C124.771 591.141 124.316 590.685 123.632 590.685ZM123.632 595.469C122.949 595.469 122.493 595.925 122.493 596.608C122.493 597.292 122.949 597.747 123.632 597.747C124.316 597.747 124.771 597.292 124.771 596.608C124.771 595.925 124.316 595.469 123.632 595.469ZM123.632 600.253C122.949 600.253 122.493 600.709 122.493 601.392C122.493 602.075 122.949 602.531 123.632 602.531C124.316 602.531 124.771 602.075 124.771 601.392C124.771 600.709 124.316 600.253 123.632 600.253ZM123.632 604.809C122.949 604.809 122.493 605.265 122.493 605.948C122.493 606.631 122.949 607.087 123.632 607.087C124.316 607.087 124.771 606.631 124.771 605.948C124.771 605.265 124.316 604.809 123.632 604.809ZM123.632 609.593C122.949 609.593 122.493 610.048 122.493 610.732C122.493 611.415 122.949 611.871 123.632 611.871C124.316 611.871 124.771 611.415 124.771 610.732C124.771 610.048 124.316 609.593 123.632 609.593ZM123.632 614.149C122.949 614.149 122.493 614.604 122.493 615.288C122.493 615.971 122.949 616.427 123.632 616.427C124.316 616.427 124.771 615.971 124.771 615.288C124.771 614.832 124.316 614.149 123.632 614.149Z" fill="white" fill-opacity="0.8"/>
<path d="M123.632 557.882C123.86 557.882 123.86 557.882 124.088 557.882C124.316 557.882 124.316 558.11 124.543 558.11C124.771 558.338 124.771 558.566 124.771 559.021V559.249V559.477V559.705C124.771 559.705 124.771 559.932 124.543 559.932C124.316 560.16 123.86 560.388 123.404 560.16H123.176H122.949C122.949 560.16 122.721 560.16 122.721 559.932C122.721 559.932 122.721 559.932 122.493 559.705V559.477V559.249V559.021C122.493 558.793 122.721 558.338 122.949 558.11C122.949 558.11 122.949 558.11 123.176 557.882H123.404C123.404 557.882 123.404 557.882 123.632 557.882Z" fill="#434345"/>
<path d="M121.809 516.423C121.126 516.423 120.67 517.106 120.67 517.562C120.67 518.245 121.126 518.701 121.809 518.701H122.037C122.721 518.701 123.176 518.017 123.176 517.334C122.721 516.878 122.265 516.423 121.809 516.423ZM126.594 516.65C125.911 516.65 125.227 517.106 125.227 517.562V517.789C125.227 518.245 125.683 518.928 126.138 518.928H126.366C126.822 518.928 127.506 518.473 127.506 518.017C127.733 517.334 127.278 516.65 126.594 516.65ZM118.392 518.245C118.164 517.789 117.708 517.562 117.252 517.562C117.024 517.562 117.024 517.562 116.797 517.562C116.341 517.789 116.113 518.245 116.113 518.701C116.113 518.928 116.113 518.928 116.113 519.156C116.341 519.612 116.797 519.84 117.252 519.84C117.48 519.84 117.48 519.84 117.708 519.84C118.164 519.612 118.619 518.928 118.392 518.245ZM131.379 517.789C131.151 517.789 131.151 517.789 130.923 517.789C130.468 517.789 130.012 518.017 129.784 518.473C129.784 518.701 129.784 518.701 129.784 518.928C129.784 519.384 130.012 519.84 130.468 520.067C130.695 520.067 130.695 520.067 130.923 520.067C131.379 520.067 131.835 519.84 132.063 519.384C132.29 518.701 131.835 518.017 131.379 517.789ZM114.062 520.067C113.835 519.612 113.379 519.612 113.151 519.612C112.923 519.612 112.695 519.612 112.467 519.84C112.24 520.067 112.012 520.523 112.012 520.751C112.012 520.979 112.012 521.206 112.24 521.434C112.467 521.662 112.923 521.89 113.151 521.89C113.379 521.89 113.607 521.89 113.835 521.662C114.29 521.434 114.518 520.751 114.062 520.067ZM135.708 520.295C135.48 520.067 135.253 520.067 135.025 520.067C134.569 520.067 134.341 520.295 134.113 520.523C133.885 520.751 133.885 520.979 133.885 521.206C133.885 521.662 134.113 521.89 134.341 522.118C134.569 522.345 134.797 522.345 135.025 522.345C135.48 522.345 135.708 522.118 135.936 521.89C136.164 521.434 136.164 520.751 135.708 520.295ZM110.417 523.029C110.189 522.801 109.961 522.801 109.733 522.801C109.505 522.801 109.05 523.029 108.822 523.257C108.594 523.484 108.594 523.712 108.594 523.94C108.594 524.168 108.822 524.623 109.05 524.851C109.278 525.079 109.505 525.079 109.961 525.079C110.189 525.079 110.645 524.851 110.872 524.623C110.872 524.168 110.872 523.484 110.417 523.029ZM139.126 523.712C138.898 523.484 138.67 523.257 138.215 523.257C137.987 523.257 137.759 523.257 137.531 523.484C137.303 523.712 137.075 523.94 137.075 524.396C137.075 524.623 137.075 524.851 137.303 525.079C137.531 525.307 137.759 525.535 138.215 525.535C138.442 525.535 138.67 525.535 138.898 525.307C139.582 524.851 139.582 524.168 139.126 523.712ZM107.455 526.674C107.227 526.674 106.999 526.446 106.999 526.446C106.543 526.446 106.088 526.674 105.86 527.129C105.86 527.357 105.632 527.585 105.632 527.585C105.632 528.04 105.86 528.496 106.315 528.724C106.543 528.724 106.543 528.952 106.771 528.952C107.227 528.952 107.683 528.724 107.91 528.268C108.138 527.585 107.91 526.901 107.455 526.674ZM141.86 527.813C141.632 527.357 141.177 527.129 140.721 527.129C140.493 527.129 140.493 527.129 140.265 527.357C139.81 527.585 139.582 528.04 139.582 528.496C139.582 528.724 139.582 528.952 139.582 528.952C139.81 529.407 140.265 529.635 140.721 529.635C140.949 529.635 141.177 529.635 141.177 529.407C141.86 528.952 142.088 528.268 141.86 527.813ZM105.404 530.774H105.176C104.721 530.774 104.265 531.23 104.037 531.685V531.913C104.037 532.369 104.265 532.824 104.948 533.052H105.176C105.632 533.052 106.088 532.824 106.315 532.141C106.543 531.685 106.088 531.002 105.404 530.774ZM143.455 532.369C143.227 531.913 142.772 531.457 142.316 531.457H142.088C141.632 531.685 141.177 532.141 141.177 532.596V532.824C141.177 533.28 141.632 533.735 142.316 533.735H142.544C143.227 533.735 143.683 533.052 143.455 532.369ZM104.721 535.33C104.037 535.33 103.581 535.786 103.581 536.469C103.581 537.152 104.037 537.608 104.721 537.608C105.404 537.608 105.86 537.152 105.86 536.469C105.86 536.013 105.404 535.33 104.721 535.33ZM142.772 536.241C142.088 536.241 141.632 536.697 141.632 537.38C141.632 538.064 142.088 538.519 142.772 538.519C143.455 538.519 143.911 538.064 143.911 537.38C143.911 536.697 143.455 536.241 142.772 536.241ZM104.948 538.519C104.265 538.747 103.809 539.203 103.809 539.658C103.809 539.658 103.809 539.658 103.809 539.886C104.037 540.342 104.493 540.797 104.948 540.797H105.176C105.86 540.569 106.315 540.114 106.088 539.43C106.088 538.975 105.404 538.519 104.948 538.519ZM142.316 540.797H142.088C141.632 540.797 141.177 541.253 140.949 541.708V541.936C140.949 542.392 141.177 542.847 141.86 543.075C142.088 543.075 142.088 543.075 142.088 543.075C142.544 543.075 142.999 542.847 143.227 542.164C143.227 541.708 142.999 541.025 142.316 540.797ZM107.227 543.759C106.999 543.303 106.543 543.075 106.088 543.075C105.86 543.075 105.86 543.075 105.632 543.075C105.176 543.303 104.948 543.759 104.948 544.214C104.948 544.442 104.948 544.442 104.948 544.67C105.176 545.125 105.632 545.353 106.088 545.353C106.315 545.353 106.315 545.353 106.543 545.353C107.227 544.898 107.683 544.214 107.227 543.759ZM140.721 545.125C140.493 545.125 140.265 544.898 140.037 544.898C139.582 544.898 139.354 545.125 139.126 545.581C138.898 545.809 138.898 546.037 138.898 546.037C138.898 546.492 139.126 546.948 139.582 546.948C139.81 547.176 140.037 547.176 140.037 547.176C140.493 547.176 140.721 546.948 140.949 546.492C141.404 546.264 141.404 545.581 140.721 545.125ZM109.505 547.403C109.278 547.176 108.822 546.948 108.594 546.948C108.366 546.948 108.138 546.948 107.91 547.176C107.683 547.403 107.455 547.631 107.455 548.087C107.455 548.315 107.455 548.542 107.683 548.77C107.91 548.998 108.138 549.226 108.594 549.226C108.822 549.226 109.05 549.226 109.278 548.998C109.961 548.77 109.961 548.087 109.505 547.403ZM138.215 548.998C137.987 548.77 137.759 548.77 137.531 548.77C137.303 548.77 136.847 548.998 136.62 549.226C136.392 549.454 136.392 549.681 136.392 550.137C136.392 550.365 136.62 550.82 136.847 551.048C137.075 551.276 137.303 551.276 137.759 551.276C137.987 551.276 138.442 551.048 138.67 551.048C138.67 550.137 138.67 549.454 138.215 548.998ZM112.695 550.593C112.467 550.365 112.24 550.365 112.012 550.365C111.784 550.365 111.328 550.593 111.1 550.82C110.872 551.048 110.872 551.276 110.872 551.504C110.872 551.732 111.1 552.187 111.328 552.415C111.556 552.643 111.784 552.643 112.012 552.643C112.467 552.643 112.695 552.415 112.923 552.187C113.151 551.732 113.151 551.048 112.695 550.593ZM134.797 552.187C134.569 551.732 134.113 551.732 133.885 551.732C133.658 551.732 133.43 551.732 133.202 551.959C132.746 552.187 132.746 552.643 132.746 552.871C132.746 553.098 132.746 553.326 132.974 553.554C133.202 554.01 133.658 554.01 133.885 554.01C134.113 554.01 134.341 554.01 134.569 553.782C134.797 553.326 135.025 552.643 134.797 552.187ZM116.341 552.871C116.113 552.871 115.885 552.871 115.885 552.871C115.429 552.871 114.974 553.098 114.746 553.554C114.746 553.782 114.518 553.782 114.518 554.01C114.518 554.465 114.746 554.921 115.202 555.149C115.43 555.149 115.657 555.376 115.657 555.376C116.113 555.376 116.569 555.149 116.797 554.693C117.252 553.782 117.024 553.098 116.341 552.871ZM130.695 554.465C130.468 554.01 130.012 553.554 129.556 553.554H129.328C128.873 553.782 128.417 554.237 128.417 554.693C128.417 554.921 128.417 554.921 128.417 555.149C128.645 555.604 129.101 556.06 129.556 556.06H129.784C130.468 555.604 130.695 554.921 130.695 554.465ZM120.442 554.237C119.759 554.237 119.075 554.693 119.075 555.149V555.376C119.075 555.832 119.531 556.515 119.987 556.515H120.214C120.67 556.515 121.354 556.06 121.354 555.604C121.581 554.921 121.126 554.237 120.442 554.237ZM124.999 554.465C124.316 554.465 123.86 554.921 123.86 555.604C123.86 556.288 124.316 556.743 124.999 556.743C125.683 556.743 126.138 556.06 126.138 555.604C126.138 554.921 125.455 554.465 124.999 554.465Z" fill="white" fill-opacity="0.8"/>
<path d="M125.306 732.715C156.263 732.715 181.358 707.625 181.358 676.675C181.358 645.726 156.263 620.636 125.306 620.636C94.3498 620.636 69.2545 645.726 69.2545 676.675C69.2545 707.625 94.3498 732.715 125.306 732.715Z" fill="#FF64AE"/>
<path d="M161.906 691.953C167.045 670.672 153.956 649.256 132.671 644.118C111.386 638.98 89.9645 652.067 84.8255 673.347C79.6865 694.628 92.7755 716.044 114.061 721.182C135.346 726.32 156.767 713.233 161.906 691.953Z" fill="#BCBEC0"/>
<path d="M163.88 686.125C169.021 664.844 155.934 643.426 134.648 638.286C113.363 633.146 91.9403 646.23 86.7991 667.511C81.6579 688.791 94.7452 710.209 116.03 715.349C137.316 720.489 158.738 707.405 163.88 686.125Z" fill="white"/>
<path d="M633.352 301.872C633.352 294.81 639.048 288.887 646.34 288.887C653.631 288.887 659.327 294.582 659.327 301.872C659.327 308.934 653.631 314.857 646.34 314.857C639.048 314.857 633.352 308.934 633.352 301.872Z" fill="#53CBED"/>
<path d="M646.112 384.108C646.34 384.108 646.34 384.108 646.112 384.108C646.34 384.108 646.567 384.108 646.567 384.108H646.795C646.795 384.108 647.023 384.108 647.023 384.336C647.023 384.336 647.023 384.336 647.251 384.563V384.791V385.019V385.247C647.251 385.475 647.023 385.93 647.023 386.158C646.567 386.614 645.884 386.614 645.428 386.158C645.2 385.93 644.973 385.702 644.973 385.247C644.973 385.019 645.2 384.563 645.428 384.336C645.428 384.336 645.428 384.336 645.656 384.108H645.884C645.884 384.108 645.884 384.108 646.112 384.108Z" fill="#434345"/>
<path d="M646.112 327.841C645.428 327.841 644.973 328.297 644.973 328.98C644.973 329.664 645.428 330.119 646.112 330.119C646.795 330.119 647.251 329.664 647.251 328.98C647.479 328.297 646.795 327.841 646.112 327.841ZM646.112 332.397C645.428 332.397 644.973 332.853 644.973 333.536C644.973 334.22 645.428 334.675 646.112 334.675C646.795 334.675 647.251 334.22 647.251 333.536C647.479 333.081 646.795 332.397 646.112 332.397ZM646.112 337.181C645.428 337.181 644.973 337.637 644.973 338.32C644.973 339.003 645.428 339.459 646.112 339.459C646.795 339.459 647.251 339.003 647.251 338.32C647.479 337.637 646.795 337.181 646.112 337.181ZM646.112 341.965C645.428 341.965 644.973 342.42 644.973 343.104C644.973 343.787 645.428 344.243 646.112 344.243C646.795 344.243 647.251 343.787 647.251 343.104C647.479 342.42 646.795 341.965 646.112 341.965ZM646.112 346.521C645.428 346.521 644.973 346.976 644.973 347.66C644.973 348.343 645.428 348.799 646.112 348.799C646.795 348.799 647.251 348.343 647.251 347.66C647.251 346.976 646.795 346.521 646.112 346.521ZM646.112 351.305C645.428 351.305 644.973 351.76 644.973 352.444C644.973 353.127 645.428 353.583 646.112 353.583C646.795 353.583 647.251 353.127 647.251 352.444C647.251 351.76 646.795 351.305 646.112 351.305ZM646.112 356.088C645.428 356.088 644.973 356.544 644.973 357.227C644.973 357.911 645.428 358.366 646.112 358.366C646.795 358.366 647.251 357.911 647.251 357.227C647.251 356.544 646.795 356.088 646.112 356.088ZM646.112 360.644C645.428 360.644 644.973 361.1 644.973 361.783C644.973 362.467 645.428 362.922 646.112 362.922C646.795 362.922 647.251 362.467 647.251 361.783C647.251 361.1 646.795 360.644 646.112 360.644ZM646.112 365.428C645.428 365.428 644.973 365.884 644.973 366.567C644.973 367.251 645.428 367.706 646.112 367.706C646.795 367.706 647.251 367.251 647.251 366.567C647.479 365.884 646.795 365.428 646.112 365.428ZM646.112 369.984C645.428 369.984 644.973 370.44 644.973 371.123C644.973 371.807 645.428 372.262 646.112 372.262C646.795 372.262 647.251 371.807 647.251 371.123C647.479 370.668 646.795 369.984 646.112 369.984ZM646.112 374.768C645.428 374.768 644.973 375.224 644.973 375.907C644.973 376.59 645.428 377.046 646.112 377.046C646.795 377.046 647.251 376.59 647.251 375.907C647.479 375.224 646.795 374.768 646.112 374.768ZM646.112 379.552C645.428 379.552 644.973 380.007 644.973 380.691C644.973 381.374 645.428 381.83 646.112 381.83C646.795 381.83 647.251 381.374 647.251 380.691C647.251 380.007 646.795 379.552 646.112 379.552Z" fill="white" fill-opacity="0.8"/>
<path d="M646.112 323.057C646.34 323.057 646.34 323.057 646.567 323.057C646.795 323.057 646.795 323.285 647.023 323.285C647.251 323.513 647.251 323.741 647.251 324.196V324.424V324.652V324.88C647.251 324.88 647.251 325.108 647.023 325.108C646.795 325.335 646.34 325.563 645.884 325.335H645.656H645.428C645.428 325.335 645.2 325.335 645.2 325.108C645.2 325.108 645.2 325.108 644.973 324.88V324.652V324.424V324.196C644.973 323.969 645.2 323.513 645.428 323.285C645.428 323.285 645.428 323.285 645.656 323.057H645.884C645.884 323.057 645.884 323.057 646.112 323.057Z" fill="#434345"/>
<path d="M644.289 281.598C643.605 281.598 643.15 282.281 643.15 282.737V282.965C643.15 283.648 643.605 283.876 644.289 283.876H644.517C645.2 283.876 645.656 283.192 645.656 282.509C645.428 282.053 644.745 281.598 644.289 281.598ZM649.074 281.826C648.39 281.826 647.935 282.281 647.707 282.737V282.965C647.707 283.42 648.162 284.104 648.846 284.104C648.846 284.104 648.846 284.104 649.074 284.104C649.53 284.104 650.213 283.648 650.213 282.965C650.213 282.509 649.757 281.826 649.074 281.826ZM640.871 283.42C640.643 282.965 640.188 282.737 639.732 282.737C639.504 282.737 639.504 282.737 639.276 282.737C638.821 282.965 638.593 283.42 638.593 283.876C638.593 284.104 638.593 284.104 638.593 284.331C638.821 284.787 639.276 285.015 639.732 285.015C639.96 285.015 639.96 285.015 640.188 285.015C640.643 284.787 641.099 284.104 640.871 283.42ZM653.859 283.192C653.631 283.192 653.631 283.192 653.403 283.192C652.947 283.192 652.492 283.42 652.264 283.876C652.264 284.104 652.264 284.104 652.264 284.331C652.264 284.787 652.492 285.243 652.947 285.47C653.175 285.47 653.175 285.47 653.403 285.47C653.859 285.47 654.314 285.243 654.542 284.787C654.77 284.104 654.542 283.42 653.859 283.192ZM636.542 285.47C636.314 285.015 635.859 285.015 635.631 285.015C635.403 285.015 635.175 285.015 634.947 285.243C634.491 285.47 634.491 285.926 634.491 286.154C634.491 286.382 634.491 286.609 634.719 286.837C634.947 287.065 635.403 287.293 635.631 287.293C635.859 287.293 636.086 287.293 636.314 287.065C636.77 286.609 636.998 285.926 636.542 285.47ZM658.188 285.47C657.96 285.243 657.732 285.243 657.504 285.243C657.049 285.243 656.821 285.47 656.593 285.698C656.365 285.926 656.365 286.154 656.365 286.382C656.365 286.837 656.593 287.065 656.821 287.293C657.049 287.521 657.276 287.521 657.504 287.521C657.96 287.521 658.188 287.293 658.416 287.065C658.871 286.609 658.644 285.926 658.188 285.47ZM632.896 288.204C632.669 287.976 632.441 287.976 631.985 287.976C631.757 287.976 631.302 288.204 631.074 288.432C630.846 288.66 630.846 288.887 630.846 289.115C630.846 289.343 631.074 289.799 631.302 290.026C631.529 290.254 631.757 290.254 631.985 290.254C632.213 290.254 632.669 290.026 632.896 289.799C633.352 289.343 633.352 288.66 632.896 288.204ZM661.833 288.887C661.606 288.66 661.378 288.432 660.922 288.432C660.694 288.432 660.466 288.432 660.238 288.66C660.011 288.887 659.783 289.115 659.783 289.571C659.783 289.799 659.783 290.026 660.011 290.254C660.239 290.482 660.466 290.71 660.922 290.71C661.15 290.71 661.378 290.71 661.606 290.482C662.061 290.026 662.061 289.343 661.833 288.887ZM629.934 291.849C629.707 291.849 629.479 291.621 629.479 291.621C629.023 291.621 628.567 291.849 628.567 292.304C628.567 292.532 628.339 292.76 628.339 292.76C628.339 293.216 628.567 293.671 629.023 293.671C629.251 293.671 629.479 293.899 629.479 293.899C629.934 293.899 630.39 293.671 630.618 293.216C630.846 292.76 630.618 292.077 629.934 291.849ZM664.34 292.988C664.112 292.532 663.656 292.304 663.201 292.304C662.973 292.304 662.745 292.304 662.745 292.532C662.289 292.76 662.061 293.216 662.061 293.443C662.061 293.671 662.061 293.899 662.061 293.899C662.289 294.355 662.745 294.582 663.201 294.582C663.428 294.582 663.656 294.582 663.656 294.355C664.34 294.355 664.796 293.671 664.34 292.988ZM628.112 296.177H627.884C627.428 296.177 626.972 296.633 626.745 297.088V297.316C626.745 297.772 627.2 298.227 627.656 298.455H627.884C628.339 298.455 628.795 297.999 629.023 297.544C629.023 296.86 628.567 296.177 628.112 296.177ZM665.935 297.772C665.935 297.316 665.251 296.86 664.796 296.86H664.568C664.112 297.088 663.656 297.544 663.656 297.999V298.227C663.884 298.683 664.34 299.138 664.796 299.138H665.023C665.707 298.911 666.163 298.227 665.935 297.772ZM627.2 300.733C626.517 300.733 626.061 301.189 626.061 301.872C626.061 302.555 626.517 303.011 627.2 303.011C627.884 303.011 628.339 302.555 628.339 301.872C628.339 301.189 627.884 300.733 627.2 300.733ZM665.251 301.416C664.568 301.416 664.112 301.872 664.112 302.555C664.112 303.239 664.568 303.694 665.251 303.694C665.935 303.694 666.39 303.239 666.39 302.555C666.39 301.872 665.935 301.416 665.251 301.416ZM627.428 303.694C626.744 303.922 626.289 304.378 626.289 304.833V305.061C626.517 305.517 626.972 305.972 627.428 305.972C627.428 305.972 627.428 305.972 627.656 305.972C628.339 305.745 628.795 305.289 628.567 304.606C628.567 304.15 627.884 303.694 627.428 303.694ZM664.796 305.972C664.568 305.972 664.568 305.972 664.568 305.972C664.112 305.972 663.656 306.2 663.428 306.884V307.111C663.428 307.567 663.656 308.023 664.34 308.25H664.568C665.023 308.25 665.479 308.023 665.707 307.339C665.707 306.884 665.479 306.2 664.796 305.972ZM629.934 308.934C629.707 308.478 629.251 308.25 628.795 308.25C628.567 308.25 628.567 308.25 628.339 308.25C627.884 308.478 627.656 308.934 627.656 309.389C627.656 309.617 627.656 309.617 627.656 309.845C627.884 310.301 628.339 310.528 628.795 310.528C629.023 310.528 629.023 310.528 629.251 310.301C629.934 310.301 630.162 309.617 629.934 308.934ZM663.201 310.301C662.973 310.301 662.745 310.073 662.517 310.073C662.061 310.073 661.833 310.301 661.606 310.528C661.606 310.756 661.378 310.984 661.378 311.212C661.378 311.667 661.606 312.123 661.833 312.123C662.061 312.351 662.289 312.351 662.517 312.351C662.973 312.351 663.428 312.123 663.428 311.895C664.112 311.44 663.884 310.756 663.201 310.301ZM631.985 312.806C631.757 312.579 631.529 312.351 631.074 312.351C630.846 312.351 630.618 312.351 630.39 312.579C630.162 312.806 629.934 313.034 629.934 313.49C629.934 313.718 629.934 313.945 630.162 314.173C630.39 314.401 630.618 314.629 631.074 314.629C631.302 314.629 631.529 314.629 631.757 314.401C632.441 313.945 632.441 313.262 631.985 312.806ZM660.694 314.173C660.466 313.945 660.239 313.718 660.011 313.718C659.783 313.718 659.327 313.945 659.099 314.173C658.871 314.401 658.871 314.629 658.871 315.084C658.871 315.312 659.099 315.768 659.327 315.996C659.555 316.223 659.783 316.223 660.238 316.223C660.694 316.223 660.922 315.996 661.15 315.768C661.15 315.54 661.15 314.629 660.694 314.173ZM635.175 315.768C634.947 315.54 634.719 315.54 634.491 315.54C634.264 315.54 633.808 315.768 633.58 315.996C633.352 316.223 633.352 316.451 633.352 316.679C633.352 316.907 633.58 317.362 633.808 317.59C634.036 317.818 634.264 317.818 634.491 317.818C634.719 317.818 635.175 317.59 635.403 317.362C635.631 316.907 635.631 316.223 635.175 315.768ZM657.276 317.362C657.049 317.135 656.593 316.907 656.365 316.907C656.137 316.907 655.909 316.907 655.681 317.135C655.454 317.362 655.226 317.818 655.226 318.046C655.226 318.274 655.226 318.501 655.454 318.729C655.682 319.185 656.137 319.185 656.365 319.185C656.593 319.185 656.821 319.185 657.049 318.957C657.276 318.729 657.504 318.046 657.276 317.362ZM638.821 318.046C638.593 318.046 638.593 317.818 638.365 317.818C637.909 317.818 637.453 318.046 637.226 318.501C637.226 318.729 637.226 318.729 637.226 318.957C637.226 319.413 637.453 319.868 637.909 320.096C638.137 320.096 638.365 320.096 638.365 320.096C638.821 320.096 639.276 319.868 639.504 319.413C639.732 318.957 639.504 318.274 638.821 318.046ZM653.175 319.64C652.947 319.185 652.492 318.729 652.036 318.729H651.808C651.352 318.957 650.897 319.413 650.897 319.868V320.096C651.125 320.552 651.58 321.007 652.036 321.007C652.264 321.007 652.264 321.007 652.492 321.007C652.947 320.779 653.403 320.324 653.175 319.64ZM642.922 319.413C642.238 319.413 641.783 319.868 641.555 320.324V320.552C641.555 321.007 642.01 321.691 642.466 321.691H642.694C643.15 321.691 643.833 321.235 643.833 320.779C644.061 320.096 643.605 319.413 642.922 319.413ZM647.479 319.64C646.795 319.64 646.34 320.096 646.34 320.779C646.34 321.463 646.795 321.918 647.479 321.918C648.162 321.918 648.618 321.235 648.618 320.779C648.618 320.096 648.162 319.64 647.479 319.64Z" fill="white" fill-opacity="0.8"/>
<path d="M646.487 499.243C677.444 499.243 702.539 474.153 702.539 443.204C702.539 412.254 677.444 387.164 646.487 387.164C615.531 387.164 590.435 412.254 590.435 443.204C590.435 474.153 615.531 499.243 646.487 499.243Z" fill="#53CBED"/>
<path d="M683.157 457.971C688.144 436.655 674.905 415.333 653.584 410.346C632.264 405.36 610.937 418.597 605.949 439.912C600.961 461.228 614.201 482.55 635.521 487.537C656.842 492.523 678.169 479.286 683.157 457.971Z" fill="#BCBEC0"/>
<path d="M685.11 452.113C690.098 430.797 676.858 409.475 655.538 404.488C634.217 399.502 612.89 412.739 607.902 434.054C602.914 455.37 616.154 476.692 637.475 481.679C658.795 486.665 680.122 473.428 685.11 452.113Z" fill="white"/>
<path d="M167.21 188H176.27V209H171.41V191.9H167.21V188Z" fill="#03123B"/>
<path d="M644.83 450.04H653.86V454H637.99V450.85L646.09 443.2C647.95 441.43 648.28 440.35 648.28 439.33C648.28 437.68 647.14 436.72 644.92 436.72C643.12 436.72 641.59 437.41 640.57 438.82L637.03 436.54C638.65 434.17 641.59 432.64 645.37 432.64C650.05 432.64 653.17 435.04 653.17 438.85C653.17 440.89 652.6 442.75 649.66 445.48L644.83 450.04Z" fill="#03123B"/>
<path d="M123.98 675.55C127.76 676.15 129.68 678.49 129.68 681.58C129.68 685.12 126.95 688.36 120.98 688.36C118.04 688.36 115.01 687.55 112.97 686.11L114.86 682.39C116.45 683.59 118.67 684.28 120.86 684.28C123.29 684.28 124.79 683.29 124.79 681.58C124.79 679.99 123.62 679 120.86 679H118.64V675.79L122.96 670.9H114.02V667H128.72V670.15L123.98 675.55Z" fill="#03123B"/>
<path d="M620.4 697.63V701.59H616.98V706H612.24V701.59H600.93V698.32L610.83 685H615.93L606.75 697.63H612.39V693.7H616.98V697.63H620.4Z" fill="#03123B"/>
<path d="M348.37 944.89C354.58 944.89 357.04 947.68 357.04 951.4C357.04 955.12 354.31 958.36 348.31 958.36C345.4 958.36 342.34 957.55 340.3 956.11L342.22 952.39C343.81 953.59 346 954.28 348.19 954.28C350.62 954.28 352.12 953.26 352.12 951.55C352.12 949.9 351.04 948.82 347.23 948.82H341.86L342.94 937H355.75V940.9H346.99L346.66 944.89H348.37Z" fill="#03123B"/>
</svg>
