<svg width="816" height="1139" viewBox="0 0 816 1139" fill="none" xmlns="http://www.w3.org/2000/svg">
<path d="M173.128 72.2587C180.301 72.2587 186.116 66.4453 186.116 59.2741C186.116 52.103 180.301 46.2896 173.128 46.2896C165.955 46.2896 160.141 52.103 160.141 59.2741C160.141 66.4453 165.955 72.2587 173.128 72.2587Z" fill="#FFBA23"/>
<path d="M173.129 141.737C173.357 141.737 173.357 141.737 173.129 141.737C173.357 141.737 173.585 141.737 173.585 141.737H173.813C173.813 141.737 174.041 141.737 174.041 141.965C174.041 141.965 174.041 141.965 174.269 142.193V142.421V142.649V142.876C174.269 143.104 174.041 143.56 174.041 143.788C173.585 144.243 172.902 144.243 172.446 143.788C172.218 143.56 171.99 143.332 171.99 142.876C171.99 142.649 172.218 142.193 172.446 141.965C172.446 141.965 172.446 141.965 172.674 141.737H172.902C172.902 141.737 172.902 141.737 173.129 141.737Z" fill="#434345"/>
<path d="M173.129 85.2432C172.446 85.2432 171.99 85.6988 171.99 86.3822C171.99 87.0656 172.446 87.5212 173.129 87.5212C173.813 87.5212 174.269 87.0656 174.269 86.3822C174.497 85.9266 173.813 85.2432 173.129 85.2432ZM173.129 90.027C172.446 90.027 171.99 90.4826 171.99 91.166C171.99 91.8494 172.446 92.305 173.129 92.305C173.813 92.305 174.269 91.8494 174.269 91.166C174.497 90.4826 173.813 90.027 173.129 90.027ZM173.129 94.8108C172.446 94.8108 171.99 95.2664 171.99 95.9498C171.99 96.6332 172.446 97.0888 173.129 97.0888C173.813 97.0888 174.269 96.6332 174.269 95.9498C174.497 95.2664 173.813 94.8108 173.129 94.8108ZM173.129 99.3668C172.446 99.3668 171.99 99.8224 171.99 100.506C171.99 101.189 172.446 101.645 173.129 101.645C173.813 101.645 174.269 101.189 174.269 100.506C174.497 100.05 173.813 99.3668 173.129 99.3668ZM173.129 104.151C172.446 104.151 171.99 104.606 171.99 105.29C171.99 105.973 172.446 106.429 173.129 106.429C173.813 106.429 174.269 105.973 174.269 105.29C174.497 104.606 173.813 104.151 173.129 104.151ZM173.129 108.707C172.446 108.707 171.99 109.162 171.99 109.846C171.99 110.529 172.446 110.985 173.129 110.985C173.813 110.985 174.269 110.529 174.269 109.846C174.497 109.39 173.813 108.707 173.129 108.707ZM173.129 113.49C172.446 113.49 171.99 113.946 171.99 114.629C171.99 115.313 172.446 115.768 173.129 115.768C173.813 115.768 174.269 115.313 174.269 114.629C174.497 113.946 173.813 113.49 173.129 113.49ZM173.129 118.274C172.446 118.274 171.99 118.73 171.99 119.413C171.99 120.097 172.446 120.552 173.129 120.552C173.813 120.552 174.269 120.097 174.269 119.413C174.269 118.73 173.813 118.274 173.129 118.274ZM173.129 122.83C172.446 122.83 171.99 123.286 171.99 123.969C171.99 124.653 172.446 125.108 173.129 125.108C173.813 125.108 174.269 124.653 174.269 123.969C174.497 123.514 173.813 122.83 173.129 122.83ZM173.129 127.614C172.446 127.614 171.99 128.07 171.99 128.753C171.99 129.436 172.446 129.892 173.129 129.892C173.813 129.892 174.269 129.436 174.269 128.753C174.497 128.07 173.813 127.614 173.129 127.614ZM173.129 132.17C172.446 132.17 171.99 132.626 171.99 133.309C171.99 133.992 172.446 134.448 173.129 134.448C173.813 134.448 174.269 133.992 174.269 133.309C174.269 132.626 173.813 132.17 173.129 132.17ZM173.129 136.954C172.446 136.954 171.99 137.409 171.99 138.093C171.99 138.776 172.446 139.232 173.129 139.232C173.813 139.232 174.269 138.776 174.269 138.093C174.497 137.409 173.813 136.954 173.129 136.954Z" fill="#313246"/>
<path d="M173.129 80.687C173.357 80.687 173.357 80.687 173.585 80.687C173.813 80.687 173.813 80.9148 174.041 80.9148C174.269 81.1426 174.269 81.3704 174.269 81.826V82.0538V82.2816V82.5094C174.269 82.5094 174.269 82.7372 174.041 82.7372C173.813 82.965 173.357 83.1928 172.902 82.965H172.674H172.446C172.446 82.965 172.218 82.965 172.218 82.7372C172.218 82.7372 172.218 82.7372 171.99 82.5094V82.2816V82.0538V81.826C171.99 81.5982 172.218 81.1426 172.446 80.9148C172.446 80.9148 172.446 80.9148 172.674 80.687H172.902C172.902 80.687 172.902 80.687 173.129 80.687Z" fill="#434345"/>
<path d="M171.306 39.2275C170.623 39.2275 170.167 39.9109 170.167 40.3665C170.167 41.0499 170.623 41.5055 171.306 41.5055H171.534C172.218 41.5055 172.673 40.8221 172.673 40.1387C172.445 39.6831 171.762 39.2275 171.306 39.2275ZM176.091 39.2275C175.407 39.2275 174.724 39.6831 174.724 40.1387V40.3665C174.724 40.8221 175.18 41.5055 175.635 41.5055C175.635 41.5055 175.635 41.5055 175.863 41.5055C176.319 41.5055 177.002 41.0499 177.002 40.5943C177.23 39.9109 176.775 39.4553 176.091 39.2275ZM167.888 41.0499C167.661 40.5943 167.205 40.3665 166.749 40.3665C166.521 40.3665 166.521 40.3665 166.293 40.3665C165.838 40.5943 165.61 41.0499 165.61 41.5055C165.61 41.7333 165.61 41.7333 165.61 41.9611C165.838 42.4167 166.293 42.6445 166.749 42.6445C166.977 42.6445 166.977 42.6445 167.205 42.6445C167.661 42.4167 168.116 41.7333 167.888 41.0499ZM180.876 40.5943C180.648 40.5943 180.648 40.5943 180.42 40.5943C179.964 40.5943 179.509 40.8221 179.281 41.2777C179.281 41.5055 179.281 41.5055 179.281 41.7333C179.281 42.1889 179.509 42.6445 179.964 42.8723C180.192 42.8723 180.192 42.8723 180.42 42.8723C180.876 42.8723 181.332 42.6445 181.559 42.1889C181.787 41.5055 181.559 40.8221 180.876 40.5943ZM163.559 42.8723C163.331 42.6445 162.876 42.4167 162.648 42.4167C162.42 42.4167 162.192 42.4167 161.964 42.6445C161.736 42.8723 161.509 43.3279 161.509 43.5557C161.509 43.7835 161.509 44.0113 161.736 44.2391C161.964 44.4669 162.42 44.6947 162.648 44.6947C162.876 44.6947 163.104 44.6947 163.331 44.4669C163.787 44.2391 164.015 43.3279 163.559 42.8723ZM185.205 43.1001C184.977 42.8723 184.749 42.8723 184.522 42.8723C184.066 42.8723 183.838 43.1001 183.61 43.3279C183.382 43.5557 183.382 43.7835 183.382 44.0113C183.382 44.4669 183.61 44.6947 183.838 44.9225C184.066 45.1503 184.294 45.1503 184.522 45.1503C184.977 45.1503 185.205 44.9225 185.433 44.6947C185.889 44.0113 185.661 43.3279 185.205 43.1001ZM159.914 45.8337C159.686 45.6059 159.458 45.6059 159.23 45.6059C159.002 45.6059 158.547 45.8337 158.319 46.0615C158.091 46.2893 158.091 46.5171 158.091 46.7449C158.091 46.9727 158.319 47.4283 158.547 47.6561C158.774 47.8839 159.002 47.8839 159.23 47.8839C159.458 47.8839 159.914 47.6561 160.142 47.4283C160.369 46.9727 160.369 46.0615 159.914 45.8337ZM188.851 46.2893C188.623 46.0615 188.395 45.8337 187.939 45.8337C187.711 45.8337 187.484 45.8337 187.256 46.0615C187.028 46.2893 186.8 46.5171 186.8 46.9727C186.8 47.2005 186.8 47.4283 187.028 47.6561C187.256 47.8839 187.484 48.1117 187.939 48.1117C188.167 48.1117 188.395 48.1117 188.623 47.8839C189.079 47.6561 189.079 46.9727 188.851 46.2893ZM156.952 49.2507C156.724 49.2507 156.496 49.0229 156.496 49.0229C156.04 49.0229 155.584 49.2507 155.584 49.7063C155.584 49.9341 155.357 50.1619 155.357 50.1619C155.357 50.6175 155.584 51.0731 156.04 51.3009C156.268 51.3009 156.496 51.5287 156.496 51.5287C156.952 51.5287 157.407 51.3009 157.635 50.8453C157.635 50.3897 157.635 49.7063 156.952 49.2507ZM191.357 50.6175C191.129 50.1619 190.673 49.9341 190.218 49.9341C189.99 49.9341 189.762 49.9341 189.762 50.1619C189.306 50.3897 189.079 50.8453 189.079 51.3009C189.079 51.5287 189.079 51.5287 189.306 51.7565C189.534 52.2121 189.99 52.4399 190.446 52.4399C190.673 52.4399 190.673 52.4399 190.901 52.2121C191.357 51.7565 191.813 51.0731 191.357 50.6175ZM154.901 53.5789H154.673C154.217 53.5789 153.762 54.0345 153.534 54.4901V54.7179C153.534 55.1735 153.99 55.6291 154.445 55.8569H154.673C155.129 55.8569 155.585 55.4013 155.812 54.9457C156.04 54.2623 155.584 53.8067 154.901 53.5789ZM192.952 55.1735C192.952 54.7179 192.268 54.2623 191.813 54.2623H191.585C191.129 54.2623 190.673 54.9457 190.673 55.4013V55.6291C190.673 56.0847 191.129 56.5403 191.813 56.5403H192.041C192.724 56.5403 193.18 55.8569 192.952 55.1735ZM154.217 58.1349C153.534 58.1349 153.078 58.5905 153.078 59.2739C153.078 59.9573 153.534 60.4129 154.217 60.4129C154.901 60.4129 155.357 59.9573 155.357 59.2739C155.357 58.5905 154.901 58.1349 154.217 58.1349ZM192.268 58.8183C191.585 58.8183 191.129 59.2739 191.129 59.9573C191.129 60.6407 191.585 61.0963 192.268 61.0963C192.952 61.0963 193.408 60.6407 193.408 59.9573C193.408 59.5017 192.952 58.8183 192.268 58.8183ZM154.445 61.3241C153.762 61.5519 153.306 62.0075 153.306 62.4631C153.306 62.4631 153.306 62.4631 153.306 62.6909C153.306 63.1465 153.99 63.6021 154.445 63.6021H154.673C155.357 63.6021 155.812 62.9187 155.584 62.2353C155.584 61.7797 154.901 61.3241 154.445 61.3241ZM191.813 63.6021H191.585C191.129 63.6021 190.673 63.8299 190.446 64.5133V64.7411C190.446 65.1967 190.901 65.6523 191.357 65.8801H191.585C192.041 65.8801 192.496 65.6523 192.724 64.9689C192.724 64.2855 192.496 63.8299 191.813 63.6021ZM156.952 66.5635C156.724 66.1079 156.268 65.8801 155.812 65.8801C155.585 65.8801 155.584 65.8801 155.357 65.8801C154.901 66.1079 154.673 66.5635 154.673 67.0191C154.673 67.2469 154.673 67.2469 154.673 67.4747C154.901 67.9303 155.357 68.1581 155.812 68.1581C156.04 68.1581 156.04 68.1581 156.268 67.9303C156.724 67.7025 157.179 67.0191 156.952 66.5635ZM190.218 67.9303C189.99 67.7025 189.762 67.7025 189.534 67.7025C189.079 67.7025 188.851 67.9303 188.623 68.1581C188.395 68.3859 188.395 68.6137 188.395 68.8415C188.395 69.2971 188.623 69.5249 189.079 69.7527C189.306 69.9805 189.534 69.9805 189.534 69.9805C189.99 69.9805 190.218 69.7527 190.446 69.5249C191.129 68.8415 190.901 68.1581 190.218 67.9303ZM159.002 70.2083C158.774 69.9805 158.319 69.7527 158.091 69.7527C157.863 69.7527 157.635 69.7527 157.407 69.9805C157.179 70.2083 156.952 70.4361 156.952 70.8917C156.952 71.1195 156.952 71.3473 157.179 71.5751C157.407 71.8029 157.635 72.0307 158.091 72.0307C158.319 72.0307 158.547 72.0307 158.774 71.8029C159.458 71.5751 159.458 70.6639 159.002 70.2083ZM187.711 71.8029C187.484 71.5751 187.256 71.5751 186.8 71.5751C186.572 71.5751 186.116 71.8029 185.889 72.0307C185.661 72.2585 185.661 72.4863 185.661 72.9419C185.661 73.1697 185.889 73.6253 186.116 73.8531C186.344 74.0809 186.572 74.0809 187.028 74.0809C187.256 74.0809 187.711 73.8531 187.939 73.6253C188.167 72.9419 188.167 72.2585 187.711 71.8029ZM162.192 73.3975C161.964 73.1697 161.736 73.1697 161.509 73.1697C161.053 73.1697 160.825 73.3975 160.597 73.6253C160.369 73.8531 160.369 74.0809 160.369 74.3087C160.369 74.7643 160.597 74.9921 160.825 75.2199C161.053 75.4477 161.281 75.4477 161.509 75.4477C161.964 75.4477 162.192 75.2199 162.42 74.9921C162.648 74.5365 162.648 73.6253 162.192 73.3975ZM184.294 74.9921C184.066 74.5365 183.61 74.5365 183.382 74.5365C183.154 74.5365 182.927 74.5365 182.699 74.7643C182.243 74.9921 182.243 75.4477 182.243 75.6755C182.243 75.9033 182.243 76.1311 182.471 76.3589C182.699 76.8145 183.154 76.8145 183.382 76.8145C183.61 76.8145 183.838 76.8145 184.066 76.5867C184.294 76.1311 184.522 75.4477 184.294 74.9921ZM165.838 75.6755C165.61 75.6755 165.61 75.6755 165.382 75.6755C164.926 75.6755 164.471 75.9033 164.243 76.3589C164.243 76.5867 164.015 76.5867 164.015 76.8145C164.015 77.2701 164.243 77.7257 164.699 77.9535C164.926 77.9535 164.926 77.9535 165.154 77.9535C165.61 77.9535 166.066 77.7257 166.293 77.2701C166.749 76.5867 166.521 75.9033 165.838 75.6755ZM180.192 77.0423C179.965 76.5867 179.509 76.1311 179.053 76.1311C178.825 76.1311 178.825 76.1311 178.825 76.1311C178.37 76.3589 177.914 76.8145 177.914 77.2701C177.914 77.2701 177.914 77.4979 177.914 77.7257C178.142 78.1813 178.597 78.6369 179.053 78.6369C179.281 78.6369 179.281 78.6369 179.509 78.6369C179.965 78.4091 180.42 77.7257 180.192 77.0423ZM169.939 76.8145C169.256 76.8145 168.572 77.2701 168.572 77.7257V77.9535C168.572 78.4091 169.028 79.0925 169.483 79.0925H169.711C170.167 79.0925 170.85 78.6369 170.85 78.1813C171.078 77.7257 170.623 77.0423 169.939 76.8145ZM174.496 77.2701C173.813 77.2701 173.357 77.7257 173.357 78.4091C173.357 79.0925 173.813 79.5481 174.496 79.5481C175.18 79.5481 175.635 78.8647 175.635 78.4091C175.635 77.7257 175.18 77.2701 174.496 77.2701Z" fill="#313246"/>
<path d="M815.842 815.296C815.842 893.887 752.044 957.671 673.435 957.671H389.533C383.837 957.671 378.141 958.355 372.672 959.494C371.761 959.721 370.85 959.949 369.938 960.177C355.356 964.05 342.824 972.25 333.026 983.185C332.343 983.868 331.659 984.779 331.204 985.463C330.976 985.691 330.748 985.918 330.52 986.146C329.837 986.83 329.381 987.741 328.697 988.424C324.824 993.664 321.862 999.359 319.583 1005.28C318.672 1007.56 317.988 1009.84 317.305 1012.12C316.165 1015.99 315.482 1019.86 315.026 1023.96C314.798 1026.69 314.571 1029.66 314.571 1032.62V1139H273.557V1032.62C273.557 1022.37 274.925 1012.34 277.431 1002.78C278.798 997.308 280.621 992.069 282.899 987.057C283.811 985.007 284.722 982.957 285.633 981.135C291.102 969.972 298.393 959.949 307.051 951.065C308.646 949.243 310.469 947.648 312.292 946.053C316.621 941.953 321.406 938.536 326.419 935.119C328.697 933.752 330.976 932.158 333.482 931.019C337.128 928.968 341.229 926.918 345.102 925.324C347.837 924.185 350.571 923.046 353.533 922.134C360.824 919.629 368.343 918.034 376.09 917.123C380.419 916.667 384.976 916.439 389.533 916.439H673.435C729.259 916.439 774.829 870.879 774.829 815.068C774.829 759.257 729.259 713.697 673.435 713.697H142.543C119.303 713.697 97.4289 708.23 78.0616 698.207C76.6945 697.524 75.5553 696.84 74.1882 696.157C68.264 692.968 62.5678 689.323 57.3272 685.222C22.6939 659.253 0.136719 617.794 0.136719 571.095C0.136719 492.504 63.9349 428.72 142.543 428.72H673.435C729.259 428.72 774.829 383.16 774.829 327.349C774.829 271.538 729.259 225.978 673.435 225.978H116.113C52.0867 225.978 0.136719 174.039 0.136719 110.027V0H41.1498V110.483C41.1498 151.715 74.8717 185.429 116.113 185.429H673.435C752.044 185.429 815.842 249.213 815.842 327.804C815.842 406.395 752.044 470.179 673.435 470.179H142.543C86.72 470.179 41.1498 515.739 41.1498 571.55C41.1498 600.253 53.2259 626.222 72.3654 644.674C76.9224 649.002 81.9351 653.103 87.4035 656.52C88.3149 657.203 89.2263 657.659 90.1377 658.342C99.9353 664.265 110.872 668.593 122.72 670.871C123.404 671.099 124.087 671.099 124.771 671.327C130.467 672.466 136.391 672.921 142.315 672.921H673.207C751.816 672.921 815.842 736.705 815.842 815.296Z" fill="#D0D5DD"/>
<path d="M290.647 1110.52V1126.47H297.482V1110.52H290.647ZM290.647 1078.63V1094.58H297.482V1078.63H290.647ZM290.647 1046.74V1062.69H297.482V1046.74H290.647ZM292.242 1014.39C292.242 1014.62 292.014 1015.08 292.014 1015.3C291.102 1020.32 290.647 1025.56 290.419 1030.79H297.254C297.254 1026.69 297.71 1022.59 298.393 1018.72C298.621 1017.58 298.621 1016.67 298.849 1015.53L292.242 1014.39ZM303.634 983.413C301.356 987.285 299.305 991.613 297.71 995.714C297.254 996.625 297.026 997.308 296.799 998.22L303.178 1000.5C303.406 1000.27 303.406 999.814 303.634 999.586C305.229 995.258 307.28 990.702 309.786 986.602L303.634 983.413ZM328.925 963.138L324.596 958.127C322.773 959.721 320.951 961.316 319.356 963.138C317.989 964.505 316.849 965.872 315.482 967.239C314.571 968.15 313.887 969.061 312.976 969.972L318.216 974.301C318.444 974.073 318.444 974.073 318.672 973.845C320.267 972.023 321.862 970.2 323.457 968.378C323.685 968.15 323.685 968.15 323.913 967.922C324.596 967.239 325.052 966.783 325.736 966.1C325.963 965.872 326.191 965.644 326.419 965.416C326.647 965.189 326.647 965.189 326.875 964.961C327.103 964.733 327.103 964.733 327.331 964.505C327.558 964.277 327.786 964.05 327.786 964.05C328.014 963.822 328.242 963.594 328.698 963.366C328.925 963.366 328.925 963.366 328.925 963.138ZM352.394 940.814C350.116 941.725 347.609 942.864 345.331 944.003C343.736 944.687 342.369 945.598 340.774 946.281C339.634 946.965 338.723 947.42 337.584 948.104L340.774 953.571L341.002 954.026C342.596 953.115 344.191 952.204 345.786 951.293C348.748 949.698 351.711 948.331 354.673 947.192L352.394 940.814ZM384.521 933.752C379.053 933.98 373.584 934.663 368.116 936.03L369.483 942.636C374.496 941.497 379.508 940.814 384.749 940.586L384.521 933.752ZM655.891 933.752V940.586H671.841V933.752H655.891ZM623.992 933.752V940.586H639.941V933.752H623.992ZM592.093 933.752V940.586H608.042V933.752H592.093ZM560.194 933.752V940.586H576.143V933.752H560.194ZM528.295 933.752V940.586H544.244V933.752H528.295ZM496.396 933.752V940.586H512.345V933.752H496.396ZM464.497 933.752V940.586H480.446V933.752H464.497ZM432.597 933.752V940.586H448.547V933.752H432.597ZM400.698 933.752V940.586H416.648V933.752H400.698ZM702.6 930.107C697.588 931.474 692.575 932.385 687.334 932.841L688.246 939.675C693.714 938.992 699.183 938.08 704.423 936.714L702.6 930.107ZM731.31 918.717C726.753 921.223 722.195 923.501 717.411 925.324L719.917 931.702C724.93 929.652 729.942 927.374 734.727 924.64L731.31 918.717ZM756.145 900.038C752.5 903.683 748.398 907.1 744.297 910.061L748.398 915.528C752.727 912.339 757.057 908.694 760.93 904.822L756.145 900.038ZM775.285 875.891C772.55 880.219 769.588 884.547 766.398 888.648L771.867 892.976C775.285 888.648 778.247 884.092 781.209 879.536L775.285 875.891ZM787.361 847.416C785.994 852.428 784.171 857.211 782.12 861.995L788.5 864.729C790.551 859.717 792.601 854.478 793.968 849.238L787.361 847.416ZM791.918 816.891C791.918 822.13 791.462 827.37 790.779 832.381L797.614 833.292C798.298 827.825 798.753 822.358 798.981 816.891H791.918ZM794.88 784.543L788.272 786.138C789.639 791.149 790.551 796.161 791.006 801.4L797.842 800.717C797.158 795.25 796.247 789.783 794.88 784.543ZM782.804 754.246L776.88 757.663C779.386 762.219 781.664 766.775 783.487 771.559L789.867 769.053C787.817 763.813 785.538 758.802 782.804 754.246ZM763.209 728.049L758.196 732.833C761.841 736.477 765.259 740.578 768.221 744.678L773.69 740.578C770.728 736.022 767.082 731.921 763.209 728.049ZM737.689 707.775L734.272 713.697C738.601 716.431 742.93 719.392 747.031 722.582L751.36 717.114C746.803 713.697 742.246 710.508 737.689 707.775ZM707.613 694.79L705.79 701.396C710.803 702.763 715.588 704.585 720.373 706.636L723.107 700.257C718.094 697.979 712.854 696.157 707.613 694.79ZM675.258 690.006L675.03 696.84C680.271 696.84 685.512 697.296 690.524 697.979L691.436 691.145C686.195 690.462 680.727 690.006 675.258 690.006ZM643.359 690.006V696.84H659.309V690.006H643.359ZM611.46 690.006V696.84H627.41V690.006H611.46ZM579.561 690.006V696.84H595.511V690.006H579.561ZM547.662 690.006V696.84H563.612V690.006H547.662ZM515.763 690.006V696.84H531.712V690.006H515.763ZM483.864 690.006V696.84H499.813V690.006H483.864ZM451.965 690.006V696.84H467.914V690.006H451.965ZM420.066 690.006V696.84H436.015V690.006H420.066ZM388.167 690.006V696.84H404.116V690.006H388.167ZM356.268 690.006V696.84H372.217V690.006H356.268ZM324.368 690.006V696.84H340.318V690.006H324.368ZM292.469 690.006V696.84H308.419V690.006H292.469ZM260.57 690.006V696.84H276.52V690.006H260.57ZM228.671 690.006V696.84H244.621V690.006H228.671ZM196.772 690.006V696.84H212.722V690.006H196.772ZM164.873 690.006V696.84H180.823V690.006H164.873ZM142.088 690.006C140.265 690.006 138.215 690.006 136.164 689.778C135.708 689.778 135.252 689.778 134.797 689.778C134.341 689.778 133.658 689.778 133.202 689.778L132.746 695.929V696.612C133.202 696.612 133.43 696.612 133.885 696.612C136.847 696.84 139.582 696.84 142.544 696.84H148.924V690.006H142.088ZM111.1 685.678C110.645 685.45 109.961 685.45 109.505 685.222C108.594 684.995 107.91 684.767 107.227 684.539C106.771 684.539 106.315 684.311 105.86 684.083C104.948 683.856 103.809 683.4 102.898 682.944L100.619 689.323C101.531 689.778 102.67 690.006 103.581 690.462C104.037 690.69 104.493 690.69 104.948 690.917C107.455 691.601 109.961 692.284 112.467 692.968C112.923 693.195 113.607 693.195 114.062 693.423C114.974 693.651 115.657 693.879 116.569 693.879L117.936 687.273C115.657 687.045 113.379 686.361 111.1 685.678ZM79.4291 671.782C79.2013 671.782 78.9734 671.554 78.9734 671.554C77.8341 670.871 76.6949 669.96 75.5556 669.276L71.6822 674.971C73.2771 676.11 75.0999 677.249 76.9227 678.388C77.1506 678.388 77.1506 678.616 77.3784 678.616C80.1127 680.439 83.0747 681.805 85.8089 683.4L88.9988 677.249C85.5811 675.427 82.3912 673.832 79.4291 671.782ZM63.0239 659.481C59.1504 656.064 55.7326 652.419 52.3149 648.547L47.0743 653.103C50.7199 657.203 54.3655 661.076 58.4668 664.72L62.5682 659.937L63.0239 659.481C63.2517 659.481 63.2517 659.481 63.0239 659.481ZM35.4539 622.577L29.302 625.539C31.5805 630.323 34.3147 635.334 37.2768 639.89L42.973 636.245C40.2388 631.917 37.7324 627.361 35.4539 622.577ZM25.8842 593.191L19.0487 594.33C19.9601 599.797 21.3272 605.037 23.15 610.276L29.5298 608.226C28.1627 603.442 26.7956 598.203 25.8842 593.191ZM24.2893 562.438L17.4537 561.983C17.2259 565.172 16.998 568.361 16.998 571.55C16.998 573.828 16.998 576.106 17.2259 578.156L24.0614 577.701C23.8336 575.651 23.8336 573.6 23.8336 571.322C24.0614 568.589 24.0614 565.4 24.2893 562.438ZM24.2893 529.863C22.4665 534.874 21.0994 540.342 19.9601 545.581L26.5678 546.948C27.707 541.936 29.0741 536.925 30.6691 532.141L24.2893 529.863ZM39.0995 500.704C36.1375 505.26 33.1754 509.816 30.6691 514.828L36.821 518.017C39.0995 513.461 41.8337 508.905 44.7958 504.577L39.0995 500.704ZM60.9732 476.33C56.8719 479.975 52.9984 483.619 49.3528 487.72L54.3655 492.276C57.7833 488.403 61.6568 484.758 65.5302 481.341L60.9732 476.33ZM88.3153 458.561C83.5304 460.839 78.5177 463.573 73.9607 466.534L77.6063 472.229C81.9355 469.496 86.4925 466.762 91.0495 464.712L88.3153 458.561ZM119.303 448.31C113.835 449.222 108.594 450.588 103.353 452.411L105.404 459.017C110.189 457.422 115.429 456.056 120.442 455.144L119.303 448.31ZM142.544 446.26C140.265 446.26 137.987 446.26 135.708 446.488L136.164 453.322C138.215 453.094 140.493 453.094 142.772 453.094H152.113V446.26H142.544ZM646.093 446.26V453.094H662.043V446.26H646.093ZM614.194 446.26V453.094H630.144V446.26H614.194ZM582.295 446.26V453.094H598.245V446.26H582.295ZM550.396 446.26V453.094H566.346V446.26H550.396ZM518.497 446.26V453.094H534.447V446.26H518.497ZM486.598 446.26V453.094H502.548V446.26H486.598ZM454.699 446.26V453.094H470.649V446.26H454.699ZM422.8 446.26V453.094H438.749V446.26H422.8ZM390.901 446.26V453.094H406.85V446.26H390.901ZM359.002 446.26V453.094H374.951V446.26H359.002ZM327.103 446.26V453.094H343.052V446.26H327.103ZM295.204 446.26V453.094H311.153V446.26H295.204ZM263.305 446.26V453.094H279.254V446.26H263.305ZM231.405 446.26V453.094H247.355V446.26H231.405ZM199.506 446.26V453.094H215.456V446.26H199.506ZM167.607 446.26V453.094H183.557V446.26H167.607ZM693.258 444.438C688.246 445.349 683.005 445.805 677.765 446.032L677.993 452.866C683.461 452.639 688.929 452.183 694.17 451.272L693.258 444.438ZM722.879 435.326C718.094 437.376 713.309 439.426 708.524 440.793L710.575 447.399C715.816 445.805 720.828 443.754 725.841 441.476L722.879 435.326ZM749.082 418.924C745.208 422.113 740.879 425.303 736.55 428.036L740.196 433.731C744.753 430.77 749.31 427.581 753.411 424.164L749.082 418.924ZM770.044 396.372C767.082 400.472 763.664 404.573 760.247 408.445L765.259 413.001C768.905 408.901 772.323 404.801 775.513 400.245L770.044 396.372ZM784.399 369.036C782.576 373.82 780.525 378.604 778.019 383.16L783.943 386.349C786.449 381.565 788.728 376.553 790.551 371.314L784.399 369.036ZM791.234 338.966C790.779 343.978 789.867 349.217 788.728 354.229L795.336 355.824C796.475 350.584 797.386 345.117 797.842 339.65L791.234 338.966ZM796.93 306.847L790.095 307.986C791.006 312.997 791.462 318.237 791.69 323.476L798.525 323.248C798.298 317.553 797.842 312.086 796.93 306.847ZM787.361 275.638L781.209 278.372C783.259 282.928 785.31 287.939 786.677 292.951L793.285 290.901C791.462 285.661 789.639 280.422 787.361 275.638ZM770.044 247.846L764.804 252.175C767.994 256.047 771.183 260.375 773.918 264.704L779.614 261.059C776.652 256.503 773.462 252.175 770.044 247.846ZM745.892 225.75L742.019 231.217C746.12 234.178 750.221 237.595 754.095 241.012L758.652 236.001C754.778 232.356 750.449 228.711 745.892 225.75ZM717.183 210.259L714.676 216.638C719.461 218.46 724.246 220.51 728.803 223.016L731.993 216.866C727.208 214.588 722.195 212.31 717.183 210.259ZM685.284 202.97L684.6 209.804C689.613 210.259 694.853 211.171 699.866 212.31L701.461 205.703C695.993 204.337 690.524 203.653 685.284 202.97ZM652.929 202.514V209.348H668.878V202.514H652.929ZM621.03 202.514V209.348H636.979V202.514H621.03ZM589.131 202.514V209.348H605.08V202.514H589.131ZM557.232 202.514V209.348H573.181V202.514H557.232ZM525.333 202.514V209.348H541.282V202.514H525.333ZM493.434 202.514V209.348H509.383V202.514H493.434ZM461.534 202.514V209.348H477.484V202.514H461.534ZM429.635 202.514V209.348H445.585V202.514H429.635ZM397.736 202.514V209.348H413.686V202.514H397.736ZM365.837 202.514V209.348H381.787V202.514H365.837ZM333.938 202.514V209.348H349.888V202.514H333.938ZM302.039 202.514V209.348H317.989V202.514H302.039ZM270.14 202.514V209.348H286.09V202.514H270.14ZM238.241 202.514V209.348H254.19V202.514H238.241ZM206.342 202.514V209.348H222.291V202.514H206.342ZM174.443 202.514V209.348H190.392V202.514H174.443ZM142.544 202.514V209.348H158.493V202.514H142.544ZM116.113 202.514C114.29 202.514 112.695 202.514 110.872 202.286L110.417 209.12C112.24 209.348 114.062 209.348 115.885 209.348H126.594V202.514H116.113ZM81.024 195.68L78.5177 202.059C83.5304 204.109 88.771 205.931 94.2394 207.07L95.8344 200.464C90.8216 199.097 85.8089 197.503 81.024 195.68ZM55.0491 179.506L50.4921 184.518C54.5934 188.163 59.1504 191.58 63.7074 194.313L67.353 188.618C63.0239 185.885 58.9225 182.923 55.0491 179.506ZM35.9097 155.587L29.9855 159.004C32.7197 163.788 35.6818 168.344 39.3274 172.672L44.568 168.344C41.3781 164.472 38.416 160.143 35.9097 155.587ZM25.4285 126.885L18.8209 128.024C19.7323 133.491 21.3272 138.73 23.15 143.97L29.5298 141.692C27.707 136.908 26.3399 131.896 25.4285 126.885ZM17.2259 95.676V111.622H24.0614V95.676H17.2259ZM17.2259 63.784V79.73H24.0614V63.784H17.2259ZM17.2259 31.892V47.838H24.0614V31.892H17.2259ZM17.2259 0V15.946H24.0614V0H17.2259Z" fill="#98A2B3"/>
<path d="M173.403 251.217C202.801 251.217 226.632 227.391 226.632 198C226.632 168.609 202.801 144.782 173.403 144.782C144.005 144.782 120.174 168.609 120.174 198C120.174 227.391 144.005 251.217 173.403 251.217Z" fill="#FFBA23"/>
<path d="M198.156 230.244C212.859 215.544 212.859 191.711 198.156 177.012C183.453 162.312 159.614 162.312 144.911 177.012C130.208 191.711 130.208 215.544 144.911 230.244C159.614 244.944 183.453 244.944 198.156 230.244Z" fill="#BCBEC0"/>
<path d="M200.011 224.682C214.715 209.982 214.715 186.149 200.011 171.449C185.308 156.749 161.47 156.749 146.767 171.449C132.064 186.149 132.064 209.982 146.767 224.682C161.47 239.382 185.308 239.382 200.011 224.682Z" fill="white"/>
<path d="M370.109 1087.75C370.109 1080.58 364.295 1074.76 357.124 1074.76C349.952 1074.76 344.139 1080.58 344.139 1087.75C344.139 1094.92 349.952 1100.74 357.124 1100.74C364.295 1100.74 370.109 1094.92 370.109 1087.75Z" fill="#AD59F0"/>
<path d="M357.125 1005.5C356.898 1005.5 356.67 1005.5 356.67 1005.5H356.442C356.442 1005.5 356.214 1005.5 356.214 1005.27C356.214 1005.27 356.214 1005.27 355.986 1005.04V1004.81V1004.59V1004.36C355.986 1004.13 356.214 1003.67 356.214 1003.45C356.67 1002.99 357.353 1002.99 357.809 1003.45C358.037 1003.67 358.264 1003.9 358.264 1004.36C358.264 1004.81 358.037 1005.04 357.809 1005.27C357.809 1005.27 357.809 1005.27 357.581 1005.5H357.353C357.581 1005.27 357.353 1005.27 357.125 1005.5Z" fill="#434345"/>
<path d="M355.986 1060.64C355.986 1061.32 356.442 1061.77 357.125 1061.77C357.809 1061.77 358.264 1061.32 358.264 1060.64C358.264 1059.95 357.809 1059.5 357.125 1059.5C356.442 1059.5 355.986 1059.95 355.986 1060.64ZM355.986 1055.85C355.986 1056.53 356.442 1056.99 357.125 1056.99C357.809 1056.99 358.264 1056.53 358.264 1055.85C358.264 1055.17 357.809 1054.71 357.125 1054.71C356.442 1054.71 355.986 1055.17 355.986 1055.85ZM355.986 1051.07C355.986 1051.75 356.442 1052.2 357.125 1052.2C357.809 1052.2 358.264 1051.75 358.264 1051.07C358.264 1050.38 357.809 1049.93 357.125 1049.93C356.442 1049.93 355.986 1050.61 355.986 1051.07ZM355.986 1046.51C355.986 1047.19 356.442 1047.65 357.125 1047.65C357.809 1047.65 358.264 1047.19 358.264 1046.51C358.264 1045.83 357.809 1045.37 357.125 1045.37C356.442 1045.37 355.986 1045.83 355.986 1046.51ZM355.986 1041.72C355.986 1042.41 356.442 1042.86 357.125 1042.86C357.809 1042.86 358.264 1042.41 358.264 1041.72C358.264 1041.04 357.809 1040.58 357.125 1040.58C356.442 1040.58 355.986 1041.04 355.986 1041.72ZM355.986 1037.17C355.986 1037.85 356.442 1038.31 357.125 1038.31C357.809 1038.31 358.264 1037.85 358.264 1037.17C358.264 1036.48 357.809 1036.03 357.125 1036.03C356.442 1036.03 355.986 1036.48 355.986 1037.17ZM355.986 1032.38C355.986 1033.07 356.442 1033.52 357.125 1033.52C357.809 1033.52 358.264 1033.07 358.264 1032.38C358.264 1031.7 357.809 1031.24 357.125 1031.24C356.442 1031.24 355.986 1031.7 355.986 1032.38ZM355.986 1027.83C355.986 1028.51 356.442 1028.96 357.125 1028.96C357.809 1028.96 358.264 1028.51 358.264 1027.83C358.264 1027.14 357.809 1026.69 357.125 1026.69C356.442 1026.46 355.986 1027.14 355.986 1027.83ZM355.986 1023.04C355.986 1023.72 356.442 1024.18 357.125 1024.18C357.809 1024.18 358.264 1023.72 358.264 1023.04C358.264 1022.36 357.809 1021.9 357.125 1021.9C356.442 1021.9 355.986 1022.36 355.986 1023.04ZM355.986 1018.26C355.986 1018.94 356.442 1019.4 357.125 1019.4C357.809 1019.4 358.264 1018.94 358.264 1018.26C358.264 1017.57 357.809 1017.12 357.125 1017.12C356.442 1017.12 355.986 1017.57 355.986 1018.26ZM355.986 1013.7C355.986 1014.38 356.442 1014.84 357.125 1014.84C357.809 1014.84 358.264 1014.38 358.264 1013.7C358.264 1013.02 357.809 1012.56 357.125 1012.56C356.442 1012.33 355.986 1013.02 355.986 1013.7ZM355.986 1008.91C355.986 1009.6 356.442 1010.05 357.125 1010.05C357.809 1010.05 358.264 1009.6 358.264 1008.91C358.264 1008.23 357.809 1007.78 357.125 1007.78C356.442 1007.78 355.986 1008.23 355.986 1008.91Z" fill="#313246"/>
<path d="M357.125 1066.33C356.898 1066.33 356.898 1066.33 356.67 1066.33C356.442 1066.33 356.442 1066.1 356.214 1066.1C355.986 1065.88 355.986 1065.65 355.986 1065.19V1064.96V1064.74V1064.51C355.986 1064.51 355.986 1064.28 356.214 1064.28C356.442 1064.05 356.897 1063.82 357.353 1064.05H357.581H357.809C357.809 1064.05 358.037 1064.05 358.037 1064.28C358.037 1064.28 358.037 1064.28 358.264 1064.51V1064.74V1064.96V1065.19C358.264 1065.42 358.037 1065.88 357.809 1066.1C357.809 1066.1 357.809 1066.1 357.581 1066.33H357.353C357.581 1066.33 357.353 1066.33 357.125 1066.33Z" fill="#434345"/>
<path d="M358.036 1106.89C358.036 1107.57 358.491 1108.03 359.175 1108.03C359.175 1108.03 359.175 1108.03 359.403 1108.03C360.086 1108.03 360.542 1107.57 360.542 1106.89V1106.66C360.542 1105.98 360.086 1105.52 359.403 1105.52H359.175C358.263 1105.52 357.808 1106.2 358.036 1106.89ZM353.252 1106.43C353.252 1107.11 353.707 1107.57 354.163 1107.8C354.163 1107.8 354.163 1107.8 354.391 1107.8C354.846 1107.8 355.53 1107.34 355.53 1106.89V1106.66C355.53 1106.2 355.074 1105.52 354.619 1105.52H354.391C353.935 1105.52 353.48 1105.75 353.252 1106.43ZM363.275 1104.61C362.592 1104.84 362.364 1105.52 362.592 1105.98C362.82 1106.43 363.275 1106.66 363.731 1106.66C363.959 1106.66 363.959 1106.66 364.186 1106.66C364.642 1106.43 364.87 1105.98 364.87 1105.52C364.87 1105.29 364.87 1105.29 364.87 1105.06C364.642 1104.61 364.186 1104.38 363.731 1104.38C363.503 1104.61 363.275 1104.61 363.275 1104.61ZM348.923 1104.84C348.696 1105.52 348.923 1106.2 349.607 1106.43C349.835 1106.43 349.835 1106.43 350.062 1106.43C350.518 1106.43 350.974 1106.2 351.201 1105.75C351.201 1105.52 351.201 1105.52 351.201 1105.29C351.201 1104.84 350.974 1104.38 350.518 1104.15C350.29 1104.15 350.29 1104.15 350.062 1104.15C349.607 1104.15 349.151 1104.61 348.923 1104.84ZM367.148 1102.56C366.692 1103.01 366.464 1103.7 366.92 1104.15C367.148 1104.61 367.604 1104.61 367.831 1104.61C368.059 1104.61 368.287 1104.61 368.515 1104.38C368.743 1104.15 368.97 1103.7 368.97 1103.47C368.97 1103.24 368.97 1103.01 368.743 1102.79C368.515 1102.33 368.287 1102.33 367.831 1102.33C367.604 1102.33 367.376 1102.33 367.148 1102.56ZM345.051 1102.33C344.595 1102.79 344.823 1103.7 345.278 1103.93C345.506 1104.15 345.734 1104.15 345.962 1104.15C346.417 1104.15 346.645 1103.93 346.873 1103.7C347.101 1103.47 347.101 1103.24 347.101 1103.01C347.101 1102.56 346.873 1102.33 346.645 1102.1C346.418 1101.87 346.19 1101.87 345.962 1101.87C345.506 1101.87 345.278 1102.1 345.051 1102.33ZM370.337 1099.82C369.882 1100.28 369.882 1100.96 370.337 1101.42C370.565 1101.65 370.793 1101.65 371.021 1101.65C371.248 1101.65 371.704 1101.42 371.932 1101.19C372.16 1100.96 372.16 1100.74 372.16 1100.51C372.16 1100.28 371.932 1099.82 371.704 1099.6C371.476 1099.37 371.248 1099.37 371.021 1099.37C371.021 1099.37 370.565 1099.6 370.337 1099.82ZM341.861 1099.14C341.406 1099.6 341.406 1100.28 341.634 1100.74C341.861 1100.96 342.089 1101.19 342.545 1101.19C342.773 1101.19 343 1101.19 343.228 1100.96C343.456 1100.74 343.684 1100.51 343.684 1100.05C343.684 1099.82 343.684 1099.6 343.456 1099.37C343.228 1099.14 343 1098.91 342.545 1098.91C342.317 1098.68 341.861 1098.91 341.861 1099.14ZM372.843 1096.18C372.615 1096.63 372.843 1097.55 373.299 1097.77C373.526 1097.77 373.526 1098 373.754 1098C374.21 1098 374.666 1097.77 374.893 1097.32C374.893 1097.09 375.121 1096.86 375.121 1096.86C375.121 1096.41 374.893 1095.95 374.438 1095.72C374.21 1095.72 373.982 1095.49 373.982 1095.49C373.526 1095.49 373.071 1095.72 372.843 1096.18ZM339.583 1095.04C339.128 1095.27 338.672 1095.95 339.128 1096.63C339.355 1097.09 339.811 1097.32 340.267 1097.32C340.495 1097.32 340.495 1097.32 340.722 1097.09C341.178 1096.86 341.406 1096.41 341.406 1095.95C341.406 1095.72 341.406 1095.72 341.406 1095.49C341.178 1095.04 340.722 1094.81 340.267 1094.81C339.811 1094.81 339.583 1095.04 339.583 1095.04ZM374.438 1092.08C374.21 1092.76 374.666 1093.22 375.349 1093.44H375.577C376.032 1093.44 376.488 1092.99 376.716 1092.53V1092.31C376.716 1091.85 376.488 1091.39 375.805 1091.17H375.577C375.121 1091.17 374.665 1091.62 374.438 1092.08ZM338.216 1090.48C337.533 1090.71 337.077 1091.17 337.305 1091.85C337.533 1092.31 337.989 1092.76 338.444 1092.76H338.672C339.128 1092.53 339.583 1092.08 339.583 1091.62V1091.39C339.583 1090.94 338.9 1090.48 338.444 1090.48C338.444 1090.48 338.444 1090.48 338.216 1090.48ZM374.893 1087.75C374.893 1088.43 375.349 1088.89 376.032 1088.89C376.716 1088.89 377.171 1088.43 377.171 1087.75C377.171 1087.06 376.716 1086.61 376.032 1086.61C375.577 1086.61 374.893 1087.06 374.893 1087.75ZM336.85 1087.06C336.85 1087.75 337.305 1088.2 337.989 1088.2C338.672 1088.2 339.128 1087.75 339.128 1087.06C339.128 1086.38 338.672 1085.93 337.989 1085.93C337.533 1085.93 337.077 1086.38 336.85 1087.06ZM375.805 1083.42C375.121 1083.65 374.666 1084.1 374.893 1084.79C374.893 1085.24 375.577 1085.7 376.032 1085.7H376.26C376.716 1085.7 377.171 1085.24 377.171 1084.56V1084.33C376.944 1083.87 376.488 1083.42 375.805 1083.42ZM337.761 1082.05C337.533 1082.74 337.989 1083.42 338.672 1083.42H338.9C339.356 1083.42 339.811 1083.19 340.039 1082.51C340.039 1082.28 340.039 1082.28 340.039 1082.28C340.039 1081.82 339.811 1081.37 339.128 1081.14C338.9 1081.14 338.9 1081.14 338.9 1081.14C338.444 1081.37 337.761 1081.6 337.761 1082.05ZM374.21 1079.09C373.527 1079.32 373.299 1080 373.526 1080.69C373.754 1081.14 374.21 1081.37 374.666 1081.37C374.893 1081.37 374.893 1081.37 375.121 1081.37C375.577 1081.14 375.805 1080.69 375.805 1080.23C375.805 1080 375.805 1080 375.577 1079.77C375.349 1079.32 374.893 1079.09 374.438 1079.09C374.438 1078.86 374.21 1079.09 374.21 1079.09ZM339.583 1077.5C339.356 1077.95 339.356 1078.86 340.039 1079.09C340.267 1079.32 340.495 1079.32 340.495 1079.32C340.95 1079.32 341.178 1079.09 341.406 1078.86C341.634 1078.63 341.634 1078.41 341.634 1078.41C341.634 1077.95 341.406 1077.5 340.95 1077.27C340.722 1077.27 340.495 1077.04 340.495 1077.04C340.267 1077.04 339.811 1077.27 339.583 1077.5ZM371.476 1075.22C371.021 1075.67 370.793 1076.36 371.248 1076.81C371.476 1077.04 371.932 1077.27 372.16 1077.27C372.387 1077.27 372.615 1077.27 372.843 1077.04C373.071 1076.81 373.299 1076.58 373.299 1076.13C373.299 1075.9 373.299 1075.67 373.071 1075.44C372.843 1075.22 372.615 1074.99 372.16 1074.99C371.932 1074.99 371.704 1074.99 371.476 1075.22ZM342.773 1073.62C342.317 1074.08 342.317 1074.76 342.773 1075.22C343 1075.44 343.228 1075.44 343.684 1075.44C344.139 1075.44 344.367 1075.44 344.595 1075.22C344.823 1074.99 344.823 1074.76 344.823 1074.31C344.823 1073.85 344.595 1073.62 344.367 1073.39C344.139 1073.17 343.912 1073.17 343.456 1073.17C343 1073.17 343 1073.39 342.773 1073.62ZM368.059 1072.03C367.604 1072.48 367.831 1073.17 368.287 1073.62C368.515 1073.85 368.743 1073.85 368.97 1073.85C369.198 1073.85 369.654 1073.62 369.882 1073.39C370.109 1073.17 370.109 1072.94 370.109 1072.71C370.109 1072.48 369.882 1072.03 369.654 1071.8C369.426 1071.57 369.198 1071.57 368.97 1071.57C368.515 1071.57 368.287 1071.8 368.059 1072.03ZM346.418 1070.43C345.962 1070.89 345.734 1071.57 345.962 1072.03C346.19 1072.25 346.645 1072.48 346.873 1072.48C347.101 1072.48 347.329 1072.48 347.557 1072.25C348.012 1072.03 348.012 1071.57 348.012 1071.34C348.012 1071.12 348.012 1070.89 347.784 1070.66C347.557 1070.2 347.101 1070.2 346.873 1070.2C346.873 1070.43 346.645 1070.43 346.418 1070.43ZM363.959 1069.98C363.731 1070.66 363.959 1071.34 364.414 1071.57C364.642 1071.57 364.642 1071.57 364.87 1071.57C365.325 1071.57 365.781 1071.34 366.009 1070.89C366.009 1070.66 366.237 1070.66 366.237 1070.43C366.237 1069.98 366.009 1069.52 365.553 1069.29C365.325 1069.29 365.325 1069.29 365.098 1069.29C364.642 1069.29 364.186 1069.52 363.959 1069.98ZM350.974 1068.38C350.29 1068.61 350.062 1069.29 350.29 1069.75C350.518 1070.2 350.974 1070.66 351.429 1070.66C351.429 1070.66 351.657 1070.66 351.885 1070.66C352.34 1070.43 352.796 1069.98 352.796 1069.52C352.796 1069.29 352.796 1069.29 352.796 1069.07C352.568 1068.61 352.113 1068.15 351.657 1068.15C351.201 1068.38 351.201 1068.38 350.974 1068.38ZM359.403 1068.84C359.175 1069.52 359.63 1069.98 360.314 1070.2H360.542C360.997 1070.2 361.681 1069.75 361.681 1069.29V1069.07C361.681 1068.61 361.225 1067.93 360.769 1067.93H360.542C360.086 1067.93 359.403 1068.15 359.403 1068.84ZM354.846 1068.84C354.846 1069.52 355.302 1069.98 355.985 1069.98C356.669 1069.98 357.124 1069.52 357.124 1068.84C357.124 1068.15 356.669 1067.7 355.985 1067.7C355.302 1067.7 354.619 1068.15 354.846 1068.84Z" fill="#313246"/>
<path d="M611.609 854.843C618.781 854.843 624.596 849.03 624.596 841.859C624.596 834.687 618.781 828.874 611.609 828.874C604.436 828.874 598.621 834.687 598.621 841.859C598.621 849.03 604.436 854.843 611.609 854.843Z" fill="#AFCD58"/>
<path d="M611.61 759.622C611.382 759.622 611.154 759.622 611.154 759.622H610.926C610.926 759.622 610.699 759.622 610.699 759.395C610.699 759.395 610.699 759.395 610.471 759.167V758.939V758.711V758.483C610.471 758.256 610.699 757.8 610.699 757.572C611.154 757.117 611.838 757.117 612.293 757.572C612.521 757.8 612.749 758.028 612.749 758.483C612.749 758.711 612.521 759.167 612.293 759.395C612.293 759.395 612.293 759.395 612.066 759.622H611.838C612.066 759.622 612.066 759.622 611.61 759.622C611.838 759.622 611.838 759.622 611.61 759.622Z" fill="#434345"/>
<path d="M611.61 813.611C610.926 813.611 610.471 814.067 610.471 814.75C610.471 815.433 610.926 815.889 611.61 815.889C612.294 815.889 612.749 815.433 612.749 814.75C612.977 814.067 612.294 813.611 611.61 813.611ZM611.61 808.827C610.926 808.827 610.471 809.283 610.471 809.966C610.471 810.65 610.926 811.105 611.61 811.105C612.294 811.105 612.749 810.65 612.749 809.966C612.977 809.511 612.294 808.827 611.61 808.827ZM611.61 804.271C610.926 804.271 610.471 804.727 610.471 805.41C610.471 806.094 610.926 806.549 611.61 806.549C612.294 806.549 612.749 806.094 612.749 805.41C612.749 804.727 612.294 804.271 611.61 804.271ZM611.61 799.487C610.926 799.487 610.471 799.943 610.471 800.626C610.471 801.31 610.926 801.765 611.61 801.765C612.294 801.765 612.749 801.31 612.749 800.626C612.749 799.943 612.294 799.487 611.61 799.487ZM611.61 794.931C610.926 794.931 610.471 795.387 610.471 796.07C610.471 796.754 610.926 797.209 611.61 797.209C612.294 797.209 612.749 796.754 612.749 796.07C612.749 795.387 612.294 794.931 611.61 794.931ZM611.61 790.148C610.926 790.148 610.471 790.603 610.471 791.287C610.471 791.97 610.926 792.426 611.61 792.426C612.294 792.426 612.749 791.97 612.749 791.287C612.749 790.603 612.294 790.148 611.61 790.148ZM611.61 785.364C610.926 785.364 610.471 785.819 610.471 786.503C610.471 787.186 610.926 787.642 611.61 787.642C612.294 787.642 612.749 787.186 612.749 786.503C612.977 785.819 612.294 785.364 611.61 785.364ZM611.61 780.808C610.926 780.808 610.471 781.263 610.471 781.947C610.471 782.63 610.926 783.086 611.61 783.086C612.294 783.086 612.749 782.63 612.749 781.947C612.977 781.263 612.294 780.808 611.61 780.808ZM611.61 776.024C610.926 776.024 610.471 776.48 610.471 777.163C610.471 777.846 610.926 778.302 611.61 778.302C612.294 778.302 612.749 777.846 612.749 777.163C612.977 776.48 612.294 776.024 611.61 776.024ZM611.61 771.24C610.926 771.24 610.471 771.696 610.471 772.379C610.471 773.063 610.926 773.518 611.61 773.518C612.294 773.518 612.749 773.063 612.749 772.379C612.749 771.696 612.294 771.24 611.61 771.24ZM611.61 766.684C610.926 766.684 610.471 767.14 610.471 767.823C610.471 768.507 610.926 768.962 611.61 768.962C612.294 768.962 612.749 768.507 612.749 767.823C612.749 767.14 612.294 766.684 611.61 766.684ZM611.61 761.9C610.926 761.9 610.471 762.356 610.471 763.039C610.471 763.723 610.926 764.178 611.61 764.178C612.294 764.178 612.749 763.723 612.749 763.039C612.749 762.356 612.294 761.9 611.61 761.9Z" fill="#313246"/>
<path d="M611.61 820.673C611.382 820.673 611.382 820.673 611.154 820.673C610.926 820.673 610.926 820.445 610.699 820.445C610.471 820.218 610.471 819.99 610.471 819.534V819.306V819.079V818.851C610.471 818.851 610.471 818.623 610.699 818.623C610.926 818.395 611.382 818.167 611.838 818.395H612.066H612.293C612.293 818.395 612.521 818.395 612.521 818.623C612.521 818.623 612.521 818.623 612.749 818.851V819.079V819.306V819.534C612.749 819.762 612.521 820.218 612.293 820.445C612.293 820.445 612.293 820.445 612.066 820.673H611.838C612.066 820.673 612.066 820.673 611.61 820.673C611.838 820.673 611.838 820.673 611.61 820.673Z" fill="#434345"/>
<path d="M613.66 859.626C612.977 859.626 612.521 860.31 612.521 860.993C612.521 861.677 612.977 862.132 613.66 862.132C614.344 862.132 614.799 861.677 614.799 860.993V860.765C614.799 860.082 614.344 859.626 613.66 859.626ZM609.103 859.626C608.42 859.626 607.964 860.082 607.736 860.538C607.736 861.221 607.964 861.677 608.647 861.904C608.647 861.904 608.647 861.904 608.875 861.904C609.331 861.904 610.015 861.449 610.015 860.993V860.765C610.242 860.082 609.787 859.626 609.103 859.626ZM619.356 859.399C619.129 858.943 618.673 858.715 618.217 858.715C617.989 858.715 617.989 858.715 617.761 858.715C617.078 858.943 616.85 859.626 617.078 860.082C617.306 860.538 617.761 860.765 618.217 860.765C618.445 860.765 618.445 860.765 618.673 860.765C619.129 860.538 619.356 860.082 619.356 859.626C619.356 859.626 619.356 859.626 619.356 859.399ZM605.002 858.487C604.774 858.487 604.774 858.487 604.546 858.487C604.09 858.487 603.635 858.715 603.407 859.171C603.179 859.854 603.407 860.538 604.09 860.765C604.318 860.765 604.318 860.765 604.546 860.765C605.002 860.765 605.458 860.538 605.685 860.082C605.685 859.854 605.685 859.854 605.685 859.626C605.685 859.171 605.458 858.715 605.002 858.487ZM623.23 857.121C623.002 856.893 622.774 856.665 622.318 856.665C622.091 856.665 621.863 856.665 621.635 856.893C621.179 857.348 620.951 858.032 621.407 858.487C621.635 858.715 622.091 858.943 622.318 858.943C622.546 858.943 622.774 858.943 623.002 858.715C623.23 858.487 623.458 858.032 623.458 857.804C623.458 857.576 623.458 857.348 623.23 857.121ZM601.128 856.437C600.9 856.209 600.673 856.209 600.445 856.209C599.989 856.209 599.761 856.437 599.533 856.665C599.078 857.121 599.306 857.804 599.761 858.26C599.989 858.487 600.217 858.487 600.445 858.487C600.901 858.487 601.128 858.26 601.356 858.032C601.584 857.804 601.584 857.576 601.584 857.348C601.584 856.893 601.356 856.665 601.128 856.437ZM626.648 853.931C626.42 853.704 626.192 853.704 625.736 853.704C625.508 853.704 625.053 853.931 624.825 854.159C624.369 854.615 624.369 855.298 624.825 855.754C625.053 855.982 625.281 855.982 625.508 855.982C625.736 855.982 626.192 855.754 626.42 855.526C626.648 855.298 626.648 855.07 626.648 854.843C627.103 854.387 626.875 854.159 626.648 853.931ZM597.938 853.248C597.711 853.02 597.483 852.792 597.027 852.792C596.799 852.792 596.571 852.792 596.343 853.02C595.888 853.476 595.888 854.159 596.116 854.615C596.343 854.843 596.571 855.07 597.027 855.07C597.255 855.07 597.483 855.07 597.711 854.843C597.938 854.615 598.166 854.387 598.166 853.931C598.166 853.931 598.166 853.476 597.938 853.248ZM629.154 849.831C628.926 849.831 628.926 849.603 628.698 849.603C628.243 849.603 627.787 849.831 627.559 850.287C627.331 850.742 627.559 851.426 628.015 851.881C628.243 851.881 628.243 852.109 628.47 852.109C628.926 852.109 629.382 851.881 629.61 851.426C629.61 851.198 629.838 850.97 629.838 850.97C629.61 850.514 629.382 850.059 629.154 849.831ZM595.66 849.603C595.432 849.148 594.976 848.92 594.521 848.92C594.293 848.92 594.293 848.92 594.065 848.92C593.381 849.148 593.154 849.831 593.609 850.514C593.837 850.97 594.293 851.198 594.749 851.198C594.976 851.198 594.976 851.198 595.204 851.198C595.66 850.97 595.888 850.514 595.888 850.059C595.66 850.059 595.66 849.831 595.66 849.603ZM630.521 845.503H630.293C629.837 845.503 629.382 845.731 629.154 846.414C628.926 847.097 629.382 847.553 630.065 847.781H630.293C630.749 847.781 631.205 847.553 631.432 846.87V846.642C631.432 845.958 630.977 845.503 630.521 845.503ZM594.293 845.503C594.293 845.047 593.609 844.592 593.154 844.592H592.926C592.242 844.819 591.786 845.275 592.014 845.958C592.242 846.414 592.698 846.87 593.154 846.87H593.381C593.837 846.87 594.293 846.186 594.293 845.731C594.293 845.731 594.293 845.731 594.293 845.503ZM630.749 840.719C630.065 840.719 629.61 841.175 629.61 841.858C629.61 842.541 630.065 842.997 630.749 842.997C631.432 842.997 631.888 842.541 631.888 841.858C631.888 841.175 631.432 840.719 630.749 840.719ZM592.698 840.036C592.014 840.036 591.559 840.491 591.559 841.175C591.559 841.858 592.014 842.314 592.698 842.314C593.381 842.314 593.837 841.858 593.837 841.175C593.837 840.491 593.381 840.036 592.698 840.036ZM631.66 838.441C631.66 837.985 630.977 837.53 630.521 837.53H630.293C629.61 837.53 629.154 838.213 629.382 838.897C629.382 839.352 630.065 839.808 630.521 839.808H630.749C631.205 839.808 631.66 839.352 631.66 838.441C631.66 838.669 631.66 838.669 631.66 838.441ZM593.837 835.48C593.609 835.48 593.609 835.48 593.609 835.48C593.154 835.48 592.698 835.707 592.47 836.391C592.242 837.074 592.698 837.758 593.381 837.758H593.609C594.065 837.758 594.521 837.53 594.749 836.846V836.619C594.521 836.163 594.293 835.707 593.837 835.48ZM630.293 833.885C630.065 833.429 629.61 833.202 629.154 833.202C628.926 833.202 628.926 833.202 628.698 833.202C628.015 833.429 627.787 834.113 628.015 834.796C628.243 835.252 628.698 835.48 629.154 835.48C629.382 835.48 629.382 835.48 629.61 835.48C630.065 835.252 630.293 834.796 630.293 834.341C630.293 834.113 630.293 833.885 630.293 833.885ZM595.888 831.379C595.66 831.379 595.432 831.151 595.432 831.151C594.976 831.151 594.521 831.379 594.521 831.835C594.293 832.29 594.293 832.974 594.976 833.429C595.204 833.429 595.432 833.657 595.432 833.657C595.888 833.657 596.116 833.429 596.343 832.974C596.571 832.746 596.571 832.518 596.571 832.518C596.343 831.835 596.344 831.607 595.888 831.379ZM627.787 829.557C627.559 829.329 627.331 829.101 626.875 829.101C626.648 829.101 626.42 829.101 626.192 829.329C625.736 829.785 625.508 830.468 625.964 830.924C626.192 831.151 626.648 831.379 626.875 831.379C627.103 831.379 627.331 831.379 627.559 831.151C627.787 830.924 628.015 830.696 628.015 830.24C628.015 830.012 627.787 829.785 627.787 829.557ZM598.85 827.734C598.622 827.507 598.394 827.507 597.938 827.507C597.483 827.507 597.255 827.507 597.027 827.962C596.571 828.418 596.571 829.101 597.027 829.557C597.255 829.785 597.483 829.785 597.938 829.785C598.394 829.785 598.622 829.785 598.85 829.557C599.078 829.329 599.078 829.101 599.078 828.646C599.078 828.19 599.078 827.962 598.85 827.734ZM624.141 826.14C623.913 825.912 623.686 825.912 623.458 825.912C623.23 825.912 622.774 826.14 622.546 826.368C622.091 826.823 622.318 827.507 622.774 827.962C623.002 828.19 623.23 828.19 623.458 828.19C623.913 828.19 624.141 827.962 624.369 827.734C624.597 827.507 624.597 827.279 624.597 827.051C624.825 826.595 624.597 826.368 624.141 826.14ZM602.723 825.001C602.495 824.773 602.04 824.545 601.812 824.545C601.584 824.545 601.356 824.545 601.128 824.773C600.673 825.229 600.445 825.912 600.673 826.368C600.9 826.823 601.356 826.823 601.584 826.823C601.812 826.823 602.04 826.823 602.268 826.595C602.723 826.368 602.723 825.912 602.723 825.684C602.951 825.456 602.723 825.229 602.723 825.001ZM620.04 823.406C619.812 823.406 619.812 823.406 619.584 823.406C619.129 823.406 618.673 823.634 618.445 824.09C618.217 824.773 618.445 825.456 618.901 825.684C619.129 825.684 619.129 825.684 619.356 825.684C619.812 825.684 620.268 825.456 620.496 825.001C620.496 824.773 620.496 824.773 620.496 824.545C620.723 824.09 620.496 823.634 620.04 823.406ZM607.052 823.406C606.825 822.951 606.369 822.495 605.913 822.495C605.913 822.495 605.685 822.495 605.457 822.495C604.774 822.723 604.546 823.406 604.774 823.862C605.002 824.317 605.458 824.773 605.913 824.773C606.141 824.773 606.141 824.773 606.369 824.773C606.825 824.545 607.28 824.09 607.28 823.634C607.052 823.634 607.052 823.634 607.052 823.406ZM615.255 822.039C614.572 822.039 613.888 822.495 613.888 822.951C613.66 823.634 614.116 824.09 614.799 824.317H615.027C615.483 824.317 616.166 823.862 616.166 823.406V823.178C616.394 822.723 615.939 822.039 615.255 822.039ZM610.47 821.812C609.787 821.812 609.331 822.495 609.331 823.178C609.331 823.862 609.787 824.317 610.47 824.317C611.154 824.317 611.609 823.862 611.609 823.178C611.609 822.267 611.154 821.812 610.47 821.812Z" fill="#313246"/>
<path d="M350.98 1001.92C381.223 1001.92 405.741 977.412 405.741 947.175C405.741 916.939 381.223 892.427 350.98 892.427C320.736 892.427 296.219 916.939 296.219 947.175C296.219 977.412 320.736 1001.92 350.98 1001.92Z" fill="#AD59F0"/>
<path d="M365.568 987.958C384.908 978.82 393.176 955.736 384.036 936.4C374.895 917.064 351.806 908.798 332.466 917.936C313.126 927.075 304.857 950.158 313.998 969.494C323.139 988.83 346.227 997.097 365.568 987.958Z" fill="#747373"/>
<path d="M367.478 982.231C386.816 973.088 395.079 950.003 385.934 930.669C376.789 911.335 353.699 903.074 334.361 912.217C315.022 921.36 306.759 944.445 315.904 963.779C325.049 983.113 348.139 991.374 367.478 982.231Z" fill="white"/>
<path d="M611.365 749.335C641.495 749.335 665.92 724.916 665.92 694.793C665.92 664.67 641.495 640.25 611.365 640.25C581.236 640.25 556.811 664.67 556.811 694.793C556.811 724.916 581.236 749.335 611.365 749.335Z" fill="#AFCD58"/>
<path d="M626.823 735.007C645.867 725.441 653.548 702.251 643.979 683.211C634.41 664.172 611.215 656.492 592.171 666.059C573.127 675.626 565.446 698.815 575.015 717.855C584.584 736.894 607.779 744.574 626.823 735.007Z" fill="#747373"/>
<path d="M628.663 729.257C647.702 719.687 655.376 696.497 645.803 677.461C636.23 658.426 613.035 650.754 593.996 660.325C574.956 669.896 567.282 693.085 576.855 712.121C586.428 731.156 609.623 738.828 628.663 729.257Z" fill="white"/>
<path d="M123.63 549.454C130.803 549.454 136.618 543.64 136.618 536.469C136.618 529.298 130.803 523.484 123.63 523.484C116.457 523.484 110.643 529.298 110.643 536.469C110.643 543.64 116.457 549.454 123.63 549.454Z" fill="#FF64AE"/>
<path d="M123.631 618.934C123.859 618.934 123.859 618.934 123.631 618.934C123.859 618.934 124.087 618.934 124.087 618.934H124.315C124.315 618.934 124.543 618.934 124.543 619.161C124.543 619.161 124.543 619.161 124.771 619.389V619.617V619.845V620.073C124.771 620.3 124.543 620.756 124.543 620.984C124.087 621.439 123.404 621.439 122.948 620.984C122.72 620.756 122.492 620.528 122.492 620.073C122.492 619.845 122.72 619.389 122.948 619.161C122.948 619.161 122.948 619.161 123.176 618.934H123.404C123.404 618.934 123.404 618.934 123.631 618.934Z" fill="#434345"/>
<path d="M123.631 562.438C122.948 562.438 122.492 562.894 122.492 563.577C122.492 564.261 122.948 564.716 123.631 564.716C124.315 564.716 124.771 564.261 124.771 563.577C124.771 563.122 124.315 562.438 123.631 562.438ZM123.631 567.222C122.948 567.222 122.492 567.678 122.492 568.361C122.492 569.045 122.948 569.5 123.631 569.5C124.315 569.5 124.771 569.045 124.771 568.361C124.771 567.678 124.315 567.222 123.631 567.222ZM123.631 572.006C122.948 572.006 122.492 572.462 122.492 573.145C122.492 573.829 122.948 574.284 123.631 574.284C124.315 574.284 124.771 573.829 124.771 573.145C124.771 572.462 124.315 572.006 123.631 572.006ZM123.631 576.562C122.948 576.562 122.492 577.018 122.492 577.701C122.492 578.385 122.948 578.84 123.631 578.84C124.315 578.84 124.771 578.385 124.771 577.701C124.771 577.018 124.315 576.562 123.631 576.562ZM123.631 581.346C122.948 581.346 122.492 581.801 122.492 582.485C122.492 583.168 122.948 583.624 123.631 583.624C124.315 583.624 124.771 583.168 124.771 582.485C124.771 581.801 124.315 581.346 123.631 581.346ZM123.631 586.13C122.948 586.13 122.492 586.585 122.492 587.269C122.492 587.952 122.948 588.408 123.631 588.408C124.315 588.408 124.771 587.952 124.771 587.269C124.771 586.585 124.315 586.13 123.631 586.13ZM123.631 590.686C122.948 590.686 122.492 591.141 122.492 591.825C122.492 592.508 122.948 592.964 123.631 592.964C124.315 592.964 124.771 592.508 124.771 591.825C124.771 591.141 124.315 590.686 123.631 590.686ZM123.631 595.469C122.948 595.469 122.492 595.925 122.492 596.608C122.492 597.292 122.948 597.747 123.631 597.747C124.315 597.747 124.771 597.292 124.771 596.608C124.771 595.925 124.315 595.469 123.631 595.469ZM123.631 600.253C122.948 600.253 122.492 600.709 122.492 601.392C122.492 602.076 122.948 602.531 123.631 602.531C124.315 602.531 124.771 602.076 124.771 601.392C124.771 600.709 124.315 600.253 123.631 600.253ZM123.631 604.809C122.948 604.809 122.492 605.265 122.492 605.948C122.492 606.632 122.948 607.087 123.631 607.087C124.315 607.087 124.771 606.632 124.771 605.948C124.771 605.265 124.315 604.809 123.631 604.809ZM123.631 609.593C122.948 609.593 122.492 610.049 122.492 610.732C122.492 611.416 122.948 611.871 123.631 611.871C124.315 611.871 124.771 611.416 124.771 610.732C124.771 610.049 124.315 609.593 123.631 609.593ZM123.631 614.149C122.948 614.149 122.492 614.605 122.492 615.288C122.492 615.972 122.948 616.427 123.631 616.427C124.315 616.427 124.771 615.972 124.771 615.288C124.771 614.833 124.315 614.149 123.631 614.149Z" fill="#313246"/>
<path d="M123.631 557.883C123.859 557.883 123.859 557.883 124.087 557.883C124.315 557.883 124.315 558.111 124.543 558.111C124.771 558.338 124.771 558.566 124.771 559.022V559.25V559.477V559.705C124.771 559.705 124.771 559.933 124.543 559.933C124.315 560.161 123.859 560.389 123.404 560.161H123.176H122.948C122.948 560.161 122.72 560.161 122.72 559.933C122.72 559.933 122.72 559.933 122.492 559.705V559.477V559.25V559.022C122.492 558.794 122.72 558.338 122.948 558.111C122.948 558.111 122.948 558.111 123.176 557.883H123.404C123.404 557.883 123.404 557.883 123.631 557.883Z" fill="#434345"/>
<path d="M121.808 516.423C121.125 516.423 120.669 517.106 120.669 517.562C120.669 518.245 121.125 518.701 121.808 518.701H122.036C122.72 518.701 123.175 518.017 123.175 517.334C122.72 516.878 122.264 516.423 121.808 516.423ZM126.593 516.651C125.909 516.651 125.226 517.106 125.226 517.562V517.79C125.226 518.245 125.682 518.929 126.137 518.929H126.365C126.821 518.929 127.504 518.473 127.504 518.017C127.732 517.334 127.277 516.651 126.593 516.651ZM118.39 518.245C118.163 517.79 117.707 517.562 117.251 517.562C117.023 517.562 117.023 517.562 116.795 517.562C116.34 517.79 116.112 518.245 116.112 518.701C116.112 518.929 116.112 518.929 116.112 519.156C116.34 519.612 116.795 519.84 117.251 519.84C117.479 519.84 117.479 519.84 117.707 519.84C118.163 519.612 118.618 518.929 118.39 518.245ZM131.378 517.79C131.15 517.79 131.15 517.79 130.922 517.79C130.466 517.79 130.011 518.017 129.783 518.473C129.783 518.701 129.783 518.701 129.783 518.929C129.783 519.384 130.011 519.84 130.466 520.068C130.694 520.068 130.694 520.068 130.922 520.068C131.378 520.068 131.834 519.84 132.061 519.384C132.289 518.701 131.834 518.017 131.378 517.79ZM114.061 520.068C113.833 519.612 113.378 519.612 113.15 519.612C112.922 519.612 112.694 519.612 112.466 519.84C112.238 520.068 112.011 520.523 112.011 520.751C112.011 520.979 112.011 521.207 112.238 521.434C112.466 521.662 112.922 521.89 113.15 521.89C113.378 521.89 113.606 521.89 113.833 521.662C114.289 521.434 114.517 520.751 114.061 520.068ZM135.707 520.295C135.479 520.068 135.251 520.068 135.023 520.068C134.568 520.068 134.34 520.295 134.112 520.523C133.884 520.751 133.884 520.979 133.884 521.207C133.884 521.662 134.112 521.89 134.34 522.118C134.568 522.346 134.796 522.346 135.023 522.346C135.479 522.346 135.707 522.118 135.935 521.89C136.163 521.434 136.163 520.751 135.707 520.295ZM110.416 523.029C110.188 522.801 109.96 522.801 109.732 522.801C109.504 522.801 109.048 523.029 108.821 523.257C108.593 523.485 108.593 523.712 108.593 523.94C108.593 524.168 108.821 524.624 109.048 524.851C109.276 525.079 109.504 525.079 109.96 525.079C110.188 525.079 110.643 524.851 110.871 524.624C110.871 524.168 110.871 523.485 110.416 523.029ZM139.125 523.712C138.897 523.485 138.669 523.257 138.213 523.257C137.986 523.257 137.758 523.257 137.53 523.485C137.302 523.712 137.074 523.94 137.074 524.396C137.074 524.624 137.074 524.851 137.302 525.079C137.53 525.307 137.758 525.535 138.213 525.535C138.441 525.535 138.669 525.535 138.897 525.307C139.58 524.851 139.58 524.168 139.125 523.712ZM107.454 526.674C107.226 526.674 106.998 526.446 106.998 526.446C106.542 526.446 106.086 526.674 105.859 527.129C105.859 527.357 105.631 527.585 105.631 527.585C105.631 528.041 105.859 528.496 106.314 528.724C106.542 528.724 106.542 528.952 106.77 528.952C107.226 528.952 107.681 528.724 107.909 528.268C108.137 527.585 107.909 526.902 107.454 526.674ZM141.859 527.813C141.631 527.357 141.175 527.129 140.72 527.129C140.492 527.129 140.492 527.129 140.264 527.357C139.808 527.585 139.58 528.041 139.58 528.496C139.58 528.724 139.58 528.952 139.58 528.952C139.808 529.407 140.264 529.635 140.72 529.635C140.948 529.635 141.175 529.635 141.175 529.407C141.859 528.952 142.087 528.268 141.859 527.813ZM105.403 530.774H105.175C104.719 530.774 104.264 531.23 104.036 531.685V531.913C104.036 532.369 104.264 532.824 104.947 533.052H105.175C105.631 533.052 106.086 532.824 106.314 532.141C106.542 531.685 106.086 531.002 105.403 530.774ZM143.454 532.369C143.226 531.913 142.77 531.458 142.315 531.458H142.087C141.631 531.685 141.175 532.141 141.175 532.597V532.824C141.175 533.28 141.631 533.736 142.315 533.736H142.543C143.226 533.736 143.682 533.052 143.454 532.369ZM104.719 535.33C104.036 535.33 103.58 535.786 103.58 536.469C103.58 537.153 104.036 537.608 104.719 537.608C105.403 537.608 105.859 537.153 105.859 536.469C105.859 536.014 105.403 535.33 104.719 535.33ZM142.77 536.241C142.087 536.241 141.631 536.697 141.631 537.38C141.631 538.064 142.087 538.519 142.77 538.519C143.454 538.519 143.91 538.064 143.91 537.38C143.91 536.697 143.454 536.241 142.77 536.241ZM104.947 538.519C104.264 538.747 103.808 539.203 103.808 539.658C103.808 539.658 103.808 539.658 103.808 539.886C104.036 540.342 104.491 540.797 104.947 540.797H105.175C105.859 540.57 106.314 540.114 106.086 539.431C106.086 538.975 105.403 538.519 104.947 538.519ZM142.315 540.797H142.087C141.631 540.797 141.175 541.253 140.948 541.709V541.936C140.948 542.392 141.175 542.848 141.859 543.075C142.087 543.075 142.087 543.075 142.087 543.075C142.543 543.075 142.998 542.848 143.226 542.164C143.226 541.709 142.998 541.025 142.315 540.797ZM107.226 543.759C106.998 543.303 106.542 543.075 106.086 543.075C105.859 543.075 105.859 543.075 105.631 543.075C105.175 543.303 104.947 543.759 104.947 544.214C104.947 544.442 104.947 544.442 104.947 544.67C105.175 545.126 105.631 545.353 106.086 545.353C106.314 545.353 106.314 545.353 106.542 545.353C107.226 544.898 107.681 544.214 107.226 543.759ZM140.72 545.126C140.492 545.126 140.264 544.898 140.036 544.898C139.58 544.898 139.353 545.126 139.125 545.581C138.897 545.809 138.897 546.037 138.897 546.037C138.897 546.492 139.125 546.948 139.58 546.948C139.808 547.176 140.036 547.176 140.036 547.176C140.492 547.176 140.72 546.948 140.948 546.492C141.403 546.265 141.403 545.581 140.72 545.126ZM109.504 547.404C109.276 547.176 108.821 546.948 108.593 546.948C108.365 546.948 108.137 546.948 107.909 547.176C107.681 547.404 107.454 547.631 107.454 548.087C107.454 548.315 107.454 548.543 107.681 548.77C107.909 548.998 108.137 549.226 108.593 549.226C108.821 549.226 109.048 549.226 109.276 548.998C109.96 548.77 109.96 548.087 109.504 547.404ZM138.213 548.998C137.986 548.77 137.758 548.77 137.53 548.77C137.302 548.77 136.846 548.998 136.618 549.226C136.391 549.454 136.391 549.682 136.391 550.137C136.391 550.365 136.618 550.821 136.846 551.048C137.074 551.276 137.302 551.276 137.758 551.276C137.986 551.276 138.441 551.048 138.669 551.048C138.669 550.137 138.669 549.454 138.213 548.998ZM112.694 550.593C112.466 550.365 112.238 550.365 112.011 550.365C111.783 550.365 111.327 550.593 111.099 550.821C110.871 551.048 110.871 551.276 110.871 551.504C110.871 551.732 111.099 552.187 111.327 552.415C111.555 552.643 111.783 552.643 112.011 552.643C112.466 552.643 112.694 552.415 112.922 552.187C113.15 551.732 113.15 551.048 112.694 550.593ZM134.796 552.187C134.568 551.732 134.112 551.732 133.884 551.732C133.656 551.732 133.429 551.732 133.201 551.96C132.745 552.187 132.745 552.643 132.745 552.871C132.745 553.099 132.745 553.326 132.973 553.554C133.201 554.01 133.656 554.01 133.884 554.01C134.112 554.01 134.34 554.01 134.568 553.782C134.796 553.326 135.023 552.643 134.796 552.187ZM116.34 552.871C116.112 552.871 115.884 552.871 115.884 552.871C115.428 552.871 114.973 553.099 114.745 553.554C114.745 553.782 114.517 553.782 114.517 554.01C114.517 554.465 114.745 554.921 115.2 555.149C115.428 555.149 115.656 555.377 115.656 555.377C116.112 555.377 116.568 555.149 116.795 554.693C117.251 553.782 117.023 553.099 116.34 552.871ZM130.694 554.465C130.466 554.01 130.011 553.554 129.555 553.554H129.327C128.872 553.782 128.416 554.238 128.416 554.693C128.416 554.921 128.416 554.921 128.416 555.149C128.644 555.604 129.099 556.06 129.555 556.06H129.783C130.466 555.604 130.694 554.921 130.694 554.465ZM120.441 554.238C119.757 554.238 119.074 554.693 119.074 555.149V555.377C119.074 555.832 119.53 556.516 119.985 556.516H120.213C120.669 556.516 121.352 556.06 121.352 555.604C121.58 554.921 121.125 554.238 120.441 554.238ZM124.998 554.465C124.314 554.465 123.859 554.921 123.859 555.604C123.859 556.288 124.314 556.743 124.998 556.743C125.682 556.743 126.137 556.06 126.137 555.604C126.137 554.921 125.454 554.465 124.998 554.465Z" fill="#313246"/>
<path d="M125.306 732.715C156.262 732.715 181.358 707.626 181.358 676.676C181.358 645.726 156.262 620.637 125.306 620.637C94.3492 620.637 69.2539 645.726 69.2539 676.676C69.2539 707.626 94.3492 732.715 125.306 732.715Z" fill="#FF64AE"/>
<path d="M161.905 691.954C167.044 670.674 153.955 649.257 132.67 644.119C111.385 638.982 89.9636 652.068 84.8245 673.348C79.6855 694.629 92.7746 716.045 114.06 721.183C135.345 726.321 156.766 713.235 161.905 691.954Z" fill="#747474"/>
<path d="M163.88 686.125C169.021 664.845 155.934 643.426 134.648 638.286C113.363 633.146 91.9404 646.231 86.7992 667.511C81.658 688.792 94.7453 710.21 116.03 715.35C137.316 720.49 158.739 707.406 163.88 686.125Z" fill="white"/>
<path d="M633.352 301.871C633.352 294.81 639.048 288.887 646.339 288.887C653.63 288.887 659.327 294.582 659.327 301.871C659.327 308.933 653.63 314.856 646.339 314.856C639.048 314.856 633.352 308.933 633.352 301.871Z" fill="#53CBED"/>
<path d="M646.112 384.107C646.34 384.107 646.34 384.107 646.112 384.107C646.34 384.107 646.568 384.107 646.568 384.107H646.795C646.795 384.107 647.023 384.107 647.023 384.335C647.023 384.335 647.023 384.335 647.251 384.563V384.791V385.019V385.246C647.251 385.474 647.023 385.93 647.023 386.158C646.568 386.613 645.884 386.613 645.428 386.158C645.2 385.93 644.973 385.702 644.973 385.246C644.973 385.019 645.2 384.563 645.428 384.335C645.428 384.335 645.428 384.335 645.656 384.107H645.884C645.884 384.107 645.884 384.107 646.112 384.107Z" fill="#434345"/>
<path d="M646.112 327.841C645.428 327.841 644.973 328.296 644.973 328.98C644.973 329.663 645.428 330.119 646.112 330.119C646.795 330.119 647.251 329.663 647.251 328.98C647.479 328.296 646.795 327.841 646.112 327.841ZM646.112 332.397C645.428 332.397 644.973 332.852 644.973 333.536C644.973 334.219 645.428 334.675 646.112 334.675C646.795 334.675 647.251 334.219 647.251 333.536C647.479 333.08 646.795 332.397 646.112 332.397ZM646.112 337.181C645.428 337.181 644.973 337.636 644.973 338.32C644.973 339.003 645.428 339.459 646.112 339.459C646.795 339.459 647.251 339.003 647.251 338.32C647.479 337.636 646.795 337.181 646.112 337.181ZM646.112 341.964C645.428 341.964 644.973 342.42 644.973 343.103C644.973 343.787 645.428 344.242 646.112 344.242C646.795 344.242 647.251 343.787 647.251 343.103C647.479 342.42 646.795 341.964 646.112 341.964ZM646.112 346.52C645.428 346.52 644.973 346.976 644.973 347.659C644.973 348.343 645.428 348.798 646.112 348.798C646.795 348.798 647.251 348.343 647.251 347.659C647.251 346.976 646.795 346.52 646.112 346.52ZM646.112 351.304C645.428 351.304 644.973 351.76 644.973 352.443C644.973 353.127 645.428 353.582 646.112 353.582C646.795 353.582 647.251 353.127 647.251 352.443C647.251 351.76 646.795 351.304 646.112 351.304ZM646.112 356.088C645.428 356.088 644.973 356.544 644.973 357.227C644.973 357.91 645.428 358.366 646.112 358.366C646.795 358.366 647.251 357.91 647.251 357.227C647.251 356.544 646.795 356.088 646.112 356.088ZM646.112 360.644C645.428 360.644 644.973 361.1 644.973 361.783C644.973 362.466 645.428 362.922 646.112 362.922C646.795 362.922 647.251 362.466 647.251 361.783C647.251 361.1 646.795 360.644 646.112 360.644ZM646.112 365.428C645.428 365.428 644.973 365.883 644.973 366.567C644.973 367.25 645.428 367.706 646.112 367.706C646.795 367.706 647.251 367.25 647.251 366.567C647.479 365.883 646.795 365.428 646.112 365.428ZM646.112 369.984C645.428 369.984 644.973 370.439 644.973 371.123C644.973 371.806 645.428 372.262 646.112 372.262C646.795 372.262 647.251 371.806 647.251 371.123C647.479 370.667 646.795 369.984 646.112 369.984ZM646.112 374.768C645.428 374.768 644.973 375.223 644.973 375.907C644.973 376.59 645.428 377.046 646.112 377.046C646.795 377.046 647.251 376.59 647.251 375.907C647.479 375.223 646.795 374.768 646.112 374.768ZM646.112 379.551C645.428 379.551 644.973 380.007 644.973 380.69C644.973 381.374 645.428 381.829 646.112 381.829C646.795 381.829 647.251 381.374 647.251 380.69C647.251 380.007 646.795 379.551 646.112 379.551Z" fill="#313246"/>
<path d="M646.112 323.057C646.34 323.057 646.34 323.057 646.568 323.057C646.795 323.057 646.795 323.284 647.023 323.284C647.251 323.512 647.251 323.74 647.251 324.196V324.423V324.651V324.879C647.251 324.879 647.251 325.107 647.023 325.107C646.795 325.335 646.34 325.562 645.884 325.335H645.656H645.428C645.428 325.335 645.201 325.335 645.201 325.107C645.201 325.107 645.201 325.107 644.973 324.879V324.651V324.423V324.196C644.973 323.968 645.2 323.512 645.428 323.284C645.428 323.284 645.428 323.284 645.656 323.057H645.884C645.884 323.057 645.884 323.057 646.112 323.057Z" fill="#434345"/>
<path d="M644.289 281.598C643.605 281.598 643.149 282.281 643.149 282.737V282.964C643.149 283.648 643.605 283.876 644.289 283.876H644.516C645.2 283.876 645.656 283.192 645.656 282.509C645.428 282.053 644.744 281.598 644.289 281.598ZM649.073 281.825C648.39 281.825 647.934 282.281 647.706 282.737V282.964C647.706 283.42 648.162 284.103 648.846 284.103C648.846 284.103 648.846 284.103 649.073 284.103C649.529 284.103 650.213 283.648 650.213 282.964C650.213 282.509 649.757 281.825 649.073 281.825ZM640.871 283.42C640.643 282.964 640.187 282.737 639.732 282.737C639.504 282.737 639.504 282.737 639.276 282.737C638.82 282.964 638.592 283.42 638.592 283.876C638.592 284.103 638.592 284.103 638.592 284.331C638.82 284.787 639.276 285.015 639.732 285.015C639.959 285.015 639.959 285.015 640.187 285.015C640.643 284.787 641.099 284.103 640.871 283.42ZM653.858 283.192C653.63 283.192 653.63 283.192 653.403 283.192C652.947 283.192 652.491 283.42 652.263 283.876C652.263 284.103 652.263 284.103 652.263 284.331C652.263 284.787 652.491 285.242 652.947 285.47C653.175 285.47 653.175 285.47 653.403 285.47C653.858 285.47 654.314 285.242 654.542 284.787C654.77 284.103 654.542 283.42 653.858 283.192ZM636.542 285.47C636.314 285.015 635.858 285.015 635.63 285.015C635.402 285.015 635.175 285.015 634.947 285.242C634.491 285.47 634.491 285.926 634.491 286.154C634.491 286.381 634.491 286.609 634.719 286.837C634.947 287.065 635.402 287.293 635.63 287.293C635.858 287.293 636.086 287.293 636.314 287.065C636.77 286.609 636.997 285.926 636.542 285.47ZM658.187 285.47C657.96 285.242 657.732 285.242 657.504 285.242C657.048 285.242 656.82 285.47 656.593 285.698C656.365 285.926 656.365 286.154 656.365 286.381C656.365 286.837 656.593 287.065 656.82 287.293C657.048 287.52 657.276 287.52 657.504 287.52C657.96 287.52 658.188 287.293 658.415 287.065C658.871 286.609 658.643 285.926 658.187 285.47ZM632.896 288.204C632.668 287.976 632.44 287.976 631.985 287.976C631.757 287.976 631.301 288.204 631.073 288.432C630.845 288.659 630.845 288.887 630.845 289.115C630.845 289.343 631.073 289.798 631.301 290.026C631.529 290.254 631.757 290.254 631.985 290.254C632.213 290.254 632.668 290.026 632.896 289.798C633.352 289.343 633.352 288.659 632.896 288.204ZM661.833 288.887C661.605 288.659 661.377 288.432 660.922 288.432C660.694 288.432 660.466 288.432 660.238 288.659C660.01 288.887 659.782 289.115 659.782 289.571C659.782 289.798 659.782 290.026 660.01 290.254C660.238 290.482 660.466 290.71 660.922 290.71C661.15 290.71 661.377 290.71 661.605 290.482C662.061 290.026 662.061 289.343 661.833 288.887ZM629.934 291.849C629.706 291.849 629.478 291.621 629.478 291.621C629.023 291.621 628.567 291.849 628.567 292.304C628.567 292.532 628.339 292.76 628.339 292.76C628.339 293.215 628.567 293.671 629.023 293.671C629.25 293.671 629.478 293.899 629.478 293.899C629.934 293.899 630.39 293.671 630.618 293.215C630.845 292.76 630.618 292.076 629.934 291.849ZM664.339 292.988C664.112 292.532 663.656 292.304 663.2 292.304C662.972 292.304 662.744 292.304 662.744 292.532C662.289 292.76 662.061 293.215 662.061 293.443C662.061 293.671 662.061 293.899 662.061 293.899C662.289 294.354 662.745 294.582 663.2 294.582C663.428 294.582 663.656 294.582 663.656 294.354C664.339 294.354 664.795 293.671 664.339 292.988ZM628.111 296.177H627.883C627.428 296.177 626.972 296.632 626.744 297.088V297.316C626.744 297.771 627.2 298.227 627.656 298.455H627.883C628.339 298.455 628.795 297.999 629.023 297.544C629.023 296.86 628.567 296.177 628.111 296.177ZM665.934 297.771C665.934 297.316 665.251 296.86 664.795 296.86H664.567C664.112 297.088 663.656 297.544 663.656 297.999V298.227C663.884 298.683 664.339 299.138 664.795 299.138H665.023C665.707 298.91 666.162 298.227 665.934 297.771ZM627.2 300.733C626.516 300.733 626.061 301.188 626.061 301.872C626.061 302.555 626.516 303.011 627.2 303.011C627.883 303.011 628.339 302.555 628.339 301.872C628.339 301.188 627.883 300.733 627.2 300.733ZM665.251 301.416C664.567 301.416 664.112 301.872 664.112 302.555C664.112 303.239 664.567 303.694 665.251 303.694C665.934 303.694 666.39 303.239 666.39 302.555C666.39 301.872 665.934 301.416 665.251 301.416ZM627.428 303.694C626.744 303.922 626.288 304.378 626.288 304.833V305.061C626.516 305.517 626.972 305.972 627.428 305.972C627.428 305.972 627.428 305.972 627.656 305.972C628.339 305.744 628.795 305.289 628.567 304.605C628.567 304.15 627.883 303.694 627.428 303.694ZM664.795 305.972C664.567 305.972 664.567 305.972 664.567 305.972C664.112 305.972 663.656 306.2 663.428 306.883V307.111C663.428 307.567 663.656 308.022 664.339 308.25H664.567C665.023 308.25 665.479 308.022 665.707 307.339C665.707 306.883 665.479 306.2 664.795 305.972ZM629.934 308.934C629.706 308.478 629.25 308.25 628.795 308.25C628.567 308.25 628.567 308.25 628.339 308.25C627.883 308.478 627.656 308.934 627.656 309.389C627.656 309.617 627.656 309.617 627.656 309.845C627.883 310.3 628.339 310.528 628.795 310.528C629.023 310.528 629.023 310.528 629.251 310.3C629.934 310.3 630.162 309.617 629.934 308.934ZM663.2 310.3C662.972 310.3 662.744 310.073 662.517 310.073C662.061 310.073 661.833 310.3 661.605 310.528C661.605 310.756 661.377 310.984 661.377 311.212C661.377 311.667 661.605 312.123 661.833 312.123C662.061 312.351 662.289 312.351 662.517 312.351C662.972 312.351 663.428 312.123 663.428 311.895C664.112 311.439 663.884 310.756 663.2 310.3ZM631.985 312.806C631.757 312.578 631.529 312.351 631.073 312.351C630.845 312.351 630.618 312.351 630.39 312.578C630.162 312.806 629.934 313.034 629.934 313.49C629.934 313.717 629.934 313.945 630.162 314.173C630.39 314.401 630.618 314.629 631.073 314.629C631.301 314.629 631.529 314.629 631.757 314.401C632.44 313.945 632.44 313.262 631.985 312.806ZM660.694 314.173C660.466 313.945 660.238 313.717 660.01 313.717C659.782 313.717 659.327 313.945 659.099 314.173C658.871 314.401 658.871 314.629 658.871 315.084C658.871 315.312 659.099 315.768 659.327 315.995C659.555 316.223 659.782 316.223 660.238 316.223C660.694 316.223 660.922 315.995 661.15 315.768C661.15 315.54 661.15 314.629 660.694 314.173ZM635.175 315.768C634.947 315.54 634.719 315.54 634.491 315.54C634.263 315.54 633.808 315.768 633.58 315.995C633.352 316.223 633.352 316.451 633.352 316.679C633.352 316.907 633.58 317.362 633.808 317.59C634.035 317.818 634.263 317.818 634.491 317.818C634.719 317.818 635.175 317.59 635.402 317.362C635.63 316.907 635.63 316.223 635.175 315.768ZM657.276 317.362C657.048 317.134 656.593 316.907 656.365 316.907C656.137 316.907 655.909 316.907 655.681 317.134C655.453 317.362 655.225 317.818 655.225 318.046C655.225 318.273 655.225 318.501 655.453 318.729C655.681 319.185 656.137 319.185 656.365 319.185C656.593 319.185 656.82 319.185 657.048 318.957C657.276 318.729 657.504 318.046 657.276 317.362ZM638.82 318.046C638.592 318.046 638.592 317.818 638.365 317.818C637.909 317.818 637.453 318.046 637.225 318.501C637.225 318.729 637.225 318.729 637.225 318.957C637.225 319.412 637.453 319.868 637.909 320.096C638.137 320.096 638.365 320.096 638.365 320.096C638.82 320.096 639.276 319.868 639.504 319.412C639.732 318.957 639.504 318.273 638.82 318.046ZM653.175 319.64C652.947 319.185 652.491 318.729 652.036 318.729H651.808C651.352 318.957 650.896 319.412 650.896 319.868V320.096C651.124 320.551 651.58 321.007 652.036 321.007C652.263 321.007 652.263 321.007 652.491 321.007C652.947 320.779 653.403 320.324 653.175 319.64ZM642.922 319.412C642.238 319.412 641.782 319.868 641.554 320.324V320.551C641.554 321.007 642.01 321.69 642.466 321.69H642.694C643.149 321.69 643.833 321.235 643.833 320.779C644.061 320.096 643.605 319.412 642.922 319.412ZM647.479 319.64C646.795 319.64 646.339 320.096 646.339 320.779C646.339 321.463 646.795 321.918 647.479 321.918C648.162 321.918 648.618 321.235 648.618 320.779C648.618 320.096 648.162 319.64 647.479 319.64Z" fill="#313246"/>
<path d="M646.487 499.243C677.444 499.243 702.539 474.153 702.539 443.203C702.539 412.254 677.444 387.164 646.487 387.164C615.531 387.164 590.436 412.254 590.436 443.203C590.436 474.153 615.531 499.243 646.487 499.243Z" fill="#53CBED"/>
<path d="M683.157 457.971C688.145 436.655 674.905 415.333 653.585 410.346C632.264 405.359 610.937 418.596 605.949 439.912C600.961 461.227 614.201 482.549 635.522 487.536C656.842 492.523 678.169 479.286 683.157 457.971Z" fill="#BCBEC0"/>
<path d="M685.11 452.113C690.098 430.798 676.858 409.475 655.538 404.489C634.217 399.502 612.89 412.739 607.903 434.054C602.915 455.37 616.155 476.692 637.475 481.679C658.795 486.666 680.122 473.429 685.11 452.113Z" fill="white"/>
</svg>
