<svg width="312" height="610" viewBox="0 0 312 610" fill="none" xmlns="http://www.w3.org/2000/svg">
<g clip-path="url(#clip0_801_776)">
<path d="M589.18 -99.7051C662.458 -99.7051 721.93 -35.9069 721.93 42.7015V326.603C721.93 332.3 722.567 337.996 723.629 343.464C723.841 344.376 724.054 345.287 724.266 346.199C727.877 360.781 735.523 373.313 745.718 383.11C746.356 383.794 747.205 384.477 747.842 384.933C748.055 385.161 748.267 385.389 748.48 385.617C749.117 386.3 749.966 386.756 750.604 387.439C755.489 391.313 760.799 394.275 766.321 396.553C768.445 397.465 770.569 398.148 772.693 398.832C776.304 399.971 779.915 400.655 783.738 401.11C786.287 401.338 789.048 401.566 791.809 401.566H891V442.579H791.809C782.251 442.579 772.906 441.212 763.985 438.706C758.887 437.339 754.002 435.516 749.329 433.237C747.418 432.326 745.506 431.415 743.807 430.503C733.399 425.035 724.054 417.744 715.77 409.085C714.071 407.49 712.584 405.668 711.097 403.845C707.274 399.516 704.088 394.731 700.902 389.718C699.628 387.439 698.141 385.161 697.079 382.655C695.167 379.009 693.256 374.908 691.769 371.034C690.707 368.3 689.645 365.566 688.795 362.604C686.459 355.313 684.972 347.793 684.122 340.047C683.698 335.717 683.485 331.16 683.485 326.603V42.7015C683.485 -13.1218 641.005 -58.692 588.967 -58.692C536.929 -58.692 494.449 -13.1218 494.449 42.7015V573.593C494.449 596.834 489.352 618.708 480.006 638.075C479.369 639.442 478.732 640.581 478.094 641.949C475.121 647.873 471.722 653.569 467.899 658.81C443.686 693.443 405.029 716 361.487 716C288.209 716 228.737 652.202 228.737 573.593L228.737 42.7015C228.737 -13.1218 186.257 -58.692 134.219 -58.692C82.1808 -58.692 39.7008 -13.1218 39.7008 42.7015L39.7008 600.024C39.7008 664.05 -8.72639 716 -68.4108 716H-171V674.987H-67.986C-29.5416 674.987 1.89362 641.265 1.89362 600.024L1.89362 42.7015C1.89362 -35.9069 61.3656 -99.7051 134.644 -99.7051C207.922 -99.7051 267.394 -35.9069 267.394 42.7015L267.394 573.593C267.394 629.417 309.874 674.987 361.912 674.987C388.674 674.987 412.888 662.911 430.092 643.771C434.128 639.214 437.951 634.202 441.137 628.733C441.774 627.822 442.199 626.91 442.836 625.999C448.358 616.201 452.394 605.265 454.518 593.416C454.73 592.733 454.73 592.049 454.943 591.366C456.005 585.669 456.43 579.745 456.43 573.821V42.9294C456.43 -35.6791 515.902 -99.7051 589.18 -99.7051Z" fill="#313246"/>
<path d="M782.623 425.346H796V418.51H782.623V425.346ZM755.869 425.346H769.246V418.51H755.869V425.346ZM729.114 425.346H742.491V418.51H729.114V425.346ZM701.978 423.751C702.169 423.751 702.551 423.978 702.742 423.978C706.946 424.89 711.342 425.346 715.737 425.573V418.738C712.297 418.738 708.857 418.282 705.609 417.599C704.653 417.371 703.889 417.371 702.933 417.143L701.978 423.751ZM675.988 412.358C679.237 414.636 682.868 416.687 686.307 418.282C687.072 418.738 687.645 418.966 688.41 419.193L690.321 412.814C690.129 412.586 689.747 412.586 689.556 412.358C685.925 410.763 682.103 408.712 678.663 406.206L675.988 412.358ZM658.98 387.066L654.776 391.395C656.113 393.218 657.451 395.041 658.98 396.636C660.126 398.003 661.273 399.142 662.42 400.509C663.184 401.421 663.948 402.104 664.713 403.016L668.344 397.775C668.153 397.547 668.153 397.547 667.962 397.319C666.433 395.724 664.904 394.129 663.375 392.534C663.184 392.307 663.184 392.307 662.993 392.079C662.42 391.395 662.037 390.939 661.464 390.256C661.273 390.028 661.082 389.8 660.891 389.572C660.7 389.344 660.7 389.344 660.509 389.117C660.318 388.889 660.318 388.889 660.126 388.661C659.935 388.433 659.744 388.205 659.744 388.205C659.553 387.977 659.362 387.749 659.171 387.294C659.171 387.066 659.171 387.066 658.98 387.066ZM640.252 363.597C641.016 365.875 641.972 368.382 642.927 370.66C643.5 372.255 644.265 373.622 644.838 375.217C645.411 376.357 645.794 377.268 646.367 378.407L650.953 375.217L651.336 374.99C650.571 373.395 649.807 371.8 649.042 370.205C647.705 367.242 646.558 364.28 645.603 361.318L640.252 363.597ZM634.328 331.469C634.519 336.938 635.092 342.406 636.239 347.875L641.781 346.508C640.825 341.495 640.252 336.482 640.061 331.241L634.328 331.469ZM634.328 60.0933H640.061V44.1434H634.328V60.0933ZM634.328 91.993H640.061V76.0432H634.328V91.993ZM634.328 123.893H640.061V107.943H634.328V123.893ZM634.328 155.793H640.061V139.843H634.328V155.793ZM634.328 187.692H640.061V171.742H634.328V187.692ZM634.328 219.592H640.061V203.642H634.328V219.592ZM634.328 251.492H640.061V235.542H634.328V251.492ZM634.328 283.392H640.061V267.442H634.328V283.392ZM634.328 315.291H640.061V299.342H634.328V315.291ZM631.27 13.3829C632.417 18.3958 633.181 23.4085 633.563 28.6492L639.296 27.7378C638.723 22.2692 637.959 16.8007 636.812 11.56L631.27 13.3829ZM621.715 -15.3269C623.817 -10.7698 625.728 -6.21265 627.257 -1.42767L632.608 -3.93414C630.888 -8.94696 628.977 -13.9598 626.684 -18.7448L621.715 -15.3269ZM606.044 -40.1631C609.102 -36.5175 611.969 -32.4161 614.453 -28.3147L619.039 -32.4161C616.364 -36.7453 613.306 -41.0746 610.058 -44.9481L606.044 -40.1631ZM585.788 -59.303C589.419 -56.5687 593.05 -53.6066 596.489 -50.4166L600.12 -55.8851C596.489 -59.303 592.667 -62.2651 588.845 -65.2272L585.788 -59.303ZM561.9 -71.3793C566.104 -70.0122 570.117 -68.1893 574.13 -66.1386L576.424 -72.5186C572.219 -74.5693 567.824 -76.62 563.429 -77.9871L561.9 -71.3793ZM536.292 -75.9365C540.688 -75.9365 545.083 -75.4808 549.287 -74.7972L550.052 -81.6329C545.465 -82.3164 540.879 -82.7722 536.292 -83V-75.9365ZM509.156 -78.8986L510.493 -72.2908C514.698 -73.6579 518.902 -74.5693 523.297 -75.025L522.724 -81.8607C518.138 -81.1771 513.551 -80.2657 509.156 -78.8986ZM483.739 -66.8223L486.606 -60.898C490.428 -63.4044 494.25 -65.6829 498.263 -67.5058L496.161 -73.8858C491.765 -71.8351 487.561 -69.5565 483.739 -66.8223ZM461.762 -47.2267L465.776 -42.2138C468.833 -45.8595 472.273 -49.2774 475.713 -52.2395L472.273 -57.708C468.451 -54.7459 465.011 -51.1002 461.762 -47.2267ZM444.754 -21.7068L449.723 -18.289C452.016 -22.6182 454.501 -26.9475 457.176 -31.0489L452.589 -35.3782C449.723 -30.821 447.048 -26.2639 444.754 -21.7068ZM433.861 8.37006L439.403 10.1929C440.55 5.18011 442.079 0.395081 443.799 -4.38983L438.448 -7.12408C436.537 -2.11127 435.008 3.12939 433.861 8.37006ZM429.848 40.7256L435.581 40.9534C435.581 35.7128 435.964 30.472 436.537 25.4592L430.804 24.5478C430.231 29.7885 429.848 35.257 429.848 40.7256ZM429.848 72.6253H435.581V56.6755H429.848V72.6253ZM429.848 104.525H435.581V88.5752H429.848V104.525ZM429.848 136.425H435.581V120.475H429.848V136.425ZM429.848 168.325H435.581V152.375H429.848V168.325ZM429.848 200.224H435.581V184.275H429.848V200.224ZM429.848 232.124H435.581V216.174H429.848V232.124ZM429.848 264.024H435.581V248.074H429.848V264.024ZM429.848 295.924H435.581V279.974H429.848V295.924ZM429.848 327.823H435.581V311.874H429.848V327.823ZM429.848 359.723H435.581V343.773H429.848V359.723ZM429.848 391.623H435.581V375.673H429.848V391.623ZM429.848 423.523H435.581V407.573H429.848V423.523ZM429.848 455.423H435.581V439.473H429.848V455.423ZM429.848 487.322H435.581V471.372H429.848V487.322ZM429.848 519.222H435.581V503.272H429.848V519.222ZM429.848 551.122H435.581V535.172H429.848V551.122ZM429.848 573.907C429.848 575.73 429.848 577.781 429.657 579.832C429.657 580.287 429.657 580.743 429.657 581.199C429.657 581.654 429.657 582.338 429.657 582.794L434.817 583.249H435.39C435.39 582.794 435.39 582.566 435.39 582.11C435.581 579.148 435.581 576.414 435.581 573.452V567.072H429.848V573.907ZM426.217 604.896C426.026 605.351 426.026 606.035 425.835 606.491C425.644 607.402 425.453 608.086 425.262 608.769C425.262 609.225 425.071 609.681 424.88 610.136C424.689 611.048 424.306 612.187 423.924 613.098L429.275 615.377C429.657 614.466 429.848 613.326 430.231 612.415C430.422 611.959 430.422 611.503 430.613 611.048C431.186 608.541 431.759 606.035 432.333 603.529C432.524 603.073 432.524 602.389 432.715 601.934C432.906 601.022 433.097 600.339 433.097 599.427L427.555 598.06C427.364 600.339 426.791 602.617 426.217 604.896ZM414.56 636.568C414.56 636.795 414.369 637.023 414.369 637.023C413.796 638.163 413.031 639.302 412.458 640.441L417.236 644.315C418.191 642.72 419.147 640.897 420.102 639.074C420.102 638.846 420.293 638.846 420.293 638.618C421.822 635.884 422.969 632.922 424.306 630.188L419.147 626.998C417.618 630.416 416.28 633.605 414.56 636.568ZM404.241 652.973C401.374 656.847 398.317 660.265 395.068 663.682L398.89 668.923C402.33 665.277 405.578 661.632 408.636 657.53L404.623 653.429L404.241 652.973C404.241 652.745 404.241 652.745 404.241 652.973ZM373.282 680.544L375.766 686.696C379.78 684.417 383.984 681.683 387.806 678.721L384.748 673.024C381.117 675.759 377.295 678.265 373.282 680.544ZM348.63 690.114L349.585 696.949C354.172 696.038 358.567 694.671 362.963 692.848L361.243 686.468C357.23 687.835 352.834 689.202 348.63 690.114ZM322.831 691.709L322.449 698.544C325.124 698.772 327.8 699 330.475 699C332.386 699 334.297 699 336.017 698.772L335.635 691.936C333.915 692.164 332.195 692.164 330.284 692.164C327.991 691.936 325.315 691.936 322.831 691.709ZM295.504 691.709C299.708 693.531 304.294 694.899 308.69 696.038L309.836 689.43C305.632 688.291 301.428 686.924 297.415 685.329L295.504 691.709ZM271.042 676.898C274.865 679.86 278.687 682.822 282.891 685.329L285.566 679.177C281.744 676.898 277.922 674.164 274.291 671.202L271.042 676.898ZM250.595 655.024C253.652 659.125 256.71 662.999 260.15 666.645L263.972 661.632C260.723 658.214 257.665 654.34 254.799 650.467L250.595 655.024ZM235.689 627.681C237.6 632.466 239.893 637.479 242.377 642.036L247.155 638.39C244.861 634.061 242.568 629.504 240.848 624.947L235.689 627.681ZM227.089 596.693C227.853 602.161 229 607.402 230.529 612.643L236.071 610.592C234.733 605.807 233.586 600.566 232.822 595.554L227.089 596.693ZM225.369 573.452C225.369 575.73 225.369 578.009 225.56 580.287L231.293 579.832C231.102 577.781 231.102 575.502 231.102 573.224V563.882H225.369V573.452ZM225.369 69.8911H231.102V53.9412H225.369V69.8911ZM225.369 101.791H231.102V85.8409H225.369V101.791ZM225.369 133.691H231.102V117.741H225.369V133.691ZM225.369 165.59H231.102V149.64H225.369V165.59ZM225.369 197.49H231.102V181.54H225.369V197.49ZM225.369 229.39H231.102V213.44H225.369V229.39ZM225.369 261.29H231.102V245.34H225.369V261.29ZM225.369 293.189H231.102V277.24H225.369V293.189ZM225.369 325.089H231.102V309.139H225.369V325.089ZM225.369 356.989H231.102V341.039H225.369V356.989ZM225.369 388.889H231.102V372.939H225.369V388.889ZM225.369 420.788H231.102V404.839H225.369V420.788ZM225.369 452.688H231.102V436.738H225.369V452.688ZM225.369 484.588H231.102V468.638H225.369V484.588ZM225.369 516.488H231.102V500.538H225.369V516.488ZM225.369 548.388H231.102V532.438H225.369V548.388ZM223.84 22.725C224.605 27.7378 224.987 32.9785 225.178 38.2191L230.911 37.9913C230.72 32.5228 230.338 27.0542 229.573 21.8135L223.84 22.725ZM216.196 -6.89624C217.916 -2.11127 219.636 2.67371 220.783 7.45868L226.325 5.40796C224.987 0.167297 223.267 -4.84558 221.356 -9.8584L216.196 -6.89624ZM202.437 -33.0996C205.112 -29.2261 207.788 -24.8968 210.081 -20.5676L214.858 -24.2133C212.374 -28.7703 209.699 -33.3275 206.832 -37.4289L202.437 -33.0996ZM183.518 -54.0623C186.958 -51.1002 190.397 -47.6824 193.646 -44.2646L197.468 -49.2773C194.028 -52.923 190.588 -56.3409 186.766 -59.5308L183.518 -54.0623ZM160.585 -68.4172C164.599 -66.5944 168.612 -64.5437 172.434 -62.0373L175.109 -67.9615C171.096 -70.468 166.892 -72.7465 162.496 -74.5693L160.585 -68.4172ZM135.36 -75.2529C139.564 -74.7971 143.96 -73.8858 148.164 -72.7465L149.502 -79.3543C145.106 -80.4936 140.52 -81.405 135.933 -81.8607L135.36 -75.2529ZM108.415 -80.9492L109.37 -74.1136C113.574 -75.025 117.97 -75.4807 122.365 -75.7086L122.174 -82.5443C117.396 -82.3164 112.81 -81.8607 108.415 -80.9492ZM82.2336 -71.3793L84.5268 -65.2272C88.3488 -67.278 92.5531 -69.3286 96.7573 -70.6957L95.0374 -77.3036C90.6421 -75.4808 86.2467 -73.6579 82.2336 -71.3793ZM58.9191 -54.0623L62.55 -48.8217C65.7988 -52.0117 69.4297 -55.2016 73.0607 -57.9359L70.003 -63.6323C66.181 -60.6702 62.55 -57.4802 58.9191 -54.0623ZM40.3822 -29.9096L44.9687 -26.0361C47.453 -30.1375 50.3195 -34.2389 53.1861 -38.1124L48.9818 -42.6696C45.9242 -38.796 42.8665 -34.4667 40.3822 -29.9096ZM27.3873 -1.19983L32.7381 1.30652C34.2669 -3.47845 35.9869 -8.26337 38.089 -12.8205L32.9292 -16.0104C31.0182 -11.2255 29.1072 -6.21265 27.3873 -1.19983ZM21.272 30.7L27.0051 31.3835C27.3873 26.3707 28.1517 21.1299 29.1072 16.1171L23.5652 14.5222C22.4186 19.9907 21.8453 25.4593 21.272 30.7ZM20.8898 63.0554H26.6228V47.1055H20.8898V63.0554ZM20.8898 94.9551H26.6228V79.0052H20.8898V94.9551ZM20.8898 126.855H26.6228V110.905H20.8898V126.855ZM20.8898 158.755H26.6228V142.805H20.8898V158.755ZM20.8898 190.654H26.6228V174.705H20.8898V190.654ZM20.8898 222.554H26.6228V206.604H20.8898V222.554ZM20.8898 254.454H26.6228V238.504H20.8898V254.454ZM20.8898 286.354H26.6228V270.404H20.8898V286.354ZM20.8898 318.254H26.6228V302.304H20.8898V318.254ZM20.8898 350.153H26.6228V334.203H20.8898V350.153ZM20.8898 382.053H26.6228V366.103H20.8898V382.053ZM20.8898 413.953H26.6228V398.003H20.8898V413.953ZM20.8898 445.853H26.6228V429.903H20.8898V445.853ZM20.8898 477.752H26.6228V461.802H20.8898V477.752ZM20.8898 509.652H26.6228V493.702H20.8898V509.652ZM20.8898 541.552H26.6228V525.602H20.8898V541.552ZM20.8898 573.452H26.6228V557.502H20.8898V573.452ZM20.8898 599.883C20.8898 601.706 20.8898 603.301 20.6987 605.124L26.4317 605.579C26.6229 603.756 26.6228 601.934 26.6228 600.111V589.402H20.8898V599.883ZM15.1567 634.973L20.5076 637.479C22.2275 632.466 23.7563 627.226 24.7118 621.757L19.1699 620.162C18.0233 625.175 16.6855 630.188 15.1567 634.973ZM1.58849 660.948L5.79272 665.505C8.85036 661.404 11.7169 656.847 14.0101 652.29L9.23256 648.644C6.93933 652.973 4.45502 657.075 1.58849 660.948ZM-18.4772 680.088L-15.6107 686.012C-11.5976 683.278 -7.77553 680.316 -4.14459 676.67L-7.77553 671.429C-11.0243 674.619 -14.6552 677.582 -18.4772 680.088ZM-42.5561 690.569L-41.6006 697.177C-37.0142 696.266 -32.6188 694.671 -28.2235 692.848L-30.1345 686.468C-34.1476 688.291 -38.3519 689.658 -42.5561 690.569ZM-68.7371 698.772H-55.36V691.936H-68.7371V698.772ZM-95.4914 698.772H-82.1143V691.936H-95.4914V698.772ZM-122.246 698.772H-108.869V691.936H-122.246V698.772ZM-149 698.772H-135.623V691.936H-149V698.772Z" fill="#55566A"/>
</g>
<path d="M90.4326 21.2725C90.4326 26.7358 94.8606 31.1648 100.323 31.1648C105.785 31.1648 110.213 26.7358 110.213 21.2725C110.213 15.8091 105.785 11.3801 100.323 11.3801C94.8606 11.3801 90.4326 15.8091 90.4326 21.2725Z" fill="#FCE1A8"/>
<path d="M37.5117 21.2725C37.5117 21.4461 37.5117 21.4461 37.5117 21.2725C37.5117 21.4461 37.5117 21.6196 37.5117 21.6196V21.7932C37.5117 21.7932 37.5117 21.9667 37.3382 21.9667C37.3382 21.9667 37.3382 21.9667 37.1647 22.1403H36.9912H36.8177H36.6442C36.4707 22.1403 36.1236 21.9667 35.9501 21.9667C35.6031 21.6196 35.6031 21.099 35.9501 20.7519C36.1236 20.5783 36.2971 20.4048 36.6442 20.4048C36.8177 20.4048 37.1647 20.5783 37.3382 20.7519C37.3382 20.7519 37.3382 20.7519 37.5117 20.9254V21.099C37.5117 21.099 37.5117 21.099 37.5117 21.2725Z" fill="#434345"/>
<path d="M80.5425 21.2725C80.5425 20.7519 80.1955 20.4048 79.6749 20.4048C79.1544 20.4048 78.8074 20.7519 78.8074 21.2725C78.8074 21.7932 79.1544 22.1403 79.6749 22.1403C80.0219 22.3138 80.5425 21.7932 80.5425 21.2725ZM76.8987 21.2725C76.8987 20.7519 76.5517 20.4048 76.0312 20.4048C75.5107 20.4048 75.1636 20.7519 75.1636 21.2725C75.1636 21.7932 75.5107 22.1403 76.0312 22.1403C76.5517 22.3138 76.8987 21.7932 76.8987 21.2725ZM73.255 21.2725C73.255 20.7519 72.908 20.4048 72.3875 20.4048C71.8669 20.4048 71.5199 20.7519 71.5199 21.2725C71.5199 21.7932 71.8669 22.1403 72.3875 22.1403C72.908 22.3138 73.255 21.7932 73.255 21.2725ZM69.7848 21.2725C69.7848 20.7519 69.4378 20.4048 68.9172 20.4048C68.3967 20.4048 68.0497 20.7519 68.0497 21.2725C68.0497 21.7932 68.3967 22.1403 68.9172 22.1403C69.2643 22.3138 69.7848 21.7932 69.7848 21.2725ZM66.1411 21.2725C66.1411 20.7519 65.794 20.4048 65.2735 20.4048C64.753 20.4048 64.4059 20.7519 64.4059 21.2725C64.4059 21.7932 64.753 22.1403 65.2735 22.1403C65.794 22.3138 66.1411 21.7932 66.1411 21.2725ZM62.6708 21.2725C62.6708 20.7519 62.3238 20.4048 61.8033 20.4048C61.2827 20.4048 60.9357 20.7519 60.9357 21.2725C60.9357 21.7932 61.2827 22.1403 61.8033 22.1403C62.1503 22.3138 62.6708 21.7932 62.6708 21.2725ZM59.0271 21.2725C59.0271 20.7519 58.6801 20.4048 58.1595 20.4048C57.639 20.4048 57.292 20.7519 57.292 21.2725C57.292 21.7932 57.639 22.1403 58.1595 22.1403C58.6801 22.3138 59.0271 21.7932 59.0271 21.2725ZM55.3834 21.2725C55.3834 20.7519 55.0363 20.4048 54.5158 20.4048C53.9953 20.4048 53.6482 20.7519 53.6482 21.2725C53.6482 21.7932 53.9953 22.1403 54.5158 22.1403C55.0363 22.1403 55.3834 21.7932 55.3834 21.2725ZM51.9131 21.2725C51.9131 20.7519 51.5661 20.4048 51.0456 20.4048C50.525 20.4048 50.178 20.7519 50.178 21.2725C50.178 21.7932 50.525 22.1403 51.0456 22.1403C51.3926 22.3138 51.9131 21.7932 51.9131 21.2725ZM48.2694 21.2725C48.2694 20.7519 47.9224 20.4048 47.4018 20.4048C46.8813 20.4048 46.5343 20.7519 46.5343 21.2725C46.5343 21.7932 46.8813 22.1403 47.4018 22.1403C47.9224 22.3138 48.2694 21.7932 48.2694 21.2725ZM44.7992 21.2725C44.7992 20.7519 44.4522 20.4048 43.9316 20.4048C43.4111 20.4048 43.0641 20.7519 43.0641 21.2725C43.0641 21.7932 43.4111 22.1403 43.9316 22.1403C44.4522 22.1403 44.7992 21.7932 44.7992 21.2725ZM41.1554 21.2725C41.1554 20.7519 40.8084 20.4048 40.2879 20.4048C39.7673 20.4048 39.4203 20.7519 39.4203 21.2725C39.4203 21.7932 39.7673 22.1403 40.2879 22.1403C40.8084 22.3138 41.1554 21.7932 41.1554 21.2725Z" fill="white" fill-opacity="0.8"/>
<path d="M84.0127 21.2724C84.0127 21.446 84.0127 21.446 84.0127 21.6195C84.0127 21.7931 83.8392 21.7931 83.8392 21.9666C83.6657 22.1402 83.4922 22.1402 83.1451 22.1402H82.9716H82.7981H82.6246C82.6246 22.1402 82.4511 22.1402 82.4511 21.9666C82.2776 21.7931 82.1041 21.446 82.2776 21.0989V20.9253V20.7518C82.2776 20.7518 82.2776 20.5782 82.4511 20.5782C82.4511 20.5782 82.4511 20.5782 82.6246 20.4047H82.7981H82.9716H83.1451C83.3187 20.4047 83.6657 20.5782 83.8392 20.7518C83.8392 20.7518 83.8392 20.7518 84.0127 20.9253V21.0989C84.0127 21.0989 84.0127 21.0989 84.0127 21.2724Z" fill="#434345"/>
<path d="M115.592 19.884C115.592 19.3633 115.071 19.0162 114.724 19.0162C114.204 19.0162 113.857 19.3633 113.857 19.884V20.0575C113.857 20.5782 114.377 20.9253 114.898 20.9253C115.245 20.7517 115.592 20.2311 115.592 19.884ZM115.592 23.5285C115.592 23.0079 115.245 22.4872 114.898 22.4872H114.724C114.377 22.4872 113.857 22.8343 113.857 23.1814C113.857 23.1814 113.857 23.1814 113.857 23.355C113.857 23.7021 114.204 24.2227 114.551 24.2227C115.071 24.3963 115.418 24.0492 115.592 23.5285ZM114.204 17.2807C114.551 17.1072 114.724 16.7601 114.724 16.413C114.724 16.2394 114.724 16.2394 114.724 16.0659C114.551 15.7188 114.204 15.5452 113.857 15.5452C113.683 15.5452 113.683 15.5452 113.51 15.5452C113.163 15.7188 112.989 16.0659 112.989 16.413C112.989 16.5865 112.989 16.5866 112.989 16.7601C113.163 17.1072 113.683 17.4543 114.204 17.2807ZM114.551 27.1731C114.551 26.9995 114.551 26.9995 114.551 26.826C114.551 26.4789 114.377 26.1318 114.03 25.9582C113.857 25.9582 113.857 25.9582 113.683 25.9582C113.336 25.9582 112.989 26.1318 112.816 26.4789C112.816 26.6524 112.816 26.6524 112.816 26.826C112.816 27.1731 112.989 27.5202 113.336 27.6937C113.857 27.8673 114.377 27.6937 114.551 27.1731ZM112.816 13.9833C112.989 13.8097 113.163 13.4627 113.163 13.2891C113.163 13.1156 113.163 12.942 112.989 12.7685C112.816 12.5949 112.469 12.4214 112.295 12.4214C112.122 12.4214 111.948 12.4213 111.775 12.5949C111.601 12.7684 111.428 13.1156 111.428 13.2891C111.428 13.4627 111.428 13.6362 111.601 13.8097C111.775 14.1568 112.469 14.3304 112.816 13.9833ZM112.642 30.4705C112.816 30.297 112.816 30.1234 112.816 29.9499C112.816 29.6028 112.642 29.4292 112.469 29.2557C112.295 29.0821 112.122 29.0821 111.948 29.0821C111.601 29.0821 111.428 29.2557 111.254 29.4292C111.081 29.6028 111.081 29.7763 111.081 29.9499C111.081 30.297 111.254 30.4705 111.428 30.6441C111.948 30.9912 112.469 30.8176 112.642 30.4705ZM110.56 11.2065C110.733 11.0329 110.733 10.8594 110.733 10.6859C110.733 10.5123 110.56 10.1652 110.386 9.99165C110.213 9.8181 110.039 9.81811 109.866 9.81811C109.692 9.81811 109.345 9.99166 109.172 10.1652C108.998 10.3388 108.998 10.5123 108.998 10.6859C108.998 10.8594 109.172 11.2065 109.345 11.3801C109.692 11.5536 110.386 11.5536 110.56 11.2065ZM110.213 33.2473C110.386 33.0738 110.56 32.9002 110.56 32.5531C110.56 32.3796 110.56 32.206 110.386 32.0325C110.213 31.8589 110.039 31.6854 109.692 31.6854C109.519 31.6854 109.345 31.6854 109.172 31.8589C108.998 32.0325 108.825 32.206 108.825 32.5531C108.825 32.7267 108.825 32.9002 108.998 33.0738C109.172 33.4209 109.692 33.4209 110.213 33.2473ZM107.957 8.95037C107.957 8.77682 108.131 8.60325 108.131 8.60325C108.131 8.25615 107.957 7.90906 107.61 7.90906C107.437 7.90906 107.263 7.7355 107.263 7.7355C106.916 7.7355 106.569 7.90905 106.396 8.25615C106.396 8.4297 106.222 8.60325 106.222 8.60325C106.222 8.95034 106.396 9.29744 106.743 9.47099C107.09 9.47099 107.61 9.47102 107.957 8.95037ZM106.916 35.1564C107.263 34.9828 107.437 34.6357 107.437 34.2886C107.437 34.1151 107.437 33.9415 107.263 33.9415C107.09 33.5944 106.743 33.4209 106.396 33.4209C106.222 33.4209 106.222 33.4209 106.049 33.5944C105.702 33.768 105.528 34.1151 105.528 34.4622C105.528 34.6357 105.528 34.6357 105.702 34.8093C106.049 35.1564 106.569 35.5035 106.916 35.1564ZM104.661 7.3884V7.21487C104.661 6.86777 104.314 6.52067 103.967 6.34712H103.793C103.446 6.34712 103.099 6.69421 102.925 7.04131V7.21487C102.925 7.56197 103.273 7.90907 103.62 8.08262C104.14 8.25617 104.487 7.90905 104.661 7.3884ZM103.446 36.3712C103.793 36.3712 104.14 35.8505 104.14 35.5034V35.3299C104.14 34.9828 103.62 34.6357 103.273 34.6357H103.099C102.752 34.6357 102.405 34.9828 102.405 35.5034V35.677C102.405 36.1977 102.925 36.5447 103.446 36.3712ZM101.19 6.86775C101.19 6.3471 100.843 6 100.323 6C99.8023 6 99.4553 6.3471 99.4553 6.86775C99.4553 7.3884 99.8023 7.7355 100.323 7.7355C100.843 7.7355 101.19 7.3884 101.19 6.86775ZM100.67 35.8506C100.67 35.3299 100.323 34.9828 99.8023 34.9828C99.2817 34.9828 98.9347 35.3299 98.9347 35.8506C98.9347 36.3712 99.2817 36.7183 99.8023 36.7183C100.149 36.7183 100.67 36.3712 100.67 35.8506ZM98.7612 7.04131C98.5877 6.52066 98.2407 6.17356 97.8937 6.17356C97.8937 6.17356 97.8937 6.17356 97.7201 6.17356C97.3731 6.17356 97.0261 6.69421 97.0261 7.04131V7.21487C97.0261 7.73552 97.5466 8.08261 98.0672 7.90906C98.4142 7.90906 98.7612 7.38841 98.7612 7.04131ZM97.0261 35.5034V35.3299C97.0261 34.9828 96.8526 34.6357 96.3321 34.4622H96.1585C95.8115 34.4622 95.4645 34.8093 95.291 35.1564V35.3299C95.291 35.677 95.4645 36.0241 95.985 36.1977C96.5056 36.1977 96.8526 36.0241 97.0261 35.5034ZM94.7705 8.95037C95.1175 8.77682 95.291 8.42972 95.291 8.08262C95.291 7.90907 95.291 7.90905 95.291 7.7355C95.1175 7.3884 94.7705 7.21487 94.4234 7.21487C94.2499 7.21487 94.2499 7.21487 94.0764 7.21487C93.7294 7.38842 93.5559 7.73552 93.5559 8.08262C93.5559 8.25617 93.5559 8.25616 93.7294 8.42971C93.9029 8.77681 94.4234 9.12392 94.7705 8.95037ZM93.7294 34.2886C93.9029 34.1151 93.9029 33.9415 93.9029 33.768C93.9029 33.4209 93.7294 33.2473 93.5559 33.0738C93.3824 32.9002 93.2089 32.9002 93.0353 32.9002C92.6883 32.9002 92.5148 33.0738 92.3413 33.4209C92.1678 33.5944 92.1678 33.768 92.1678 33.768C92.1678 34.1151 92.3413 34.2886 92.5148 34.4622C93.0353 34.9828 93.5559 34.8093 93.7294 34.2886ZM91.9943 10.5123C92.1678 10.3388 92.3413 9.99166 92.3413 9.81811C92.3413 9.64456 92.3413 9.47101 92.1678 9.29746C91.9943 9.12391 91.8208 8.95037 91.4737 8.95037C91.3002 8.95037 91.1267 8.95035 90.9532 9.1239C90.7797 9.29745 90.6062 9.47102 90.6062 9.81811C90.6062 9.99166 90.6062 10.1652 90.7797 10.3387C90.9532 10.8594 91.6473 10.8594 91.9943 10.5123ZM90.7797 32.3796C90.9532 32.206 90.9532 32.0325 90.9532 31.6854C90.9532 31.5118 90.7797 31.1647 90.6062 30.9912C90.4327 30.8176 90.2592 30.8176 89.9121 30.8176C89.7386 30.8176 89.3916 30.9912 89.2181 31.1647C89.0446 31.3383 89.0446 31.5118 89.0446 31.8589C89.0446 32.0325 89.2181 32.3796 89.3916 32.5531C89.9121 32.7267 90.4327 32.7267 90.7797 32.3796ZM89.5651 12.942C89.7386 12.7684 89.7386 12.5949 89.7386 12.4214C89.7386 12.0743 89.5651 11.9007 89.3916 11.7271C89.2181 11.5536 89.0446 11.5536 88.8711 11.5536C88.5241 11.5536 88.3505 11.7272 88.177 11.9007C88.0035 12.0743 88.0035 12.2478 88.0035 12.4214C88.0035 12.7685 88.177 12.942 88.3505 13.1155C88.6976 13.2891 89.3916 13.2891 89.5651 12.942ZM88.3505 29.7763C88.6976 29.6028 88.6976 29.2557 88.6976 29.0821C88.6976 28.9086 88.6976 28.735 88.5241 28.5615C88.3505 28.2144 88.0035 28.2144 87.83 28.2144C87.6565 28.2144 87.483 28.2144 87.3095 28.3879C86.9625 28.5615 86.9625 28.9086 86.9625 29.0821C86.9625 29.2557 86.9625 29.4292 87.136 29.6028C87.483 29.7763 88.0035 29.9499 88.3505 29.7763ZM87.83 15.7188C87.83 15.5452 87.83 15.5452 87.83 15.3717C87.83 15.0246 87.6565 14.6775 87.3095 14.504C87.136 14.504 87.136 14.3304 86.9625 14.3304C86.6154 14.3304 86.2684 14.5039 86.0949 14.851C86.0949 15.0246 86.0949 15.0246 86.0949 15.1981C86.0949 15.5452 86.2684 15.8923 86.6154 16.0659C87.136 16.413 87.6565 16.2394 87.83 15.7188ZM86.7889 26.6524C87.136 26.4789 87.483 26.1318 87.483 25.7847C87.483 25.6111 87.483 25.6111 87.483 25.6111C87.3095 25.264 86.9625 24.9169 86.6154 24.9169C86.6154 24.9169 86.4419 24.9169 86.2684 24.9169C85.9214 25.0905 85.5744 25.4376 85.5744 25.7847C85.5744 25.9582 85.5744 25.9582 85.5744 26.1318C85.7479 26.4789 86.2684 26.826 86.7889 26.6524ZM86.9625 18.8427C86.9625 18.322 86.6154 17.8014 86.2684 17.8014H86.0949C85.7479 17.8014 85.2273 18.1485 85.2273 18.4956V18.6691C85.2273 19.0162 85.5744 19.5369 85.9214 19.5369C86.2684 19.7104 86.7889 19.3633 86.9625 18.8427ZM86.6154 22.3137C86.6154 21.793 86.2684 21.4459 85.7479 21.4459C85.2273 21.4459 84.8803 21.793 84.8803 22.3137C84.8803 22.8343 85.4009 23.1814 85.7479 23.1814C86.2684 23.1814 86.6154 22.8343 86.6154 22.3137Z" fill="white" fill-opacity="0.8"/>
<path d="M24.5872 47.4822C37.702 47.4822 48.3336 36.853 48.3336 23.7411C48.3336 10.6293 37.702 0 24.5872 0C11.4724 0 0.84082 10.6293 0.84082 23.7411C0.84082 36.853 11.4724 47.4822 24.5872 47.4822Z" fill="#FCE1A8"/>
<path d="M35.6298 38.126C42.1891 31.5682 42.1891 20.9359 35.6298 14.3781C29.0706 7.82028 18.4359 7.82028 11.8766 14.3781C5.31734 20.9359 5.31734 31.5682 11.8766 38.126C18.4359 44.6839 29.0706 44.6839 35.6298 38.126Z" fill="#BCBEC0"/>
<path d="M36.4572 35.6444C43.0165 29.0865 43.0165 18.4542 36.4572 11.8964C29.898 5.33859 19.2633 5.3386 12.704 11.8964C6.14473 18.4542 6.14473 29.0865 12.704 35.6444C19.2633 42.2022 29.898 42.2022 36.4572 35.6444Z" fill="white"/>
<path d="M20.8357 19.2706H26.2717V31.8706H23.3557V21.6106H20.8357V19.2706Z" fill="#03123B"/>
<path d="M91.4326 145.272C91.4326 150.736 95.8606 155.165 101.323 155.165C106.785 155.165 111.213 150.736 111.213 145.272C111.213 139.809 106.785 135.38 101.323 135.38C95.8606 135.38 91.4326 139.809 91.4326 145.272Z" fill="#53CBED"/>
<path d="M38.5117 145.273C38.5117 145.446 38.5117 145.446 38.5117 145.273C38.5117 145.446 38.5117 145.62 38.5117 145.62V145.793C38.5117 145.793 38.5117 145.967 38.3382 145.967C38.3382 145.967 38.3382 145.967 38.1647 146.14H37.9912H37.8177H37.6442C37.4707 146.14 37.1236 145.967 36.9501 145.967C36.6031 145.62 36.6031 145.099 36.9501 144.752C37.1236 144.578 37.2971 144.405 37.6442 144.405C37.8177 144.405 38.1647 144.578 38.3382 144.752C38.3382 144.752 38.3382 144.752 38.5117 144.925V145.099C38.5117 145.099 38.5117 145.099 38.5117 145.273Z" fill="#434345"/>
<path d="M81.5425 145.273C81.5425 144.752 81.1955 144.405 80.6749 144.405C80.1544 144.405 79.8074 144.752 79.8074 145.273C79.8074 145.793 80.1544 146.14 80.6749 146.14C81.0219 146.314 81.5425 145.793 81.5425 145.273ZM77.8987 145.273C77.8987 144.752 77.5517 144.405 77.0312 144.405C76.5107 144.405 76.1636 144.752 76.1636 145.273C76.1636 145.793 76.5107 146.14 77.0312 146.14C77.5517 146.314 77.8987 145.793 77.8987 145.273ZM74.255 145.273C74.255 144.752 73.908 144.405 73.3875 144.405C72.8669 144.405 72.5199 144.752 72.5199 145.273C72.5199 145.793 72.8669 146.14 73.3875 146.14C73.908 146.314 74.255 145.793 74.255 145.273ZM70.7848 145.273C70.7848 144.752 70.4378 144.405 69.9172 144.405C69.3967 144.405 69.0497 144.752 69.0497 145.273C69.0497 145.793 69.3967 146.14 69.9172 146.14C70.2643 146.314 70.7848 145.793 70.7848 145.273ZM67.1411 145.273C67.1411 144.752 66.794 144.405 66.2735 144.405C65.753 144.405 65.4059 144.752 65.4059 145.273C65.4059 145.793 65.753 146.14 66.2735 146.14C66.794 146.314 67.1411 145.793 67.1411 145.273ZM63.6708 145.273C63.6708 144.752 63.3238 144.405 62.8033 144.405C62.2827 144.405 61.9357 144.752 61.9357 145.273C61.9357 145.793 62.2827 146.14 62.8033 146.14C63.1503 146.314 63.6708 145.793 63.6708 145.273ZM60.0271 145.273C60.0271 144.752 59.6801 144.405 59.1595 144.405C58.639 144.405 58.292 144.752 58.292 145.273C58.292 145.793 58.639 146.14 59.1595 146.14C59.6801 146.314 60.0271 145.793 60.0271 145.273ZM56.3834 145.273C56.3834 144.752 56.0363 144.405 55.5158 144.405C54.9953 144.405 54.6482 144.752 54.6482 145.273C54.6482 145.793 54.9953 146.14 55.5158 146.14C56.0363 146.14 56.3834 145.793 56.3834 145.273ZM52.9131 145.273C52.9131 144.752 52.5661 144.405 52.0456 144.405C51.525 144.405 51.178 144.752 51.178 145.273C51.178 145.793 51.525 146.14 52.0456 146.14C52.3926 146.314 52.9131 145.793 52.9131 145.273ZM49.2694 145.273C49.2694 144.752 48.9224 144.405 48.4018 144.405C47.8813 144.405 47.5343 144.752 47.5343 145.273C47.5343 145.793 47.8813 146.14 48.4018 146.14C48.9224 146.314 49.2694 145.793 49.2694 145.273ZM45.7992 145.273C45.7992 144.752 45.4522 144.405 44.9316 144.405C44.4111 144.405 44.0641 144.752 44.0641 145.273C44.0641 145.793 44.4111 146.14 44.9316 146.14C45.4522 146.14 45.7992 145.793 45.7992 145.273ZM42.1554 145.273C42.1554 144.752 41.8084 144.405 41.2879 144.405C40.7673 144.405 40.4203 144.752 40.4203 145.273C40.4203 145.793 40.7673 146.14 41.2879 146.14C41.8084 146.314 42.1554 145.793 42.1554 145.273Z" fill="white" fill-opacity="0.8"/>
<path d="M85.0127 145.272C85.0127 145.446 85.0127 145.446 85.0127 145.62C85.0127 145.793 84.8392 145.793 84.8392 145.967C84.6657 146.14 84.4922 146.14 84.1451 146.14H83.9716H83.7981H83.6246C83.6246 146.14 83.4511 146.14 83.4511 145.967C83.2776 145.793 83.1041 145.446 83.2776 145.099V144.925V144.752C83.2776 144.752 83.2776 144.578 83.4511 144.578C83.4511 144.578 83.4511 144.578 83.6246 144.405H83.7981H83.9716H84.1451C84.3187 144.405 84.6657 144.578 84.8392 144.752C84.8392 144.752 84.8392 144.752 85.0127 144.925V145.099C85.0127 145.099 85.0127 145.099 85.0127 145.272Z" fill="#434345"/>
<path d="M116.592 143.884C116.592 143.363 116.071 143.016 115.724 143.016C115.204 143.016 114.857 143.363 114.857 143.884V144.058C114.857 144.578 115.377 144.925 115.898 144.925C116.245 144.752 116.592 144.231 116.592 143.884ZM116.592 147.529C116.592 147.008 116.245 146.487 115.898 146.487H115.724C115.377 146.487 114.857 146.834 114.857 147.181C114.857 147.181 114.857 147.181 114.857 147.355C114.857 147.702 115.204 148.223 115.551 148.223C116.071 148.396 116.418 148.049 116.592 147.529ZM115.204 141.281C115.551 141.107 115.724 140.76 115.724 140.413C115.724 140.239 115.724 140.239 115.724 140.066C115.551 139.719 115.204 139.545 114.857 139.545C114.683 139.545 114.683 139.545 114.51 139.545C114.163 139.719 113.989 140.066 113.989 140.413C113.989 140.587 113.989 140.587 113.989 140.76C114.163 141.107 114.683 141.454 115.204 141.281ZM115.551 151.173C115.551 151 115.551 151 115.551 150.826C115.551 150.479 115.377 150.132 115.03 149.958C114.857 149.958 114.857 149.958 114.683 149.958C114.336 149.958 113.989 150.132 113.816 150.479C113.816 150.652 113.816 150.652 113.816 150.826C113.816 151.173 113.989 151.52 114.336 151.694C114.857 151.867 115.377 151.694 115.551 151.173ZM113.816 137.983C113.989 137.81 114.163 137.463 114.163 137.289C114.163 137.116 114.163 136.942 113.989 136.768C113.816 136.595 113.469 136.421 113.295 136.421C113.122 136.421 112.948 136.421 112.775 136.595C112.601 136.768 112.428 137.116 112.428 137.289C112.428 137.463 112.428 137.636 112.601 137.81C112.775 138.157 113.469 138.33 113.816 137.983ZM113.642 154.471C113.816 154.297 113.816 154.123 113.816 153.95C113.816 153.603 113.642 153.429 113.469 153.256C113.295 153.082 113.122 153.082 112.948 153.082C112.601 153.082 112.428 153.256 112.254 153.429C112.081 153.603 112.081 153.776 112.081 153.95C112.081 154.297 112.254 154.471 112.428 154.644C112.948 154.991 113.469 154.818 113.642 154.471ZM111.56 135.206C111.733 135.033 111.733 134.859 111.733 134.686C111.733 134.512 111.56 134.165 111.386 133.992C111.213 133.818 111.039 133.818 110.866 133.818C110.692 133.818 110.345 133.992 110.172 134.165C109.998 134.339 109.998 134.512 109.998 134.686C109.998 134.859 110.172 135.207 110.345 135.38C110.692 135.554 111.386 135.554 111.56 135.206ZM111.213 157.247C111.386 157.074 111.56 156.9 111.56 156.553C111.56 156.38 111.56 156.206 111.386 156.032C111.213 155.859 111.039 155.685 110.692 155.685C110.519 155.685 110.345 155.685 110.172 155.859C109.998 156.032 109.825 156.206 109.825 156.553C109.825 156.727 109.825 156.9 109.998 157.074C110.172 157.421 110.692 157.421 111.213 157.247ZM108.957 132.95C108.957 132.777 109.131 132.603 109.131 132.603C109.131 132.256 108.957 131.909 108.61 131.909C108.437 131.909 108.263 131.735 108.263 131.735C107.916 131.735 107.569 131.909 107.396 132.256C107.396 132.43 107.222 132.603 107.222 132.603C107.222 132.95 107.396 133.297 107.743 133.471C108.09 133.471 108.61 133.471 108.957 132.95ZM107.916 159.156C108.263 158.983 108.437 158.636 108.437 158.289C108.437 158.115 108.437 157.942 108.263 157.942C108.09 157.594 107.743 157.421 107.396 157.421C107.222 157.421 107.222 157.421 107.049 157.594C106.702 157.768 106.528 158.115 106.528 158.462C106.528 158.636 106.528 158.636 106.702 158.809C107.049 159.156 107.569 159.503 107.916 159.156ZM105.661 131.388V131.215C105.661 130.868 105.314 130.521 104.967 130.347H104.793C104.446 130.347 104.099 130.694 103.925 131.041V131.215C103.925 131.562 104.273 131.909 104.62 132.083C105.14 132.256 105.487 131.909 105.661 131.388ZM104.446 160.371C104.793 160.371 105.14 159.851 105.14 159.503V159.33C105.14 158.983 104.62 158.636 104.273 158.636H104.099C103.752 158.636 103.405 158.983 103.405 159.503V159.677C103.405 160.198 103.925 160.545 104.446 160.371ZM102.19 130.868C102.19 130.347 101.843 130 101.323 130C100.802 130 100.455 130.347 100.455 130.868C100.455 131.388 100.802 131.735 101.323 131.735C101.843 131.735 102.19 131.388 102.19 130.868ZM101.67 159.851C101.67 159.33 101.323 158.983 100.802 158.983C100.282 158.983 99.9347 159.33 99.9347 159.851C99.9347 160.371 100.282 160.718 100.802 160.718C101.149 160.718 101.67 160.371 101.67 159.851ZM99.7612 131.041C99.5877 130.521 99.2407 130.174 98.8937 130.174C98.8937 130.174 98.8937 130.174 98.7201 130.174C98.3731 130.174 98.0261 130.694 98.0261 131.041V131.215C98.0261 131.736 98.5466 132.083 99.0672 131.909C99.4142 131.909 99.7612 131.388 99.7612 131.041ZM98.0261 159.503V159.33C98.0261 158.983 97.8526 158.636 97.3321 158.462H97.1585C96.8115 158.462 96.4645 158.809 96.291 159.156V159.33C96.291 159.677 96.4645 160.024 96.985 160.198C97.5056 160.198 97.8526 160.024 98.0261 159.503ZM95.7705 132.95C96.1175 132.777 96.291 132.43 96.291 132.083C96.291 131.909 96.291 131.909 96.291 131.735C96.1175 131.388 95.7705 131.215 95.4234 131.215C95.2499 131.215 95.2499 131.215 95.0764 131.215C94.7294 131.388 94.5559 131.736 94.5559 132.083C94.5559 132.256 94.5559 132.256 94.7294 132.43C94.9029 132.777 95.4234 133.124 95.7705 132.95ZM94.7294 158.289C94.9029 158.115 94.9029 157.942 94.9029 157.768C94.9029 157.421 94.7294 157.247 94.5559 157.074C94.3824 156.9 94.2089 156.9 94.0353 156.9C93.6883 156.9 93.5148 157.074 93.3413 157.421C93.1678 157.594 93.1678 157.768 93.1678 157.768C93.1678 158.115 93.3413 158.289 93.5148 158.462C94.0353 158.983 94.5559 158.809 94.7294 158.289ZM92.9943 134.512C93.1678 134.339 93.3413 133.992 93.3413 133.818C93.3413 133.645 93.3413 133.471 93.1678 133.297C92.9943 133.124 92.8208 132.95 92.4737 132.95C92.3002 132.95 92.1267 132.95 91.9532 133.124C91.7797 133.297 91.6062 133.471 91.6062 133.818C91.6062 133.992 91.6062 134.165 91.7797 134.339C91.9532 134.859 92.6473 134.859 92.9943 134.512ZM91.7797 156.38C91.9532 156.206 91.9532 156.032 91.9532 155.685C91.9532 155.512 91.7797 155.165 91.6062 154.991C91.4327 154.818 91.2592 154.818 90.9121 154.818C90.7386 154.818 90.3916 154.991 90.2181 155.165C90.0446 155.338 90.0446 155.512 90.0446 155.859C90.0446 156.032 90.2181 156.38 90.3916 156.553C90.9121 156.727 91.4327 156.727 91.7797 156.38ZM90.5651 136.942C90.7386 136.768 90.7386 136.595 90.7386 136.421C90.7386 136.074 90.5651 135.901 90.3916 135.727C90.2181 135.554 90.0446 135.554 89.8711 135.554C89.5241 135.554 89.3505 135.727 89.177 135.901C89.0035 136.074 89.0035 136.248 89.0035 136.421C89.0035 136.768 89.177 136.942 89.3505 137.116C89.6976 137.289 90.3916 137.289 90.5651 136.942ZM89.3505 153.776C89.6976 153.603 89.6976 153.256 89.6976 153.082C89.6976 152.909 89.6976 152.735 89.5241 152.561C89.3505 152.214 89.0035 152.214 88.83 152.214C88.6565 152.214 88.483 152.214 88.3095 152.388C87.9625 152.561 87.9625 152.909 87.9625 153.082C87.9625 153.256 87.9625 153.429 88.136 153.603C88.483 153.776 89.0035 153.95 89.3505 153.776ZM88.83 139.719C88.83 139.545 88.83 139.545 88.83 139.372C88.83 139.025 88.6565 138.678 88.3095 138.504C88.136 138.504 88.136 138.33 87.9625 138.33C87.6154 138.33 87.2684 138.504 87.0949 138.851C87.0949 139.025 87.0949 139.025 87.0949 139.198C87.0949 139.545 87.2684 139.892 87.6154 140.066C88.136 140.413 88.6565 140.239 88.83 139.719ZM87.7889 150.652C88.136 150.479 88.483 150.132 88.483 149.785C88.483 149.611 88.483 149.611 88.483 149.611C88.3095 149.264 87.9625 148.917 87.6154 148.917C87.6154 148.917 87.4419 148.917 87.2684 148.917C86.9214 149.09 86.5744 149.438 86.5744 149.785C86.5744 149.958 86.5744 149.958 86.5744 150.132C86.7479 150.479 87.2684 150.826 87.7889 150.652ZM87.9625 142.843C87.9625 142.322 87.6154 141.801 87.2684 141.801H87.0949C86.7479 141.801 86.2273 142.149 86.2273 142.496V142.669C86.2273 143.016 86.5744 143.537 86.9214 143.537C87.2684 143.71 87.7889 143.363 87.9625 142.843ZM87.6154 146.314C87.6154 145.793 87.2684 145.446 86.7479 145.446C86.2273 145.446 85.8803 145.793 85.8803 146.314C85.8803 146.834 86.4009 147.181 86.7479 147.181C87.2684 147.181 87.6154 146.834 87.6154 146.314Z" fill="white" fill-opacity="0.8"/>
<path d="M25.5872 171.482C38.702 171.482 49.3336 160.853 49.3336 147.741C49.3336 134.629 38.702 124 25.5872 124C12.4724 124 1.84082 134.629 1.84082 147.741C1.84082 160.853 12.4724 171.482 25.5872 171.482Z" fill="#53CBED"/>
<path d="M36.6298 162.126C43.1891 155.568 43.1891 144.936 36.6298 138.378C30.0706 131.82 19.4359 131.82 12.8766 138.378C6.31734 144.936 6.31734 155.568 12.8766 162.126C19.4359 168.684 30.0706 168.684 36.6298 162.126Z" fill="#BCBEC0"/>
<path d="M37.4572 159.644C44.0165 153.087 44.0165 142.454 37.4572 135.896C30.898 129.339 20.2633 129.339 13.704 135.896C7.14473 142.454 7.14473 153.087 13.704 159.644C20.2633 166.202 30.898 166.202 37.4572 159.644Z" fill="white"/>
<path d="M24.698 152.624H30.116V155H20.594V153.11L25.454 148.52C26.57 147.458 26.768 146.81 26.768 146.198C26.768 145.208 26.084 144.632 24.752 144.632C23.672 144.632 22.754 145.046 22.142 145.892L20.018 144.524C20.99 143.102 22.754 142.184 25.022 142.184C27.83 142.184 29.702 143.624 29.702 145.91C29.702 147.134 29.36 148.25 27.596 149.888L24.698 152.624Z" fill="#03123B"/>
<path d="M91.4326 298.272C91.4326 303.736 95.8606 308.165 101.323 308.165C106.785 308.165 111.213 303.736 111.213 298.272C111.213 292.809 106.785 288.38 101.323 288.38C95.8606 288.38 91.4326 292.809 91.4326 298.272Z" fill="#FF64AE"/>
<path d="M38.5117 298.273C38.5117 298.446 38.5117 298.446 38.5117 298.273C38.5117 298.446 38.5117 298.62 38.5117 298.62V298.793C38.5117 298.793 38.5117 298.967 38.3382 298.967C38.3382 298.967 38.3382 298.967 38.1647 299.14H37.9912H37.8177H37.6442C37.4707 299.14 37.1236 298.967 36.9501 298.967C36.6031 298.62 36.6031 298.099 36.9501 297.752C37.1236 297.578 37.2971 297.405 37.6442 297.405C37.8177 297.405 38.1647 297.578 38.3382 297.752C38.3382 297.752 38.3382 297.752 38.5117 297.925V298.099C38.5117 298.099 38.5117 298.099 38.5117 298.273Z" fill="#434345"/>
<path d="M81.5425 298.273C81.5425 297.752 81.1955 297.405 80.6749 297.405C80.1544 297.405 79.8074 297.752 79.8074 298.273C79.8074 298.793 80.1544 299.14 80.6749 299.14C81.0219 299.314 81.5425 298.793 81.5425 298.273ZM77.8987 298.273C77.8987 297.752 77.5517 297.405 77.0312 297.405C76.5107 297.405 76.1636 297.752 76.1636 298.273C76.1636 298.793 76.5107 299.14 77.0312 299.14C77.5517 299.314 77.8987 298.793 77.8987 298.273ZM74.255 298.273C74.255 297.752 73.908 297.405 73.3875 297.405C72.8669 297.405 72.5199 297.752 72.5199 298.273C72.5199 298.793 72.8669 299.14 73.3875 299.14C73.908 299.314 74.255 298.793 74.255 298.273ZM70.7848 298.273C70.7848 297.752 70.4378 297.405 69.9172 297.405C69.3967 297.405 69.0497 297.752 69.0497 298.273C69.0497 298.793 69.3967 299.14 69.9172 299.14C70.2643 299.314 70.7848 298.793 70.7848 298.273ZM67.1411 298.273C67.1411 297.752 66.794 297.405 66.2735 297.405C65.753 297.405 65.4059 297.752 65.4059 298.273C65.4059 298.793 65.753 299.14 66.2735 299.14C66.794 299.314 67.1411 298.793 67.1411 298.273ZM63.6708 298.273C63.6708 297.752 63.3238 297.405 62.8033 297.405C62.2827 297.405 61.9357 297.752 61.9357 298.273C61.9357 298.793 62.2827 299.14 62.8033 299.14C63.1503 299.314 63.6708 298.793 63.6708 298.273ZM60.0271 298.273C60.0271 297.752 59.6801 297.405 59.1595 297.405C58.639 297.405 58.292 297.752 58.292 298.273C58.292 298.793 58.639 299.14 59.1595 299.14C59.6801 299.314 60.0271 298.793 60.0271 298.273ZM56.3834 298.273C56.3834 297.752 56.0363 297.405 55.5158 297.405C54.9953 297.405 54.6482 297.752 54.6482 298.273C54.6482 298.793 54.9953 299.14 55.5158 299.14C56.0363 299.14 56.3834 298.793 56.3834 298.273ZM52.9131 298.273C52.9131 297.752 52.5661 297.405 52.0456 297.405C51.525 297.405 51.178 297.752 51.178 298.273C51.178 298.793 51.525 299.14 52.0456 299.14C52.3926 299.314 52.9131 298.793 52.9131 298.273ZM49.2694 298.273C49.2694 297.752 48.9224 297.405 48.4018 297.405C47.8813 297.405 47.5343 297.752 47.5343 298.273C47.5343 298.793 47.8813 299.14 48.4018 299.14C48.9224 299.314 49.2694 298.793 49.2694 298.273ZM45.7992 298.273C45.7992 297.752 45.4522 297.405 44.9316 297.405C44.4111 297.405 44.0641 297.752 44.0641 298.273C44.0641 298.793 44.4111 299.14 44.9316 299.14C45.4522 299.14 45.7992 298.793 45.7992 298.273ZM42.1554 298.273C42.1554 297.752 41.8084 297.405 41.2879 297.405C40.7673 297.405 40.4203 297.752 40.4203 298.273C40.4203 298.793 40.7673 299.14 41.2879 299.14C41.8084 299.314 42.1554 298.793 42.1554 298.273Z" fill="white" fill-opacity="0.8"/>
<path d="M85.0127 298.272C85.0127 298.446 85.0127 298.446 85.0127 298.62C85.0127 298.793 84.8392 298.793 84.8392 298.967C84.6657 299.14 84.4922 299.14 84.1451 299.14H83.9716H83.7981H83.6246C83.6246 299.14 83.4511 299.14 83.4511 298.967C83.2776 298.793 83.1041 298.446 83.2776 298.099V297.925V297.752C83.2776 297.752 83.2776 297.578 83.4511 297.578C83.4511 297.578 83.4511 297.578 83.6246 297.405H83.7981H83.9716H84.1451C84.3187 297.405 84.6657 297.578 84.8392 297.752C84.8392 297.752 84.8392 297.752 85.0127 297.925V298.099C85.0127 298.099 85.0127 298.099 85.0127 298.272Z" fill="#434345"/>
<path d="M116.592 296.884C116.592 296.363 116.071 296.016 115.724 296.016C115.204 296.016 114.857 296.363 114.857 296.884V297.058C114.857 297.578 115.377 297.925 115.898 297.925C116.245 297.752 116.592 297.231 116.592 296.884ZM116.592 300.529C116.592 300.008 116.245 299.487 115.898 299.487H115.724C115.377 299.487 114.857 299.834 114.857 300.181C114.857 300.181 114.857 300.181 114.857 300.355C114.857 300.702 115.204 301.223 115.551 301.223C116.071 301.396 116.418 301.049 116.592 300.529ZM115.204 294.281C115.551 294.107 115.724 293.76 115.724 293.413C115.724 293.239 115.724 293.239 115.724 293.066C115.551 292.719 115.204 292.545 114.857 292.545C114.683 292.545 114.683 292.545 114.51 292.545C114.163 292.719 113.989 293.066 113.989 293.413C113.989 293.587 113.989 293.587 113.989 293.76C114.163 294.107 114.683 294.454 115.204 294.281ZM115.551 304.173C115.551 304 115.551 304 115.551 303.826C115.551 303.479 115.377 303.132 115.03 302.958C114.857 302.958 114.857 302.958 114.683 302.958C114.336 302.958 113.989 303.132 113.816 303.479C113.816 303.652 113.816 303.652 113.816 303.826C113.816 304.173 113.989 304.52 114.336 304.694C114.857 304.867 115.377 304.694 115.551 304.173ZM113.816 290.983C113.989 290.81 114.163 290.463 114.163 290.289C114.163 290.116 114.163 289.942 113.989 289.768C113.816 289.595 113.469 289.421 113.295 289.421C113.122 289.421 112.948 289.421 112.775 289.595C112.601 289.768 112.428 290.116 112.428 290.289C112.428 290.463 112.428 290.636 112.601 290.81C112.775 291.157 113.469 291.33 113.816 290.983ZM113.642 307.471C113.816 307.297 113.816 307.123 113.816 306.95C113.816 306.603 113.642 306.429 113.469 306.256C113.295 306.082 113.122 306.082 112.948 306.082C112.601 306.082 112.428 306.256 112.254 306.429C112.081 306.603 112.081 306.776 112.081 306.95C112.081 307.297 112.254 307.471 112.428 307.644C112.948 307.991 113.469 307.818 113.642 307.471ZM111.56 288.206C111.733 288.033 111.733 287.859 111.733 287.686C111.733 287.512 111.56 287.165 111.386 286.992C111.213 286.818 111.039 286.818 110.866 286.818C110.692 286.818 110.345 286.992 110.172 287.165C109.998 287.339 109.998 287.512 109.998 287.686C109.998 287.859 110.172 288.207 110.345 288.38C110.692 288.554 111.386 288.554 111.56 288.206ZM111.213 310.247C111.386 310.074 111.56 309.9 111.56 309.553C111.56 309.38 111.56 309.206 111.386 309.032C111.213 308.859 111.039 308.685 110.692 308.685C110.519 308.685 110.345 308.685 110.172 308.859C109.998 309.032 109.825 309.206 109.825 309.553C109.825 309.727 109.825 309.9 109.998 310.074C110.172 310.421 110.692 310.421 111.213 310.247ZM108.957 285.95C108.957 285.777 109.131 285.603 109.131 285.603C109.131 285.256 108.957 284.909 108.61 284.909C108.437 284.909 108.263 284.735 108.263 284.735C107.916 284.735 107.569 284.909 107.396 285.256C107.396 285.43 107.222 285.603 107.222 285.603C107.222 285.95 107.396 286.297 107.743 286.471C108.09 286.471 108.61 286.471 108.957 285.95ZM107.916 312.156C108.263 311.983 108.437 311.636 108.437 311.289C108.437 311.115 108.437 310.942 108.263 310.942C108.09 310.594 107.743 310.421 107.396 310.421C107.222 310.421 107.222 310.421 107.049 310.594C106.702 310.768 106.528 311.115 106.528 311.462C106.528 311.636 106.528 311.636 106.702 311.809C107.049 312.156 107.569 312.503 107.916 312.156ZM105.661 284.388V284.215C105.661 283.868 105.314 283.521 104.967 283.347H104.793C104.446 283.347 104.099 283.694 103.925 284.041V284.215C103.925 284.562 104.273 284.909 104.62 285.083C105.14 285.256 105.487 284.909 105.661 284.388ZM104.446 313.371C104.793 313.371 105.14 312.851 105.14 312.503V312.33C105.14 311.983 104.62 311.636 104.273 311.636H104.099C103.752 311.636 103.405 311.983 103.405 312.503V312.677C103.405 313.198 103.925 313.545 104.446 313.371ZM102.19 283.868C102.19 283.347 101.843 283 101.323 283C100.802 283 100.455 283.347 100.455 283.868C100.455 284.388 100.802 284.735 101.323 284.735C101.843 284.735 102.19 284.388 102.19 283.868ZM101.67 312.851C101.67 312.33 101.323 311.983 100.802 311.983C100.282 311.983 99.9347 312.33 99.9347 312.851C99.9347 313.371 100.282 313.718 100.802 313.718C101.149 313.718 101.67 313.371 101.67 312.851ZM99.7612 284.041C99.5877 283.521 99.2407 283.174 98.8937 283.174C98.8937 283.174 98.8937 283.174 98.7201 283.174C98.3731 283.174 98.0261 283.694 98.0261 284.041V284.215C98.0261 284.736 98.5466 285.083 99.0672 284.909C99.4142 284.909 99.7612 284.388 99.7612 284.041ZM98.0261 312.503V312.33C98.0261 311.983 97.8526 311.636 97.3321 311.462H97.1585C96.8115 311.462 96.4645 311.809 96.291 312.156V312.33C96.291 312.677 96.4645 313.024 96.985 313.198C97.5056 313.198 97.8526 313.024 98.0261 312.503ZM95.7705 285.95C96.1175 285.777 96.291 285.43 96.291 285.083C96.291 284.909 96.291 284.909 96.291 284.735C96.1175 284.388 95.7705 284.215 95.4234 284.215C95.2499 284.215 95.2499 284.215 95.0764 284.215C94.7294 284.388 94.5559 284.736 94.5559 285.083C94.5559 285.256 94.5559 285.256 94.7294 285.43C94.9029 285.777 95.4234 286.124 95.7705 285.95ZM94.7294 311.289C94.9029 311.115 94.9029 310.942 94.9029 310.768C94.9029 310.421 94.7294 310.247 94.5559 310.074C94.3824 309.9 94.2089 309.9 94.0353 309.9C93.6883 309.9 93.5148 310.074 93.3413 310.421C93.1678 310.594 93.1678 310.768 93.1678 310.768C93.1678 311.115 93.3413 311.289 93.5148 311.462C94.0353 311.983 94.5559 311.809 94.7294 311.289ZM92.9943 287.512C93.1678 287.339 93.3413 286.992 93.3413 286.818C93.3413 286.645 93.3413 286.471 93.1678 286.297C92.9943 286.124 92.8208 285.95 92.4737 285.95C92.3002 285.95 92.1267 285.95 91.9532 286.124C91.7797 286.297 91.6062 286.471 91.6062 286.818C91.6062 286.992 91.6062 287.165 91.7797 287.339C91.9532 287.859 92.6473 287.859 92.9943 287.512ZM91.7797 309.38C91.9532 309.206 91.9532 309.032 91.9532 308.685C91.9532 308.512 91.7797 308.165 91.6062 307.991C91.4327 307.818 91.2592 307.818 90.9121 307.818C90.7386 307.818 90.3916 307.991 90.2181 308.165C90.0446 308.338 90.0446 308.512 90.0446 308.859C90.0446 309.032 90.2181 309.38 90.3916 309.553C90.9121 309.727 91.4327 309.727 91.7797 309.38ZM90.5651 289.942C90.7386 289.768 90.7386 289.595 90.7386 289.421C90.7386 289.074 90.5651 288.901 90.3916 288.727C90.2181 288.554 90.0446 288.554 89.8711 288.554C89.5241 288.554 89.3505 288.727 89.177 288.901C89.0035 289.074 89.0035 289.248 89.0035 289.421C89.0035 289.768 89.177 289.942 89.3505 290.116C89.6976 290.289 90.3916 290.289 90.5651 289.942ZM89.3505 306.776C89.6976 306.603 89.6976 306.256 89.6976 306.082C89.6976 305.909 89.6976 305.735 89.5241 305.561C89.3505 305.214 89.0035 305.214 88.83 305.214C88.6565 305.214 88.483 305.214 88.3095 305.388C87.9625 305.561 87.9625 305.909 87.9625 306.082C87.9625 306.256 87.9625 306.429 88.136 306.603C88.483 306.776 89.0035 306.95 89.3505 306.776ZM88.83 292.719C88.83 292.545 88.83 292.545 88.83 292.372C88.83 292.025 88.6565 291.678 88.3095 291.504C88.136 291.504 88.136 291.33 87.9625 291.33C87.6154 291.33 87.2684 291.504 87.0949 291.851C87.0949 292.025 87.0949 292.025 87.0949 292.198C87.0949 292.545 87.2684 292.892 87.6154 293.066C88.136 293.413 88.6565 293.239 88.83 292.719ZM87.7889 303.652C88.136 303.479 88.483 303.132 88.483 302.785C88.483 302.611 88.483 302.611 88.483 302.611C88.3095 302.264 87.9625 301.917 87.6154 301.917C87.6154 301.917 87.4419 301.917 87.2684 301.917C86.9214 302.09 86.5744 302.438 86.5744 302.785C86.5744 302.958 86.5744 302.958 86.5744 303.132C86.7479 303.479 87.2684 303.826 87.7889 303.652ZM87.9625 295.843C87.9625 295.322 87.6154 294.801 87.2684 294.801H87.0949C86.7479 294.801 86.2273 295.149 86.2273 295.496V295.669C86.2273 296.016 86.5744 296.537 86.9214 296.537C87.2684 296.71 87.7889 296.363 87.9625 295.843ZM87.6154 299.314C87.6154 298.793 87.2684 298.446 86.7479 298.446C86.2273 298.446 85.8803 298.793 85.8803 299.314C85.8803 299.834 86.4009 300.181 86.7479 300.181C87.2684 300.181 87.6154 299.834 87.6154 299.314Z" fill="white" fill-opacity="0.8"/>
<path d="M25.5872 324.482C38.702 324.482 49.3336 313.853 49.3336 300.741C49.3336 287.629 38.702 277 25.5872 277C12.4724 277 1.84082 287.629 1.84082 300.741C1.84082 313.853 12.4724 324.482 25.5872 324.482Z" fill="#FF64AE"/>
<path d="M36.6298 315.126C43.1891 308.568 43.1891 297.936 36.6298 291.378C30.0706 284.82 19.4359 284.82 12.8766 291.378C6.31734 297.936 6.31734 308.568 12.8766 315.126C19.4359 321.684 30.0706 321.684 36.6298 315.126Z" fill="#BCBEC0"/>
<path d="M37.4572 312.644C44.0165 306.087 44.0165 295.454 37.4572 288.896C30.898 282.339 20.2633 282.339 13.704 288.896C7.14473 295.454 7.14473 306.087 13.704 312.644C20.2633 319.202 30.898 319.202 37.4572 312.644Z" fill="white"/>
<path d="M25.588 300.53C27.856 300.89 29.008 302.294 29.008 304.148C29.008 306.272 27.37 308.216 23.788 308.216C22.024 308.216 20.206 307.73 18.982 306.866L20.116 304.634C21.07 305.354 22.402 305.768 23.716 305.768C25.174 305.768 26.074 305.174 26.074 304.148C26.074 303.194 25.372 302.6 23.716 302.6H22.384V300.674L24.976 297.74H19.612V295.4H28.432V297.29L25.588 300.53Z" fill="#03123B"/>
<path d="M91.4326 436.272C91.4326 441.736 95.8606 446.165 101.323 446.165C106.785 446.165 111.213 441.736 111.213 436.272C111.213 430.809 106.785 426.38 101.323 426.38C95.8606 426.38 91.4326 430.809 91.4326 436.272Z" fill="#AFCD58"/>
<path d="M38.5117 436.273C38.5117 436.446 38.5117 436.446 38.5117 436.273C38.5117 436.446 38.5117 436.62 38.5117 436.62V436.793C38.5117 436.793 38.5117 436.967 38.3382 436.967C38.3382 436.967 38.3382 436.967 38.1647 437.14H37.9912H37.8177H37.6442C37.4707 437.14 37.1236 436.967 36.9501 436.967C36.6031 436.62 36.6031 436.099 36.9501 435.752C37.1236 435.578 37.2971 435.405 37.6442 435.405C37.8177 435.405 38.1647 435.578 38.3382 435.752C38.3382 435.752 38.3382 435.752 38.5117 435.925V436.099C38.5117 436.099 38.5117 436.099 38.5117 436.273Z" fill="#434345"/>
<path d="M81.5425 436.273C81.5425 435.752 81.1955 435.405 80.6749 435.405C80.1544 435.405 79.8074 435.752 79.8074 436.273C79.8074 436.793 80.1544 437.14 80.6749 437.14C81.0219 437.314 81.5425 436.793 81.5425 436.273ZM77.8987 436.273C77.8987 435.752 77.5517 435.405 77.0312 435.405C76.5107 435.405 76.1636 435.752 76.1636 436.273C76.1636 436.793 76.5107 437.14 77.0312 437.14C77.5517 437.314 77.8987 436.793 77.8987 436.273ZM74.255 436.273C74.255 435.752 73.908 435.405 73.3875 435.405C72.8669 435.405 72.5199 435.752 72.5199 436.273C72.5199 436.793 72.8669 437.14 73.3875 437.14C73.908 437.314 74.255 436.793 74.255 436.273ZM70.7848 436.273C70.7848 435.752 70.4378 435.405 69.9172 435.405C69.3967 435.405 69.0497 435.752 69.0497 436.273C69.0497 436.793 69.3967 437.14 69.9172 437.14C70.2643 437.314 70.7848 436.793 70.7848 436.273ZM67.1411 436.273C67.1411 435.752 66.794 435.405 66.2735 435.405C65.753 435.405 65.4059 435.752 65.4059 436.273C65.4059 436.793 65.753 437.14 66.2735 437.14C66.794 437.314 67.1411 436.793 67.1411 436.273ZM63.6708 436.273C63.6708 435.752 63.3238 435.405 62.8033 435.405C62.2827 435.405 61.9357 435.752 61.9357 436.273C61.9357 436.793 62.2827 437.14 62.8033 437.14C63.1503 437.314 63.6708 436.793 63.6708 436.273ZM60.0271 436.273C60.0271 435.752 59.6801 435.405 59.1595 435.405C58.639 435.405 58.292 435.752 58.292 436.273C58.292 436.793 58.639 437.14 59.1595 437.14C59.6801 437.314 60.0271 436.793 60.0271 436.273ZM56.3834 436.273C56.3834 435.752 56.0363 435.405 55.5158 435.405C54.9953 435.405 54.6482 435.752 54.6482 436.273C54.6482 436.793 54.9953 437.14 55.5158 437.14C56.0363 437.14 56.3834 436.793 56.3834 436.273ZM52.9131 436.273C52.9131 435.752 52.5661 435.405 52.0456 435.405C51.525 435.405 51.178 435.752 51.178 436.273C51.178 436.793 51.525 437.14 52.0456 437.14C52.3926 437.314 52.9131 436.793 52.9131 436.273ZM49.2694 436.273C49.2694 435.752 48.9224 435.405 48.4018 435.405C47.8813 435.405 47.5343 435.752 47.5343 436.273C47.5343 436.793 47.8813 437.14 48.4018 437.14C48.9224 437.314 49.2694 436.793 49.2694 436.273ZM45.7992 436.273C45.7992 435.752 45.4522 435.405 44.9316 435.405C44.4111 435.405 44.0641 435.752 44.0641 436.273C44.0641 436.793 44.4111 437.14 44.9316 437.14C45.4522 437.14 45.7992 436.793 45.7992 436.273ZM42.1554 436.273C42.1554 435.752 41.8084 435.405 41.2879 435.405C40.7673 435.405 40.4203 435.752 40.4203 436.273C40.4203 436.793 40.7673 437.14 41.2879 437.14C41.8084 437.314 42.1554 436.793 42.1554 436.273Z" fill="white" fill-opacity="0.8"/>
<path d="M85.0127 436.272C85.0127 436.446 85.0127 436.446 85.0127 436.62C85.0127 436.793 84.8392 436.793 84.8392 436.967C84.6657 437.14 84.4922 437.14 84.1451 437.14H83.9716H83.7981H83.6246C83.6246 437.14 83.4511 437.14 83.4511 436.967C83.2776 436.793 83.1041 436.446 83.2776 436.099V435.925V435.752C83.2776 435.752 83.2776 435.578 83.4511 435.578C83.4511 435.578 83.4511 435.578 83.6246 435.405H83.7981H83.9716H84.1451C84.3187 435.405 84.6657 435.578 84.8392 435.752C84.8392 435.752 84.8392 435.752 85.0127 435.925V436.099C85.0127 436.099 85.0127 436.099 85.0127 436.272Z" fill="#434345"/>
<path d="M116.592 434.884C116.592 434.363 116.071 434.016 115.724 434.016C115.204 434.016 114.857 434.363 114.857 434.884V435.058C114.857 435.578 115.377 435.925 115.898 435.925C116.245 435.752 116.592 435.231 116.592 434.884ZM116.592 438.529C116.592 438.008 116.245 437.487 115.898 437.487H115.724C115.377 437.487 114.857 437.834 114.857 438.181C114.857 438.181 114.857 438.181 114.857 438.355C114.857 438.702 115.204 439.223 115.551 439.223C116.071 439.396 116.418 439.049 116.592 438.529ZM115.204 432.281C115.551 432.107 115.724 431.76 115.724 431.413C115.724 431.239 115.724 431.239 115.724 431.066C115.551 430.719 115.204 430.545 114.857 430.545C114.683 430.545 114.683 430.545 114.51 430.545C114.163 430.719 113.989 431.066 113.989 431.413C113.989 431.587 113.989 431.587 113.989 431.76C114.163 432.107 114.683 432.454 115.204 432.281ZM115.551 442.173C115.551 442 115.551 442 115.551 441.826C115.551 441.479 115.377 441.132 115.03 440.958C114.857 440.958 114.857 440.958 114.683 440.958C114.336 440.958 113.989 441.132 113.816 441.479C113.816 441.652 113.816 441.652 113.816 441.826C113.816 442.173 113.989 442.52 114.336 442.694C114.857 442.867 115.377 442.694 115.551 442.173ZM113.816 428.983C113.989 428.81 114.163 428.463 114.163 428.289C114.163 428.116 114.163 427.942 113.989 427.768C113.816 427.595 113.469 427.421 113.295 427.421C113.122 427.421 112.948 427.421 112.775 427.595C112.601 427.768 112.428 428.116 112.428 428.289C112.428 428.463 112.428 428.636 112.601 428.81C112.775 429.157 113.469 429.33 113.816 428.983ZM113.642 445.471C113.816 445.297 113.816 445.123 113.816 444.95C113.816 444.603 113.642 444.429 113.469 444.256C113.295 444.082 113.122 444.082 112.948 444.082C112.601 444.082 112.428 444.256 112.254 444.429C112.081 444.603 112.081 444.776 112.081 444.95C112.081 445.297 112.254 445.471 112.428 445.644C112.948 445.991 113.469 445.818 113.642 445.471ZM111.56 426.206C111.733 426.033 111.733 425.859 111.733 425.686C111.733 425.512 111.56 425.165 111.386 424.992C111.213 424.818 111.039 424.818 110.866 424.818C110.692 424.818 110.345 424.992 110.172 425.165C109.998 425.339 109.998 425.512 109.998 425.686C109.998 425.859 110.172 426.207 110.345 426.38C110.692 426.554 111.386 426.554 111.56 426.206ZM111.213 448.247C111.386 448.074 111.56 447.9 111.56 447.553C111.56 447.38 111.56 447.206 111.386 447.032C111.213 446.859 111.039 446.685 110.692 446.685C110.519 446.685 110.345 446.685 110.172 446.859C109.998 447.032 109.825 447.206 109.825 447.553C109.825 447.727 109.825 447.9 109.998 448.074C110.172 448.421 110.692 448.421 111.213 448.247ZM108.957 423.95C108.957 423.777 109.131 423.603 109.131 423.603C109.131 423.256 108.957 422.909 108.61 422.909C108.437 422.909 108.263 422.735 108.263 422.735C107.916 422.735 107.569 422.909 107.396 423.256C107.396 423.43 107.222 423.603 107.222 423.603C107.222 423.95 107.396 424.297 107.743 424.471C108.09 424.471 108.61 424.471 108.957 423.95ZM107.916 450.156C108.263 449.983 108.437 449.636 108.437 449.289C108.437 449.115 108.437 448.942 108.263 448.942C108.09 448.594 107.743 448.421 107.396 448.421C107.222 448.421 107.222 448.421 107.049 448.594C106.702 448.768 106.528 449.115 106.528 449.462C106.528 449.636 106.528 449.636 106.702 449.809C107.049 450.156 107.569 450.503 107.916 450.156ZM105.661 422.388V422.215C105.661 421.868 105.314 421.521 104.967 421.347H104.793C104.446 421.347 104.099 421.694 103.925 422.041V422.215C103.925 422.562 104.273 422.909 104.62 423.083C105.14 423.256 105.487 422.909 105.661 422.388ZM104.446 451.371C104.793 451.371 105.14 450.851 105.14 450.503V450.33C105.14 449.983 104.62 449.636 104.273 449.636H104.099C103.752 449.636 103.405 449.983 103.405 450.503V450.677C103.405 451.198 103.925 451.545 104.446 451.371ZM102.19 421.868C102.19 421.347 101.843 421 101.323 421C100.802 421 100.455 421.347 100.455 421.868C100.455 422.388 100.802 422.735 101.323 422.735C101.843 422.735 102.19 422.388 102.19 421.868ZM101.67 450.851C101.67 450.33 101.323 449.983 100.802 449.983C100.282 449.983 99.9347 450.33 99.9347 450.851C99.9347 451.371 100.282 451.718 100.802 451.718C101.149 451.718 101.67 451.371 101.67 450.851ZM99.7612 422.041C99.5877 421.521 99.2407 421.174 98.8937 421.174C98.8937 421.174 98.8937 421.174 98.7201 421.174C98.3731 421.174 98.0261 421.694 98.0261 422.041V422.215C98.0261 422.736 98.5466 423.083 99.0672 422.909C99.4142 422.909 99.7612 422.388 99.7612 422.041ZM98.0261 450.503V450.33C98.0261 449.983 97.8526 449.636 97.3321 449.462H97.1585C96.8115 449.462 96.4645 449.809 96.291 450.156V450.33C96.291 450.677 96.4645 451.024 96.985 451.198C97.5056 451.198 97.8526 451.024 98.0261 450.503ZM95.7705 423.95C96.1175 423.777 96.291 423.43 96.291 423.083C96.291 422.909 96.291 422.909 96.291 422.735C96.1175 422.388 95.7705 422.215 95.4234 422.215C95.2499 422.215 95.2499 422.215 95.0764 422.215C94.7294 422.388 94.5559 422.736 94.5559 423.083C94.5559 423.256 94.5559 423.256 94.7294 423.43C94.9029 423.777 95.4234 424.124 95.7705 423.95ZM94.7294 449.289C94.9029 449.115 94.9029 448.942 94.9029 448.768C94.9029 448.421 94.7294 448.247 94.5559 448.074C94.3824 447.9 94.2089 447.9 94.0353 447.9C93.6883 447.9 93.5148 448.074 93.3413 448.421C93.1678 448.594 93.1678 448.768 93.1678 448.768C93.1678 449.115 93.3413 449.289 93.5148 449.462C94.0353 449.983 94.5559 449.809 94.7294 449.289ZM92.9943 425.512C93.1678 425.339 93.3413 424.992 93.3413 424.818C93.3413 424.645 93.3413 424.471 93.1678 424.297C92.9943 424.124 92.8208 423.95 92.4737 423.95C92.3002 423.95 92.1267 423.95 91.9532 424.124C91.7797 424.297 91.6062 424.471 91.6062 424.818C91.6062 424.992 91.6062 425.165 91.7797 425.339C91.9532 425.859 92.6473 425.859 92.9943 425.512ZM91.7797 447.38C91.9532 447.206 91.9532 447.032 91.9532 446.685C91.9532 446.512 91.7797 446.165 91.6062 445.991C91.4327 445.818 91.2592 445.818 90.9121 445.818C90.7386 445.818 90.3916 445.991 90.2181 446.165C90.0446 446.338 90.0446 446.512 90.0446 446.859C90.0446 447.032 90.2181 447.38 90.3916 447.553C90.9121 447.727 91.4327 447.727 91.7797 447.38ZM90.5651 427.942C90.7386 427.768 90.7386 427.595 90.7386 427.421C90.7386 427.074 90.5651 426.901 90.3916 426.727C90.2181 426.554 90.0446 426.554 89.8711 426.554C89.5241 426.554 89.3505 426.727 89.177 426.901C89.0035 427.074 89.0035 427.248 89.0035 427.421C89.0035 427.768 89.177 427.942 89.3505 428.116C89.6976 428.289 90.3916 428.289 90.5651 427.942ZM89.3505 444.776C89.6976 444.603 89.6976 444.256 89.6976 444.082C89.6976 443.909 89.6976 443.735 89.5241 443.561C89.3505 443.214 89.0035 443.214 88.83 443.214C88.6565 443.214 88.483 443.214 88.3095 443.388C87.9625 443.561 87.9625 443.909 87.9625 444.082C87.9625 444.256 87.9625 444.429 88.136 444.603C88.483 444.776 89.0035 444.95 89.3505 444.776ZM88.83 430.719C88.83 430.545 88.83 430.545 88.83 430.372C88.83 430.025 88.6565 429.678 88.3095 429.504C88.136 429.504 88.136 429.33 87.9625 429.33C87.6154 429.33 87.2684 429.504 87.0949 429.851C87.0949 430.025 87.0949 430.025 87.0949 430.198C87.0949 430.545 87.2684 430.892 87.6154 431.066C88.136 431.413 88.6565 431.239 88.83 430.719ZM87.7889 441.652C88.136 441.479 88.483 441.132 88.483 440.785C88.483 440.611 88.483 440.611 88.483 440.611C88.3095 440.264 87.9625 439.917 87.6154 439.917C87.6154 439.917 87.4419 439.917 87.2684 439.917C86.9214 440.09 86.5744 440.438 86.5744 440.785C86.5744 440.958 86.5744 440.958 86.5744 441.132C86.7479 441.479 87.2684 441.826 87.7889 441.652ZM87.9625 433.843C87.9625 433.322 87.6154 432.801 87.2684 432.801H87.0949C86.7479 432.801 86.2273 433.149 86.2273 433.496V433.669C86.2273 434.016 86.5744 434.537 86.9214 434.537C87.2684 434.71 87.7889 434.363 87.9625 433.843ZM87.6154 437.314C87.6154 436.793 87.2684 436.446 86.7479 436.446C86.2273 436.446 85.8803 436.793 85.8803 437.314C85.8803 437.834 86.4009 438.181 86.7479 438.181C87.2684 438.181 87.6154 437.834 87.6154 437.314Z" fill="white" fill-opacity="0.8"/>
<path d="M25.5872 462.482C38.702 462.482 49.3336 451.853 49.3336 438.741C49.3336 425.629 38.702 415 25.5872 415C12.4724 415 1.84082 425.629 1.84082 438.741C1.84082 451.853 12.4724 462.482 25.5872 462.482Z" fill="#AFCD58"/>
<path d="M36.6298 453.126C43.1891 446.568 43.1891 435.936 36.6298 429.378C30.0706 422.82 19.4359 422.82 12.8766 429.378C6.31734 435.936 6.31734 446.568 12.8766 453.126C19.4359 459.684 30.0706 459.684 36.6298 453.126Z" fill="#BCBEC0"/>
<path d="M37.4572 450.644C44.0165 444.087 44.0165 433.454 37.4572 426.896C30.898 420.339 20.2633 420.339 13.704 426.896C7.14473 433.454 7.14473 444.087 13.704 450.644C20.2633 457.202 30.898 457.202 37.4572 450.644Z" fill="white"/>
<path d="M31.24 440.978V443.354H29.188V446H26.344V443.354H19.558V441.392L25.498 433.4H28.558L23.05 440.978H26.434V438.62H29.188V440.978H31.24Z" fill="#03123B"/>
<path d="M90.4326 581.272C90.4326 586.736 94.8606 591.165 100.323 591.165C105.785 591.165 110.213 586.736 110.213 581.272C110.213 575.809 105.785 571.38 100.323 571.38C94.8606 571.38 90.4326 575.809 90.4326 581.272Z" fill="#AD59F0"/>
<path d="M37.5117 581.273C37.5117 581.446 37.5117 581.446 37.5117 581.273C37.5117 581.446 37.5117 581.62 37.5117 581.62V581.793C37.5117 581.793 37.5117 581.967 37.3382 581.967C37.3382 581.967 37.3382 581.967 37.1647 582.14H36.9912H36.8177H36.6442C36.4707 582.14 36.1236 581.967 35.9501 581.967C35.6031 581.62 35.6031 581.099 35.9501 580.752C36.1236 580.578 36.2971 580.405 36.6442 580.405C36.8177 580.405 37.1647 580.578 37.3382 580.752C37.3382 580.752 37.3382 580.752 37.5117 580.925V581.099C37.5117 581.099 37.5117 581.099 37.5117 581.273Z" fill="#434345"/>
<path d="M80.5425 581.273C80.5425 580.752 80.1955 580.405 79.6749 580.405C79.1544 580.405 78.8074 580.752 78.8074 581.273C78.8074 581.793 79.1544 582.14 79.6749 582.14C80.0219 582.314 80.5425 581.793 80.5425 581.273ZM76.8987 581.273C76.8987 580.752 76.5517 580.405 76.0312 580.405C75.5107 580.405 75.1636 580.752 75.1636 581.273C75.1636 581.793 75.5107 582.14 76.0312 582.14C76.5517 582.314 76.8987 581.793 76.8987 581.273ZM73.255 581.273C73.255 580.752 72.908 580.405 72.3875 580.405C71.8669 580.405 71.5199 580.752 71.5199 581.273C71.5199 581.793 71.8669 582.14 72.3875 582.14C72.908 582.314 73.255 581.793 73.255 581.273ZM69.7848 581.273C69.7848 580.752 69.4378 580.405 68.9172 580.405C68.3967 580.405 68.0497 580.752 68.0497 581.273C68.0497 581.793 68.3967 582.14 68.9172 582.14C69.2643 582.314 69.7848 581.793 69.7848 581.273ZM66.1411 581.273C66.1411 580.752 65.794 580.405 65.2735 580.405C64.753 580.405 64.4059 580.752 64.4059 581.273C64.4059 581.793 64.753 582.14 65.2735 582.14C65.794 582.314 66.1411 581.793 66.1411 581.273ZM62.6708 581.273C62.6708 580.752 62.3238 580.405 61.8033 580.405C61.2827 580.405 60.9357 580.752 60.9357 581.273C60.9357 581.793 61.2827 582.14 61.8033 582.14C62.1503 582.314 62.6708 581.793 62.6708 581.273ZM59.0271 581.273C59.0271 580.752 58.6801 580.405 58.1595 580.405C57.639 580.405 57.292 580.752 57.292 581.273C57.292 581.793 57.639 582.14 58.1595 582.14C58.6801 582.314 59.0271 581.793 59.0271 581.273ZM55.3834 581.273C55.3834 580.752 55.0363 580.405 54.5158 580.405C53.9953 580.405 53.6482 580.752 53.6482 581.273C53.6482 581.793 53.9953 582.14 54.5158 582.14C55.0363 582.14 55.3834 581.793 55.3834 581.273ZM51.9131 581.273C51.9131 580.752 51.5661 580.405 51.0456 580.405C50.525 580.405 50.178 580.752 50.178 581.273C50.178 581.793 50.525 582.14 51.0456 582.14C51.3926 582.314 51.9131 581.793 51.9131 581.273ZM48.2694 581.273C48.2694 580.752 47.9224 580.405 47.4018 580.405C46.8813 580.405 46.5343 580.752 46.5343 581.273C46.5343 581.793 46.8813 582.14 47.4018 582.14C47.9224 582.314 48.2694 581.793 48.2694 581.273ZM44.7992 581.273C44.7992 580.752 44.4522 580.405 43.9316 580.405C43.4111 580.405 43.0641 580.752 43.0641 581.273C43.0641 581.793 43.4111 582.14 43.9316 582.14C44.4522 582.14 44.7992 581.793 44.7992 581.273ZM41.1554 581.273C41.1554 580.752 40.8084 580.405 40.2879 580.405C39.7673 580.405 39.4203 580.752 39.4203 581.273C39.4203 581.793 39.7673 582.14 40.2879 582.14C40.8084 582.314 41.1554 581.793 41.1554 581.273Z" fill="white" fill-opacity="0.8"/>
<path d="M84.0127 581.272C84.0127 581.446 84.0127 581.446 84.0127 581.62C84.0127 581.793 83.8392 581.793 83.8392 581.967C83.6657 582.14 83.4922 582.14 83.1451 582.14H82.9716H82.7981H82.6246C82.6246 582.14 82.4511 582.14 82.4511 581.967C82.2776 581.793 82.1041 581.446 82.2776 581.099V580.925V580.752C82.2776 580.752 82.2776 580.578 82.4511 580.578C82.4511 580.578 82.4511 580.578 82.6246 580.405H82.7981H82.9716H83.1451C83.3187 580.405 83.6657 580.578 83.8392 580.752C83.8392 580.752 83.8392 580.752 84.0127 580.925V581.099C84.0127 581.099 84.0127 581.099 84.0127 581.272Z" fill="#434345"/>
<path d="M115.592 579.884C115.592 579.363 115.071 579.016 114.724 579.016C114.204 579.016 113.857 579.363 113.857 579.884V580.058C113.857 580.578 114.377 580.925 114.898 580.925C115.245 580.752 115.592 580.231 115.592 579.884ZM115.592 583.529C115.592 583.008 115.245 582.487 114.898 582.487H114.724C114.377 582.487 113.857 582.834 113.857 583.181C113.857 583.181 113.857 583.181 113.857 583.355C113.857 583.702 114.204 584.223 114.551 584.223C115.071 584.396 115.418 584.049 115.592 583.529ZM114.204 577.281C114.551 577.107 114.724 576.76 114.724 576.413C114.724 576.239 114.724 576.239 114.724 576.066C114.551 575.719 114.204 575.545 113.857 575.545C113.683 575.545 113.683 575.545 113.51 575.545C113.163 575.719 112.989 576.066 112.989 576.413C112.989 576.587 112.989 576.587 112.989 576.76C113.163 577.107 113.683 577.454 114.204 577.281ZM114.551 587.173C114.551 587 114.551 587 114.551 586.826C114.551 586.479 114.377 586.132 114.03 585.958C113.857 585.958 113.857 585.958 113.683 585.958C113.336 585.958 112.989 586.132 112.816 586.479C112.816 586.652 112.816 586.652 112.816 586.826C112.816 587.173 112.989 587.52 113.336 587.694C113.857 587.867 114.377 587.694 114.551 587.173ZM112.816 573.983C112.989 573.81 113.163 573.463 113.163 573.289C113.163 573.116 113.163 572.942 112.989 572.768C112.816 572.595 112.469 572.421 112.295 572.421C112.122 572.421 111.948 572.421 111.775 572.595C111.601 572.768 111.428 573.116 111.428 573.289C111.428 573.463 111.428 573.636 111.601 573.81C111.775 574.157 112.469 574.33 112.816 573.983ZM112.642 590.471C112.816 590.297 112.816 590.123 112.816 589.95C112.816 589.603 112.642 589.429 112.469 589.256C112.295 589.082 112.122 589.082 111.948 589.082C111.601 589.082 111.428 589.256 111.254 589.429C111.081 589.603 111.081 589.776 111.081 589.95C111.081 590.297 111.254 590.471 111.428 590.644C111.948 590.991 112.469 590.818 112.642 590.471ZM110.56 571.206C110.733 571.033 110.733 570.859 110.733 570.686C110.733 570.512 110.56 570.165 110.386 569.992C110.213 569.818 110.039 569.818 109.866 569.818C109.692 569.818 109.345 569.992 109.172 570.165C108.998 570.339 108.998 570.512 108.998 570.686C108.998 570.859 109.172 571.207 109.345 571.38C109.692 571.554 110.386 571.554 110.56 571.206ZM110.213 593.247C110.386 593.074 110.56 592.9 110.56 592.553C110.56 592.38 110.56 592.206 110.386 592.032C110.213 591.859 110.039 591.685 109.692 591.685C109.519 591.685 109.345 591.685 109.172 591.859C108.998 592.032 108.825 592.206 108.825 592.553C108.825 592.727 108.825 592.9 108.998 593.074C109.172 593.421 109.692 593.421 110.213 593.247ZM107.957 568.95C107.957 568.777 108.131 568.603 108.131 568.603C108.131 568.256 107.957 567.909 107.61 567.909C107.437 567.909 107.263 567.735 107.263 567.735C106.916 567.735 106.569 567.909 106.396 568.256C106.396 568.43 106.222 568.603 106.222 568.603C106.222 568.95 106.396 569.297 106.743 569.471C107.09 569.471 107.61 569.471 107.957 568.95ZM106.916 595.156C107.263 594.983 107.437 594.636 107.437 594.289C107.437 594.115 107.437 593.942 107.263 593.942C107.09 593.594 106.743 593.421 106.396 593.421C106.222 593.421 106.222 593.421 106.049 593.594C105.702 593.768 105.528 594.115 105.528 594.462C105.528 594.636 105.528 594.636 105.702 594.809C106.049 595.156 106.569 595.503 106.916 595.156ZM104.661 567.388V567.215C104.661 566.868 104.314 566.521 103.967 566.347H103.793C103.446 566.347 103.099 566.694 102.925 567.041V567.215C102.925 567.562 103.273 567.909 103.62 568.083C104.14 568.256 104.487 567.909 104.661 567.388ZM103.446 596.371C103.793 596.371 104.14 595.851 104.14 595.503V595.33C104.14 594.983 103.62 594.636 103.273 594.636H103.099C102.752 594.636 102.405 594.983 102.405 595.503V595.677C102.405 596.198 102.925 596.545 103.446 596.371ZM101.19 566.868C101.19 566.347 100.843 566 100.323 566C99.8023 566 99.4553 566.347 99.4553 566.868C99.4553 567.388 99.8023 567.735 100.323 567.735C100.843 567.735 101.19 567.388 101.19 566.868ZM100.67 595.851C100.67 595.33 100.323 594.983 99.8023 594.983C99.2817 594.983 98.9347 595.33 98.9347 595.851C98.9347 596.371 99.2817 596.718 99.8023 596.718C100.149 596.718 100.67 596.371 100.67 595.851ZM98.7612 567.041C98.5877 566.521 98.2407 566.174 97.8937 566.174C97.8937 566.174 97.8937 566.174 97.7201 566.174C97.3731 566.174 97.0261 566.694 97.0261 567.041V567.215C97.0261 567.736 97.5466 568.083 98.0672 567.909C98.4142 567.909 98.7612 567.388 98.7612 567.041ZM97.0261 595.503V595.33C97.0261 594.983 96.8526 594.636 96.3321 594.462H96.1585C95.8115 594.462 95.4645 594.809 95.291 595.156V595.33C95.291 595.677 95.4645 596.024 95.985 596.198C96.5056 596.198 96.8526 596.024 97.0261 595.503ZM94.7705 568.95C95.1175 568.777 95.291 568.43 95.291 568.083C95.291 567.909 95.291 567.909 95.291 567.735C95.1175 567.388 94.7705 567.215 94.4234 567.215C94.2499 567.215 94.2499 567.215 94.0764 567.215C93.7294 567.388 93.5559 567.736 93.5559 568.083C93.5559 568.256 93.5559 568.256 93.7294 568.43C93.9029 568.777 94.4234 569.124 94.7705 568.95ZM93.7294 594.289C93.9029 594.115 93.9029 593.942 93.9029 593.768C93.9029 593.421 93.7294 593.247 93.5559 593.074C93.3824 592.9 93.2089 592.9 93.0353 592.9C92.6883 592.9 92.5148 593.074 92.3413 593.421C92.1678 593.594 92.1678 593.768 92.1678 593.768C92.1678 594.115 92.3413 594.289 92.5148 594.462C93.0353 594.983 93.5559 594.809 93.7294 594.289ZM91.9943 570.512C92.1678 570.339 92.3413 569.992 92.3413 569.818C92.3413 569.645 92.3413 569.471 92.1678 569.297C91.9943 569.124 91.8208 568.95 91.4737 568.95C91.3002 568.95 91.1267 568.95 90.9532 569.124C90.7797 569.297 90.6062 569.471 90.6062 569.818C90.6062 569.992 90.6062 570.165 90.7797 570.339C90.9532 570.859 91.6473 570.859 91.9943 570.512ZM90.7797 592.38C90.9532 592.206 90.9532 592.032 90.9532 591.685C90.9532 591.512 90.7797 591.165 90.6062 590.991C90.4327 590.818 90.2592 590.818 89.9121 590.818C89.7386 590.818 89.3916 590.991 89.2181 591.165C89.0446 591.338 89.0446 591.512 89.0446 591.859C89.0446 592.032 89.2181 592.38 89.3916 592.553C89.9121 592.727 90.4327 592.727 90.7797 592.38ZM89.5651 572.942C89.7386 572.768 89.7386 572.595 89.7386 572.421C89.7386 572.074 89.5651 571.901 89.3916 571.727C89.2181 571.554 89.0446 571.554 88.8711 571.554C88.5241 571.554 88.3505 571.727 88.177 571.901C88.0035 572.074 88.0035 572.248 88.0035 572.421C88.0035 572.768 88.177 572.942 88.3505 573.116C88.6976 573.289 89.3916 573.289 89.5651 572.942ZM88.3505 589.776C88.6976 589.603 88.6976 589.256 88.6976 589.082C88.6976 588.909 88.6976 588.735 88.5241 588.561C88.3505 588.214 88.0035 588.214 87.83 588.214C87.6565 588.214 87.483 588.214 87.3095 588.388C86.9625 588.561 86.9625 588.909 86.9625 589.082C86.9625 589.256 86.9625 589.429 87.136 589.603C87.483 589.776 88.0035 589.95 88.3505 589.776ZM87.83 575.719C87.83 575.545 87.83 575.545 87.83 575.372C87.83 575.025 87.6565 574.678 87.3095 574.504C87.136 574.504 87.136 574.33 86.9625 574.33C86.6154 574.33 86.2684 574.504 86.0949 574.851C86.0949 575.025 86.0949 575.025 86.0949 575.198C86.0949 575.545 86.2684 575.892 86.6154 576.066C87.136 576.413 87.6565 576.239 87.83 575.719ZM86.7889 586.652C87.136 586.479 87.483 586.132 87.483 585.785C87.483 585.611 87.483 585.611 87.483 585.611C87.3095 585.264 86.9625 584.917 86.6154 584.917C86.6154 584.917 86.4419 584.917 86.2684 584.917C85.9214 585.09 85.5744 585.438 85.5744 585.785C85.5744 585.958 85.5744 585.958 85.5744 586.132C85.7479 586.479 86.2684 586.826 86.7889 586.652ZM86.9625 578.843C86.9625 578.322 86.6154 577.801 86.2684 577.801H86.0949C85.7479 577.801 85.2273 578.149 85.2273 578.496V578.669C85.2273 579.016 85.5744 579.537 85.9214 579.537C86.2684 579.71 86.7889 579.363 86.9625 578.843ZM86.6154 582.314C86.6154 581.793 86.2684 581.446 85.7479 581.446C85.2273 581.446 84.8803 581.793 84.8803 582.314C84.8803 582.834 85.4009 583.181 85.7479 583.181C86.2684 583.181 86.6154 582.834 86.6154 582.314Z" fill="white" fill-opacity="0.8"/>
<path d="M24.5872 607.482C37.702 607.482 48.3336 596.853 48.3336 583.741C48.3336 570.629 37.702 560 24.5872 560C11.4724 560 0.84082 570.629 0.84082 583.741C0.84082 596.853 11.4724 607.482 24.5872 607.482Z" fill="#AD59F0"/>
<path d="M35.6298 598.126C42.1891 591.568 42.1891 580.936 35.6298 574.378C29.0706 567.82 18.4359 567.82 11.8766 574.378C5.31734 580.936 5.31734 591.568 11.8766 598.126C18.4359 604.684 29.0706 604.684 35.6298 598.126Z" fill="#BCBEC0"/>
<path d="M36.4572 595.644C43.0165 589.087 43.0165 578.454 36.4572 571.896C29.898 565.339 19.2633 565.339 12.704 571.896C6.14473 578.454 6.14473 589.087 12.704 595.644C19.2633 602.202 29.898 602.202 36.4572 595.644Z" fill="white"/>
<path d="M23.022 583.134C26.748 583.134 28.224 584.808 28.224 587.04C28.224 589.272 26.586 591.216 22.986 591.216C21.24 591.216 19.404 590.73 18.18 589.866L19.332 587.634C20.286 588.354 21.6 588.768 22.914 588.768C24.372 588.768 25.272 588.156 25.272 587.13C25.272 586.14 24.624 585.492 22.338 585.492H19.116L19.764 578.4H27.45V580.74H22.194L21.996 583.134H23.022Z" fill="#03123B"/>
<defs>
<clipPath id="clip0_801_776">
<rect width="551" height="24" fill="white" transform="matrix(0 -1 1 0 12 586)"/>
</clipPath>
</defs>
</svg>
