<svg width="117" height="610" viewBox="0 0 117 610" fill="none" xmlns="http://www.w3.org/2000/svg">
<g clip-path="url(#clip0_1231_1620)">
<path d="M589.18 -99.7051C662.458 -99.7051 721.93 -35.9069 721.93 42.7015V326.603C721.93 332.3 722.567 337.996 723.629 343.464C723.841 344.376 724.054 345.287 724.266 346.199C727.877 360.781 735.523 373.313 745.718 383.11C746.356 383.794 747.205 384.477 747.842 384.933C748.055 385.161 748.267 385.389 748.48 385.617C749.117 386.3 749.966 386.756 750.604 387.439C755.489 391.313 760.799 394.275 766.321 396.553C768.445 397.465 770.569 398.148 772.693 398.832C776.304 399.971 779.915 400.655 783.738 401.11C786.287 401.338 789.048 401.566 791.809 401.566H891V442.579H791.809C782.251 442.579 772.906 441.212 763.985 438.706C758.887 437.339 754.002 435.516 749.329 433.237C747.418 432.326 745.506 431.415 743.807 430.503C733.399 425.035 724.054 417.744 715.77 409.085C714.071 407.49 712.584 405.668 711.097 403.845C707.274 399.516 704.088 394.731 700.902 389.718C699.628 387.439 698.141 385.161 697.079 382.655C695.167 379.009 693.256 374.908 691.769 371.034C690.707 368.3 689.645 365.566 688.795 362.604C686.459 355.313 684.972 347.793 684.122 340.047C683.698 335.717 683.485 331.16 683.485 326.603V42.7015C683.485 -13.1218 641.005 -58.692 588.967 -58.692C536.929 -58.692 494.449 -13.1218 494.449 42.7015V573.593C494.449 596.834 489.352 618.708 480.006 638.075C479.369 639.442 478.732 640.581 478.094 641.949C475.121 647.873 471.722 653.569 467.899 658.81C443.686 693.443 405.029 716 361.487 716C288.209 716 228.737 652.202 228.737 573.593L228.737 42.7015C228.737 -13.1218 186.257 -58.692 134.219 -58.692C82.1808 -58.692 39.7008 -13.1218 39.7008 42.7015L39.7008 600.024C39.7008 664.05 -8.72639 716 -68.4108 716H-171V674.987H-67.986C-29.5416 674.987 1.89362 641.265 1.89362 600.024L1.89362 42.7015C1.89362 -35.9069 61.3656 -99.7051 134.644 -99.7051C207.922 -99.7051 267.394 -35.9069 267.394 42.7015L267.394 573.593C267.394 629.417 309.874 674.987 361.912 674.987C388.674 674.987 412.888 662.911 430.092 643.771C434.128 639.214 437.951 634.202 441.137 628.733C441.774 627.822 442.199 626.91 442.836 625.999C448.358 616.201 452.394 605.265 454.518 593.416C454.73 592.733 454.73 592.049 454.943 591.366C456.005 585.669 456.43 579.745 456.43 573.821V42.9294C456.43 -35.6791 515.902 -99.7051 589.18 -99.7051Z" fill="#D0D5DD"/>
<path d="M782.623 425.346H796V418.51H782.623V425.346ZM755.869 425.346H769.246V418.51H755.869V425.346ZM729.114 425.346H742.491V418.51H729.114V425.346ZM701.978 423.751C702.169 423.751 702.551 423.978 702.742 423.978C706.946 424.89 711.342 425.346 715.737 425.573V418.738C712.297 418.738 708.857 418.282 705.609 417.599C704.653 417.371 703.889 417.371 702.933 417.143L701.978 423.751ZM675.988 412.358C679.237 414.636 682.868 416.687 686.307 418.282C687.072 418.738 687.645 418.966 688.41 419.193L690.321 412.814C690.129 412.586 689.747 412.586 689.556 412.358C685.925 410.763 682.103 408.712 678.663 406.206L675.988 412.358ZM658.98 387.066L654.776 391.395C656.113 393.218 657.451 395.041 658.98 396.636C660.126 398.003 661.273 399.142 662.42 400.509C663.184 401.421 663.948 402.104 664.713 403.016L668.344 397.775C668.153 397.547 668.153 397.547 667.962 397.319C666.433 395.724 664.904 394.129 663.375 392.534C663.184 392.307 663.184 392.307 662.993 392.079C662.42 391.395 662.037 390.939 661.464 390.256C661.273 390.028 661.082 389.8 660.891 389.572C660.7 389.344 660.7 389.344 660.509 389.117C660.318 388.889 660.318 388.889 660.126 388.661C659.935 388.433 659.744 388.205 659.744 388.205C659.553 387.977 659.362 387.749 659.171 387.294C659.171 387.066 659.171 387.066 658.98 387.066ZM640.252 363.597C641.016 365.875 641.972 368.382 642.927 370.66C643.5 372.255 644.265 373.622 644.838 375.217C645.411 376.357 645.794 377.268 646.367 378.407L650.953 375.217L651.336 374.99C650.571 373.395 649.807 371.8 649.042 370.205C647.705 367.242 646.558 364.28 645.603 361.318L640.252 363.597ZM634.328 331.469C634.519 336.938 635.092 342.406 636.239 347.875L641.781 346.508C640.825 341.495 640.252 336.482 640.061 331.241L634.328 331.469ZM634.328 60.0933H640.061V44.1434H634.328V60.0933ZM634.328 91.993H640.061V76.0432H634.328V91.993ZM634.328 123.893H640.061V107.943H634.328V123.893ZM634.328 155.793H640.061V139.843H634.328V155.793ZM634.328 187.692H640.061V171.742H634.328V187.692ZM634.328 219.592H640.061V203.642H634.328V219.592ZM634.328 251.492H640.061V235.542H634.328V251.492ZM634.328 283.392H640.061V267.442H634.328V283.392ZM634.328 315.291H640.061V299.342H634.328V315.291ZM631.27 13.3829C632.417 18.3958 633.181 23.4085 633.563 28.6492L639.296 27.7378C638.723 22.2692 637.959 16.8007 636.812 11.56L631.27 13.3829ZM621.715 -15.3269C623.817 -10.7698 625.728 -6.21265 627.257 -1.42767L632.608 -3.93414C630.888 -8.94696 628.977 -13.9598 626.684 -18.7448L621.715 -15.3269ZM606.044 -40.1631C609.102 -36.5175 611.969 -32.4161 614.453 -28.3147L619.039 -32.4161C616.364 -36.7453 613.306 -41.0746 610.058 -44.9481L606.044 -40.1631ZM585.788 -59.303C589.419 -56.5687 593.05 -53.6066 596.489 -50.4166L600.12 -55.8851C596.489 -59.303 592.667 -62.2651 588.845 -65.2272L585.788 -59.303ZM561.9 -71.3793C566.104 -70.0122 570.117 -68.1893 574.13 -66.1386L576.424 -72.5186C572.219 -74.5693 567.824 -76.62 563.429 -77.9871L561.9 -71.3793ZM536.292 -75.9365C540.688 -75.9365 545.083 -75.4808 549.287 -74.7972L550.052 -81.6329C545.465 -82.3164 540.879 -82.7722 536.292 -83V-75.9365ZM509.156 -78.8986L510.493 -72.2908C514.698 -73.6579 518.902 -74.5693 523.297 -75.025L522.724 -81.8607C518.138 -81.1771 513.551 -80.2657 509.156 -78.8986ZM483.739 -66.8223L486.606 -60.898C490.428 -63.4044 494.25 -65.6829 498.263 -67.5058L496.161 -73.8858C491.765 -71.8351 487.561 -69.5565 483.739 -66.8223ZM461.762 -47.2267L465.776 -42.2138C468.833 -45.8595 472.273 -49.2774 475.713 -52.2395L472.273 -57.708C468.451 -54.7459 465.011 -51.1002 461.762 -47.2267ZM444.754 -21.7068L449.723 -18.289C452.016 -22.6182 454.501 -26.9475 457.176 -31.0489L452.589 -35.3782C449.723 -30.821 447.048 -26.2639 444.754 -21.7068ZM433.861 8.37006L439.403 10.1929C440.55 5.18011 442.079 0.395081 443.799 -4.38983L438.448 -7.12408C436.537 -2.11127 435.008 3.12939 433.861 8.37006ZM429.848 40.7256L435.581 40.9534C435.581 35.7128 435.964 30.472 436.537 25.4592L430.804 24.5478C430.231 29.7885 429.848 35.257 429.848 40.7256ZM429.848 72.6253H435.581V56.6755H429.848V72.6253ZM429.848 104.525H435.581V88.5752H429.848V104.525ZM429.848 136.425H435.581V120.475H429.848V136.425ZM429.848 168.325H435.581V152.375H429.848V168.325ZM429.848 200.224H435.581V184.275H429.848V200.224ZM429.848 232.124H435.581V216.174H429.848V232.124ZM429.848 264.024H435.581V248.074H429.848V264.024ZM429.848 295.924H435.581V279.974H429.848V295.924ZM429.848 327.823H435.581V311.874H429.848V327.823ZM429.848 359.723H435.581V343.773H429.848V359.723ZM429.848 391.623H435.581V375.673H429.848V391.623ZM429.848 423.523H435.581V407.573H429.848V423.523ZM429.848 455.423H435.581V439.473H429.848V455.423ZM429.848 487.322H435.581V471.372H429.848V487.322ZM429.848 519.222H435.581V503.272H429.848V519.222ZM429.848 551.122H435.581V535.172H429.848V551.122ZM429.848 573.907C429.848 575.73 429.848 577.781 429.657 579.832C429.657 580.287 429.657 580.743 429.657 581.199C429.657 581.654 429.657 582.338 429.657 582.794L434.817 583.249H435.39C435.39 582.794 435.39 582.566 435.39 582.11C435.581 579.148 435.581 576.414 435.581 573.452V567.072H429.848V573.907ZM426.217 604.896C426.026 605.351 426.026 606.035 425.835 606.491C425.644 607.402 425.453 608.086 425.262 608.769C425.262 609.225 425.071 609.681 424.88 610.136C424.689 611.048 424.306 612.187 423.924 613.098L429.275 615.377C429.657 614.466 429.848 613.326 430.231 612.415C430.422 611.959 430.422 611.503 430.613 611.048C431.186 608.541 431.759 606.035 432.333 603.529C432.524 603.073 432.524 602.389 432.715 601.934C432.906 601.022 433.097 600.339 433.097 599.427L427.555 598.06C427.364 600.339 426.791 602.617 426.217 604.896ZM414.56 636.568C414.56 636.795 414.369 637.023 414.369 637.023C413.796 638.163 413.031 639.302 412.458 640.441L417.236 644.315C418.191 642.72 419.147 640.897 420.102 639.074C420.102 638.846 420.293 638.846 420.293 638.618C421.822 635.884 422.969 632.922 424.306 630.188L419.147 626.998C417.618 630.416 416.28 633.605 414.56 636.568ZM404.241 652.973C401.374 656.847 398.317 660.265 395.068 663.682L398.89 668.923C402.33 665.277 405.578 661.632 408.636 657.53L404.623 653.429L404.241 652.973C404.241 652.745 404.241 652.745 404.241 652.973ZM373.282 680.544L375.766 686.696C379.78 684.417 383.984 681.683 387.806 678.721L384.748 673.024C381.117 675.759 377.295 678.265 373.282 680.544ZM348.63 690.114L349.585 696.949C354.172 696.038 358.567 694.671 362.963 692.848L361.243 686.468C357.23 687.835 352.834 689.202 348.63 690.114ZM322.831 691.709L322.449 698.544C325.124 698.772 327.8 699 330.475 699C332.386 699 334.297 699 336.017 698.772L335.635 691.936C333.915 692.164 332.195 692.164 330.284 692.164C327.991 691.936 325.315 691.936 322.831 691.709ZM295.504 691.709C299.708 693.531 304.294 694.899 308.69 696.038L309.836 689.43C305.632 688.291 301.428 686.924 297.415 685.329L295.504 691.709ZM271.042 676.898C274.865 679.86 278.687 682.822 282.891 685.329L285.566 679.177C281.744 676.898 277.922 674.164 274.291 671.202L271.042 676.898ZM250.595 655.024C253.652 659.125 256.71 662.999 260.15 666.645L263.972 661.632C260.723 658.214 257.665 654.34 254.799 650.467L250.595 655.024ZM235.689 627.681C237.6 632.466 239.893 637.479 242.377 642.036L247.155 638.39C244.861 634.061 242.568 629.504 240.848 624.947L235.689 627.681ZM227.089 596.693C227.853 602.161 229 607.402 230.529 612.643L236.071 610.592C234.733 605.807 233.586 600.566 232.822 595.554L227.089 596.693ZM225.369 573.452C225.369 575.73 225.369 578.009 225.56 580.287L231.293 579.832C231.102 577.781 231.102 575.502 231.102 573.224V563.882H225.369V573.452ZM225.369 69.8911H231.102V53.9412H225.369V69.8911ZM225.369 101.791H231.102V85.8409H225.369V101.791ZM225.369 133.691H231.102V117.741H225.369V133.691ZM225.369 165.59H231.102V149.64H225.369V165.59ZM225.369 197.49H231.102V181.54H225.369V197.49ZM225.369 229.39H231.102V213.44H225.369V229.39ZM225.369 261.29H231.102V245.34H225.369V261.29ZM225.369 293.189H231.102V277.24H225.369V293.189ZM225.369 325.089H231.102V309.139H225.369V325.089ZM225.369 356.989H231.102V341.039H225.369V356.989ZM225.369 388.889H231.102V372.939H225.369V388.889ZM225.369 420.788H231.102V404.839H225.369V420.788ZM225.369 452.688H231.102V436.738H225.369V452.688ZM225.369 484.588H231.102V468.638H225.369V484.588ZM225.369 516.488H231.102V500.538H225.369V516.488ZM225.369 548.388H231.102V532.438H225.369V548.388ZM223.84 22.725C224.605 27.7378 224.987 32.9785 225.178 38.2191L230.911 37.9913C230.72 32.5228 230.338 27.0542 229.573 21.8135L223.84 22.725ZM216.196 -6.89624C217.916 -2.11127 219.636 2.67371 220.783 7.45868L226.325 5.40796C224.987 0.167297 223.267 -4.84558 221.356 -9.8584L216.196 -6.89624ZM202.437 -33.0996C205.112 -29.2261 207.788 -24.8968 210.081 -20.5676L214.858 -24.2133C212.374 -28.7703 209.699 -33.3275 206.832 -37.4289L202.437 -33.0996ZM183.518 -54.0623C186.958 -51.1002 190.397 -47.6824 193.646 -44.2646L197.468 -49.2773C194.028 -52.923 190.588 -56.3409 186.766 -59.5308L183.518 -54.0623ZM160.585 -68.4172C164.599 -66.5944 168.612 -64.5437 172.434 -62.0373L175.109 -67.9615C171.096 -70.468 166.892 -72.7465 162.496 -74.5693L160.585 -68.4172ZM135.36 -75.2529C139.564 -74.7971 143.96 -73.8858 148.164 -72.7465L149.502 -79.3543C145.106 -80.4936 140.52 -81.405 135.933 -81.8607L135.36 -75.2529ZM108.415 -80.9492L109.37 -74.1136C113.574 -75.025 117.97 -75.4807 122.365 -75.7086L122.174 -82.5443C117.396 -82.3164 112.81 -81.8607 108.415 -80.9492ZM82.2336 -71.3793L84.5268 -65.2272C88.3488 -67.278 92.5531 -69.3286 96.7573 -70.6957L95.0374 -77.3036C90.6421 -75.4808 86.2467 -73.6579 82.2336 -71.3793ZM58.9191 -54.0623L62.55 -48.8217C65.7988 -52.0117 69.4297 -55.2016 73.0607 -57.9359L70.003 -63.6323C66.181 -60.6702 62.55 -57.4802 58.9191 -54.0623ZM40.3822 -29.9096L44.9687 -26.0361C47.453 -30.1375 50.3195 -34.2389 53.1861 -38.1124L48.9818 -42.6696C45.9242 -38.796 42.8665 -34.4667 40.3822 -29.9096ZM27.3873 -1.19983L32.7381 1.30652C34.2669 -3.47845 35.9869 -8.26337 38.089 -12.8205L32.9292 -16.0104C31.0182 -11.2255 29.1072 -6.21265 27.3873 -1.19983ZM21.272 30.7L27.0051 31.3835C27.3873 26.3707 28.1517 21.1299 29.1072 16.1171L23.5652 14.5222C22.4186 19.9907 21.8453 25.4593 21.272 30.7ZM20.8898 63.0554H26.6228V47.1055H20.8898V63.0554ZM20.8898 94.9551H26.6228V79.0052H20.8898V94.9551ZM20.8898 126.855H26.6228V110.905H20.8898V126.855ZM20.8898 158.755H26.6228V142.805H20.8898V158.755ZM20.8898 190.654H26.6228V174.705H20.8898V190.654ZM20.8898 222.554H26.6228V206.604H20.8898V222.554ZM20.8898 254.454H26.6228V238.504H20.8898V254.454ZM20.8898 286.354H26.6228V270.404H20.8898V286.354ZM20.8898 318.254H26.6228V302.304H20.8898V318.254ZM20.8898 350.153H26.6228V334.203H20.8898V350.153ZM20.8898 382.053H26.6228V366.103H20.8898V382.053ZM20.8898 413.953H26.6228V398.003H20.8898V413.953ZM20.8898 445.853H26.6228V429.903H20.8898V445.853ZM20.8898 477.752H26.6228V461.802H20.8898V477.752ZM20.8898 509.652H26.6228V493.702H20.8898V509.652ZM20.8898 541.552H26.6228V525.602H20.8898V541.552ZM20.8898 573.452H26.6228V557.502H20.8898V573.452ZM20.8898 599.883C20.8898 601.706 20.8898 603.301 20.6987 605.124L26.4317 605.579C26.6229 603.756 26.6228 601.934 26.6228 600.111V589.402H20.8898V599.883ZM15.1567 634.973L20.5076 637.479C22.2275 632.466 23.7563 627.226 24.7118 621.757L19.1699 620.162C18.0233 625.175 16.6855 630.188 15.1567 634.973ZM1.58849 660.948L5.79272 665.505C8.85036 661.404 11.7169 656.847 14.0101 652.29L9.23256 648.644C6.93933 652.973 4.45502 657.075 1.58849 660.948ZM-18.4772 680.088L-15.6107 686.012C-11.5976 683.278 -7.77553 680.316 -4.14459 676.67L-7.77553 671.429C-11.0243 674.619 -14.6552 677.582 -18.4772 680.088ZM-42.5561 690.569L-41.6006 697.177C-37.0142 696.266 -32.6188 694.671 -28.2235 692.848L-30.1345 686.468C-34.1476 688.291 -38.3519 689.658 -42.5561 690.569ZM-68.7371 698.772H-55.36V691.936H-68.7371V698.772ZM-95.4914 698.772H-82.1143V691.936H-95.4914V698.772ZM-122.246 698.772H-108.869V691.936H-122.246V698.772ZM-149 698.772H-135.623V691.936H-149V698.772Z" fill="#98A2B3"/>
</g>
<path d="M90.4326 21.2732C90.4326 26.7366 94.8606 31.1655 100.323 31.1655C105.785 31.1655 110.213 26.7366 110.213 21.2732C110.213 15.8098 105.785 11.3809 100.323 11.3809C94.8606 11.3809 90.4326 15.8098 90.4326 21.2732Z" fill="#FFBA23"/>
<path d="M37.5117 21.272C37.5117 21.4456 37.5117 21.4456 37.5117 21.272C37.5117 21.4456 37.5117 21.6191 37.5117 21.6191V21.7927C37.5117 21.7927 37.5117 21.9663 37.3382 21.9663C37.3382 21.9663 37.3382 21.9662 37.1647 22.1398H36.9912H36.8177H36.6442C36.4707 22.1398 36.1236 21.9663 35.9501 21.9663C35.6031 21.6192 35.6031 21.0985 35.9501 20.7514C36.1236 20.5778 36.2971 20.4043 36.6442 20.4043C36.8177 20.4043 37.1647 20.5778 37.3382 20.7514C37.3382 20.7514 37.3382 20.7514 37.5117 20.925V21.0985C37.5117 21.0985 37.5117 21.0985 37.5117 21.272Z" fill="#434345"/>
<path d="M80.5425 21.272C80.5425 20.7514 80.1955 20.4043 79.6749 20.4043C79.1544 20.4043 78.8074 20.7514 78.8074 21.272C78.8074 21.7927 79.1544 22.1398 79.6749 22.1398C80.0219 22.3133 80.5425 21.7927 80.5425 21.272ZM76.8987 21.272C76.8987 20.7514 76.5517 20.4043 76.0312 20.4043C75.5107 20.4043 75.1636 20.7514 75.1636 21.272C75.1636 21.7927 75.5107 22.1398 76.0312 22.1398C76.5517 22.3133 76.8987 21.7927 76.8987 21.272ZM73.255 21.272C73.255 20.7514 72.908 20.4043 72.3875 20.4043C71.8669 20.4043 71.5199 20.7514 71.5199 21.272C71.5199 21.7927 71.8669 22.1398 72.3875 22.1398C72.908 22.3133 73.255 21.7927 73.255 21.272ZM69.7848 21.272C69.7848 20.7514 69.4378 20.4043 68.9172 20.4043C68.3967 20.4043 68.0497 20.7514 68.0497 21.272C68.0497 21.7927 68.3967 22.1398 68.9172 22.1398C69.2643 22.3133 69.7848 21.7927 69.7848 21.272ZM66.1411 21.272C66.1411 20.7514 65.794 20.4043 65.2735 20.4043C64.753 20.4043 64.4059 20.7514 64.4059 21.272C64.4059 21.7927 64.753 22.1398 65.2735 22.1398C65.794 22.3133 66.1411 21.7927 66.1411 21.272ZM62.6708 21.272C62.6708 20.7514 62.3238 20.4043 61.8033 20.4043C61.2827 20.4043 60.9357 20.7514 60.9357 21.272C60.9357 21.7927 61.2827 22.1398 61.8033 22.1398C62.1503 22.3133 62.6708 21.7927 62.6708 21.272ZM59.0271 21.272C59.0271 20.7514 58.6801 20.4043 58.1595 20.4043C57.639 20.4043 57.292 20.7514 57.292 21.272C57.292 21.7927 57.639 22.1398 58.1595 22.1398C58.6801 22.3133 59.0271 21.7927 59.0271 21.272ZM55.3834 21.272C55.3834 20.7514 55.0363 20.4043 54.5158 20.4043C53.9953 20.4043 53.6482 20.7514 53.6482 21.272C53.6482 21.7927 53.9953 22.1398 54.5158 22.1398C55.0363 22.1398 55.3834 21.7927 55.3834 21.272ZM51.9131 21.272C51.9131 20.7514 51.5661 20.4043 51.0456 20.4043C50.525 20.4043 50.178 20.7514 50.178 21.272C50.178 21.7927 50.525 22.1398 51.0456 22.1398C51.3926 22.3133 51.9131 21.7927 51.9131 21.272ZM48.2694 21.272C48.2694 20.7514 47.9224 20.4043 47.4018 20.4043C46.8813 20.4043 46.5343 20.7514 46.5343 21.272C46.5343 21.7927 46.8813 22.1398 47.4018 22.1398C47.9224 22.3133 48.2694 21.7927 48.2694 21.272ZM44.7992 21.272C44.7992 20.7514 44.4522 20.4043 43.9316 20.4043C43.4111 20.4043 43.0641 20.7514 43.0641 21.272C43.0641 21.7927 43.4111 22.1398 43.9316 22.1398C44.4522 22.1398 44.7992 21.7927 44.7992 21.272ZM41.1554 21.272C41.1554 20.7514 40.8084 20.4043 40.2879 20.4043C39.7673 20.4043 39.4203 20.7514 39.4203 21.272C39.4203 21.7927 39.7673 22.1398 40.2879 22.1398C40.8084 22.3133 41.1554 21.7927 41.1554 21.272Z" fill="#FFBA23"/>
<path d="M84.0127 21.272C84.0127 21.4456 84.0127 21.4456 84.0127 21.6191C84.0127 21.7927 83.8392 21.7927 83.8392 21.9663C83.6657 22.1398 83.4922 22.1398 83.1451 22.1398H82.9716H82.7981H82.6246C82.6246 22.1398 82.4511 22.1398 82.4511 21.9663C82.2776 21.7927 82.1041 21.4456 82.2776 21.0985V20.925V20.7514C82.2776 20.7514 82.2776 20.5779 82.4511 20.5779C82.4511 20.5779 82.4511 20.5778 82.6246 20.4043H82.7981H82.9716H83.1451C83.3187 20.4043 83.6657 20.5778 83.8392 20.7514C83.8392 20.7514 83.8392 20.7514 84.0127 20.925V21.0985C84.0127 21.0985 84.0127 21.0985 84.0127 21.272Z" fill="#434345"/>
<path d="M115.592 19.884C115.592 19.3633 115.071 19.0162 114.724 19.0162C114.204 19.0162 113.857 19.3633 113.857 19.884V20.0575C113.857 20.5782 114.377 20.9253 114.898 20.9253C115.245 20.7517 115.592 20.2311 115.592 19.884ZM115.592 23.5285C115.592 23.0079 115.245 22.4872 114.898 22.4872H114.724C114.377 22.4872 113.857 22.8343 113.857 23.1814C113.857 23.1814 113.857 23.1814 113.857 23.355C113.857 23.7021 114.204 24.2227 114.551 24.2227C115.071 24.3963 115.418 24.0492 115.592 23.5285ZM114.204 17.2807C114.551 17.1072 114.724 16.7601 114.724 16.413C114.724 16.2394 114.724 16.2394 114.724 16.0659C114.551 15.7188 114.204 15.5452 113.857 15.5452C113.683 15.5452 113.683 15.5452 113.51 15.5452C113.163 15.7188 112.989 16.0659 112.989 16.413C112.989 16.5865 112.989 16.5866 112.989 16.7601C113.163 17.1072 113.683 17.4543 114.204 17.2807ZM114.551 27.1731C114.551 26.9995 114.551 26.9995 114.551 26.826C114.551 26.4789 114.377 26.1318 114.03 25.9582C113.857 25.9582 113.857 25.9582 113.683 25.9582C113.336 25.9582 112.989 26.1318 112.816 26.4789C112.816 26.6524 112.816 26.6524 112.816 26.826C112.816 27.1731 112.989 27.5202 113.336 27.6937C113.857 27.8673 114.377 27.6937 114.551 27.1731ZM112.816 13.9833C112.989 13.8097 113.163 13.4627 113.163 13.2891C113.163 13.1156 113.163 12.942 112.989 12.7685C112.816 12.5949 112.469 12.4214 112.295 12.4214C112.122 12.4214 111.948 12.4213 111.775 12.5949C111.601 12.7684 111.428 13.1156 111.428 13.2891C111.428 13.4627 111.428 13.6362 111.601 13.8097C111.775 14.1568 112.469 14.3304 112.816 13.9833ZM112.642 30.4705C112.816 30.297 112.816 30.1234 112.816 29.9499C112.816 29.6028 112.642 29.4292 112.469 29.2557C112.295 29.0821 112.122 29.0821 111.948 29.0821C111.601 29.0821 111.428 29.2557 111.254 29.4292C111.081 29.6028 111.081 29.7763 111.081 29.9499C111.081 30.297 111.254 30.4705 111.428 30.6441C111.948 30.9912 112.469 30.8176 112.642 30.4705ZM110.56 11.2065C110.733 11.0329 110.733 10.8594 110.733 10.6859C110.733 10.5123 110.56 10.1652 110.386 9.99165C110.213 9.8181 110.039 9.81811 109.866 9.81811C109.692 9.81811 109.345 9.99166 109.172 10.1652C108.998 10.3388 108.998 10.5123 108.998 10.6859C108.998 10.8594 109.172 11.2065 109.345 11.3801C109.692 11.5536 110.386 11.5536 110.56 11.2065ZM110.213 33.2473C110.386 33.0738 110.56 32.9002 110.56 32.5531C110.56 32.3796 110.56 32.206 110.386 32.0325C110.213 31.8589 110.039 31.6854 109.692 31.6854C109.519 31.6854 109.345 31.6854 109.172 31.8589C108.998 32.0325 108.825 32.206 108.825 32.5531C108.825 32.7267 108.825 32.9002 108.998 33.0738C109.172 33.4209 109.692 33.4209 110.213 33.2473ZM107.957 8.95037C107.957 8.77682 108.131 8.60325 108.131 8.60325C108.131 8.25615 107.957 7.90906 107.61 7.90906C107.437 7.90906 107.263 7.7355 107.263 7.7355C106.916 7.7355 106.569 7.90905 106.396 8.25615C106.396 8.4297 106.222 8.60325 106.222 8.60325C106.222 8.95034 106.396 9.29744 106.743 9.47099C107.09 9.47099 107.61 9.47102 107.957 8.95037ZM106.916 35.1564C107.263 34.9828 107.437 34.6357 107.437 34.2886C107.437 34.1151 107.437 33.9415 107.263 33.9415C107.09 33.5944 106.743 33.4209 106.396 33.4209C106.222 33.4209 106.222 33.4209 106.049 33.5944C105.702 33.768 105.528 34.1151 105.528 34.4622C105.528 34.6357 105.528 34.6357 105.702 34.8093C106.049 35.1564 106.569 35.5035 106.916 35.1564ZM104.661 7.3884V7.21487C104.661 6.86777 104.314 6.52067 103.967 6.34712H103.793C103.446 6.34712 103.099 6.69421 102.925 7.04131V7.21487C102.925 7.56197 103.273 7.90907 103.62 8.08262C104.14 8.25617 104.487 7.90905 104.661 7.3884ZM103.446 36.3712C103.793 36.3712 104.14 35.8505 104.14 35.5034V35.3299C104.14 34.9828 103.62 34.6357 103.273 34.6357H103.099C102.752 34.6357 102.405 34.9828 102.405 35.5034V35.677C102.405 36.1977 102.925 36.5447 103.446 36.3712ZM101.19 6.86775C101.19 6.3471 100.843 6 100.323 6C99.8023 6 99.4553 6.3471 99.4553 6.86775C99.4553 7.3884 99.8023 7.7355 100.323 7.7355C100.843 7.7355 101.19 7.3884 101.19 6.86775ZM100.67 35.8506C100.67 35.3299 100.323 34.9828 99.8023 34.9828C99.2817 34.9828 98.9347 35.3299 98.9347 35.8506C98.9347 36.3712 99.2817 36.7183 99.8023 36.7183C100.149 36.7183 100.67 36.3712 100.67 35.8506ZM98.7612 7.04131C98.5877 6.52066 98.2407 6.17356 97.8937 6.17356C97.8937 6.17356 97.8937 6.17356 97.7201 6.17356C97.3731 6.17356 97.0261 6.69421 97.0261 7.04131V7.21487C97.0261 7.73552 97.5466 8.08261 98.0672 7.90906C98.4142 7.90906 98.7612 7.38841 98.7612 7.04131ZM97.0261 35.5034V35.3299C97.0261 34.9828 96.8526 34.6357 96.3321 34.4622H96.1585C95.8115 34.4622 95.4645 34.8093 95.291 35.1564V35.3299C95.291 35.677 95.4645 36.0241 95.985 36.1977C96.5056 36.1977 96.8526 36.0241 97.0261 35.5034ZM94.7705 8.95037C95.1175 8.77682 95.291 8.42972 95.291 8.08262C95.291 7.90907 95.291 7.90905 95.291 7.7355C95.1175 7.3884 94.7705 7.21487 94.4234 7.21487C94.2499 7.21487 94.2499 7.21487 94.0764 7.21487C93.7294 7.38842 93.5559 7.73552 93.5559 8.08262C93.5559 8.25617 93.5559 8.25616 93.7294 8.42971C93.9029 8.77681 94.4234 9.12392 94.7705 8.95037ZM93.7294 34.2886C93.9029 34.1151 93.9029 33.9415 93.9029 33.768C93.9029 33.4209 93.7294 33.2473 93.5559 33.0738C93.3824 32.9002 93.2089 32.9002 93.0353 32.9002C92.6883 32.9002 92.5148 33.0738 92.3413 33.4209C92.1678 33.5944 92.1678 33.768 92.1678 33.768C92.1678 34.1151 92.3413 34.2886 92.5148 34.4622C93.0353 34.9828 93.5559 34.8093 93.7294 34.2886ZM91.9943 10.5123C92.1678 10.3388 92.3413 9.99166 92.3413 9.81811C92.3413 9.64456 92.3413 9.47101 92.1678 9.29746C91.9943 9.12391 91.8208 8.95037 91.4737 8.95037C91.3002 8.95037 91.1267 8.95035 90.9532 9.1239C90.7797 9.29745 90.6062 9.47102 90.6062 9.81811C90.6062 9.99166 90.6062 10.1652 90.7797 10.3387C90.9532 10.8594 91.6473 10.8594 91.9943 10.5123ZM90.7797 32.3796C90.9532 32.206 90.9532 32.0325 90.9532 31.6854C90.9532 31.5118 90.7797 31.1647 90.6062 30.9912C90.4327 30.8176 90.2592 30.8176 89.9121 30.8176C89.7386 30.8176 89.3916 30.9912 89.2181 31.1647C89.0446 31.3383 89.0446 31.5118 89.0446 31.8589C89.0446 32.0325 89.2181 32.3796 89.3916 32.5531C89.9121 32.7267 90.4327 32.7267 90.7797 32.3796ZM89.5651 12.942C89.7386 12.7684 89.7386 12.5949 89.7386 12.4214C89.7386 12.0743 89.5651 11.9007 89.3916 11.7271C89.2181 11.5536 89.0446 11.5536 88.8711 11.5536C88.5241 11.5536 88.3505 11.7272 88.177 11.9007C88.0035 12.0743 88.0035 12.2478 88.0035 12.4214C88.0035 12.7685 88.177 12.942 88.3505 13.1155C88.6976 13.2891 89.3916 13.2891 89.5651 12.942ZM88.3505 29.7763C88.6976 29.6028 88.6976 29.2557 88.6976 29.0821C88.6976 28.9086 88.6976 28.735 88.5241 28.5615C88.3505 28.2144 88.0035 28.2144 87.83 28.2144C87.6565 28.2144 87.483 28.2144 87.3095 28.3879C86.9625 28.5615 86.9625 28.9086 86.9625 29.0821C86.9625 29.2557 86.9625 29.4292 87.136 29.6028C87.483 29.7763 88.0035 29.9499 88.3505 29.7763ZM87.83 15.7188C87.83 15.5452 87.83 15.5452 87.83 15.3717C87.83 15.0246 87.6565 14.6775 87.3095 14.504C87.136 14.504 87.136 14.3304 86.9625 14.3304C86.6154 14.3304 86.2684 14.5039 86.0949 14.851C86.0949 15.0246 86.0949 15.0246 86.0949 15.1981C86.0949 15.5452 86.2684 15.8923 86.6154 16.0659C87.136 16.413 87.6565 16.2394 87.83 15.7188ZM86.7889 26.6524C87.136 26.4789 87.483 26.1318 87.483 25.7847C87.483 25.6111 87.483 25.6111 87.483 25.6111C87.3095 25.264 86.9625 24.9169 86.6154 24.9169C86.6154 24.9169 86.4419 24.9169 86.2684 24.9169C85.9214 25.0905 85.5744 25.4376 85.5744 25.7847C85.5744 25.9582 85.5744 25.9582 85.5744 26.1318C85.7479 26.4789 86.2684 26.826 86.7889 26.6524ZM86.9625 18.8427C86.9625 18.322 86.6154 17.8014 86.2684 17.8014H86.0949C85.7479 17.8014 85.2273 18.1485 85.2273 18.4956V18.6691C85.2273 19.0162 85.5744 19.5369 85.9214 19.5369C86.2684 19.7104 86.7889 19.3633 86.9625 18.8427ZM86.6154 22.3137C86.6154 21.793 86.2684 21.4459 85.7479 21.4459C85.2273 21.4459 84.8803 21.793 84.8803 22.3137C84.8803 22.8343 85.4009 23.1814 85.7479 23.1814C86.2684 23.1814 86.6154 22.8343 86.6154 22.3137Z" fill="#FFBA23"/>
<path d="M24.5872 47.4822C37.702 47.4822 48.3336 36.853 48.3336 23.7411C48.3336 10.6293 37.702 0 24.5872 0C11.4724 0 0.84082 10.6293 0.84082 23.7411C0.84082 36.853 11.4724 47.4822 24.5872 47.4822Z" fill="#FFBA23"/>
<path d="M35.6298 38.1259C42.1891 31.5681 42.1891 20.9358 35.6298 14.378C29.0706 7.82016 18.4359 7.82016 11.8766 14.378C5.31734 20.9358 5.31734 31.5681 11.8766 38.1259C18.4359 44.6837 29.0706 44.6837 35.6298 38.1259Z" fill="#BCBEC0"/>
<path d="M36.4572 35.6435C43.0165 29.0857 43.0165 18.4534 36.4572 11.8956C29.898 5.33774 19.2633 5.33774 12.704 11.8956C6.14473 18.4534 6.14473 29.0857 12.704 35.6435C19.2633 42.2013 29.898 42.2013 36.4572 35.6435Z" fill="white"/>
<path d="M20.836 19.2711H26.272V31.8711H23.356V21.6111H20.836V19.2711Z" fill="#03123B"/>
<path d="M91.4326 156.273C91.4326 161.737 95.8606 166.166 101.323 166.166C106.785 166.166 111.213 161.737 111.213 156.273C111.213 150.81 106.785 146.381 101.323 146.381C95.8606 146.381 91.4326 150.81 91.4326 156.273Z" fill="#53CBED"/>
<path d="M38.5117 156.272C38.5117 156.446 38.5117 156.446 38.5117 156.272C38.5117 156.446 38.5117 156.619 38.5117 156.619V156.793C38.5117 156.793 38.5117 156.966 38.3382 156.966C38.3382 156.966 38.3382 156.966 38.1647 157.14H37.9912H37.8177H37.6442C37.4707 157.14 37.1236 156.966 36.9501 156.966C36.6031 156.619 36.6031 156.098 36.9501 155.751C37.1236 155.578 37.2971 155.404 37.6442 155.404C37.8177 155.404 38.1647 155.578 38.3382 155.751C38.3382 155.751 38.3382 155.751 38.5117 155.925V156.099C38.5117 156.099 38.5117 156.098 38.5117 156.272Z" fill="#434345"/>
<path d="M81.5425 156.272C81.5425 155.751 81.1955 155.404 80.6749 155.404C80.1544 155.404 79.8074 155.751 79.8074 156.272C79.8074 156.793 80.1544 157.14 80.6749 157.14C81.0219 157.313 81.5425 156.793 81.5425 156.272ZM77.8987 156.272C77.8987 155.751 77.5517 155.404 77.0312 155.404C76.5107 155.404 76.1636 155.751 76.1636 156.272C76.1636 156.793 76.5107 157.14 77.0312 157.14C77.5517 157.313 77.8987 156.793 77.8987 156.272ZM74.255 156.272C74.255 155.751 73.908 155.404 73.3875 155.404C72.8669 155.404 72.5199 155.751 72.5199 156.272C72.5199 156.793 72.8669 157.14 73.3875 157.14C73.908 157.313 74.255 156.793 74.255 156.272ZM70.7848 156.272C70.7848 155.751 70.4378 155.404 69.9172 155.404C69.3967 155.404 69.0497 155.751 69.0497 156.272C69.0497 156.793 69.3967 157.14 69.9172 157.14C70.2643 157.313 70.7848 156.793 70.7848 156.272ZM67.1411 156.272C67.1411 155.751 66.794 155.404 66.2735 155.404C65.753 155.404 65.4059 155.751 65.4059 156.272C65.4059 156.793 65.753 157.14 66.2735 157.14C66.794 157.313 67.1411 156.793 67.1411 156.272ZM63.6708 156.272C63.6708 155.751 63.3238 155.404 62.8033 155.404C62.2827 155.404 61.9357 155.751 61.9357 156.272C61.9357 156.793 62.2827 157.14 62.8033 157.14C63.1503 157.313 63.6708 156.793 63.6708 156.272ZM60.0271 156.272C60.0271 155.751 59.6801 155.404 59.1595 155.404C58.639 155.404 58.292 155.751 58.292 156.272C58.292 156.793 58.639 157.14 59.1595 157.14C59.6801 157.313 60.0271 156.793 60.0271 156.272ZM56.3834 156.272C56.3834 155.751 56.0363 155.404 55.5158 155.404C54.9953 155.404 54.6482 155.751 54.6482 156.272C54.6482 156.793 54.9953 157.14 55.5158 157.14C56.0363 157.14 56.3834 156.793 56.3834 156.272ZM52.9131 156.272C52.9131 155.751 52.5661 155.404 52.0456 155.404C51.525 155.404 51.178 155.751 51.178 156.272C51.178 156.793 51.525 157.14 52.0456 157.14C52.3926 157.313 52.9131 156.793 52.9131 156.272ZM49.2694 156.272C49.2694 155.751 48.9224 155.404 48.4018 155.404C47.8813 155.404 47.5343 155.751 47.5343 156.272C47.5343 156.793 47.8813 157.14 48.4018 157.14C48.9224 157.313 49.2694 156.793 49.2694 156.272ZM45.7992 156.272C45.7992 155.751 45.4522 155.404 44.9316 155.404C44.4111 155.404 44.0641 155.751 44.0641 156.272C44.0641 156.793 44.4111 157.14 44.9316 157.14C45.4522 157.14 45.7992 156.793 45.7992 156.272ZM42.1554 156.272C42.1554 155.751 41.8084 155.404 41.2879 155.404C40.7673 155.404 40.4203 155.751 40.4203 156.272C40.4203 156.793 40.7673 157.14 41.2879 157.14C41.8084 157.313 42.1554 156.793 42.1554 156.272Z" fill="#53CBED"/>
<path d="M85.0127 156.272C85.0127 156.446 85.0127 156.446 85.0127 156.619C85.0127 156.793 84.8392 156.793 84.8392 156.966C84.6657 157.14 84.4922 157.14 84.1451 157.14H83.9716H83.7981H83.6246C83.6246 157.14 83.4511 157.14 83.4511 156.966C83.2776 156.793 83.1041 156.446 83.2776 156.099V155.925V155.751C83.2776 155.751 83.2776 155.578 83.4511 155.578C83.4511 155.578 83.4511 155.578 83.6246 155.404H83.7981H83.9716H84.1451C84.3187 155.404 84.6657 155.578 84.8392 155.751C84.8392 155.751 84.8392 155.751 85.0127 155.925V156.099C85.0127 156.099 85.0127 156.098 85.0127 156.272Z" fill="#434345"/>
<path d="M116.592 154.884C116.592 154.363 116.071 154.016 115.724 154.016C115.204 154.016 114.857 154.363 114.857 154.884V155.058C114.857 155.578 115.377 155.925 115.898 155.925C116.245 155.752 116.592 155.231 116.592 154.884ZM116.592 158.529C116.592 158.008 116.245 157.487 115.898 157.487H115.724C115.377 157.487 114.857 157.834 114.857 158.181C114.857 158.181 114.857 158.181 114.857 158.355C114.857 158.702 115.204 159.223 115.551 159.223C116.071 159.396 116.418 159.049 116.592 158.529ZM115.204 152.281C115.551 152.107 115.724 151.76 115.724 151.413C115.724 151.239 115.724 151.239 115.724 151.066C115.551 150.719 115.204 150.545 114.857 150.545C114.683 150.545 114.683 150.545 114.51 150.545C114.163 150.719 113.989 151.066 113.989 151.413C113.989 151.587 113.989 151.587 113.989 151.76C114.163 152.107 114.683 152.454 115.204 152.281ZM115.551 162.173C115.551 162 115.551 162 115.551 161.826C115.551 161.479 115.377 161.132 115.03 160.958C114.857 160.958 114.857 160.958 114.683 160.958C114.336 160.958 113.989 161.132 113.816 161.479C113.816 161.652 113.816 161.652 113.816 161.826C113.816 162.173 113.989 162.52 114.336 162.694C114.857 162.867 115.377 162.694 115.551 162.173ZM113.816 148.983C113.989 148.81 114.163 148.463 114.163 148.289C114.163 148.116 114.163 147.942 113.989 147.768C113.816 147.595 113.469 147.421 113.295 147.421C113.122 147.421 112.948 147.421 112.775 147.595C112.601 147.768 112.428 148.116 112.428 148.289C112.428 148.463 112.428 148.636 112.601 148.81C112.775 149.157 113.469 149.33 113.816 148.983ZM113.642 165.471C113.816 165.297 113.816 165.123 113.816 164.95C113.816 164.603 113.642 164.429 113.469 164.256C113.295 164.082 113.122 164.082 112.948 164.082C112.601 164.082 112.428 164.256 112.254 164.429C112.081 164.603 112.081 164.776 112.081 164.95C112.081 165.297 112.254 165.471 112.428 165.644C112.948 165.991 113.469 165.818 113.642 165.471ZM111.56 146.206C111.733 146.033 111.733 145.859 111.733 145.686C111.733 145.512 111.56 145.165 111.386 144.992C111.213 144.818 111.039 144.818 110.866 144.818C110.692 144.818 110.345 144.992 110.172 145.165C109.998 145.339 109.998 145.512 109.998 145.686C109.998 145.859 110.172 146.207 110.345 146.38C110.692 146.554 111.386 146.554 111.56 146.206ZM111.213 168.247C111.386 168.074 111.56 167.9 111.56 167.553C111.56 167.38 111.56 167.206 111.386 167.032C111.213 166.859 111.039 166.685 110.692 166.685C110.519 166.685 110.345 166.685 110.172 166.859C109.998 167.032 109.825 167.206 109.825 167.553C109.825 167.727 109.825 167.9 109.998 168.074C110.172 168.421 110.692 168.421 111.213 168.247ZM108.957 143.95C108.957 143.777 109.131 143.603 109.131 143.603C109.131 143.256 108.957 142.909 108.61 142.909C108.437 142.909 108.263 142.735 108.263 142.735C107.916 142.735 107.569 142.909 107.396 143.256C107.396 143.43 107.222 143.603 107.222 143.603C107.222 143.95 107.396 144.297 107.743 144.471C108.09 144.471 108.61 144.471 108.957 143.95ZM107.916 170.156C108.263 169.983 108.437 169.636 108.437 169.289C108.437 169.115 108.437 168.942 108.263 168.942C108.09 168.594 107.743 168.421 107.396 168.421C107.222 168.421 107.222 168.421 107.049 168.594C106.702 168.768 106.528 169.115 106.528 169.462C106.528 169.636 106.528 169.636 106.702 169.809C107.049 170.156 107.569 170.503 107.916 170.156ZM105.661 142.388V142.215C105.661 141.868 105.314 141.521 104.967 141.347H104.793C104.446 141.347 104.099 141.694 103.925 142.041V142.215C103.925 142.562 104.273 142.909 104.62 143.083C105.14 143.256 105.487 142.909 105.661 142.388ZM104.446 171.371C104.793 171.371 105.14 170.851 105.14 170.503V170.33C105.14 169.983 104.62 169.636 104.273 169.636H104.099C103.752 169.636 103.405 169.983 103.405 170.503V170.677C103.405 171.198 103.925 171.545 104.446 171.371ZM102.19 141.868C102.19 141.347 101.843 141 101.323 141C100.802 141 100.455 141.347 100.455 141.868C100.455 142.388 100.802 142.735 101.323 142.735C101.843 142.735 102.19 142.388 102.19 141.868ZM101.67 170.851C101.67 170.33 101.323 169.983 100.802 169.983C100.282 169.983 99.9347 170.33 99.9347 170.851C99.9347 171.371 100.282 171.718 100.802 171.718C101.149 171.718 101.67 171.371 101.67 170.851ZM99.7612 142.041C99.5877 141.521 99.2407 141.174 98.8937 141.174C98.8937 141.174 98.8937 141.174 98.7201 141.174C98.3731 141.174 98.0261 141.694 98.0261 142.041V142.215C98.0261 142.736 98.5466 143.083 99.0672 142.909C99.4142 142.909 99.7612 142.388 99.7612 142.041ZM98.0261 170.503V170.33C98.0261 169.983 97.8526 169.636 97.3321 169.462H97.1585C96.8115 169.462 96.4645 169.809 96.291 170.156V170.33C96.291 170.677 96.4645 171.024 96.985 171.198C97.5056 171.198 97.8526 171.024 98.0261 170.503ZM95.7705 143.95C96.1175 143.777 96.291 143.43 96.291 143.083C96.291 142.909 96.291 142.909 96.291 142.735C96.1175 142.388 95.7705 142.215 95.4234 142.215C95.2499 142.215 95.2499 142.215 95.0764 142.215C94.7294 142.388 94.5559 142.736 94.5559 143.083C94.5559 143.256 94.5559 143.256 94.7294 143.43C94.9029 143.777 95.4234 144.124 95.7705 143.95ZM94.7294 169.289C94.9029 169.115 94.9029 168.942 94.9029 168.768C94.9029 168.421 94.7294 168.247 94.5559 168.074C94.3824 167.9 94.2089 167.9 94.0353 167.9C93.6883 167.9 93.5148 168.074 93.3413 168.421C93.1678 168.594 93.1678 168.768 93.1678 168.768C93.1678 169.115 93.3413 169.289 93.5148 169.462C94.0353 169.983 94.5559 169.809 94.7294 169.289ZM92.9943 145.512C93.1678 145.339 93.3413 144.992 93.3413 144.818C93.3413 144.645 93.3413 144.471 93.1678 144.297C92.9943 144.124 92.8208 143.95 92.4737 143.95C92.3002 143.95 92.1267 143.95 91.9532 144.124C91.7797 144.297 91.6062 144.471 91.6062 144.818C91.6062 144.992 91.6062 145.165 91.7797 145.339C91.9532 145.859 92.6473 145.859 92.9943 145.512ZM91.7797 167.38C91.9532 167.206 91.9532 167.032 91.9532 166.685C91.9532 166.512 91.7797 166.165 91.6062 165.991C91.4327 165.818 91.2592 165.818 90.9121 165.818C90.7386 165.818 90.3916 165.991 90.2181 166.165C90.0446 166.338 90.0446 166.512 90.0446 166.859C90.0446 167.032 90.2181 167.38 90.3916 167.553C90.9121 167.727 91.4327 167.727 91.7797 167.38ZM90.5651 147.942C90.7386 147.768 90.7386 147.595 90.7386 147.421C90.7386 147.074 90.5651 146.901 90.3916 146.727C90.2181 146.554 90.0446 146.554 89.8711 146.554C89.5241 146.554 89.3505 146.727 89.177 146.901C89.0035 147.074 89.0035 147.248 89.0035 147.421C89.0035 147.768 89.177 147.942 89.3505 148.116C89.6976 148.289 90.3916 148.289 90.5651 147.942ZM89.3505 164.776C89.6976 164.603 89.6976 164.256 89.6976 164.082C89.6976 163.909 89.6976 163.735 89.5241 163.561C89.3505 163.214 89.0035 163.214 88.83 163.214C88.6565 163.214 88.483 163.214 88.3095 163.388C87.9625 163.561 87.9625 163.909 87.9625 164.082C87.9625 164.256 87.9625 164.429 88.136 164.603C88.483 164.776 89.0035 164.95 89.3505 164.776ZM88.83 150.719C88.83 150.545 88.83 150.545 88.83 150.372C88.83 150.025 88.6565 149.678 88.3095 149.504C88.136 149.504 88.136 149.33 87.9625 149.33C87.6154 149.33 87.2684 149.504 87.0949 149.851C87.0949 150.025 87.0949 150.025 87.0949 150.198C87.0949 150.545 87.2684 150.892 87.6154 151.066C88.136 151.413 88.6565 151.239 88.83 150.719ZM87.7889 161.652C88.136 161.479 88.483 161.132 88.483 160.785C88.483 160.611 88.483 160.611 88.483 160.611C88.3095 160.264 87.9625 159.917 87.6154 159.917C87.6154 159.917 87.4419 159.917 87.2684 159.917C86.9214 160.09 86.5744 160.438 86.5744 160.785C86.5744 160.958 86.5744 160.958 86.5744 161.132C86.7479 161.479 87.2684 161.826 87.7889 161.652ZM87.9625 153.843C87.9625 153.322 87.6154 152.801 87.2684 152.801H87.0949C86.7479 152.801 86.2273 153.149 86.2273 153.496V153.669C86.2273 154.016 86.5744 154.537 86.9214 154.537C87.2684 154.71 87.7889 154.363 87.9625 153.843ZM87.6154 157.314C87.6154 156.793 87.2684 156.446 86.7479 156.446C86.2273 156.446 85.8803 156.793 85.8803 157.314C85.8803 157.834 86.4009 158.181 86.7479 158.181C87.2684 158.181 87.6154 157.834 87.6154 157.314Z" fill="#53CBED"/>
<path d="M25.5872 182.482C38.702 182.482 49.3336 171.853 49.3336 158.741C49.3336 145.629 38.702 135 25.5872 135C12.4724 135 1.84082 145.629 1.84082 158.741C1.84082 171.853 12.4724 182.482 25.5872 182.482Z" fill="#53CBED"/>
<path d="M36.6298 173.126C43.1891 166.568 43.1891 155.936 36.6298 149.378C30.0706 142.82 19.4359 142.82 12.8766 149.378C6.31734 155.936 6.31734 166.568 12.8766 173.126C19.4359 179.684 30.0706 179.684 36.6298 173.126Z" fill="#BCBEC0"/>
<path d="M37.4572 170.644C44.0165 164.086 44.0165 153.453 37.4572 146.896C30.898 140.338 20.2633 140.338 13.704 146.896C7.14473 153.453 7.14473 164.086 13.704 170.644C20.2633 177.201 30.898 177.201 37.4572 170.644Z" fill="white"/>
<path d="M24.698 163.624H30.116V166H20.594V164.11L25.454 159.52C26.57 158.458 26.768 157.81 26.768 157.198C26.768 156.208 26.084 155.632 24.752 155.632C23.672 155.632 22.754 156.046 22.142 156.892L20.018 155.524C20.99 154.102 22.754 153.184 25.022 153.184C27.83 153.184 29.702 154.624 29.702 156.91C29.702 158.134 29.36 159.25 27.596 160.888L24.698 163.624Z" fill="#03123B"/>
<path d="M90.4326 298.273C90.4326 303.737 94.8606 308.166 100.323 308.166C105.785 308.166 110.213 303.737 110.213 298.273C110.213 292.81 105.785 288.381 100.323 288.381C94.8606 288.381 90.4326 292.81 90.4326 298.273Z" fill="#FF64AE"/>
<path d="M37.5117 298.272C37.5117 298.446 37.5117 298.446 37.5117 298.272C37.5117 298.446 37.5117 298.619 37.5117 298.619V298.793C37.5117 298.793 37.5117 298.966 37.3382 298.966C37.3382 298.966 37.3382 298.966 37.1647 299.14H36.9912H36.8177H36.6442C36.4707 299.14 36.1236 298.966 35.9501 298.966C35.6031 298.619 35.6031 298.098 35.9501 297.751C36.1236 297.578 36.2971 297.404 36.6442 297.404C36.8177 297.404 37.1647 297.578 37.3382 297.751C37.3382 297.751 37.3382 297.751 37.5117 297.925V298.099C37.5117 298.099 37.5117 298.098 37.5117 298.272Z" fill="#434345"/>
<path d="M80.5425 298.272C80.5425 297.751 80.1955 297.404 79.6749 297.404C79.1544 297.404 78.8074 297.751 78.8074 298.272C78.8074 298.793 79.1544 299.14 79.6749 299.14C80.0219 299.313 80.5425 298.793 80.5425 298.272ZM76.8987 298.272C76.8987 297.751 76.5517 297.404 76.0312 297.404C75.5107 297.404 75.1636 297.751 75.1636 298.272C75.1636 298.793 75.5107 299.14 76.0312 299.14C76.5517 299.313 76.8987 298.793 76.8987 298.272ZM73.255 298.272C73.255 297.751 72.908 297.404 72.3875 297.404C71.8669 297.404 71.5199 297.751 71.5199 298.272C71.5199 298.793 71.8669 299.14 72.3875 299.14C72.908 299.313 73.255 298.793 73.255 298.272ZM69.7848 298.272C69.7848 297.751 69.4378 297.404 68.9172 297.404C68.3967 297.404 68.0497 297.751 68.0497 298.272C68.0497 298.793 68.3967 299.14 68.9172 299.14C69.2643 299.313 69.7848 298.793 69.7848 298.272ZM66.1411 298.272C66.1411 297.751 65.794 297.404 65.2735 297.404C64.753 297.404 64.4059 297.751 64.4059 298.272C64.4059 298.793 64.753 299.14 65.2735 299.14C65.794 299.313 66.1411 298.793 66.1411 298.272ZM62.6708 298.272C62.6708 297.751 62.3238 297.404 61.8033 297.404C61.2827 297.404 60.9357 297.751 60.9357 298.272C60.9357 298.793 61.2827 299.14 61.8033 299.14C62.1503 299.313 62.6708 298.793 62.6708 298.272ZM59.0271 298.272C59.0271 297.751 58.6801 297.404 58.1595 297.404C57.639 297.404 57.292 297.751 57.292 298.272C57.292 298.793 57.639 299.14 58.1595 299.14C58.6801 299.313 59.0271 298.793 59.0271 298.272ZM55.3834 298.272C55.3834 297.751 55.0363 297.404 54.5158 297.404C53.9953 297.404 53.6482 297.751 53.6482 298.272C53.6482 298.793 53.9953 299.14 54.5158 299.14C55.0363 299.14 55.3834 298.793 55.3834 298.272ZM51.9131 298.272C51.9131 297.751 51.5661 297.404 51.0456 297.404C50.525 297.404 50.178 297.751 50.178 298.272C50.178 298.793 50.525 299.14 51.0456 299.14C51.3926 299.313 51.9131 298.793 51.9131 298.272ZM48.2694 298.272C48.2694 297.751 47.9224 297.404 47.4018 297.404C46.8813 297.404 46.5343 297.751 46.5343 298.272C46.5343 298.793 46.8813 299.14 47.4018 299.14C47.9224 299.313 48.2694 298.793 48.2694 298.272ZM44.7992 298.272C44.7992 297.751 44.4522 297.404 43.9316 297.404C43.4111 297.404 43.0641 297.751 43.0641 298.272C43.0641 298.793 43.4111 299.14 43.9316 299.14C44.4522 299.14 44.7992 298.793 44.7992 298.272ZM41.1554 298.272C41.1554 297.751 40.8084 297.404 40.2879 297.404C39.7673 297.404 39.4203 297.751 39.4203 298.272C39.4203 298.793 39.7673 299.14 40.2879 299.14C40.8084 299.313 41.1554 298.793 41.1554 298.272Z" fill="#FF64AE"/>
<path d="M84.0127 298.272C84.0127 298.446 84.0127 298.446 84.0127 298.619C84.0127 298.793 83.8392 298.793 83.8392 298.966C83.6657 299.14 83.4922 299.14 83.1451 299.14H82.9716H82.7981H82.6246C82.6246 299.14 82.4511 299.14 82.4511 298.966C82.2776 298.793 82.1041 298.446 82.2776 298.099V297.925V297.751C82.2776 297.751 82.2776 297.578 82.4511 297.578C82.4511 297.578 82.4511 297.578 82.6246 297.404H82.7981H82.9716H83.1451C83.3187 297.404 83.6657 297.578 83.8392 297.751C83.8392 297.751 83.8392 297.751 84.0127 297.925V298.099C84.0127 298.099 84.0127 298.098 84.0127 298.272Z" fill="#434345"/>
<path d="M115.592 296.884C115.592 296.363 115.071 296.016 114.724 296.016C114.204 296.016 113.857 296.363 113.857 296.884V297.058C113.857 297.578 114.377 297.925 114.898 297.925C115.245 297.752 115.592 297.231 115.592 296.884ZM115.592 300.529C115.592 300.008 115.245 299.487 114.898 299.487H114.724C114.377 299.487 113.857 299.834 113.857 300.181C113.857 300.181 113.857 300.181 113.857 300.355C113.857 300.702 114.204 301.223 114.551 301.223C115.071 301.396 115.418 301.049 115.592 300.529ZM114.204 294.281C114.551 294.107 114.724 293.76 114.724 293.413C114.724 293.239 114.724 293.239 114.724 293.066C114.551 292.719 114.204 292.545 113.857 292.545C113.683 292.545 113.683 292.545 113.51 292.545C113.163 292.719 112.989 293.066 112.989 293.413C112.989 293.587 112.989 293.587 112.989 293.76C113.163 294.107 113.683 294.454 114.204 294.281ZM114.551 304.173C114.551 304 114.551 304 114.551 303.826C114.551 303.479 114.377 303.132 114.03 302.958C113.857 302.958 113.857 302.958 113.683 302.958C113.336 302.958 112.989 303.132 112.816 303.479C112.816 303.652 112.816 303.652 112.816 303.826C112.816 304.173 112.989 304.52 113.336 304.694C113.857 304.867 114.377 304.694 114.551 304.173ZM112.816 290.983C112.989 290.81 113.163 290.463 113.163 290.289C113.163 290.116 113.163 289.942 112.989 289.768C112.816 289.595 112.469 289.421 112.295 289.421C112.122 289.421 111.948 289.421 111.775 289.595C111.601 289.768 111.428 290.116 111.428 290.289C111.428 290.463 111.428 290.636 111.601 290.81C111.775 291.157 112.469 291.33 112.816 290.983ZM112.642 307.471C112.816 307.297 112.816 307.123 112.816 306.95C112.816 306.603 112.642 306.429 112.469 306.256C112.295 306.082 112.122 306.082 111.948 306.082C111.601 306.082 111.428 306.256 111.254 306.429C111.081 306.603 111.081 306.776 111.081 306.95C111.081 307.297 111.254 307.471 111.428 307.644C111.948 307.991 112.469 307.818 112.642 307.471ZM110.56 288.206C110.733 288.033 110.733 287.859 110.733 287.686C110.733 287.512 110.56 287.165 110.386 286.992C110.213 286.818 110.039 286.818 109.866 286.818C109.692 286.818 109.345 286.992 109.172 287.165C108.998 287.339 108.998 287.512 108.998 287.686C108.998 287.859 109.172 288.207 109.345 288.38C109.692 288.554 110.386 288.554 110.56 288.206ZM110.213 310.247C110.386 310.074 110.56 309.9 110.56 309.553C110.56 309.38 110.56 309.206 110.386 309.032C110.213 308.859 110.039 308.685 109.692 308.685C109.519 308.685 109.345 308.685 109.172 308.859C108.998 309.032 108.825 309.206 108.825 309.553C108.825 309.727 108.825 309.9 108.998 310.074C109.172 310.421 109.692 310.421 110.213 310.247ZM107.957 285.95C107.957 285.777 108.131 285.603 108.131 285.603C108.131 285.256 107.957 284.909 107.61 284.909C107.437 284.909 107.263 284.735 107.263 284.735C106.916 284.735 106.569 284.909 106.396 285.256C106.396 285.43 106.222 285.603 106.222 285.603C106.222 285.95 106.396 286.297 106.743 286.471C107.09 286.471 107.61 286.471 107.957 285.95ZM106.916 312.156C107.263 311.983 107.437 311.636 107.437 311.289C107.437 311.115 107.437 310.942 107.263 310.942C107.09 310.594 106.743 310.421 106.396 310.421C106.222 310.421 106.222 310.421 106.049 310.594C105.702 310.768 105.528 311.115 105.528 311.462C105.528 311.636 105.528 311.636 105.702 311.809C106.049 312.156 106.569 312.503 106.916 312.156ZM104.661 284.388V284.215C104.661 283.868 104.314 283.521 103.967 283.347H103.793C103.446 283.347 103.099 283.694 102.925 284.041V284.215C102.925 284.562 103.273 284.909 103.62 285.083C104.14 285.256 104.487 284.909 104.661 284.388ZM103.446 313.371C103.793 313.371 104.14 312.851 104.14 312.503V312.33C104.14 311.983 103.62 311.636 103.273 311.636H103.099C102.752 311.636 102.405 311.983 102.405 312.503V312.677C102.405 313.198 102.925 313.545 103.446 313.371ZM101.19 283.868C101.19 283.347 100.843 283 100.323 283C99.8023 283 99.4553 283.347 99.4553 283.868C99.4553 284.388 99.8023 284.735 100.323 284.735C100.843 284.735 101.19 284.388 101.19 283.868ZM100.67 312.851C100.67 312.33 100.323 311.983 99.8023 311.983C99.2817 311.983 98.9347 312.33 98.9347 312.851C98.9347 313.371 99.2817 313.718 99.8023 313.718C100.149 313.718 100.67 313.371 100.67 312.851ZM98.7612 284.041C98.5877 283.521 98.2407 283.174 97.8937 283.174C97.8937 283.174 97.8937 283.174 97.7201 283.174C97.3731 283.174 97.0261 283.694 97.0261 284.041V284.215C97.0261 284.736 97.5466 285.083 98.0672 284.909C98.4142 284.909 98.7612 284.388 98.7612 284.041ZM97.0261 312.503V312.33C97.0261 311.983 96.8526 311.636 96.3321 311.462H96.1585C95.8115 311.462 95.4645 311.809 95.291 312.156V312.33C95.291 312.677 95.4645 313.024 95.985 313.198C96.5056 313.198 96.8526 313.024 97.0261 312.503ZM94.7705 285.95C95.1175 285.777 95.291 285.43 95.291 285.083C95.291 284.909 95.291 284.909 95.291 284.735C95.1175 284.388 94.7705 284.215 94.4234 284.215C94.2499 284.215 94.2499 284.215 94.0764 284.215C93.7294 284.388 93.5559 284.736 93.5559 285.083C93.5559 285.256 93.5559 285.256 93.7294 285.43C93.9029 285.777 94.4234 286.124 94.7705 285.95ZM93.7294 311.289C93.9029 311.115 93.9029 310.942 93.9029 310.768C93.9029 310.421 93.7294 310.247 93.5559 310.074C93.3824 309.9 93.2089 309.9 93.0353 309.9C92.6883 309.9 92.5148 310.074 92.3413 310.421C92.1678 310.594 92.1678 310.768 92.1678 310.768C92.1678 311.115 92.3413 311.289 92.5148 311.462C93.0353 311.983 93.5559 311.809 93.7294 311.289ZM91.9943 287.512C92.1678 287.339 92.3413 286.992 92.3413 286.818C92.3413 286.645 92.3413 286.471 92.1678 286.297C91.9943 286.124 91.8208 285.95 91.4737 285.95C91.3002 285.95 91.1267 285.95 90.9532 286.124C90.7797 286.297 90.6062 286.471 90.6062 286.818C90.6062 286.992 90.6062 287.165 90.7797 287.339C90.9532 287.859 91.6473 287.859 91.9943 287.512ZM90.7797 309.38C90.9532 309.206 90.9532 309.032 90.9532 308.685C90.9532 308.512 90.7797 308.165 90.6062 307.991C90.4327 307.818 90.2592 307.818 89.9121 307.818C89.7386 307.818 89.3916 307.991 89.2181 308.165C89.0446 308.338 89.0446 308.512 89.0446 308.859C89.0446 309.032 89.2181 309.38 89.3916 309.553C89.9121 309.727 90.4327 309.727 90.7797 309.38ZM89.5651 289.942C89.7386 289.768 89.7386 289.595 89.7386 289.421C89.7386 289.074 89.5651 288.901 89.3916 288.727C89.2181 288.554 89.0446 288.554 88.8711 288.554C88.5241 288.554 88.3505 288.727 88.177 288.901C88.0035 289.074 88.0035 289.248 88.0035 289.421C88.0035 289.768 88.177 289.942 88.3505 290.116C88.6976 290.289 89.3916 290.289 89.5651 289.942ZM88.3505 306.776C88.6976 306.603 88.6976 306.256 88.6976 306.082C88.6976 305.909 88.6976 305.735 88.5241 305.561C88.3505 305.214 88.0035 305.214 87.83 305.214C87.6565 305.214 87.483 305.214 87.3095 305.388C86.9625 305.561 86.9625 305.909 86.9625 306.082C86.9625 306.256 86.9625 306.429 87.136 306.603C87.483 306.776 88.0035 306.95 88.3505 306.776ZM87.83 292.719C87.83 292.545 87.83 292.545 87.83 292.372C87.83 292.025 87.6565 291.678 87.3095 291.504C87.136 291.504 87.136 291.33 86.9625 291.33C86.6154 291.33 86.2684 291.504 86.0949 291.851C86.0949 292.025 86.0949 292.025 86.0949 292.198C86.0949 292.545 86.2684 292.892 86.6154 293.066C87.136 293.413 87.6565 293.239 87.83 292.719ZM86.7889 303.652C87.136 303.479 87.483 303.132 87.483 302.785C87.483 302.611 87.483 302.611 87.483 302.611C87.3095 302.264 86.9625 301.917 86.6154 301.917C86.6154 301.917 86.4419 301.917 86.2684 301.917C85.9214 302.09 85.5744 302.438 85.5744 302.785C85.5744 302.958 85.5744 302.958 85.5744 303.132C85.7479 303.479 86.2684 303.826 86.7889 303.652ZM86.9625 295.843C86.9625 295.322 86.6154 294.801 86.2684 294.801H86.0949C85.7479 294.801 85.2273 295.149 85.2273 295.496V295.669C85.2273 296.016 85.5744 296.537 85.9214 296.537C86.2684 296.71 86.7889 296.363 86.9625 295.843ZM86.6154 299.314C86.6154 298.793 86.2684 298.446 85.7479 298.446C85.2273 298.446 84.8803 298.793 84.8803 299.314C84.8803 299.834 85.4009 300.181 85.7479 300.181C86.2684 300.181 86.6154 299.834 86.6154 299.314Z" fill="#FF64AE"/>
<path d="M24.5872 324.482C37.702 324.482 48.3336 313.853 48.3336 300.741C48.3336 287.629 37.702 277 24.5872 277C11.4724 277 0.84082 287.629 0.84082 300.741C0.84082 313.853 11.4724 324.482 24.5872 324.482Z" fill="#FF64AE"/>
<path d="M35.6298 315.126C42.1891 308.568 42.1891 297.936 35.6298 291.378C29.0706 284.82 18.4359 284.82 11.8766 291.378C5.31734 297.936 5.31734 308.568 11.8766 315.126C18.4359 321.684 29.0706 321.684 35.6298 315.126Z" fill="#BCBEC0"/>
<path d="M36.4572 312.644C43.0165 306.086 43.0165 295.453 36.4572 288.896C29.898 282.338 19.2633 282.338 12.704 288.896C6.14473 295.453 6.14473 306.086 12.704 312.644C19.2633 319.201 29.898 319.201 36.4572 312.644Z" fill="white"/>
<path d="M24.588 300.53C26.856 300.89 28.008 302.294 28.008 304.148C28.008 306.272 26.37 308.216 22.788 308.216C21.024 308.216 19.206 307.73 17.982 306.866L19.116 304.634C20.07 305.354 21.402 305.768 22.716 305.768C24.174 305.768 25.074 305.174 25.074 304.148C25.074 303.194 24.372 302.6 22.716 302.6H21.384V300.674L23.976 297.74H18.612V295.4H27.432V297.29L24.588 300.53Z" fill="#03123B"/>
<path d="M91.4326 435.273C91.4326 440.737 95.8606 445.166 101.323 445.166C106.785 445.166 111.213 440.737 111.213 435.273C111.213 429.81 106.785 425.381 101.323 425.381C95.8606 425.381 91.4326 429.81 91.4326 435.273Z" fill="#AFCD58"/>
<path d="M38.5117 435.272C38.5117 435.446 38.5117 435.446 38.5117 435.272C38.5117 435.446 38.5117 435.619 38.5117 435.619V435.793C38.5117 435.793 38.5117 435.966 38.3382 435.966C38.3382 435.966 38.3382 435.966 38.1647 436.14H37.9912H37.8177H37.6442C37.4707 436.14 37.1236 435.966 36.9501 435.966C36.6031 435.619 36.6031 435.098 36.9501 434.751C37.1236 434.578 37.2971 434.404 37.6442 434.404C37.8177 434.404 38.1647 434.578 38.3382 434.751C38.3382 434.751 38.3382 434.751 38.5117 434.925V435.099C38.5117 435.099 38.5117 435.098 38.5117 435.272Z" fill="#434345"/>
<path d="M81.5425 435.272C81.5425 434.751 81.1955 434.404 80.6749 434.404C80.1544 434.404 79.8074 434.751 79.8074 435.272C79.8074 435.793 80.1544 436.14 80.6749 436.14C81.0219 436.313 81.5425 435.793 81.5425 435.272ZM77.8987 435.272C77.8987 434.751 77.5517 434.404 77.0312 434.404C76.5107 434.404 76.1636 434.751 76.1636 435.272C76.1636 435.793 76.5107 436.14 77.0312 436.14C77.5517 436.313 77.8987 435.793 77.8987 435.272ZM74.255 435.272C74.255 434.751 73.908 434.404 73.3875 434.404C72.8669 434.404 72.5199 434.751 72.5199 435.272C72.5199 435.793 72.8669 436.14 73.3875 436.14C73.908 436.313 74.255 435.793 74.255 435.272ZM70.7848 435.272C70.7848 434.751 70.4378 434.404 69.9172 434.404C69.3967 434.404 69.0497 434.751 69.0497 435.272C69.0497 435.793 69.3967 436.14 69.9172 436.14C70.2643 436.313 70.7848 435.793 70.7848 435.272ZM67.1411 435.272C67.1411 434.751 66.794 434.404 66.2735 434.404C65.753 434.404 65.4059 434.751 65.4059 435.272C65.4059 435.793 65.753 436.14 66.2735 436.14C66.794 436.313 67.1411 435.793 67.1411 435.272ZM63.6708 435.272C63.6708 434.751 63.3238 434.404 62.8033 434.404C62.2827 434.404 61.9357 434.751 61.9357 435.272C61.9357 435.793 62.2827 436.14 62.8033 436.14C63.1503 436.313 63.6708 435.793 63.6708 435.272ZM60.0271 435.272C60.0271 434.751 59.6801 434.404 59.1595 434.404C58.639 434.404 58.292 434.751 58.292 435.272C58.292 435.793 58.639 436.14 59.1595 436.14C59.6801 436.313 60.0271 435.793 60.0271 435.272ZM56.3834 435.272C56.3834 434.751 56.0363 434.404 55.5158 434.404C54.9953 434.404 54.6482 434.751 54.6482 435.272C54.6482 435.793 54.9953 436.14 55.5158 436.14C56.0363 436.14 56.3834 435.793 56.3834 435.272ZM52.9131 435.272C52.9131 434.751 52.5661 434.404 52.0456 434.404C51.525 434.404 51.178 434.751 51.178 435.272C51.178 435.793 51.525 436.14 52.0456 436.14C52.3926 436.313 52.9131 435.793 52.9131 435.272ZM49.2694 435.272C49.2694 434.751 48.9224 434.404 48.4018 434.404C47.8813 434.404 47.5343 434.751 47.5343 435.272C47.5343 435.793 47.8813 436.14 48.4018 436.14C48.9224 436.313 49.2694 435.793 49.2694 435.272ZM45.7992 435.272C45.7992 434.751 45.4522 434.404 44.9316 434.404C44.4111 434.404 44.0641 434.751 44.0641 435.272C44.0641 435.793 44.4111 436.14 44.9316 436.14C45.4522 436.14 45.7992 435.793 45.7992 435.272ZM42.1554 435.272C42.1554 434.751 41.8084 434.404 41.2879 434.404C40.7673 434.404 40.4203 434.751 40.4203 435.272C40.4203 435.793 40.7673 436.14 41.2879 436.14C41.8084 436.313 42.1554 435.793 42.1554 435.272Z" fill="#AFCD58"/>
<path d="M85.0127 435.272C85.0127 435.446 85.0127 435.446 85.0127 435.619C85.0127 435.793 84.8392 435.793 84.8392 435.966C84.6657 436.14 84.4922 436.14 84.1451 436.14H83.9716H83.7981H83.6246C83.6246 436.14 83.4511 436.14 83.4511 435.966C83.2776 435.793 83.1041 435.446 83.2776 435.099V434.925V434.751C83.2776 434.751 83.2776 434.578 83.4511 434.578C83.4511 434.578 83.4511 434.578 83.6246 434.404H83.7981H83.9716H84.1451C84.3187 434.404 84.6657 434.578 84.8392 434.751C84.8392 434.751 84.8392 434.751 85.0127 434.925V435.099C85.0127 435.099 85.0127 435.098 85.0127 435.272Z" fill="#434345"/>
<path d="M116.592 433.884C116.592 433.363 116.071 433.016 115.724 433.016C115.204 433.016 114.857 433.363 114.857 433.884V434.058C114.857 434.578 115.377 434.925 115.898 434.925C116.245 434.752 116.592 434.231 116.592 433.884ZM116.592 437.529C116.592 437.008 116.245 436.487 115.898 436.487H115.724C115.377 436.487 114.857 436.834 114.857 437.181C114.857 437.181 114.857 437.181 114.857 437.355C114.857 437.702 115.204 438.223 115.551 438.223C116.071 438.396 116.418 438.049 116.592 437.529ZM115.204 431.281C115.551 431.107 115.724 430.76 115.724 430.413C115.724 430.239 115.724 430.239 115.724 430.066C115.551 429.719 115.204 429.545 114.857 429.545C114.683 429.545 114.683 429.545 114.51 429.545C114.163 429.719 113.989 430.066 113.989 430.413C113.989 430.587 113.989 430.587 113.989 430.76C114.163 431.107 114.683 431.454 115.204 431.281ZM115.551 441.173C115.551 441 115.551 441 115.551 440.826C115.551 440.479 115.377 440.132 115.03 439.958C114.857 439.958 114.857 439.958 114.683 439.958C114.336 439.958 113.989 440.132 113.816 440.479C113.816 440.652 113.816 440.652 113.816 440.826C113.816 441.173 113.989 441.52 114.336 441.694C114.857 441.867 115.377 441.694 115.551 441.173ZM113.816 427.983C113.989 427.81 114.163 427.463 114.163 427.289C114.163 427.116 114.163 426.942 113.989 426.768C113.816 426.595 113.469 426.421 113.295 426.421C113.122 426.421 112.948 426.421 112.775 426.595C112.601 426.768 112.428 427.116 112.428 427.289C112.428 427.463 112.428 427.636 112.601 427.81C112.775 428.157 113.469 428.33 113.816 427.983ZM113.642 444.471C113.816 444.297 113.816 444.123 113.816 443.95C113.816 443.603 113.642 443.429 113.469 443.256C113.295 443.082 113.122 443.082 112.948 443.082C112.601 443.082 112.428 443.256 112.254 443.429C112.081 443.603 112.081 443.776 112.081 443.95C112.081 444.297 112.254 444.471 112.428 444.644C112.948 444.991 113.469 444.818 113.642 444.471ZM111.56 425.206C111.733 425.033 111.733 424.859 111.733 424.686C111.733 424.512 111.56 424.165 111.386 423.992C111.213 423.818 111.039 423.818 110.866 423.818C110.692 423.818 110.345 423.992 110.172 424.165C109.998 424.339 109.998 424.512 109.998 424.686C109.998 424.859 110.172 425.207 110.345 425.38C110.692 425.554 111.386 425.554 111.56 425.206ZM111.213 447.247C111.386 447.074 111.56 446.9 111.56 446.553C111.56 446.38 111.56 446.206 111.386 446.032C111.213 445.859 111.039 445.685 110.692 445.685C110.519 445.685 110.345 445.685 110.172 445.859C109.998 446.032 109.825 446.206 109.825 446.553C109.825 446.727 109.825 446.9 109.998 447.074C110.172 447.421 110.692 447.421 111.213 447.247ZM108.957 422.95C108.957 422.777 109.131 422.603 109.131 422.603C109.131 422.256 108.957 421.909 108.61 421.909C108.437 421.909 108.263 421.735 108.263 421.735C107.916 421.735 107.569 421.909 107.396 422.256C107.396 422.43 107.222 422.603 107.222 422.603C107.222 422.95 107.396 423.297 107.743 423.471C108.09 423.471 108.61 423.471 108.957 422.95ZM107.916 449.156C108.263 448.983 108.437 448.636 108.437 448.289C108.437 448.115 108.437 447.942 108.263 447.942C108.09 447.594 107.743 447.421 107.396 447.421C107.222 447.421 107.222 447.421 107.049 447.594C106.702 447.768 106.528 448.115 106.528 448.462C106.528 448.636 106.528 448.636 106.702 448.809C107.049 449.156 107.569 449.503 107.916 449.156ZM105.661 421.388V421.215C105.661 420.868 105.314 420.521 104.967 420.347H104.793C104.446 420.347 104.099 420.694 103.925 421.041V421.215C103.925 421.562 104.273 421.909 104.62 422.083C105.14 422.256 105.487 421.909 105.661 421.388ZM104.446 450.371C104.793 450.371 105.14 449.851 105.14 449.503V449.33C105.14 448.983 104.62 448.636 104.273 448.636H104.099C103.752 448.636 103.405 448.983 103.405 449.503V449.677C103.405 450.198 103.925 450.545 104.446 450.371ZM102.19 420.868C102.19 420.347 101.843 420 101.323 420C100.802 420 100.455 420.347 100.455 420.868C100.455 421.388 100.802 421.735 101.323 421.735C101.843 421.735 102.19 421.388 102.19 420.868ZM101.67 449.851C101.67 449.33 101.323 448.983 100.802 448.983C100.282 448.983 99.9347 449.33 99.9347 449.851C99.9347 450.371 100.282 450.718 100.802 450.718C101.149 450.718 101.67 450.371 101.67 449.851ZM99.7612 421.041C99.5877 420.521 99.2407 420.174 98.8937 420.174C98.8937 420.174 98.8937 420.174 98.7201 420.174C98.3731 420.174 98.0261 420.694 98.0261 421.041V421.215C98.0261 421.736 98.5466 422.083 99.0672 421.909C99.4142 421.909 99.7612 421.388 99.7612 421.041ZM98.0261 449.503V449.33C98.0261 448.983 97.8526 448.636 97.3321 448.462H97.1585C96.8115 448.462 96.4645 448.809 96.291 449.156V449.33C96.291 449.677 96.4645 450.024 96.985 450.198C97.5056 450.198 97.8526 450.024 98.0261 449.503ZM95.7705 422.95C96.1175 422.777 96.291 422.43 96.291 422.083C96.291 421.909 96.291 421.909 96.291 421.735C96.1175 421.388 95.7705 421.215 95.4234 421.215C95.2499 421.215 95.2499 421.215 95.0764 421.215C94.7294 421.388 94.5559 421.736 94.5559 422.083C94.5559 422.256 94.5559 422.256 94.7294 422.43C94.9029 422.777 95.4234 423.124 95.7705 422.95ZM94.7294 448.289C94.9029 448.115 94.9029 447.942 94.9029 447.768C94.9029 447.421 94.7294 447.247 94.5559 447.074C94.3824 446.9 94.2089 446.9 94.0353 446.9C93.6883 446.9 93.5148 447.074 93.3413 447.421C93.1678 447.594 93.1678 447.768 93.1678 447.768C93.1678 448.115 93.3413 448.289 93.5148 448.462C94.0353 448.983 94.5559 448.809 94.7294 448.289ZM92.9943 424.512C93.1678 424.339 93.3413 423.992 93.3413 423.818C93.3413 423.645 93.3413 423.471 93.1678 423.297C92.9943 423.124 92.8208 422.95 92.4737 422.95C92.3002 422.95 92.1267 422.95 91.9532 423.124C91.7797 423.297 91.6062 423.471 91.6062 423.818C91.6062 423.992 91.6062 424.165 91.7797 424.339C91.9532 424.859 92.6473 424.859 92.9943 424.512ZM91.7797 446.38C91.9532 446.206 91.9532 446.032 91.9532 445.685C91.9532 445.512 91.7797 445.165 91.6062 444.991C91.4327 444.818 91.2592 444.818 90.9121 444.818C90.7386 444.818 90.3916 444.991 90.2181 445.165C90.0446 445.338 90.0446 445.512 90.0446 445.859C90.0446 446.032 90.2181 446.38 90.3916 446.553C90.9121 446.727 91.4327 446.727 91.7797 446.38ZM90.5651 426.942C90.7386 426.768 90.7386 426.595 90.7386 426.421C90.7386 426.074 90.5651 425.901 90.3916 425.727C90.2181 425.554 90.0446 425.554 89.8711 425.554C89.5241 425.554 89.3505 425.727 89.177 425.901C89.0035 426.074 89.0035 426.248 89.0035 426.421C89.0035 426.768 89.177 426.942 89.3505 427.116C89.6976 427.289 90.3916 427.289 90.5651 426.942ZM89.3505 443.776C89.6976 443.603 89.6976 443.256 89.6976 443.082C89.6976 442.909 89.6976 442.735 89.5241 442.561C89.3505 442.214 89.0035 442.214 88.83 442.214C88.6565 442.214 88.483 442.214 88.3095 442.388C87.9625 442.561 87.9625 442.909 87.9625 443.082C87.9625 443.256 87.9625 443.429 88.136 443.603C88.483 443.776 89.0035 443.95 89.3505 443.776ZM88.83 429.719C88.83 429.545 88.83 429.545 88.83 429.372C88.83 429.025 88.6565 428.678 88.3095 428.504C88.136 428.504 88.136 428.33 87.9625 428.33C87.6154 428.33 87.2684 428.504 87.0949 428.851C87.0949 429.025 87.0949 429.025 87.0949 429.198C87.0949 429.545 87.2684 429.892 87.6154 430.066C88.136 430.413 88.6565 430.239 88.83 429.719ZM87.7889 440.652C88.136 440.479 88.483 440.132 88.483 439.785C88.483 439.611 88.483 439.611 88.483 439.611C88.3095 439.264 87.9625 438.917 87.6154 438.917C87.6154 438.917 87.4419 438.917 87.2684 438.917C86.9214 439.09 86.5744 439.438 86.5744 439.785C86.5744 439.958 86.5744 439.958 86.5744 440.132C86.7479 440.479 87.2684 440.826 87.7889 440.652ZM87.9625 432.843C87.9625 432.322 87.6154 431.801 87.2684 431.801H87.0949C86.7479 431.801 86.2273 432.149 86.2273 432.496V432.669C86.2273 433.016 86.5744 433.537 86.9214 433.537C87.2684 433.71 87.7889 433.363 87.9625 432.843ZM87.6154 436.314C87.6154 435.793 87.2684 435.446 86.7479 435.446C86.2273 435.446 85.8803 435.793 85.8803 436.314C85.8803 436.834 86.4009 437.181 86.7479 437.181C87.2684 437.181 87.6154 436.834 87.6154 436.314Z" fill="#AFCD58"/>
<path d="M25.5872 461.482C38.702 461.482 49.3336 450.853 49.3336 437.741C49.3336 424.629 38.702 414 25.5872 414C12.4724 414 1.84082 424.629 1.84082 437.741C1.84082 450.853 12.4724 461.482 25.5872 461.482Z" fill="#AFCD58"/>
<path d="M36.6298 452.126C43.1891 445.568 43.1891 434.936 36.6298 428.378C30.0706 421.82 19.4359 421.82 12.8766 428.378C6.31734 434.936 6.31734 445.568 12.8766 452.126C19.4359 458.684 30.0706 458.684 36.6298 452.126Z" fill="#BCBEC0"/>
<path d="M37.4572 449.644C44.0165 443.086 44.0165 432.453 37.4572 425.896C30.898 419.338 20.2633 419.338 13.704 425.896C7.14473 432.453 7.14473 443.086 13.704 449.644C20.2633 456.201 30.898 456.201 37.4572 449.644Z" fill="white"/>
<path d="M31.24 439.978V442.354H29.188V445H26.344V442.354H19.558V440.392L25.498 432.4H28.558L23.05 439.978H26.434V437.62H29.188V439.978H31.24Z" fill="#03123B"/>
<path d="M90.4326 581.273C90.4326 586.737 94.8606 591.166 100.323 591.166C105.785 591.166 110.213 586.737 110.213 581.273C110.213 575.81 105.785 571.381 100.323 571.381C94.8606 571.381 90.4326 575.81 90.4326 581.273Z" fill="#AD59F0"/>
<path d="M37.5117 581.272C37.5117 581.446 37.5117 581.446 37.5117 581.272C37.5117 581.446 37.5117 581.619 37.5117 581.619V581.793C37.5117 581.793 37.5117 581.966 37.3382 581.966C37.3382 581.966 37.3382 581.966 37.1647 582.14H36.9912H36.8177H36.6442C36.4707 582.14 36.1236 581.966 35.9501 581.966C35.6031 581.619 35.6031 581.098 35.9501 580.751C36.1236 580.578 36.2971 580.404 36.6442 580.404C36.8177 580.404 37.1647 580.578 37.3382 580.751C37.3382 580.751 37.3382 580.751 37.5117 580.925V581.099C37.5117 581.099 37.5117 581.098 37.5117 581.272Z" fill="#434345"/>
<path d="M80.5425 581.272C80.5425 580.751 80.1955 580.404 79.6749 580.404C79.1544 580.404 78.8074 580.751 78.8074 581.272C78.8074 581.793 79.1544 582.14 79.6749 582.14C80.0219 582.313 80.5425 581.793 80.5425 581.272ZM76.8987 581.272C76.8987 580.751 76.5517 580.404 76.0312 580.404C75.5107 580.404 75.1636 580.751 75.1636 581.272C75.1636 581.793 75.5107 582.14 76.0312 582.14C76.5517 582.313 76.8987 581.793 76.8987 581.272ZM73.255 581.272C73.255 580.751 72.908 580.404 72.3875 580.404C71.8669 580.404 71.5199 580.751 71.5199 581.272C71.5199 581.793 71.8669 582.14 72.3875 582.14C72.908 582.313 73.255 581.793 73.255 581.272ZM69.7848 581.272C69.7848 580.751 69.4378 580.404 68.9172 580.404C68.3967 580.404 68.0497 580.751 68.0497 581.272C68.0497 581.793 68.3967 582.14 68.9172 582.14C69.2643 582.313 69.7848 581.793 69.7848 581.272ZM66.1411 581.272C66.1411 580.751 65.794 580.404 65.2735 580.404C64.753 580.404 64.4059 580.751 64.4059 581.272C64.4059 581.793 64.753 582.14 65.2735 582.14C65.794 582.313 66.1411 581.793 66.1411 581.272ZM62.6708 581.272C62.6708 580.751 62.3238 580.404 61.8033 580.404C61.2827 580.404 60.9357 580.751 60.9357 581.272C60.9357 581.793 61.2827 582.14 61.8033 582.14C62.1503 582.313 62.6708 581.793 62.6708 581.272ZM59.0271 581.272C59.0271 580.751 58.6801 580.404 58.1595 580.404C57.639 580.404 57.292 580.751 57.292 581.272C57.292 581.793 57.639 582.14 58.1595 582.14C58.6801 582.313 59.0271 581.793 59.0271 581.272ZM55.3834 581.272C55.3834 580.751 55.0363 580.404 54.5158 580.404C53.9953 580.404 53.6482 580.751 53.6482 581.272C53.6482 581.793 53.9953 582.14 54.5158 582.14C55.0363 582.14 55.3834 581.793 55.3834 581.272ZM51.9131 581.272C51.9131 580.751 51.5661 580.404 51.0456 580.404C50.525 580.404 50.178 580.751 50.178 581.272C50.178 581.793 50.525 582.14 51.0456 582.14C51.3926 582.313 51.9131 581.793 51.9131 581.272ZM48.2694 581.272C48.2694 580.751 47.9224 580.404 47.4018 580.404C46.8813 580.404 46.5343 580.751 46.5343 581.272C46.5343 581.793 46.8813 582.14 47.4018 582.14C47.9224 582.313 48.2694 581.793 48.2694 581.272ZM44.7992 581.272C44.7992 580.751 44.4522 580.404 43.9316 580.404C43.4111 580.404 43.0641 580.751 43.0641 581.272C43.0641 581.793 43.4111 582.14 43.9316 582.14C44.4522 582.14 44.7992 581.793 44.7992 581.272ZM41.1554 581.272C41.1554 580.751 40.8084 580.404 40.2879 580.404C39.7673 580.404 39.4203 580.751 39.4203 581.272C39.4203 581.793 39.7673 582.14 40.2879 582.14C40.8084 582.313 41.1554 581.793 41.1554 581.272Z" fill="#AD59F0"/>
<path d="M84.0127 581.272C84.0127 581.446 84.0127 581.446 84.0127 581.619C84.0127 581.793 83.8392 581.793 83.8392 581.966C83.6657 582.14 83.4922 582.14 83.1451 582.14H82.9716H82.7981H82.6246C82.6246 582.14 82.4511 582.14 82.4511 581.966C82.2776 581.793 82.1041 581.446 82.2776 581.099V580.925V580.751C82.2776 580.751 82.2776 580.578 82.4511 580.578C82.4511 580.578 82.4511 580.578 82.6246 580.404H82.7981H82.9716H83.1451C83.3187 580.404 83.6657 580.578 83.8392 580.751C83.8392 580.751 83.8392 580.751 84.0127 580.925V581.099C84.0127 581.099 84.0127 581.098 84.0127 581.272Z" fill="#434345"/>
<path d="M115.592 579.884C115.592 579.363 115.071 579.016 114.724 579.016C114.204 579.016 113.857 579.363 113.857 579.884V580.058C113.857 580.578 114.377 580.925 114.898 580.925C115.245 580.752 115.592 580.231 115.592 579.884ZM115.592 583.529C115.592 583.008 115.245 582.487 114.898 582.487H114.724C114.377 582.487 113.857 582.834 113.857 583.181C113.857 583.181 113.857 583.181 113.857 583.355C113.857 583.702 114.204 584.223 114.551 584.223C115.071 584.396 115.418 584.049 115.592 583.529ZM114.204 577.281C114.551 577.107 114.724 576.76 114.724 576.413C114.724 576.239 114.724 576.239 114.724 576.066C114.551 575.719 114.204 575.545 113.857 575.545C113.683 575.545 113.683 575.545 113.51 575.545C113.163 575.719 112.989 576.066 112.989 576.413C112.989 576.587 112.989 576.587 112.989 576.76C113.163 577.107 113.683 577.454 114.204 577.281ZM114.551 587.173C114.551 587 114.551 587 114.551 586.826C114.551 586.479 114.377 586.132 114.03 585.958C113.857 585.958 113.857 585.958 113.683 585.958C113.336 585.958 112.989 586.132 112.816 586.479C112.816 586.652 112.816 586.652 112.816 586.826C112.816 587.173 112.989 587.52 113.336 587.694C113.857 587.867 114.377 587.694 114.551 587.173ZM112.816 573.983C112.989 573.81 113.163 573.463 113.163 573.289C113.163 573.116 113.163 572.942 112.989 572.768C112.816 572.595 112.469 572.421 112.295 572.421C112.122 572.421 111.948 572.421 111.775 572.595C111.601 572.768 111.428 573.116 111.428 573.289C111.428 573.463 111.428 573.636 111.601 573.81C111.775 574.157 112.469 574.33 112.816 573.983ZM112.642 590.471C112.816 590.297 112.816 590.123 112.816 589.95C112.816 589.603 112.642 589.429 112.469 589.256C112.295 589.082 112.122 589.082 111.948 589.082C111.601 589.082 111.428 589.256 111.254 589.429C111.081 589.603 111.081 589.776 111.081 589.95C111.081 590.297 111.254 590.471 111.428 590.644C111.948 590.991 112.469 590.818 112.642 590.471ZM110.56 571.206C110.733 571.033 110.733 570.859 110.733 570.686C110.733 570.512 110.56 570.165 110.386 569.992C110.213 569.818 110.039 569.818 109.866 569.818C109.692 569.818 109.345 569.992 109.172 570.165C108.998 570.339 108.998 570.512 108.998 570.686C108.998 570.859 109.172 571.207 109.345 571.38C109.692 571.554 110.386 571.554 110.56 571.206ZM110.213 593.247C110.386 593.074 110.56 592.9 110.56 592.553C110.56 592.38 110.56 592.206 110.386 592.032C110.213 591.859 110.039 591.685 109.692 591.685C109.519 591.685 109.345 591.685 109.172 591.859C108.998 592.032 108.825 592.206 108.825 592.553C108.825 592.727 108.825 592.9 108.998 593.074C109.172 593.421 109.692 593.421 110.213 593.247ZM107.957 568.95C107.957 568.777 108.131 568.603 108.131 568.603C108.131 568.256 107.957 567.909 107.61 567.909C107.437 567.909 107.263 567.735 107.263 567.735C106.916 567.735 106.569 567.909 106.396 568.256C106.396 568.43 106.222 568.603 106.222 568.603C106.222 568.95 106.396 569.297 106.743 569.471C107.09 569.471 107.61 569.471 107.957 568.95ZM106.916 595.156C107.263 594.983 107.437 594.636 107.437 594.289C107.437 594.115 107.437 593.942 107.263 593.942C107.09 593.594 106.743 593.421 106.396 593.421C106.222 593.421 106.222 593.421 106.049 593.594C105.702 593.768 105.528 594.115 105.528 594.462C105.528 594.636 105.528 594.636 105.702 594.809C106.049 595.156 106.569 595.503 106.916 595.156ZM104.661 567.388V567.215C104.661 566.868 104.314 566.521 103.967 566.347H103.793C103.446 566.347 103.099 566.694 102.925 567.041V567.215C102.925 567.562 103.273 567.909 103.62 568.083C104.14 568.256 104.487 567.909 104.661 567.388ZM103.446 596.371C103.793 596.371 104.14 595.851 104.14 595.503V595.33C104.14 594.983 103.62 594.636 103.273 594.636H103.099C102.752 594.636 102.405 594.983 102.405 595.503V595.677C102.405 596.198 102.925 596.545 103.446 596.371ZM101.19 566.868C101.19 566.347 100.843 566 100.323 566C99.8023 566 99.4553 566.347 99.4553 566.868C99.4553 567.388 99.8023 567.735 100.323 567.735C100.843 567.735 101.19 567.388 101.19 566.868ZM100.67 595.851C100.67 595.33 100.323 594.983 99.8023 594.983C99.2817 594.983 98.9347 595.33 98.9347 595.851C98.9347 596.371 99.2817 596.718 99.8023 596.718C100.149 596.718 100.67 596.371 100.67 595.851ZM98.7612 567.041C98.5877 566.521 98.2407 566.174 97.8937 566.174C97.8937 566.174 97.8937 566.174 97.7201 566.174C97.3731 566.174 97.0261 566.694 97.0261 567.041V567.215C97.0261 567.736 97.5466 568.083 98.0672 567.909C98.4142 567.909 98.7612 567.388 98.7612 567.041ZM97.0261 595.503V595.33C97.0261 594.983 96.8526 594.636 96.3321 594.462H96.1585C95.8115 594.462 95.4645 594.809 95.291 595.156V595.33C95.291 595.677 95.4645 596.024 95.985 596.198C96.5056 596.198 96.8526 596.024 97.0261 595.503ZM94.7705 568.95C95.1175 568.777 95.291 568.43 95.291 568.083C95.291 567.909 95.291 567.909 95.291 567.735C95.1175 567.388 94.7705 567.215 94.4234 567.215C94.2499 567.215 94.2499 567.215 94.0764 567.215C93.7294 567.388 93.5559 567.736 93.5559 568.083C93.5559 568.256 93.5559 568.256 93.7294 568.43C93.9029 568.777 94.4234 569.124 94.7705 568.95ZM93.7294 594.289C93.9029 594.115 93.9029 593.942 93.9029 593.768C93.9029 593.421 93.7294 593.247 93.5559 593.074C93.3824 592.9 93.2089 592.9 93.0353 592.9C92.6883 592.9 92.5148 593.074 92.3413 593.421C92.1678 593.594 92.1678 593.768 92.1678 593.768C92.1678 594.115 92.3413 594.289 92.5148 594.462C93.0353 594.983 93.5559 594.809 93.7294 594.289ZM91.9943 570.512C92.1678 570.339 92.3413 569.992 92.3413 569.818C92.3413 569.645 92.3413 569.471 92.1678 569.297C91.9943 569.124 91.8208 568.95 91.4737 568.95C91.3002 568.95 91.1267 568.95 90.9532 569.124C90.7797 569.297 90.6062 569.471 90.6062 569.818C90.6062 569.992 90.6062 570.165 90.7797 570.339C90.9532 570.859 91.6473 570.859 91.9943 570.512ZM90.7797 592.38C90.9532 592.206 90.9532 592.032 90.9532 591.685C90.9532 591.512 90.7797 591.165 90.6062 590.991C90.4327 590.818 90.2592 590.818 89.9121 590.818C89.7386 590.818 89.3916 590.991 89.2181 591.165C89.0446 591.338 89.0446 591.512 89.0446 591.859C89.0446 592.032 89.2181 592.38 89.3916 592.553C89.9121 592.727 90.4327 592.727 90.7797 592.38ZM89.5651 572.942C89.7386 572.768 89.7386 572.595 89.7386 572.421C89.7386 572.074 89.5651 571.901 89.3916 571.727C89.2181 571.554 89.0446 571.554 88.8711 571.554C88.5241 571.554 88.3505 571.727 88.177 571.901C88.0035 572.074 88.0035 572.248 88.0035 572.421C88.0035 572.768 88.177 572.942 88.3505 573.116C88.6976 573.289 89.3916 573.289 89.5651 572.942ZM88.3505 589.776C88.6976 589.603 88.6976 589.256 88.6976 589.082C88.6976 588.909 88.6976 588.735 88.5241 588.561C88.3505 588.214 88.0035 588.214 87.83 588.214C87.6565 588.214 87.483 588.214 87.3095 588.388C86.9625 588.561 86.9625 588.909 86.9625 589.082C86.9625 589.256 86.9625 589.429 87.136 589.603C87.483 589.776 88.0035 589.95 88.3505 589.776ZM87.83 575.719C87.83 575.545 87.83 575.545 87.83 575.372C87.83 575.025 87.6565 574.678 87.3095 574.504C87.136 574.504 87.136 574.33 86.9625 574.33C86.6154 574.33 86.2684 574.504 86.0949 574.851C86.0949 575.025 86.0949 575.025 86.0949 575.198C86.0949 575.545 86.2684 575.892 86.6154 576.066C87.136 576.413 87.6565 576.239 87.83 575.719ZM86.7889 586.652C87.136 586.479 87.483 586.132 87.483 585.785C87.483 585.611 87.483 585.611 87.483 585.611C87.3095 585.264 86.9625 584.917 86.6154 584.917C86.6154 584.917 86.4419 584.917 86.2684 584.917C85.9214 585.09 85.5744 585.438 85.5744 585.785C85.5744 585.958 85.5744 585.958 85.5744 586.132C85.7479 586.479 86.2684 586.826 86.7889 586.652ZM86.9625 578.843C86.9625 578.322 86.6154 577.801 86.2684 577.801H86.0949C85.7479 577.801 85.2273 578.149 85.2273 578.496V578.669C85.2273 579.016 85.5744 579.537 85.9214 579.537C86.2684 579.71 86.7889 579.363 86.9625 578.843ZM86.6154 582.314C86.6154 581.793 86.2684 581.446 85.7479 581.446C85.2273 581.446 84.8803 581.793 84.8803 582.314C84.8803 582.834 85.4009 583.181 85.7479 583.181C86.2684 583.181 86.6154 582.834 86.6154 582.314Z" fill="#AD59F0"/>
<path d="M24.5872 607.482C37.702 607.482 48.3336 596.853 48.3336 583.741C48.3336 570.629 37.702 560 24.5872 560C11.4724 560 0.84082 570.629 0.84082 583.741C0.84082 596.853 11.4724 607.482 24.5872 607.482Z" fill="#AD59F0"/>
<path d="M35.6298 598.126C42.1891 591.568 42.1891 580.936 35.6298 574.378C29.0706 567.82 18.4359 567.82 11.8766 574.378C5.31734 580.936 5.31734 591.568 11.8766 598.126C18.4359 604.684 29.0706 604.684 35.6298 598.126Z" fill="#BCBEC0"/>
<path d="M36.4572 595.644C43.0165 589.086 43.0165 578.453 36.4572 571.896C29.898 565.338 19.2633 565.338 12.704 571.896C6.14473 578.453 6.14473 589.086 12.704 595.644C19.2633 602.201 29.898 602.201 36.4572 595.644Z" fill="white"/>
<path d="M23.022 583.134C26.748 583.134 28.224 584.808 28.224 587.04C28.224 589.272 26.586 591.216 22.986 591.216C21.24 591.216 19.404 590.73 18.18 589.866L19.332 587.634C20.286 588.354 21.6 588.768 22.914 588.768C24.372 588.768 25.272 588.156 25.272 587.13C25.272 586.14 24.624 585.492 22.338 585.492H19.116L19.764 578.4H27.45V580.74H22.194L21.996 583.134H23.022Z" fill="#03123B"/>
<defs>
<clipPath id="clip0_1231_1620">
<rect width="551" height="24" fill="white" transform="matrix(0 -1 1 0 12 586)"/>
</clipPath>
</defs>
</svg>
