<svg width="24" height="24" viewBox="0 0 24 24" xmlns="http://www.w3.org/2000/svg">
<path d="M21.3056 9.06969C20.8945 9.00998 20.5022 8.85831 20.1579 8.62597C19.8136 8.39364 19.5262 8.08662 19.3169 7.72778C19.1077 7.36894 18.9822 6.96753 18.9496 6.55344C18.917 6.13935 18.9783 5.72325 19.1289 5.33612C19.2246 5.08303 19.2386 4.80633 19.1692 4.54483C19.0997 4.28332 18.9501 4.05012 18.7414 3.87791C17.82 3.10419 16.7712 2.49638 15.6418 2.08157C15.3847 1.98603 15.1039 1.9741 14.8395 2.04746C14.5752 2.12082 14.3407 2.27574 14.1695 2.49015C13.9119 2.81958 13.5826 3.08603 13.2067 3.26927C12.8308 3.45252 12.4181 3.54775 11.9998 3.54775C11.5816 3.54775 11.1689 3.45252 10.793 3.26927C10.417 3.08603 10.0878 2.81958 9.83014 2.49015C9.65897 2.27574 9.42451 2.12082 9.16015 2.04746C8.89579 1.9741 8.61502 1.98603 8.35784 2.08157C7.31503 2.46453 6.34002 3.01149 5.46961 3.7018C5.2502 3.87549 5.09217 4.11486 5.01865 4.38487C4.94512 4.65487 4.95998 4.94132 5.06103 5.20227C5.22358 5.59964 5.29074 6.02958 5.25713 6.4576C5.22351 6.88561 5.09005 7.29979 4.86744 7.66691C4.64484 8.03403 4.3393 8.34387 3.97533 8.57158C3.61135 8.79928 3.19908 8.93852 2.77157 8.97811C2.49402 9.00779 2.23334 9.12579 2.02789 9.31475C1.82245 9.50371 1.6831 9.75364 1.63037 10.0277C1.4992 10.677 1.43312 11.3378 1.43312 12.0002C1.43216 12.5548 1.47692 13.1084 1.56697 13.6556C1.61178 13.9385 1.74853 14.1988 1.95609 14.3961C2.16364 14.5935 2.43043 14.717 2.71522 14.7475C3.15211 14.7885 3.57283 14.9336 3.94216 15.1706C4.31148 15.4075 4.61868 15.7295 4.83802 16.1096C5.05737 16.4896 5.18248 16.9167 5.2029 17.3551C5.22331 17.7934 5.13843 18.2302 4.95536 18.629C4.83555 18.8885 4.80583 19.1804 4.87092 19.4587C4.93601 19.7369 5.09218 19.9854 5.31463 20.1647C6.23049 20.9244 7.26917 21.5224 8.38602 21.9329C8.52884 21.9824 8.67869 22.0085 8.82982 22.0104C9.03705 22.0099 9.24115 21.9598 9.42501 21.8642C9.60886 21.7686 9.76711 21.6303 9.8865 21.4609C10.1376 21.0951 10.4741 20.7961 10.867 20.5899C11.2598 20.3836 11.697 20.2764 12.1407 20.2775C12.5706 20.278 12.9944 20.3789 13.3785 20.5721C13.7625 20.7654 14.0961 21.0456 14.3527 21.3905C14.5234 21.6199 14.7652 21.7865 15.0404 21.8642C15.3156 21.9419 15.6088 21.9265 15.8743 21.8202C16.8955 21.4092 17.8463 20.8411 18.6921 20.1366C18.9046 19.9609 19.0559 19.7224 19.1242 19.4553C19.1926 19.1882 19.1745 18.9063 19.0725 18.6502C18.9068 18.2579 18.8346 17.8325 18.8615 17.4076C18.8884 16.9826 19.0137 16.5697 19.2275 16.2015C19.4413 15.8333 19.7378 15.5198 20.0936 15.2858C20.4493 15.0518 20.8546 14.9037 21.2774 14.8532C21.5516 14.8153 21.8066 14.6911 22.0054 14.4986C22.2042 14.3061 22.3366 14.0552 22.3834 13.7824C22.4965 13.1949 22.5578 12.5985 22.5666 12.0002C22.5667 11.3691 22.5077 10.7394 22.3904 10.1193C22.3429 9.85254 22.2125 9.60754 22.0177 9.41912C21.823 9.23069 21.5738 9.10843 21.3056 9.06969ZM15.5221 12.0002C15.5221 12.6968 15.3155 13.3778 14.9285 13.957C14.5414 14.5363 13.9913 14.9877 13.3477 15.2543C12.7041 15.5209 11.9959 15.5907 11.3127 15.4548C10.6294 15.3188 10.0018 14.9834 9.50924 14.4908C9.01665 13.9982 8.68118 13.3706 8.54528 12.6873C8.40937 12.0041 8.47912 11.2959 8.74571 10.6523C9.0123 10.0087 9.46376 9.45859 10.043 9.07156C10.6222 8.68453 11.3032 8.47795 11.9998 8.47795C12.934 8.47795 13.8299 8.84905 14.4904 9.50959C15.151 10.1701 15.5221 11.066 15.5221 12.0002Z" />
</svg>
