<svg width="26" height="26" viewBox="0 0 26 26" fill="none" xmlns="http://www.w3.org/2000/svg">
<path d="M19.5 13C17.5503 13 15.8057 13.8622 14.6146 15.2217L10.4887 12.6824C10.7 12.1026 10.8335 11.4858 10.8335 10.8332C10.8335 10.4068 10.7724 9.99661 10.6792 9.59753L16.1635 7.06678C16.9578 8.03594 18.149 8.66646 19.5003 8.66646C21.8923 8.66646 23.8335 6.72623 23.8335 4.33323C23.8335 1.94022 21.892 0 19.5 0C17.106 0 15.1668 1.94022 15.1668 4.33323C15.1668 4.59748 15.1996 4.85259 15.2438 5.10447L9.76587 7.63299C8.77887 6.29459 7.20561 5.41646 5.41677 5.41646C2.4248 5.41677 0 7.84126 0 10.8332C0 13.8252 2.4248 16.25 5.41677 16.25C6.97385 16.25 8.36843 15.5834 9.35645 14.5298L13.4761 17.0648C13.1713 17.8178 13 18.6378 13 19.5C13 23.0906 15.9094 26 19.5 26C23.0886 26 26 23.0906 26 19.5C26 15.9094 23.0886 13 19.5 13Z" fill="white"/>
</svg>
