<svg width="24" height="24" viewBox="0 0 24 24" fill="none" xmlns="http://www.w3.org/2000/svg">
<g clip-path="url(#clip0_3059_5677)">
<path d="M11.9928 24.0304C18.6109 24.0304 23.9759 18.651 23.9759 12.0152C23.9759 5.37938 18.6109 0 11.9928 0C5.37476 0 0.00976562 5.37938 0.00976562 12.0152C0.00976562 18.651 5.37476 24.0304 11.9928 24.0304Z" fill="#D8D9D8"/>
<path d="M13.6184 10.6372H6.02464C5.43427 10.6372 4.94965 10.1513 4.94965 9.55933C5.04719 8.68632 5.48561 8.33321 6.08214 8.33321H11.3452C12.0424 8.33321 12.6584 7.81537 12.6995 7.11532C12.7323 6.38335 12.1502 5.76566 11.4191 5.76566H5.84394C5.22892 5.76566 4.76894 5.24782 4.77716 4.63013C4.78743 3.88375 5.28437 3.46166 5.84394 3.46166H11.6779C12.3668 3.46166 12.9828 2.94382 13.0239 2.25201C13.0568 1.5118 12.4746 0.902344 11.7436 0.902344H7.47132C3.11487 2.70292 0.0449219 6.99796 0.0449219 12.0157C0.0449219 17.0334 3.11487 21.3274 7.47235 23.126H12.8966C13.5855 23.126 14.2016 22.6081 14.2427 21.9163C14.2755 21.1761 13.6934 20.5677 12.9623 20.5677L6.79162 20.5666C6.06366 20.5666 5.47739 19.9562 5.51641 19.217C5.55234 18.5252 6.17249 18.0053 6.86349 18.0053H9.25579C9.9437 17.9857 10.4992 17.4205 10.4992 16.7256C10.4992 16.0184 9.92522 15.4418 9.21883 15.4418H5.59239C5.00201 15.4418 4.51739 14.9569 4.52561 14.364C4.52561 13.5682 4.98456 13.1955 5.53489 13.1955H13.5445C14.2416 13.1955 14.8577 12.6777 14.8987 11.9858C14.9316 11.2467 14.3484 10.6372 13.6184 10.6372Z" fill="#E5E5E5"/>
<path d="M11.9932 20.5919C7.27637 20.5919 3.43945 16.7436 3.43945 12.0152C3.43945 7.28671 7.27637 3.43848 11.9932 3.43848C16.71 3.43848 20.547 7.28671 20.547 12.0152C20.547 16.7436 16.71 20.5919 11.9932 20.5919Z" fill="#F3F3F3"/>
<path opacity="0.5" d="M20.5467 12.0149C20.5467 7.45217 16.9716 3.72026 12.4837 3.46289H11.687C11.1613 3.46289 10.6921 3.85822 10.6602 4.38531C10.6356 4.94948 11.0791 5.4148 11.6367 5.4148L16.3432 5.41583C16.8987 5.41583 17.3453 5.88116 17.3155 6.44532C17.2878 6.97345 16.8155 7.36981 16.2878 7.36981H14.4633C13.9386 7.38525 13.5146 7.81558 13.5146 8.34576C13.5146 8.88522 13.953 9.32481 14.491 9.32481H17.257C17.7078 9.32481 18.0764 9.69543 18.0702 10.1463V10.2143C18.101 10.6601 17.7447 11.0358 17.3001 11.0358H11.1921C10.6602 11.0358 10.191 11.4311 10.1592 11.9582C10.1345 12.5224 10.5781 12.9877 11.1356 12.9877H16.9264C17.3772 12.9877 17.7457 13.3584 17.7457 13.8093L17.7396 13.8659V13.8782C17.7457 14.3549 17.3576 14.744 16.8823 14.744H12.8677C12.3359 14.744 11.8666 15.1394 11.8348 15.6726C11.8102 16.2306 12.2537 16.7021 12.8112 16.7021H17.063C17.5322 16.7021 17.8823 17.0975 17.8761 17.5679C17.8761 17.5741 17.8761 17.5741 17.8761 17.5803C17.8761 17.5865 17.8761 17.5865 17.8761 17.5926C17.8823 18.0631 17.5322 18.4585 17.063 18.4585H12.6141C12.0884 18.4585 11.6192 18.8538 11.5874 19.3809C11.5627 19.9461 12.0063 20.4104 12.5638 20.4104H13.7374C17.6215 19.5991 20.5467 16.1431 20.5467 12.0149Z" fill="white"/>
<path d="M17.9632 10.1155H13.8029L12.5164 6.14782C12.3511 5.63823 11.6313 5.63823 11.466 6.14782L10.1805 10.1155H6.0202C5.48527 10.1155 5.26246 10.8022 5.69575 11.1172L9.06139 13.5694L7.77592 17.5371C7.61061 18.0467 8.19277 18.4708 8.62606 18.1558L11.9917 15.7036L15.3574 18.1558C15.7906 18.4708 16.3728 18.0467 16.2075 17.5371L14.922 13.5694L18.2877 11.1172C18.7199 10.8022 18.4981 10.1155 17.9632 10.1155Z" fill="#3789C9"/>
</g>
<defs>
<clipPath id="clip0_3059_5677">
<rect width="24" height="24" fill="white"/>
</clipPath>
</defs>
</svg>
