<svg width="25" height="25" viewBox="0 0 25 25" fill="none" xmlns="http://www.w3.org/2000/svg">
<path fill-rule="evenodd" clip-rule="evenodd" d="M7.24714 15.03C10.2831 15.03 12.7491 17.496 12.7491 20.533C12.7491 21.312 12.2581 21.991 11.3551 22.458C10.3581 22.974 8.80414 23.25 7.24714 23.25C5.68914 23.25 4.13514 22.974 3.13814 22.458C2.23514 21.991 1.74414 21.312 1.74414 20.533C1.74414 17.496 4.21014 15.03 7.24714 15.03ZM7.24714 16.53C5.03814 16.53 3.24414 18.324 3.24414 20.533C3.24414 20.805 3.51114 20.962 3.82714 21.126C4.65514 21.554 5.95314 21.75 7.24714 21.75C8.54014 21.75 9.83814 21.554 10.6661 21.126C10.9821 20.962 11.2491 20.805 11.2491 20.533C11.2491 18.324 9.45614 16.53 7.24714 16.53Z" fill="white"/>
<path fill-rule="evenodd" clip-rule="evenodd" d="M17.75 7.03027C20.787 7.03027 23.253 9.49627 23.253 12.5333C23.253 13.3123 22.762 13.9913 21.859 14.4583C20.862 14.9743 19.308 15.2503 17.75 15.2503C16.193 15.2503 14.639 14.9743 13.642 14.4583C12.739 13.9913 12.248 13.3123 12.248 12.5333C12.248 9.49627 14.714 7.03027 17.75 7.03027ZM17.75 8.53027C15.541 8.53027 13.748 10.3243 13.748 12.5333C13.748 12.8053 14.015 12.9623 14.331 13.1263C15.159 13.5543 16.457 13.7503 17.75 13.7503C19.044 13.7503 20.342 13.5543 21.17 13.1263C21.486 12.9623 21.753 12.8053 21.753 12.5333C21.753 10.3243 19.959 8.53027 17.75 8.53027Z" fill="white"/>
<path fill-rule="evenodd" clip-rule="evenodd" d="M7.24647 9.75C9.11747 9.75 10.6365 11.269 10.6365 13.14C10.6365 15.011 9.11747 16.53 7.24647 16.53C5.37547 16.53 3.85547 15.011 3.85547 13.14C3.85547 11.269 5.37547 9.75 7.24647 9.75ZM7.24647 11.25C6.20247 11.25 5.35547 12.097 5.35547 13.14C5.35547 14.183 6.20247 15.03 7.24647 15.03C8.28947 15.03 9.13647 14.183 9.13647 13.14C9.13647 12.097 8.28947 11.25 7.24647 11.25Z" fill="white"/>
<path fill-rule="evenodd" clip-rule="evenodd" d="M17.7513 1.75C19.6223 1.75 21.1423 3.269 21.1423 5.14C21.1423 7.011 19.6223 8.53 17.7513 8.53C15.8803 8.53 14.3613 7.011 14.3613 5.14C14.3613 3.269 15.8803 1.75 17.7513 1.75ZM17.7513 3.25C16.7083 3.25 15.8613 4.097 15.8613 5.14C15.8613 6.183 16.7083 7.03 17.7513 7.03C18.7953 7.03 19.6423 6.183 19.6423 5.14C19.6423 4.097 18.7953 3.25 17.7513 3.25Z" fill="white"/>
<path fill-rule="evenodd" clip-rule="evenodd" d="M21.755 17.499C21.755 17.085 22.092 16.75 22.505 16.75C22.919 16.75 23.255 17.087 23.255 17.501L23.252 20.503C23.25 22.02 22.02 23.25 20.502 23.25H15C14.586 23.25 14.25 22.914 14.25 22.5C14.25 22.086 14.586 21.75 15 21.75H20.502C21.192 21.75 21.751 21.191 21.752 20.501L21.755 17.499Z" fill="white"/>
<path fill-rule="evenodd" clip-rule="evenodd" d="M3.24805 7.501C3.24805 7.915 2.91105 8.25 2.49705 8.25C2.08305 8.25 1.74805 7.913 1.74805 7.499L1.75105 4.497C1.75205 2.98 2.98305 1.75 4.50105 1.75H11.998C12.412 1.75 12.748 2.086 12.748 2.5C12.748 2.914 12.412 3.25 11.998 3.25H4.50105C3.81105 3.25 3.25205 3.809 3.25105 4.499L3.24805 7.501Z" fill="white"/>
</svg>
