<svg width="17" height="17" viewBox="0 0 17 17" fill="none" xmlns="http://www.w3.org/2000/svg">
<g clip-path="url(#clip0_4415_2616)">
<path d="M16.5241 6.16564L11.324 5.41004L8.99835 0.697884C8.79494 0.285701 8.20522 0.285501 8.00165 0.697884L5.67611 5.41004L0.476 6.16564C0.0212172 6.23175 -0.161433 6.79248 0.168008 7.11356L3.93082 10.7814L3.0425 15.9605C3.00671 16.169 3.09241 16.3797 3.2636 16.5041C3.43473 16.6284 3.66157 16.6448 3.84884 16.5464L8.5 14.1012C13.5637 16.7633 13.2159 16.6103 13.4097 16.6103C13.7522 16.6103 14.016 16.3015 13.9575 15.9605L13.0692 10.7814L16.8321 7.11356C17.1611 6.79272 16.9792 6.23182 16.5241 6.16564Z" fill="#F7AC16"/>
<path d="M8.50003 0.388184C8.28806 0.388184 8.09509 0.508678 8.00162 0.697969L5.67607 5.41012L0.476 6.16573C0.0212172 6.23183 -0.161433 6.79257 0.168008 7.11364L3.93082 10.7815L3.0425 15.9606C3.00671 16.1691 3.09241 16.3798 3.2636 16.5042C3.43473 16.6285 3.66157 16.6449 3.84884 16.5464L8.5 14.1013H8.50003V0.388184Z" fill="#F2D422"/>
<path d="M0.476 6.16579C0.0212172 6.2319 -0.161433 6.79263 0.168008 7.11371L3.93082 10.7816L3.0425 15.9607C3.00671 16.1692 3.09241 16.3799 3.2636 16.5042C3.43473 16.6286 3.66157 16.645 3.84884 16.5465L8.5 14.1013C13.5637 16.7634 13.2159 16.6104 13.4097 16.6104C13.5249 16.6104 13.6396 16.5746 13.7364 16.5042L5.67607 5.41016L0.476 6.16579Z" fill="#F7AC16"/>
<path d="M5.92868 10.1416C1.89802 6.2126 2.07128 6.42317 2.01719 6.21941C1.99518 6.13756 1.99066 6.04233 2.0146 5.94189L0.476 6.16545C0.0212172 6.23156 -0.161433 6.79229 0.168008 7.11337L3.93082 10.7812L3.0425 15.9604C3.00671 16.1689 3.09241 16.3796 3.2636 16.5039C3.43473 16.6283 3.66157 16.6447 3.84884 16.5462L5.21638 15.8273C5.0757 15.7006 5.00789 15.5098 5.04037 15.3206L5.92868 10.1416Z" fill="#F48B19"/>
<path d="M0.167913 7.11364L3.93072 10.7815L3.04241 15.9606C3.00661 16.1691 3.09231 16.3798 3.26351 16.5042C3.43464 16.6285 3.66148 16.6449 3.84875 16.5465L8.49991 14.1013C13.5636 16.7633 13.2158 16.6103 13.4096 16.6103C13.7521 16.6103 14.0159 16.3015 13.9574 15.9606L13.0691 10.7815L0.0272318 6.54395C-0.0377467 6.77687 0.0272982 6.97665 0.167913 7.11364Z" fill="#F2D422"/>
<path d="M0.167913 7.11364L3.93072 10.7815L3.04241 15.9606C3.00661 16.1691 3.09231 16.3798 3.26351 16.5042C3.43464 16.6285 3.66148 16.6449 3.84875 16.5465L5.21628 15.8275C5.0756 15.7008 5.0078 15.5101 5.04027 15.3209L5.92859 10.1418L3.3428 7.62125L0.0272318 6.54395C-0.0377467 6.77687 0.0272982 6.97665 0.167913 7.11364Z" fill="#EFB616"/>
<path d="M3.04318 15.9606C3.00739 16.1691 3.09309 16.3798 3.26428 16.5042C3.43541 16.6285 3.66226 16.6449 3.84952 16.5464L8.50068 14.1012C13.5644 16.7633 13.2166 16.6103 13.4104 16.6103C13.7529 16.6103 14.0167 16.3015 13.9582 15.9606L13.0699 10.7815L16.8327 7.11361C16.9842 6.96596 17.0387 6.74509 16.9734 6.54395L3.9315 10.7815L3.04318 15.9606Z" fill="#F7AC16"/>
<path d="M3.04318 15.9607C3.00739 16.1692 3.09309 16.3798 3.26428 16.5042C3.43541 16.6285 3.66226 16.6449 3.84952 16.5465L5.21706 15.8275C5.07638 15.7008 5.00858 15.5101 5.04105 15.3209L5.92937 10.1418L5.92209 10.1348L3.9315 10.7816L3.04318 15.9607Z" fill="#F48B19"/>
<path d="M3.84894 16.5465L8.50007 14.1013C13.5637 16.7634 13.2159 16.6104 13.4098 16.6104C13.7523 16.6104 14.016 16.3016 13.9576 15.9606L13.0693 10.7816L16.8321 7.11368C17.1612 6.79283 16.9793 6.23193 16.5241 6.16576L11.324 5.41016L3.26367 16.5042C3.4348 16.6285 3.66164 16.6449 3.84894 16.5465Z" fill="#F2D422"/>
<path d="M16.9728 6.54395L8.50007 9.29688L3.26367 16.5042C3.4348 16.6285 3.66164 16.6449 3.84891 16.5465L8.50007 14.1013C13.5637 16.7633 13.2159 16.6103 13.4098 16.6103C13.7523 16.6103 14.016 16.3015 13.9576 15.9606L13.0693 10.7815L16.8321 7.11364C16.9836 6.96596 17.0381 6.74512 16.9728 6.54395Z" fill="#F7AC16"/>
<path d="M13.0693 10.7815L8.50007 9.29688L3.26367 16.5042C3.4348 16.6285 3.66164 16.6449 3.84891 16.5464L8.50007 14.1013C13.5637 16.7633 13.2159 16.6103 13.4098 16.6103C13.7523 16.6103 14.016 16.3015 13.9576 15.9606L13.0693 10.7815Z" fill="#F2D422"/>
<path d="M3.26367 16.5042C3.4348 16.6285 3.66164 16.6449 3.84891 16.5464L8.50007 14.1013C13.5637 16.7633 13.2159 16.6103 13.4098 16.6103C13.525 16.6103 13.6397 16.5745 13.7365 16.5042L8.50007 9.29688L3.26367 16.5042Z" fill="#F7AC16"/>
<path d="M8.5001 9.29694L8.50007 9.29688L3.26367 16.5042C3.4348 16.6285 3.66164 16.6449 3.84891 16.5464L8.50007 14.1013H8.5001V9.29694Z" fill="#F2D422"/>
<path d="M5.32383 13.6685L3.26367 16.504C3.4348 16.6283 3.66164 16.6447 3.84891 16.5463L5.21645 15.8273C5.07577 15.7006 5.00796 15.5099 5.04044 15.3207L5.32383 13.6685Z" fill="#EFB616"/>
</g>
<defs>
<clipPath id="clip0_4415_2616">
<rect width="17" height="17" fill="white"/>
</clipPath>
</defs>
</svg>
