<svg width="24" height="24" viewBox="0 0 24 24"  xmlns="http://www.w3.org/2000/svg">
<path fill-rule="evenodd" clip-rule="evenodd" d="M12.2833 2.90837C10.5141 2.84945 8.72669 3.33213 7.18351 4.36221C5.45029 5.52036 4.23903 7.23062 3.68112 9.14252C3.52705 9.12371 3.34255 9.13201 3.12348 9.19397C2.30556 9.42604 1.69039 10.0963 1.41378 10.6865C1.05502 11.4558 0.903718 12.4731 1.06332 13.5234C1.22182 14.5704 1.66411 15.4334 2.21732 15.9692C2.77219 16.5052 3.3987 16.6795 4.02107 16.5486C4.9477 16.3509 5.40714 16.2029 5.27741 15.3396L4.64924 11.1548C4.77593 8.88998 5.94846 6.7579 7.9096 5.44678C10.5346 3.69338 13.9761 3.80568 16.48 5.72782C18.2217 7.06327 19.233 9.06424 19.3497 11.1648L18.9105 14.0921C17.9308 16.7732 15.5019 18.6304 12.6913 18.894H10.8198C10.3368 18.894 9.94791 19.2829 9.94791 19.7653V20.225C9.94791 20.7077 10.3368 21.0966 10.8198 21.0966H13.1795C13.6622 21.0966 14.0494 20.7077 14.0494 20.225V19.9846C16.1688 19.4674 18.0187 18.1649 19.2233 16.3484L19.9793 16.5489C20.5945 16.7085 21.2285 16.5052 21.783 15.9694C22.3363 15.4334 22.7783 14.5706 22.937 13.5237C23.0972 12.4734 22.9415 11.4577 22.5869 10.6868C22.2309 9.91591 21.7006 9.42631 21.0885 9.25067C20.8321 9.17682 20.5538 9.14971 20.3151 9.14252C19.8106 7.41373 18.7719 5.8415 17.2749 4.69359C15.8031 3.5642 14.0525 2.96646 12.2833 2.90837Z" />
<path fill-rule="evenodd" clip-rule="evenodd" d="M15.0452 10.4371C15.669 10.4371 16.1746 10.9427 16.176 11.5681C16.1746 12.1919 15.669 12.6989 15.0452 12.6989C14.4198 12.6989 13.9128 12.1919 13.9128 11.5681C13.9128 10.943 14.4201 10.4371 15.0452 10.4371ZM11.9998 10.4371C12.6249 10.4371 13.1306 10.9427 13.1306 11.5681C13.1306 12.1919 12.6249 12.6989 11.9998 12.6989C11.3741 12.6989 10.8685 12.1919 10.8685 11.5681C10.8685 10.943 11.3741 10.4371 11.9998 10.4371ZM8.95549 10.4371C9.57924 10.4371 10.0863 10.9427 10.0863 11.5681C10.0863 12.1919 9.57924 12.6989 8.95549 12.6989C8.33036 12.6989 7.82445 12.1919 7.82445 11.5681C7.82445 10.943 8.33036 10.4371 8.95549 10.4371ZM11.9998 5.57935C8.68331 5.57935 6.01074 8.16395 6.01074 11.5681C6.01074 13.2032 6.62896 14.6481 7.63608 15.7084L7.2787 17.3105C7.16087 17.8377 7.52654 18.1923 8.00037 17.9284L9.56485 17.0557C10.3084 17.3785 11.1307 17.5569 11.9998 17.5569C15.3174 17.5569 17.9883 14.974 17.9883 11.5681C17.9883 8.16395 15.3174 5.57935 11.9998 5.57935Z" />
</svg>
