<svg width="32" height="32" viewBox="0 0 32 32" fill="none" xmlns="http://www.w3.org/2000/svg">
<g clip-path="url(#clip0_4415_2660)">
<path fill-rule="evenodd" clip-rule="evenodd" d="M24 32H8C5.8783 31.9999 3.84352 31.157 2.34325 29.6568C0.842977 28.1565 9.28184e-05 26.1217 0 24L0 8C9.28184e-05 5.8783 0.842977 3.84352 2.34325 2.34325C3.84352 0.842977 5.8783 9.28184e-05 8 0L24 0C26.1217 0 28.1566 0.842855 29.6569 2.34315C31.1571 3.84344 32 5.87827 32 8V24C32 26.1217 31.1571 28.1566 29.6569 29.6569C28.1566 31.1571 26.1217 32 24 32Z" fill="#2D0F1E"/>
<path fill-rule="evenodd" clip-rule="evenodd" d="M15 9H24C25.1536 8.99993 26.2632 8.55683 27.0995 7.7622C27.9359 6.96758 28.4351 5.88213 28.4941 4.73C28.5532 3.57788 28.1675 2.44708 27.4168 1.57113C26.666 0.695185 25.6076 0.140991 24.46 0.023C24.307 0.0145 24.1555 0 24 0H8C5.8783 9.28184e-05 3.84352 0.842977 2.34325 2.34325C0.842978 3.84352 9.28185e-05 5.8783 0 8L0 24C9.28219e-05 20.0218 1.58048 16.2065 4.3935 13.3935C7.20653 10.5805 11.0218 9.00009 15 9Z" fill="#501432"/>
<path fill-rule="evenodd" clip-rule="evenodd" d="M24 16C22.4178 16 20.871 16.4692 19.5554 17.3482C18.2399 18.2273 17.2145 19.4767 16.609 20.9385C16.0035 22.4003 15.845 24.0089 16.1537 25.5607C16.4624 27.1126 17.2243 28.538 18.3431 29.6569C19.462 30.7757 20.8874 31.5376 22.4393 31.8463C23.9911 32.155 25.5997 31.9965 27.0615 31.391C28.5233 30.7855 29.7727 29.7602 30.6518 28.4446C31.5308 27.129 32 25.5823 32 24V8C32 10.1217 31.1572 12.1566 29.6569 13.6569C28.1566 15.1571 26.1217 16 24 16Z" fill="black"/>
<path fill-rule="evenodd" clip-rule="evenodd" d="M17 7C17 6.86867 17.0258 6.73861 17.0761 6.61727C17.1263 6.49593 17.2 6.38567 17.2928 6.29281C17.3857 6.19994 17.496 6.12628 17.6173 6.07604C17.7386 6.0258 17.8687 5.99996 18 6H20.1145C20.3458 6.00005 20.5699 6.08024 20.7486 6.22692C20.9274 6.37361 21.0498 6.57771 21.095 6.8045C21.276 7.70655 21.764 8.51798 22.4761 9.10062C23.1881 9.68327 24.08 10.0011 25 10C25.1314 9.99996 25.2614 10.0258 25.3828 10.076C25.5041 10.1263 25.6144 10.1999 25.7072 10.2928C25.8001 10.3857 25.8738 10.4959 25.924 10.6173C25.9742 10.7386 26.0001 10.8687 26 11V13C26.0001 13.1313 25.9742 13.2614 25.924 13.3827C25.8738 13.5041 25.8001 13.6143 25.7072 13.7072C25.6144 13.8001 25.5041 13.8737 25.3828 13.924C25.2614 13.9742 25.1314 14 25 14C23.5955 14.0021 22.2155 13.6324 21 12.9285V21C21 22.3844 20.5894 23.7376 19.8202 24.8887C19.0511 26.0397 17.9579 26.9368 16.6789 27.4666C15.3999 27.9963 13.9925 28.1349 12.6347 27.8648C11.277 27.5947 10.0298 26.928 9.05089 25.9492C8.07199 24.9703 7.40534 23.7231 7.13525 22.3653C6.86515 21.0075 7.00374 19.6002 7.53349 18.3212C8.06323 17.0422 8.96034 15.949 10.1114 15.1798C11.2624 14.4106 12.6157 14.0001 14 14C14.1314 14 14.2614 14.0258 14.3828 14.076C14.5041 14.1263 14.6144 14.1999 14.7072 14.2928C14.8001 14.3857 14.8738 14.4959 14.924 14.6173C14.9742 14.7386 15.0001 14.8687 15 15V17C15.0001 17.1313 14.9742 17.2614 14.924 17.3827C14.8738 17.5041 14.8001 17.6143 14.7072 17.7072C14.6144 17.8001 14.5041 17.8737 14.3828 17.924C14.2614 17.9742 14.1314 18 14 18C13.4066 18 12.8265 18.1759 12.3331 18.5055C11.8397 18.8352 11.4551 19.3038 11.228 19.852C11.0009 20.4002 10.9414 21.0035 11.0572 21.5855C11.1729 22.1675 11.4587 22.7021 11.8783 23.1217C12.2979 23.5414 12.8325 23.8271 13.4145 23.9429C13.9965 24.0586 14.5998 23.9992 15.148 23.7721C15.6963 23.545 16.1649 23.1604 16.4945 22.6669C16.8242 22.1735 17.0001 21.5934 17 21V7Z" fill="#FE2C55"/>
<path fill-rule="evenodd" clip-rule="evenodd" d="M16 6C16 5.86867 16.0258 5.73861 16.0761 5.61727C16.1263 5.49593 16.2 5.38567 16.2928 5.29281C16.3857 5.19994 16.496 5.12628 16.6173 5.07604C16.7386 5.0258 16.8687 4.99996 17 5H19.1145C19.3458 5.00005 19.5699 5.08024 19.7486 5.22692C19.9274 5.37361 20.0498 5.57771 20.095 5.8045C20.276 6.70655 20.764 7.51798 21.4761 8.10062C22.1881 8.68327 23.08 9.0011 24 9C24.1314 8.99996 24.2614 9.0258 24.3828 9.07604C24.5041 9.12628 24.6144 9.19994 24.7072 9.29281C24.8001 9.38567 24.8738 9.49593 24.924 9.61727C24.9742 9.73861 25.0001 9.86867 25 10V12C25.0001 12.1313 24.9742 12.2614 24.924 12.3827C24.8738 12.5041 24.8001 12.6143 24.7072 12.7072C24.6144 12.8001 24.5041 12.8737 24.3828 12.924C24.2614 12.9742 24.1314 13 24 13C22.5955 13.0021 21.2155 12.6324 20 11.9285V20C20 21.3844 19.5894 22.7376 18.8202 23.8887C18.0511 25.0397 16.9579 25.9368 15.6789 26.4666C14.3999 26.9963 12.9925 27.1349 11.6347 26.8648C10.277 26.5947 9.02978 25.928 8.05089 24.9492C7.07199 23.9703 6.40534 22.7231 6.13525 21.3653C5.86515 20.0075 6.00374 18.6002 6.53349 17.3212C7.06323 16.0422 7.96034 14.949 9.11137 14.1798C10.2624 13.4106 11.6157 13.0001 13 13C13.1314 13 13.2614 13.0258 13.3828 13.076C13.5041 13.1263 13.6144 13.1999 13.7072 13.2928C13.8001 13.3857 13.8738 13.4959 13.924 13.6173C13.9742 13.7386 14.0001 13.8687 14 14V16C14.0001 16.1313 13.9742 16.2614 13.924 16.3827C13.8738 16.5041 13.8001 16.6143 13.7072 16.7072C13.6144 16.8001 13.5041 16.8737 13.3828 16.924C13.2614 16.9742 13.1314 17 13 17C12.4066 17 11.8265 17.1759 11.3331 17.5055C10.8397 17.8352 10.4551 18.3038 10.228 18.852C10.0009 19.4002 9.94142 20.0035 10.0572 20.5855C10.1729 21.1675 10.4587 21.7021 10.8783 22.1217C11.2979 22.5414 11.8325 22.8271 12.4145 22.9429C12.9965 23.0586 13.5998 22.9992 14.148 22.7721C14.6963 22.545 15.1649 22.1604 15.4945 21.6669C15.8242 21.1735 16.0001 20.5934 16 20V6Z" fill="#25F4EE"/>
<path fill-rule="evenodd" clip-rule="evenodd" d="M11.438 22.562C11.7786 23.1207 12.2925 23.5528 12.9015 23.7923C13.5104 24.0318 14.1809 24.0657 14.8109 23.8888C15.4409 23.7119 15.9958 23.3338 16.391 22.8123C16.7862 22.2908 17.0001 21.6544 17 21V7C17 6.86867 17.0258 6.73861 17.076 6.61727C17.1263 6.49593 17.1999 6.38567 17.2928 6.29281C17.3857 6.19994 17.4959 6.12628 17.6173 6.07604C17.7386 6.0258 17.8687 5.99996 18 6H20.1145C20.123 6 20.131 6 20.139 6.0005C20.3741 6.9299 20.9376 7.7428 21.7255 8.289C22.0923 8.8177 22.5818 9.24956 23.1521 9.54756C23.7224 9.84556 24.3565 10.0008 25 10V12C25 12.1313 24.9742 12.2614 24.924 12.3827C24.8737 12.5041 24.8001 12.6143 24.7072 12.7072C24.6143 12.8001 24.5041 12.8737 24.3827 12.924C24.2614 12.9742 24.1313 13 24 13C22.5955 13.0021 21.2154 12.6324 20 11.9285V20C20 21.3242 19.6244 22.6213 18.9168 23.7406C18.2092 24.8599 17.1986 25.7555 16.0024 26.3235C14.8062 26.8915 13.4734 27.1085 12.1588 26.9494C10.8442 26.7903 9.60164 26.2615 8.57549 25.4245C7.73863 24.3983 7.20999 23.1558 7.05094 21.8412C6.89188 20.5267 7.10892 19.1939 7.67688 17.9978C8.24484 16.8016 9.14041 15.791 10.2596 15.0834C11.3789 14.3758 12.6758 14.0001 14 14V16C14 16.1313 13.9742 16.2614 13.9239 16.3827C13.8737 16.5041 13.8001 16.6143 13.7072 16.7072C13.6143 16.8001 13.5041 16.8737 13.3827 16.924C13.2614 16.9742 13.1313 17 13 17C12.3457 17.0001 11.7094 17.214 11.188 17.6093C10.6666 18.0045 10.2886 18.5593 10.1117 19.1892C9.93481 19.8191 9.96866 20.4896 10.2081 21.0985C10.4475 21.7074 10.8794 22.2213 11.438 22.562Z" fill="white"/>
</g>
<defs>
<clipPath id="clip0_4415_2660">
<rect width="32" height="32" fill="white"/>
</clipPath>
</defs>
</svg>
