<?xml version="1.0" encoding="UTF-8"?>
<svg id="Layer_2" data-name="Layer 2" xmlns="http://www.w3.org/2000/svg" viewBox="0 0 908.64 908.64">
  <defs>
    <style>
      .cls-1 {
        fill: #fff;
      }

      .cls-2 {
        fill: #4a5;
      }
    </style>
  </defs>
  <g id="Objects">
    <g>
      <path class="cls-2" d="M454.32,908.64c-61.32,0-120.82-12.02-176.85-35.71-54.1-22.88-102.69-55.64-144.4-97.35-41.71-41.71-74.47-90.3-97.35-144.4C12.02,575.14,0,515.64,0,454.32s12.02-120.82,35.71-176.85c22.88-54.1,55.64-102.69,97.35-144.4,41.71-41.71,90.3-74.47,144.4-97.35C333.5,12.02,393,0,454.32,0s120.82,12.02,176.85,35.71c54.1,22.88,102.69,55.64,144.4,97.35,41.71,41.71,74.47,90.3,97.35,144.4,23.7,56.03,35.71,115.53,35.71,176.85s-12.02,120.82-35.71,176.85c-22.88,54.1-55.64,102.69-97.35,144.4-41.71,41.71-90.3,74.47-144.4,97.35-56.03,23.7-115.53,35.71-176.85,35.71Z"/>
      <path class="cls-1" d="M216.49,513.45c24.51,39.83,66.85,102.65,99.6,143.91,15.45,19.47,42.88,21.28,60.91,4.16,103.7-98.42,199.95-222.59,315.2-394.52,6.68-9.97,3.32-23.53-7.25-29.21h0c-8.08-4.33-18.06-2.71-24.36,3.95-127.86,135.37-193.42,199.72-320.64,305.56,0,0-40.11-25.48-88.54-64.58-10.39-8.39-25.67-6.5-33.69,4.18h0c-5.83,7.76-6.3,18.28-1.22,26.55Z"/>
    </g>
  </g>
</svg>