<svg width="24" height="24" viewBox="0 0 24 24" xmlns="http://www.w3.org/2000/svg">
<path d="M15.2429 4.47992C14.4196 3.65454 13.2697 3.20001 12.0005 3.20001C10.7245 3.20001 9.57084 3.65179 8.75136 4.47207C7.923 5.30138 7.5194 6.42847 7.61417 7.64553C7.80201 10.0466 9.76968 11.9999 12.0005 11.9999C14.2313 11.9999 16.1956 10.047 16.3864 7.64631C16.4825 6.44026 16.0763 5.31552 15.2429 4.47992Z"/>
<path d="M19.4461 20.7986H4.55425C4.35933 20.8009 4.16629 20.7629 3.98918 20.6873C3.81208 20.6116 3.65536 20.5003 3.53043 20.3613C3.25544 20.0561 3.14459 19.6393 3.22667 19.2177C3.58373 17.3784 4.69809 15.8333 6.44958 14.7486C8.00561 13.7858 9.97667 13.2558 12.0002 13.2558C14.0237 13.2558 15.9948 13.7861 17.5508 14.7486C19.3023 15.8329 20.4167 17.378 20.7737 19.2173C20.8558 19.6389 20.745 20.0557 20.47 20.3609C20.3451 20.4999 20.1884 20.6114 20.0113 20.6871C19.8342 20.7628 19.6411 20.8009 19.4461 20.7986Z"/>
</svg>
