<svg width="48" height="48" viewBox="0 0 48 48" fill="none" xmlns="http://www.w3.org/2000/svg">
<path d="M35.933 19.052C35.8754 17.7742 35.669 16.8999 35.3761 16.1361C35.0689 15.3483 34.6608 14.6757 33.9934 14.0128C33.3261 13.3499 32.6588 12.9319 31.8714 12.6293C31.1081 12.3315 30.2343 12.1297 28.9572 12.0721C27.6754 12.0144 27.2673 12 24.0122 12C20.7524 12 20.3443 12.0144 19.0673 12.0721C17.7902 12.1297 16.9164 12.3363 16.1531 12.6293C15.3609 12.9367 14.6888 13.3451 14.0263 14.0128C13.3637 14.6805 12.946 15.3483 12.6436 16.1361C12.3507 16.8999 12.1443 17.7742 12.0867 19.052C12.0291 20.3347 12.0146 20.743 12.0146 24C12.0146 27.2618 12.0291 27.6701 12.0867 28.948C12.1443 30.2258 12.3507 31.1001 12.6436 31.8639C12.9508 32.6517 13.3589 33.3243 14.0263 33.9872C14.6888 34.6549 15.3609 35.0681 16.1483 35.3707C16.9116 35.6685 17.7854 35.8703 19.0625 35.9279C20.3443 35.9856 20.7524 36 24.0074 36C27.2673 36 27.6754 35.9856 28.9524 35.9279C30.2295 35.8703 31.1033 35.6637 31.8666 35.3707C32.654 35.0633 33.3261 34.6549 33.9886 33.9872C34.6512 33.3195 35.0689 32.6517 35.3713 31.8639C35.669 31.1001 35.8706 30.2258 35.9282 28.948C35.9858 27.6653 36.0002 27.257 36.0002 24C36.0002 20.743 35.9906 20.3299 35.933 19.052ZM33.7774 28.8519C33.7246 30.024 33.5278 30.6629 33.3645 31.0809C33.1485 31.6381 32.8844 32.0416 32.4619 32.4644C32.0395 32.8871 31.641 33.1417 31.0793 33.3675C30.6568 33.5308 30.0182 33.7278 28.8516 33.7806C27.589 33.8383 27.2097 33.8527 24.0026 33.8527C20.7956 33.8527 20.4163 33.8383 19.1537 33.7806C17.9822 33.7278 17.3437 33.5308 16.926 33.3675C16.3691 33.1513 15.9658 32.8871 15.5434 32.4644C15.1209 32.0416 14.8664 31.6429 14.6408 31.0809C14.4775 30.6581 14.2807 30.0192 14.2279 28.8519C14.1703 27.5885 14.1559 27.209 14.1559 24C14.1559 20.791 14.1703 20.4115 14.2279 19.1481C14.2807 17.976 14.4775 17.3371 14.6408 16.9191C14.8568 16.3619 15.1209 15.9584 15.5434 15.5356C15.9658 15.1129 16.3643 14.8583 16.926 14.6325C17.3485 14.4692 17.987 14.2722 19.1537 14.2194C20.4163 14.1617 20.7956 14.1473 24.0026 14.1473C27.2097 14.1473 27.589 14.1617 28.8516 14.2194C30.0231 14.2722 30.6616 14.4692 31.0793 14.6325C31.6362 14.8487 32.0395 15.1129 32.4619 15.5356C32.8844 15.9584 33.1389 16.3571 33.3645 16.9191C33.5278 17.3419 33.7246 17.9808 33.7774 19.1481C33.835 20.4115 33.8494 20.791 33.8494 24C33.8494 27.209 33.8302 27.5885 33.7774 28.8519Z" fill="white"/>
<path d="M24.0028 17.8318C20.5941 17.8318 17.8384 20.594 17.8384 23.9999C17.8384 27.4107 20.5989 30.1681 24.0028 30.1681C27.4067 30.1681 30.1672 27.401 30.1672 23.9999C30.1672 20.5892 27.4115 17.8318 24.0028 17.8318ZM24.0028 28.0015C21.7944 28.0015 20.0036 26.2097 20.0036 23.9999C20.0036 21.7902 21.7944 19.9983 24.0028 19.9983C26.2113 19.9983 28.002 21.7902 28.002 23.9999C28.002 26.2097 26.2113 28.0015 24.0028 28.0015Z" fill="white"/>
<path d="M30.4071 19.0329C31.2025 19.0329 31.8474 18.3877 31.8474 17.5918C31.8474 16.7959 31.2025 16.1506 30.4071 16.1506C29.6116 16.1506 28.9668 16.7959 28.9668 17.5918C28.9668 18.3877 29.6116 19.0329 30.4071 19.0329Z" fill="white"/>
<path d="M12 24C12 27.2618 12.0144 27.6701 12.072 28.948C12.1296 30.2258 12.3361 31.1001 12.6289 31.8639C12.9362 32.6517 13.3443 33.3243 14.0116 33.9872C14.6741 34.6501 15.3463 35.0681 16.1336 35.3707C16.897 35.6685 17.7708 35.8703 19.0478 35.9279C20.3297 35.9856 20.7377 36 23.9928 36C27.2527 36 27.6607 35.9856 28.9378 35.9279C30.2148 35.8703 31.0886 35.6637 31.852 35.3707C32.6393 35.0633 33.3115 34.6549 33.974 33.9872C34.6365 33.3243 35.0542 32.6517 35.3567 31.8639C35.6543 31.1001 35.856 30.2258 35.9136 28.948C35.9712 27.6653 35.9856 27.257 35.9856 24C35.9856 20.7382 35.9712 20.3299 35.9136 19.052C35.856 17.7742 35.6495 16.8999 35.3567 16.1361C35.0494 15.3483 34.6413 14.6757 33.974 14.0128C33.3163 13.3451 32.6441 12.9319 31.8568 12.6293C31.0934 12.3315 30.2196 12.1297 28.9426 12.0721C27.6607 12.0144 27.2527 12 23.9976 12C20.7377 12 20.3297 12.0144 19.0526 12.0721C17.7756 12.1297 16.9018 12.3363 16.1384 12.6293C15.3511 12.9367 14.6789 13.3451 14.0164 14.0128C13.3539 14.6805 12.9362 15.3483 12.6337 16.1361C12.3361 16.8999 12.1296 17.7742 12.072 19.052C12.0144 20.3299 12 20.7382 12 24ZM14.1652 24C14.1652 20.7958 14.1796 20.4115 14.2372 19.1481C14.2901 17.976 14.4869 17.3371 14.6501 16.9191C14.8662 16.3619 15.1302 15.9584 15.5527 15.5356C15.9752 15.1129 16.3737 14.8583 16.9354 14.6325C17.3579 14.4692 17.9964 14.2722 19.163 14.2194C20.4257 14.1617 20.805 14.1473 24.012 14.1473C27.219 14.1473 27.5983 14.1617 28.861 14.2194C30.0324 14.2722 30.6709 14.4692 31.0886 14.6325C31.6455 14.8487 32.0488 15.1129 32.4713 15.5356C32.8938 15.9584 33.1482 16.3571 33.3739 16.9191C33.5371 17.3419 33.7339 17.9808 33.7868 19.1481C33.8444 20.4115 33.8588 20.791 33.8588 24C33.8588 27.209 33.8444 27.5885 33.7868 28.8519C33.7339 30.024 33.5371 30.6629 33.3739 31.0809C33.1578 31.6381 32.8938 32.0416 32.4713 32.4644C32.0488 32.8871 31.6503 33.1417 31.0886 33.3675C30.6661 33.5308 30.0276 33.7278 28.861 33.7806C27.5983 33.8383 27.219 33.8527 24.012 33.8527C20.805 33.8527 20.4257 33.8383 19.163 33.7806C17.9916 33.7278 17.3531 33.5308 16.9354 33.3675C16.3785 33.1513 15.9752 32.8871 15.5527 32.4644C15.1302 32.0416 14.8758 31.6429 14.6501 31.0809C14.4869 30.6581 14.2901 30.0192 14.2372 28.8519C14.1748 27.5885 14.1652 27.2042 14.1652 24Z" fill="white"/>
<circle cx="24" cy="24" r="23.5" stroke="white"/>
</svg>
