<svg width="1920" height="1080" viewBox="0 0 1920 1080" fill="none" xmlns="http://www.w3.org/2000/svg">
<g filter="url(#filter0_f_180_995)">
<ellipse cx="1827" cy="947.057" rx="599" ry="611" fill="#00F0FF" fill-opacity="0.15"/>
</g>
<g filter="url(#filter1_f_180_995)">
<ellipse cx="418.5" cy="-8" rx="428.5" ry="437" fill="#00F0FF" fill-opacity="0.15"/>
</g>
<g opacity="0.6">
<path d="M1242.27 147.057C1244.93 147.057 1244.94 151.057 1242.27 151.057C1239.6 151.057 1239.61 147.057 1242.27 147.057Z" fill="white"/>
<path d="M785.451 107.612C784.715 107.667 784.028 107.998 783.526 108.539C783.025 109.08 782.746 109.79 782.746 110.528C782.746 111.266 783.025 111.976 783.526 112.517C784.028 113.058 784.715 113.389 785.451 113.445C786.186 113.389 786.874 113.058 787.376 112.517C787.877 111.976 788.156 111.266 788.156 110.528C788.156 109.79 787.877 109.08 787.376 108.539C786.874 107.998 786.186 107.667 785.451 107.612Z" fill="white"/>
<path d="M74.3299 712.074C73.7119 712.074 73.1193 712.319 72.6824 712.756C72.2455 713.193 72 713.786 72 714.403C72 715.021 72.2455 715.614 72.6824 716.051C73.1193 716.488 73.7119 716.733 74.3299 716.733C74.9478 716.733 75.5404 716.488 75.9773 716.051C76.4143 715.614 76.6597 715.021 76.6597 714.403C76.6597 713.786 76.4143 713.193 75.9773 712.756C75.5404 712.319 74.9478 712.074 74.3299 712.074Z" fill="white"/>
<path d="M206.075 557.657C200.06 557.657 200.06 566.993 206.075 566.993C212.089 566.993 212.089 557.657 206.075 557.657Z" fill="white"/>
<path d="M112.6 500.057C111.982 500.057 111.39 500.302 110.953 500.739C110.516 501.176 110.27 501.769 110.27 502.387C110.27 503.004 110.516 503.597 110.953 504.034C111.39 504.471 111.982 504.716 112.6 504.716C113.218 504.716 113.811 504.471 114.248 504.034C114.685 503.597 114.93 503.004 114.93 502.387C114.93 501.769 114.685 501.176 114.248 500.739C113.811 500.302 113.218 500.057 112.6 500.057Z" fill="white"/>
<path d="M684.903 640.029C684.439 640.029 683.993 640.214 683.665 640.542C683.336 640.871 683.152 641.316 683.152 641.781C683.152 642.245 683.336 642.691 683.665 643.019C683.993 643.348 684.439 643.532 684.903 643.532C685.368 643.532 685.813 643.348 686.142 643.019C686.47 642.691 686.655 642.245 686.655 641.781C686.655 641.316 686.47 640.871 686.142 640.542C685.813 640.214 685.368 640.029 684.903 640.029Z" fill="white"/>
<path d="M192.211 369.747C191.747 369.747 191.301 369.932 190.973 370.26C190.644 370.589 190.46 371.034 190.46 371.499C190.46 371.963 190.644 372.409 190.973 372.737C191.301 373.066 191.747 373.25 192.211 373.25C192.676 373.25 193.121 373.066 193.45 372.737C193.778 372.409 193.963 371.963 193.963 371.499C193.963 371.034 193.778 370.589 193.45 370.26C193.121 369.932 192.676 369.747 192.211 369.747Z" fill="white"/>
<path d="M142.805 321.084C142.34 321.084 141.895 321.269 141.566 321.597C141.238 321.926 141.053 322.371 141.053 322.836C141.053 323.3 141.238 323.746 141.566 324.074C141.895 324.403 142.34 324.587 142.805 324.587C143.269 324.587 143.715 324.403 144.043 324.074C144.372 323.746 144.556 323.3 144.556 322.836C144.556 322.371 144.372 321.926 144.043 321.597C143.715 321.269 143.269 321.084 142.805 321.084Z" fill="white"/>
<path d="M77.2703 152.057C77.005 152.057 76.7507 152.162 76.5632 152.35C76.3756 152.537 76.2703 152.791 76.2703 153.057C76.2703 153.322 76.3756 153.576 76.5632 153.764C76.7507 153.951 77.005 154.057 77.2703 154.057C77.5355 154.057 77.7898 153.951 77.9774 153.764C78.1649 153.576 78.2703 153.322 78.2703 153.057C78.2703 152.791 78.1649 152.537 77.9774 152.35C77.7898 152.162 77.5355 152.057 77.2703 152.057Z" fill="white"/>
<path d="M452.759 212.853C452.024 212.908 451.336 213.239 450.835 213.78C450.333 214.321 450.054 215.031 450.054 215.769C450.054 216.507 450.333 217.217 450.835 217.758C451.336 218.299 452.024 218.63 452.759 218.685C453.495 218.63 454.183 218.299 454.684 217.758C455.186 217.217 455.465 216.507 455.465 215.769C455.465 215.031 455.186 214.321 454.684 213.78C454.183 213.239 453.495 212.908 452.759 212.853Z" fill="white"/>
<path d="M640.77 186.057C638.77 186.057 638.77 189.057 640.77 189.057C642.77 189.057 642.77 186.057 640.77 186.057Z" fill="white"/>
<path d="M642.173 247.123C641.586 247.172 641.04 247.44 640.642 247.873C640.244 248.306 640.023 248.873 640.023 249.461C640.023 250.049 640.244 250.616 640.642 251.049C641.04 251.482 641.586 251.75 642.173 251.799C642.759 251.75 643.305 251.482 643.703 251.049C644.101 250.616 644.322 250.049 644.322 249.461C644.322 248.873 644.101 248.306 643.703 247.873C643.305 247.44 642.759 247.172 642.173 247.123Z" fill="white"/>
<path d="M681.103 305.948C680.818 305.982 680.555 306.12 680.364 306.334C680.174 306.549 680.069 306.826 680.069 307.113C680.069 307.4 680.174 307.677 680.364 307.892C680.555 308.107 680.818 308.244 681.103 308.278C681.388 308.244 681.651 308.107 681.841 307.892C682.032 307.677 682.137 307.4 682.137 307.113C682.137 306.826 682.032 306.549 681.841 306.334C681.651 306.12 681.388 305.982 681.103 305.948Z" fill="white"/>
<path d="M1018.77 195.139C1018.48 195.173 1018.22 195.31 1018.03 195.525C1017.84 195.74 1017.73 196.017 1017.73 196.304C1017.73 196.591 1017.84 196.868 1018.03 197.083C1018.22 197.297 1018.48 197.435 1018.77 197.469C1019.05 197.435 1019.32 197.297 1019.51 197.083C1019.7 196.868 1019.8 196.591 1019.8 196.304C1019.8 196.017 1019.7 195.74 1019.51 195.525C1019.32 195.31 1019.05 195.173 1018.77 195.139Z" fill="white"/>
<path d="M1414.94 164.718C1414.21 164.774 1413.52 165.105 1413.02 165.646C1412.52 166.187 1412.24 166.897 1412.24 167.635C1412.24 168.372 1412.52 169.083 1413.02 169.624C1413.52 170.164 1414.21 170.496 1414.94 170.551C1415.68 170.496 1416.37 170.164 1416.87 169.624C1417.37 169.083 1417.65 168.372 1417.65 167.635C1417.65 166.897 1417.37 166.187 1416.87 165.646C1416.37 165.105 1415.68 164.774 1414.94 164.718Z" fill="white"/>
<path d="M1108.15 744.874C1107.56 744.923 1107.01 745.191 1106.62 745.624C1106.22 746.057 1106 746.623 1106 747.212C1106 747.8 1106.22 748.367 1106.62 748.8C1107.01 749.233 1107.56 749.501 1108.15 749.55C1108.73 749.501 1109.28 749.233 1109.68 748.8C1110.07 748.367 1110.3 747.8 1110.3 747.212C1110.3 746.623 1110.07 746.057 1109.68 745.624C1109.28 745.191 1108.73 744.923 1108.15 744.874Z" fill="white"/>
<path d="M1481.44 413.965C1476.93 413.965 1476.93 420.971 1481.44 420.971C1485.95 420.971 1485.95 413.965 1481.44 413.965Z" fill="white"/>
<path d="M357.731 116.419C357.297 116.461 356.896 116.663 356.603 116.985C356.311 117.307 356.149 117.727 356.149 118.162C356.149 118.597 356.311 119.017 356.603 119.339C356.896 119.661 357.297 119.863 357.731 119.905C358.164 119.863 358.565 119.661 358.858 119.339C359.15 119.017 359.312 118.597 359.312 118.162C359.312 117.727 359.15 117.307 358.858 116.985C358.565 116.663 358.164 116.461 357.731 116.419Z" fill="white"/>
<path d="M1609.26 80C1608.8 80 1608.35 80.1845 1608.03 80.513C1607.7 80.8415 1607.51 81.287 1607.51 81.7515C1607.51 82.2161 1607.7 82.6616 1608.03 82.9901C1608.35 83.3185 1608.8 83.5031 1609.26 83.5031C1609.73 83.5031 1610.18 83.3185 1610.5 82.9901C1610.83 82.6616 1611.02 82.2161 1611.02 81.7515C1611.02 81.287 1610.83 80.8415 1610.5 80.513C1610.18 80.1845 1609.73 80 1609.26 80Z" fill="white"/>
<path d="M1587.72 302.495C1583.22 302.495 1583.21 309.501 1587.72 309.501C1592.23 309.501 1592.23 302.495 1587.72 302.495Z" fill="white"/>
<path d="M1820.51 793.503C1816.01 793.503 1816 800.493 1820.51 800.493C1825.02 800.493 1825.05 793.503 1820.51 793.503Z" fill="white"/>
<path d="M1790.43 722.583C1789.81 722.583 1789.22 722.828 1788.79 723.265C1788.35 723.702 1788.1 724.295 1788.1 724.913C1788.1 725.531 1788.35 726.123 1788.79 726.56C1789.22 726.997 1789.81 727.242 1790.43 727.242C1791.05 727.242 1791.64 726.997 1792.08 726.56C1792.52 726.123 1792.76 725.531 1792.76 724.913C1792.76 724.295 1792.52 723.702 1792.08 723.265C1791.64 722.828 1791.05 722.583 1790.43 722.583Z" fill="white"/>
<path d="M1740.33 192.165C1733.57 192.165 1733.57 202.657 1740.33 202.657C1747.09 202.657 1747.11 192.165 1740.33 192.165Z" fill="white"/>
<path d="M1844.53 165.594C1843.8 165.649 1843.11 165.981 1842.61 166.522C1842.11 167.062 1841.83 167.773 1841.83 168.51C1841.83 169.248 1842.11 169.959 1842.61 170.499C1843.11 171.04 1843.8 171.372 1844.53 171.427C1845.27 171.372 1845.95 171.04 1846.46 170.499C1846.96 169.959 1847.24 169.248 1847.24 168.51C1847.24 167.773 1846.96 167.062 1846.46 166.522C1845.95 165.981 1845.27 165.649 1844.53 165.594Z" fill="white"/>
<path style="mix-blend-mode:overlay" d="M1132.63 151.413C1137.47 146.571 1190.86 192.128 1221.67 222.945C1252.49 253.762 1249.09 258.191 1244.25 263.032C1239.4 267.874 1234.98 271.294 1204.14 240.477C1173.31 209.66 1127.79 156.254 1132.63 151.413Z" fill="url(#paint0_radial_180_995)"/>
<path style="mix-blend-mode:overlay" d="M1206.98 225.787C1208.64 224.135 1226.42 239.37 1236.73 249.648C1247.04 259.926 1245.86 261.413 1244.26 263.032C1242.66 264.652 1241.16 265.792 1230.88 255.497C1220.6 245.203 1205.36 227.407 1206.98 225.787Z" fill="url(#paint1_radial_180_995)"/>
<path style="mix-blend-mode:overlay" d="M1620.5 242.1C1627.11 235.49 1700.89 298.281 1743.44 340.847C1785.99 383.412 1781.26 389.51 1774.59 396.202C1767.91 402.894 1761.78 407.604 1719.23 365.054C1676.68 322.505 1613.81 248.792 1620.5 242.1Z" fill="url(#paint2_radial_180_995)"/>
<path style="mix-blend-mode:overlay" d="M1723.16 344.763C1725.39 342.532 1749.98 363.518 1764.19 377.728C1778.4 391.939 1776.82 393.971 1774.59 396.202C1772.36 398.433 1770.31 400.003 1756.11 385.792C1741.92 371.581 1720.95 346.994 1723.16 344.763Z" fill="url(#paint3_radial_180_995)"/>
<path style="mix-blend-mode:overlay" d="M172.511 201.286C177.335 196.445 257.939 269.2 305.709 316.954C353.48 364.708 350.324 369.434 345.515 374.275C340.707 379.117 335.965 382.256 288.194 334.486C240.424 286.715 167.553 206.128 172.511 201.286Z" fill="url(#paint4_radial_180_995)"/>
<path style="mix-blend-mode:overlay" d="M287.699 316.557C289.351 314.905 316.219 339.212 332.164 355.157C348.11 371.103 347.036 372.673 345.383 374.292C343.731 375.911 342.194 376.952 326.249 361.073C310.303 345.193 286.096 318.16 287.699 316.557Z" fill="url(#paint5_radial_180_995)"/>
</g>
<circle cx="113.5" cy="1107.5" r="470.5" stroke="black" stroke-opacity="0.1" stroke-width="150"/>
<g opacity="0.7" clip-path="url(#clip0_180_995)">
<path d="M1477.68 -104.657H1330.17C1327.72 -104.722 1325.39 -105.759 1323.7 -107.539C1322 -109.32 1321.09 -111.699 1321.15 -114.156V-152.067H922.727V-19.8315C922.563 -12.8485 925.174 -6.08556 929.986 -1.0239C934.798 4.03776 941.42 6.98545 948.401 7.1735H1055.4C1057.86 7.23859 1060.19 8.27519 1061.88 10.0559C1063.57 11.8366 1064.49 14.216 1064.43 16.6722V123.063C1064.49 125.519 1063.57 127.898 1061.88 129.679C1060.19 131.46 1057.86 132.496 1055.4 132.562H476.961C469.98 132.75 463.358 135.697 458.546 140.759C453.734 145.821 451.123 152.584 451.287 159.567V436.519C451.123 443.502 453.734 450.265 458.546 455.327C463.358 460.388 469.98 463.336 476.961 463.524H1341.74C1348.72 463.336 1355.34 460.388 1360.16 455.327C1364.97 450.265 1367.58 443.502 1367.42 436.519V207.778C1367.2 200.212 1371.5 192.784 1381.96 192.757H1477.68C1484.66 192.569 1491.28 189.621 1496.09 184.559C1500.9 179.498 1503.51 172.735 1503.35 165.752V-77.6519C1503.51 -84.6348 1500.9 -91.3978 1496.09 -96.4594C1491.28 -101.521 1484.66 -104.469 1477.68 -104.657Z" stroke="url(#paint6_radial_180_995)" stroke-miterlimit="10"/>
<path d="M430.943 -152V-100.97C430.943 -88.8268 440.025 -78.8913 451.176 -78.8913H535.613C537.366 -79.0439 539.096 -78.3158 540.429 -76.8645C541.762 -75.4132 542.59 -73.3553 542.735 -71.1361V15.5236C542.59 17.7428 541.762 19.8007 540.429 21.252C539.096 22.7033 537.366 23.4314 535.613 23.2788H79.2545C68.1036 23.2788 59 33.1315 59 45.3577V270.921C59 283.037 68.1036 293 79.2545 293H761.505C772.678 293 781.76 283.12 781.76 270.921V79.9663C781.91 77.752 782.741 75.7011 784.073 74.2556C785.405 72.8101 787.132 72.0858 788.882 72.2387H868.745C879.918 72.2387 889 62.3584 889 50.1598V-148.053C888.994 -149.381 888.877 -150.704 888.652 -152H430.943Z" stroke="url(#paint7_radial_180_995)" stroke-miterlimit="10"/>
<path d="M289.374 -89.5518H-72.2744V180.222H289.374C303.508 180.222 315.048 170.336 315.048 158.132V-67.4618C315.048 -79.6113 303.398 -89.5518 289.374 -89.5518Z" stroke="url(#paint8_radial_180_995)" stroke-miterlimit="10"/>
<path d="M1742.98 -154H1558.59V-152.067H1415.04V1.56845C1415.04 13.7179 1426.88 23.6584 1441.43 23.6584H1593.07C1598.21 23.6584 1602.38 29.8988 1602.38 34.1511V128.033C1602.38 140.155 1614.22 150.123 1628.77 150.123H1742.9L1742.98 -154Z" stroke="url(#paint9_radial_180_995)" stroke-miterlimit="10"/>
<path d="M2592.94 277.306H2445.43C2444.21 277.277 2443.01 277.009 2441.9 276.516C2440.79 276.023 2439.78 275.315 2438.94 274.433C2438.1 273.551 2437.44 272.512 2437 271.375C2436.56 270.238 2436.35 269.026 2436.38 267.807V229.896H2037.96V362.104C2037.79 369.087 2040.4 375.85 2045.22 380.911C2050.03 385.973 2056.65 388.921 2063.63 389.109H2170.66C2173.12 389.181 2175.44 390.22 2177.13 391.999C2178.82 393.778 2179.74 396.153 2179.69 398.607V505.109C2179.75 507.565 2178.83 509.944 2177.14 511.725C2175.45 513.506 2173.12 514.542 2170.66 514.607H1592.19C1585.21 514.803 1578.6 517.752 1573.78 522.813C1568.97 527.873 1566.36 534.631 1566.52 541.612V818.455C1566.35 825.437 1568.96 832.2 1573.78 837.262C1578.59 842.324 1585.21 845.271 1592.19 845.459H2457C2463.98 845.279 2470.61 842.333 2475.42 837.27C2480.24 832.207 2482.84 825.439 2482.67 818.455V589.713C2482.45 582.12 2486.76 574.692 2497.22 574.664H2592.94C2599.92 574.483 2606.54 571.538 2611.36 566.475C2616.17 561.412 2618.78 554.644 2618.61 547.659V304.311C2618.77 297.328 2616.16 290.565 2611.35 285.503C2606.54 280.442 2599.92 277.494 2592.94 277.306Z" stroke="url(#paint10_radial_180_995)" stroke-miterlimit="10"/>
<path d="M1711.04 230C1705.64 230 1700.46 232.326 1696.65 236.467C1692.83 240.608 1690.68 246.224 1690.68 252.08V280.978C1690.68 293.094 1701.32 303.058 1714.35 303.058H1813.03C1815.07 302.905 1817.09 303.629 1818.65 305.075C1820.2 306.521 1821.17 308.572 1821.35 310.786V397.562C1821.18 399.779 1820.21 401.834 1818.65 403.281C1817.1 404.728 1815.07 405.45 1813.03 405.29H1279.67C1266.64 405.29 1256 415.171 1256 427.37V652.92C1256 665.064 1266.64 675 1279.67 675H2077.01C2090.04 675 2100.68 665.119 2100.68 652.92V461.981C2100.85 459.761 2101.81 457.703 2103.37 456.252C2104.93 454.801 2106.95 454.072 2109 454.225H2202.33C2215.39 454.225 2226 444.372 2226 432.145V233.919C2225.99 232.601 2225.86 231.287 2225.59 230H1711.04Z" stroke="url(#paint11_radial_180_995)" stroke-miterlimit="10"/>
<g opacity="0.47">
<path d="M847.499 18.4386C848.444 18.4386 849.21 17.6721 849.21 16.7266C849.21 15.7811 848.444 15.0146 847.499 15.0146C846.553 15.0146 845.787 15.7811 845.787 16.7266C845.787 17.6721 846.553 18.4386 847.499 18.4386Z" fill="white"/>
<path d="M885.265 28.5724C886.211 28.5724 886.977 27.8059 886.977 26.8604C886.977 25.9149 886.211 25.1484 885.265 25.1484C884.32 25.1484 883.554 25.9149 883.554 26.8604C883.554 27.8059 884.32 28.5724 885.265 28.5724Z" fill="white"/>
<path d="M831.488 76.2589C832.433 76.2589 833.2 75.4924 833.2 74.5469C833.2 73.6014 832.433 72.835 831.488 72.835C830.543 72.835 829.776 73.6014 829.776 74.5469C829.776 75.4924 830.543 76.2589 831.488 76.2589Z" fill="white"/>
<path d="M823.481 36.5791C824.426 36.5791 825.193 35.8126 825.193 34.8671C825.193 33.9216 824.426 33.1552 823.481 33.1552C822.536 33.1552 821.769 33.9216 821.769 34.8671C821.769 35.8126 822.536 36.5791 823.481 36.5791Z" fill="white"/>
<path d="M851.557 76.7548C852.518 76.7548 853.297 75.976 853.297 75.0152C853.297 74.0545 852.518 73.2756 851.557 73.2756C850.597 73.2756 849.818 74.0545 849.818 75.0152C849.818 75.976 850.597 76.7548 851.557 76.7548Z" fill="white"/>
<path d="M926.731 83.3829C927.676 83.3829 928.443 82.6165 928.443 81.671C928.443 80.7255 927.676 79.959 926.731 79.959C925.786 79.959 925.02 80.7255 925.02 81.671C925.02 82.6165 925.786 83.3829 926.731 83.3829Z" fill="white"/>
<path d="M974.518 69.5763C975.464 69.5763 976.23 68.8098 976.23 67.8643C976.23 66.9188 975.464 66.1523 974.518 66.1523C973.573 66.1523 972.807 66.9188 972.807 67.8643C972.807 68.8098 973.573 69.5763 974.518 69.5763Z" fill="white"/>
<path d="M941.003 61.2101C941.948 61.2101 942.714 60.4436 942.714 59.4981C942.714 58.5526 941.948 57.7861 941.003 57.7861C940.057 57.7861 939.291 58.5526 939.291 59.4981C939.291 60.4436 940.057 61.2101 941.003 61.2101Z" fill="white"/>
<path d="M917.509 46.4093C918.454 46.4093 919.22 45.6428 919.22 44.6973C919.22 43.7518 918.454 42.9854 917.509 42.9854C916.563 42.9854 915.797 43.7518 915.797 44.6973C915.797 45.6428 916.563 46.4093 917.509 46.4093Z" fill="white"/>
<path d="M854.097 115.192C855.043 115.192 855.809 114.425 855.809 113.48C855.809 112.534 855.043 111.768 854.097 111.768C853.152 111.768 852.386 112.534 852.386 113.48C852.386 114.425 853.152 115.192 854.097 115.192Z" fill="white"/>
<path d="M823.812 126.955C824.757 126.955 825.524 126.188 825.524 125.243C825.524 124.297 824.757 123.531 823.812 123.531C822.867 123.531 822.101 124.297 822.101 125.243C822.101 126.188 822.867 126.955 823.812 126.955Z" fill="white"/>
<path d="M862.986 143.439C863.931 143.439 864.698 142.672 864.698 141.727C864.698 140.781 863.931 140.015 862.986 140.015C862.041 140.015 861.274 140.781 861.274 141.727C861.274 142.672 862.041 143.439 862.986 143.439Z" fill="white"/>
<path d="M906.217 176.298C907.163 176.298 907.929 175.532 907.929 174.586C907.929 173.641 907.163 172.874 906.217 172.874C905.272 172.874 904.506 173.641 904.506 174.586C904.506 175.532 905.272 176.298 906.217 176.298Z" fill="white"/>
<path d="M861.053 189.662C861.999 189.662 862.765 188.896 862.765 187.95C862.765 187.005 861.999 186.238 861.053 186.238C860.108 186.238 859.342 187.005 859.342 187.95C859.342 188.896 860.108 189.662 861.053 189.662Z" fill="white"/>
<path d="M889.875 70.6808C890.82 70.6808 891.586 69.9143 891.586 68.9688C891.586 68.0233 890.82 67.2568 889.875 67.2568C888.929 67.2568 888.163 68.0233 888.163 68.9688C888.163 69.9143 888.929 70.6808 889.875 70.6808Z" fill="white"/>
<path d="M914.198 134.99C915.143 134.99 915.91 134.224 915.91 133.278C915.91 132.333 915.143 131.566 914.198 131.566C913.253 131.566 912.486 132.333 912.486 133.278C912.486 134.224 913.253 134.99 914.198 134.99Z" fill="white"/>
<path d="M780.636 160.283C781.582 160.283 782.348 159.517 782.348 158.571C782.348 157.626 781.582 156.859 780.636 156.859C779.691 156.859 778.925 157.626 778.925 158.571C778.925 159.517 779.691 160.283 780.636 160.283Z" fill="white"/>
<path d="M724.125 159.151C725.07 159.151 725.836 158.384 725.836 157.439C725.836 156.493 725.07 155.727 724.125 155.727C723.179 155.727 722.413 156.493 722.413 157.439C722.413 158.384 723.179 159.151 724.125 159.151Z" fill="white"/>
<path d="M766.445 183.285C767.39 183.285 768.157 182.518 768.157 181.573C768.157 180.627 767.39 179.861 766.445 179.861C765.5 179.861 764.733 180.627 764.733 181.573C764.733 182.518 765.5 183.285 766.445 183.285Z" fill="white"/>
<path d="M743.808 214.542C744.754 214.542 745.52 213.776 745.52 212.83C745.52 211.885 744.754 211.118 743.808 211.118C742.863 211.118 742.097 211.885 742.097 212.83C742.097 213.776 742.863 214.542 743.808 214.542Z" fill="white"/>
<path d="M704.773 215.15C705.719 215.15 706.485 214.383 706.485 213.438C706.485 212.492 705.719 211.726 704.773 211.726C703.828 211.726 703.062 212.492 703.062 213.438C703.062 214.383 703.828 215.15 704.773 215.15Z" fill="white"/>
<path d="M674.157 179.253C675.102 179.253 675.869 178.487 675.869 177.541C675.869 176.596 675.102 175.829 674.157 175.829C673.212 175.829 672.445 176.596 672.445 177.541C672.445 178.487 673.212 179.253 674.157 179.253Z" fill="white"/>
<path d="M651.187 156.969C652.133 156.969 652.899 156.203 652.899 155.257C652.899 154.312 652.133 153.545 651.187 153.545C650.242 153.545 649.476 154.312 649.476 155.257C649.476 156.203 650.242 156.969 651.187 156.969Z" fill="white"/>
<path d="M613.338 157.108C614.283 157.108 615.049 156.341 615.049 155.396C615.049 154.45 614.283 153.684 613.338 153.684C612.392 153.684 611.626 154.45 611.626 155.396C611.626 156.341 612.392 157.108 613.338 157.108Z" fill="white"/>
<path d="M906.936 97.8243C907.882 97.8243 908.648 97.0578 908.648 96.1123C908.648 95.1669 907.882 94.4004 906.936 94.4004C905.991 94.4004 905.225 95.1669 905.225 96.1123C905.225 97.0578 905.991 97.8243 906.936 97.8243Z" fill="white"/>
<path d="M903.678 125.049C904.624 125.049 905.39 124.282 905.39 123.337C905.39 122.391 904.624 121.625 903.678 121.625C902.733 121.625 901.967 122.391 901.967 123.337C901.967 124.282 902.733 125.049 903.678 125.049Z" fill="white"/>
<path d="M998.811 123.447C999.757 123.447 1000.52 122.681 1000.52 121.736C1000.52 120.79 999.757 120.024 998.811 120.024C997.866 120.024 997.1 120.79 997.1 121.736C997.1 122.681 997.866 123.447 998.811 123.447Z" fill="white"/>
<path d="M1127.51 135.238C1128.46 135.238 1129.23 134.472 1129.23 133.526C1129.23 132.581 1128.46 131.814 1127.51 131.814C1126.57 131.814 1125.8 132.581 1125.8 133.526C1125.8 134.472 1126.57 135.238 1127.51 135.238Z" fill="white"/>
<path d="M1156.83 210.621C1157.78 210.621 1158.54 209.855 1158.54 208.909C1158.54 207.964 1157.78 207.197 1156.83 207.197C1155.89 207.197 1155.12 207.964 1155.12 208.909C1155.12 209.855 1155.89 210.621 1156.83 210.621Z" fill="white"/>
<path d="M1160.86 150.591C1161.81 150.591 1162.57 149.824 1162.57 148.879C1162.57 147.933 1161.81 147.167 1160.86 147.167C1159.92 147.167 1159.15 147.933 1159.15 148.879C1159.15 149.824 1159.92 150.591 1160.86 150.591Z" fill="white"/>
<path d="M1044.8 140.844C1045.75 140.844 1046.52 140.077 1046.52 139.132C1046.52 138.186 1045.75 137.42 1044.8 137.42C1043.86 137.42 1043.09 138.186 1043.09 139.132C1043.09 140.077 1043.86 140.844 1044.8 140.844Z" fill="white"/>
<path d="M980.701 160.808C981.647 160.808 982.413 160.041 982.413 159.096C982.413 158.15 981.647 157.384 980.701 157.384C979.756 157.384 978.99 158.15 978.99 159.096C978.99 160.041 979.756 160.808 980.701 160.808Z" fill="white"/>
<path d="M1145.32 178.452C1146.27 178.452 1147.03 177.686 1147.03 176.741C1147.03 175.795 1146.27 175.029 1145.32 175.029C1144.38 175.029 1143.61 175.795 1143.61 176.741C1143.61 177.686 1144.38 178.452 1145.32 178.452Z" fill="white"/>
<path d="M1235.93 179.778C1236.87 179.778 1237.64 179.012 1237.64 178.066C1237.64 177.121 1236.87 176.354 1235.93 176.354C1234.98 176.354 1234.21 177.121 1234.21 178.066C1234.21 179.012 1234.98 179.778 1235.93 179.778Z" fill="white"/>
<path d="M1343.7 244.666C1344.65 244.666 1345.41 243.899 1345.41 242.954C1345.41 242.008 1344.65 241.242 1343.7 241.242C1342.76 241.242 1341.99 242.008 1341.99 242.954C1341.99 243.899 1342.76 244.666 1343.7 244.666Z" fill="white"/>
<path d="M1317.45 298.953C1318.41 298.953 1319.19 298.174 1319.19 297.213C1319.19 296.252 1318.41 295.474 1317.45 295.474C1316.49 295.474 1315.71 296.252 1315.71 297.213C1315.71 298.174 1316.49 298.953 1317.45 298.953Z" fill="white"/>
<path d="M1407.56 274.295C1408.5 274.295 1409.27 273.529 1409.27 272.583C1409.27 271.638 1408.5 270.871 1407.56 270.871C1406.61 270.871 1405.85 271.638 1405.85 272.583C1405.85 273.529 1406.61 274.295 1407.56 274.295Z" fill="white"/>
<path d="M1420.59 227.077C1421.53 227.077 1422.3 226.311 1422.3 225.365C1422.3 224.42 1421.53 223.653 1420.59 223.653C1419.64 223.653 1418.88 224.42 1418.88 225.365C1418.88 226.311 1419.64 227.077 1420.59 227.077Z" fill="white"/>
<path d="M1397.18 244.695C1398.12 244.695 1398.89 243.928 1398.89 242.983C1398.89 242.037 1398.12 241.271 1397.18 241.271C1396.23 241.271 1395.46 242.037 1395.46 242.983C1395.46 243.928 1396.23 244.695 1397.18 244.695Z" fill="white"/>
<path d="M1462.66 279.32C1463.61 279.32 1464.37 278.554 1464.37 277.608C1464.37 276.663 1463.61 275.896 1462.66 275.896C1461.72 275.896 1460.95 276.663 1460.95 277.608C1460.95 278.554 1461.72 279.32 1462.66 279.32Z" fill="white"/>
<path d="M1403.99 192.065C1404.94 192.065 1405.71 191.298 1405.71 190.353C1405.71 189.407 1404.94 188.641 1403.99 188.641C1403.05 188.641 1402.28 189.407 1402.28 190.353C1402.28 191.298 1403.05 192.065 1403.99 192.065Z" fill="white"/>
<path d="M1392.26 172.792C1393.21 172.792 1393.97 172.026 1393.97 171.08C1393.97 170.135 1393.21 169.368 1392.26 169.368C1391.32 169.368 1390.55 170.135 1390.55 171.08C1390.55 172.026 1391.32 172.792 1392.26 172.792Z" fill="white"/>
<path d="M1496.31 323.555C1497.26 323.555 1498.02 322.788 1498.02 321.843C1498.02 320.897 1497.26 320.131 1496.31 320.131C1495.37 320.131 1494.6 320.897 1494.6 321.843C1494.6 322.788 1495.37 323.555 1496.31 323.555Z" fill="white"/>
<path d="M1492.23 243.397C1493.17 243.397 1493.94 242.63 1493.94 241.685C1493.94 240.739 1493.17 239.973 1492.23 239.973C1491.28 239.973 1490.52 240.739 1490.52 241.685C1490.52 242.63 1491.28 243.397 1492.23 243.397Z" fill="white"/>
<path d="M1530.3 290.945C1531.24 290.945 1532.01 290.179 1532.01 289.233C1532.01 288.288 1531.24 287.521 1530.3 287.521C1529.35 287.521 1528.58 288.288 1528.58 289.233C1528.58 290.179 1529.35 290.945 1530.3 290.945Z" fill="white"/>
<path d="M1558.34 275.842C1559.29 275.842 1560.06 275.076 1560.06 274.13C1560.06 273.185 1559.29 272.418 1558.34 272.418C1557.4 272.418 1556.63 273.185 1556.63 274.13C1556.63 275.076 1557.4 275.842 1558.34 275.842Z" fill="white"/>
<path d="M1508.35 156.169C1509.29 156.169 1510.06 155.403 1510.06 154.457C1510.06 153.512 1509.29 152.745 1508.35 152.745C1507.4 152.745 1506.64 153.512 1506.64 154.457C1506.64 155.403 1507.4 156.169 1508.35 156.169Z" fill="white"/>
<path d="M1496.86 119.085C1497.81 119.085 1498.58 118.319 1498.58 117.373C1498.58 116.428 1497.81 115.661 1496.86 115.661C1495.92 115.661 1495.15 116.428 1495.15 117.373C1495.15 118.319 1495.92 119.085 1496.86 119.085Z" fill="white"/>
<path d="M1597.02 123.228C1597.97 123.228 1598.73 122.461 1598.73 121.516C1598.73 120.57 1597.97 119.804 1597.02 119.804C1596.08 119.804 1595.31 120.57 1595.31 121.516C1595.31 122.461 1596.08 123.228 1597.02 123.228Z" fill="white"/>
<path d="M1598.24 97.962C1599.18 97.962 1599.95 97.1956 1599.95 96.2501C1599.95 95.3046 1599.18 94.5381 1598.24 94.5381C1597.29 94.5381 1596.52 95.3046 1596.52 96.2501C1596.52 97.1956 1597.29 97.962 1598.24 97.962Z" fill="white"/>
<path d="M1584.35 20.5646C1585.3 20.5646 1586.06 19.7981 1586.06 18.8526C1586.06 17.9071 1585.3 17.1406 1584.35 17.1406C1583.4 17.1406 1582.64 17.9071 1582.64 18.8526C1582.64 19.7981 1583.4 20.5646 1584.35 20.5646Z" fill="white"/>
<path d="M1598.04 22.8566C1598.99 22.8566 1599.76 22.0901 1599.76 21.1446C1599.76 20.1991 1598.99 19.4326 1598.04 19.4326C1597.1 19.4326 1596.33 20.1991 1596.33 21.1446C1596.33 22.0901 1597.1 22.8566 1598.04 22.8566Z" fill="white"/>
<path d="M1626.2 19.5978C1627.15 19.5978 1627.91 18.8313 1627.91 17.8858C1627.91 16.9403 1627.15 16.1738 1626.2 16.1738C1625.26 16.1738 1624.49 16.9403 1624.49 17.8858C1624.49 18.8313 1625.26 19.5978 1626.2 19.5978Z" fill="white"/>
<path d="M1425.89 18.5482C1426.83 18.5482 1427.6 17.7817 1427.6 16.8362C1427.6 15.8907 1426.83 15.1243 1425.89 15.1243C1424.94 15.1243 1424.18 15.8907 1424.18 16.8362C1424.18 17.7817 1424.94 18.5482 1425.89 18.5482Z" fill="white"/>
<path d="M1407.92 16.9474C1408.86 16.9474 1409.63 16.1809 1409.63 15.2354C1409.63 14.2899 1408.86 13.5234 1407.92 13.5234C1406.97 13.5234 1406.21 14.2899 1406.21 15.2354C1406.21 16.1809 1406.97 16.9474 1407.92 16.9474Z" fill="white"/>
<path d="M1336.14 268.8C1337.08 268.8 1337.85 268.033 1337.85 267.088C1337.85 266.142 1337.08 265.376 1336.14 265.376C1335.19 265.376 1334.43 266.142 1334.43 267.088C1334.43 268.033 1335.19 268.8 1336.14 268.8Z" fill="white"/>
<path d="M1388.89 338.521C1389.84 338.521 1390.61 337.754 1390.61 336.809C1390.61 335.863 1389.84 335.097 1388.89 335.097C1387.95 335.097 1387.18 335.863 1387.18 336.809C1387.18 337.754 1387.95 338.521 1388.89 338.521Z" fill="white"/>
<path d="M1366.17 379.194C1367.12 379.194 1367.89 378.428 1367.89 377.482C1367.89 376.537 1367.12 375.771 1366.17 375.771C1365.23 375.771 1364.46 376.537 1364.46 377.482C1364.46 378.428 1365.23 379.194 1366.17 379.194Z" fill="white"/>
<path d="M1392.9 399.931C1393.84 399.931 1394.61 399.164 1394.61 398.219C1394.61 397.273 1393.84 396.507 1392.9 396.507C1391.95 396.507 1391.19 397.273 1391.19 398.219C1391.19 399.164 1391.95 399.931 1392.9 399.931Z" fill="white"/>
<path d="M1431.99 391.73C1432.93 391.73 1433.7 390.963 1433.7 390.018C1433.7 389.072 1432.93 388.306 1431.99 388.306C1431.04 388.306 1430.28 389.072 1430.28 390.018C1430.28 390.963 1431.04 391.73 1431.99 391.73Z" fill="white"/>
<path d="M1574.69 435.165C1575.65 435.165 1576.43 434.386 1576.43 433.425C1576.43 432.464 1575.65 431.686 1574.69 431.686C1573.73 431.686 1572.95 432.464 1572.95 433.425C1572.95 434.386 1573.73 435.165 1574.69 435.165Z" fill="white"/>
<path d="M1545.18 487.85C1546.12 487.85 1546.89 487.083 1546.89 486.138C1546.89 485.192 1546.12 484.426 1545.18 484.426C1544.23 484.426 1543.46 485.192 1543.46 486.138C1543.46 487.083 1544.23 487.85 1545.18 487.85Z" fill="white"/>
<path d="M1518.37 513.308C1519.32 513.308 1520.08 512.541 1520.08 511.596C1520.08 510.65 1519.32 509.884 1518.37 509.884C1517.42 509.884 1516.66 510.65 1516.66 511.596C1516.66 512.541 1517.42 513.308 1518.37 513.308Z" fill="white"/>
<path d="M1398.97 580.654C1399.92 580.654 1400.68 579.888 1400.68 578.942C1400.68 577.997 1399.92 577.23 1398.97 577.23C1398.03 577.23 1397.26 577.997 1397.26 578.942C1397.26 579.888 1398.03 580.654 1398.97 580.654Z" fill="white"/>
<path d="M639.924 155.782C640.869 155.782 641.635 155.016 641.635 154.07C641.635 153.125 640.869 152.358 639.924 152.358C638.978 152.358 638.212 153.125 638.212 154.07C638.212 155.016 638.978 155.782 639.924 155.782Z" fill="white"/>
<path d="M561.714 135.901C562.659 135.901 563.425 135.135 563.425 134.189C563.425 133.244 562.659 132.478 561.714 132.478C560.768 132.478 560.002 133.244 560.002 134.189C560.002 135.135 560.768 135.901 561.714 135.901Z" fill="white"/>
<path d="M527.758 92.5226C528.703 92.5226 529.469 91.7561 529.469 90.8106C529.469 89.8651 528.703 89.0986 527.758 89.0986C526.812 89.0986 526.046 89.8651 526.046 90.8106C526.046 91.7561 526.812 92.5226 527.758 92.5226Z" fill="white"/>
<path d="M498.025 29.7041C498.97 29.7041 499.737 28.9376 499.737 27.9921C499.737 27.0466 498.97 26.2802 498.025 26.2802C497.08 26.2802 496.313 27.0466 496.313 27.9921C496.313 28.9376 497.08 29.7041 498.025 29.7041Z" fill="white"/>
<path d="M462.302 13.9923C463.248 13.9923 464.014 13.2258 464.014 12.2803C464.014 11.3348 463.248 10.5684 462.302 10.5684C461.357 10.5684 460.591 11.3348 460.591 12.2803C460.591 13.2258 461.357 13.9923 462.302 13.9923Z" fill="white"/>
<path d="M433.122 52.7882C434.067 52.7882 434.833 52.0217 434.833 51.0762C434.833 50.1307 434.067 49.3643 433.122 49.3643C432.177 49.3643 431.41 50.1307 431.41 51.0762C431.41 52.0217 432.177 52.7882 433.122 52.7882Z" fill="white"/>
<path d="M533.196 74.215C534.141 74.215 534.908 73.4485 534.908 72.503C534.908 71.5575 534.141 70.791 533.196 70.791C532.251 70.791 531.484 71.5575 531.484 72.503C531.484 73.4485 532.251 74.215 533.196 74.215Z" fill="white"/>
<path d="M545.951 60.3263C546.896 60.3263 547.662 59.5598 547.662 58.6143C547.662 57.6688 546.896 56.9023 545.951 56.9023C545.006 56.9023 544.239 57.6688 544.239 58.6143C544.239 59.5598 545.006 60.3263 545.951 60.3263Z" fill="white"/>
<path d="M485.492 77.9982C486.437 77.9982 487.204 77.2317 487.204 76.2862C487.204 75.3407 486.437 74.5742 485.492 74.5742C484.547 74.5742 483.78 75.3407 483.78 76.2862C483.78 77.2317 484.547 77.9982 485.492 77.9982Z" fill="white"/>
<path d="M504.099 93.7657C505.045 93.7657 505.811 92.9992 505.811 92.0538C505.811 91.1083 505.045 90.3418 504.099 90.3418C503.154 90.3418 502.388 91.1083 502.388 92.0538C502.388 92.9992 503.154 93.7657 504.099 93.7657Z" fill="white"/>
<path d="M520.773 49.7228C521.718 49.7228 522.485 48.9563 522.485 48.0108C522.485 47.0653 521.718 46.2988 520.773 46.2988C519.828 46.2988 519.062 47.0653 519.062 48.0108C519.062 48.9563 519.828 49.7228 520.773 49.7228Z" fill="white"/>
<path d="M433.867 25.8107C434.812 25.8107 435.579 25.0442 435.579 24.0987C435.579 23.1532 434.812 22.3867 433.867 22.3867C432.922 22.3867 432.155 23.1532 432.155 24.0987C432.155 25.0442 432.922 25.8107 433.867 25.8107Z" fill="white"/>
<path d="M532.037 9.54601C532.982 9.54601 533.748 8.77952 533.748 7.83403C533.748 6.88853 532.982 6.12207 532.037 6.12207C531.092 6.12207 530.325 6.88853 530.325 7.83403C530.325 8.77952 531.092 9.54601 532.037 9.54601Z" fill="white"/>
<path d="M540.07 125.933C541.031 125.933 541.809 125.154 541.809 124.194C541.809 123.233 541.031 122.454 540.07 122.454C539.11 122.454 538.331 123.233 538.331 124.194C538.331 125.154 539.11 125.933 540.07 125.933Z" fill="white"/>
<path d="M540.374 152.441C541.319 152.441 542.085 151.674 542.085 150.729C542.085 149.783 541.319 149.017 540.374 149.017C539.428 149.017 538.662 149.783 538.662 150.729C538.662 151.674 539.428 152.441 540.374 152.441Z" fill="white"/>
<path d="M508.875 138.413C509.82 138.413 510.586 137.647 510.586 136.701C510.586 135.756 509.82 134.989 508.875 134.989C507.929 134.989 507.163 135.756 507.163 136.701C507.163 137.647 507.929 138.413 508.875 138.413Z" fill="white"/>
<path d="M497.005 141.175C497.95 141.175 498.716 140.408 498.716 139.463C498.716 138.517 497.95 137.751 497.005 137.751C496.059 137.751 495.293 138.517 495.293 139.463C495.293 140.408 496.059 141.175 497.005 141.175Z" fill="white"/>
<path d="M510.809 166.607C511.769 166.607 512.548 165.828 512.548 164.868C512.548 163.907 511.769 163.128 510.809 163.128C509.848 163.128 509.069 163.907 509.069 164.868C509.069 165.828 509.848 166.607 510.809 166.607Z" fill="white"/>
<path d="M452.558 164.231C453.503 164.231 454.269 163.465 454.269 162.519C454.269 161.574 453.503 160.807 452.558 160.807C451.612 160.807 450.846 161.574 450.846 162.519C450.846 163.465 451.612 164.231 452.558 164.231Z" fill="white"/>
<path d="M381.911 163.597C382.856 163.597 383.622 162.83 383.622 161.885C383.622 160.939 382.856 160.173 381.911 160.173C380.966 160.173 380.199 160.939 380.199 161.885C380.199 162.83 380.966 163.597 381.911 163.597Z" fill="white"/>
<path d="M329.155 171.079C330.1 171.079 330.867 170.313 330.867 169.367C330.867 168.422 330.1 167.655 329.155 167.655C328.21 167.655 327.443 168.422 327.443 169.367C327.443 170.313 328.21 171.079 329.155 171.079Z" fill="white"/>
<path d="M241.116 165.005C242.061 165.005 242.828 164.239 242.828 163.293C242.828 162.348 242.061 161.581 241.116 161.581C240.171 161.581 239.404 162.348 239.404 163.293C239.404 164.239 240.171 165.005 241.116 165.005Z" fill="white"/>
<path d="M284.432 197.837C285.378 197.837 286.144 197.071 286.144 196.125C286.144 195.18 285.378 194.413 284.432 194.413C283.487 194.413 282.721 195.18 282.721 196.125C282.721 197.071 283.487 197.837 284.432 197.837Z" fill="white"/>
<path d="M383.844 187.648C384.79 187.648 385.556 186.881 385.556 185.936C385.556 184.99 384.79 184.224 383.844 184.224C382.899 184.224 382.133 184.99 382.133 185.936C382.133 186.881 382.899 187.648 383.844 187.648Z" fill="white"/>
<path d="M299.671 186.818C300.616 186.818 301.382 186.052 301.382 185.106C301.382 184.161 300.616 183.395 299.671 183.395C298.725 183.395 297.959 184.161 297.959 185.106C297.959 186.052 298.725 186.818 299.671 186.818Z" fill="white"/>
<path d="M203.711 195.103C204.656 195.103 205.422 194.336 205.422 193.391C205.422 192.445 204.656 191.679 203.711 191.679C202.765 191.679 201.999 192.445 201.999 193.391C201.999 194.336 202.765 195.103 203.711 195.103Z" fill="white"/>
<path d="M247.77 195.324C248.716 195.324 249.482 194.558 249.482 193.612C249.482 192.667 248.716 191.9 247.77 191.9C246.825 191.9 246.059 192.667 246.059 193.612C246.059 194.558 246.825 195.324 247.77 195.324Z" fill="white"/>
<path d="M287.11 145.842C288.055 145.842 288.821 145.075 288.821 144.13C288.821 143.184 288.055 142.418 287.11 142.418C286.165 142.418 285.398 143.184 285.398 144.13C285.398 145.075 286.165 145.842 287.11 145.842Z" fill="white"/>
<path d="M157.993 144.13C158.938 144.13 159.704 143.364 159.704 142.418C159.704 141.473 158.938 140.706 157.993 140.706C157.048 140.706 156.281 141.473 156.281 142.418C156.281 143.364 157.048 144.13 157.993 144.13Z" fill="white"/>
<path d="M202.357 179.143C203.302 179.143 204.069 178.376 204.069 177.431C204.069 176.485 203.302 175.719 202.357 175.719C201.412 175.719 200.646 176.485 200.646 177.431C200.646 178.376 201.412 179.143 202.357 179.143Z" fill="white"/>
<path d="M181.928 167.048C182.888 167.048 183.667 166.27 183.667 165.309C183.667 164.348 182.888 163.569 181.928 163.569C180.967 163.569 180.188 164.348 180.188 165.309C180.188 166.27 180.967 167.048 181.928 167.048Z" fill="white"/>
<path d="M76.7741 173.869C77.7194 173.869 78.4857 173.103 78.4857 172.157C78.4857 171.212 77.7194 170.445 76.7741 170.445C75.8288 170.445 75.0625 171.212 75.0625 172.157C75.0625 173.103 75.8288 173.869 76.7741 173.869Z" fill="white"/>
<path d="M17.7783 188.199C18.7388 188.199 19.5175 187.42 19.5175 186.459C19.5175 185.499 18.7388 184.72 17.7783 184.72C16.8177 184.72 16.0391 185.499 16.0391 186.459C16.0391 187.42 16.8177 188.199 17.7783 188.199Z" fill="white"/>
<path d="M145.653 188.199C146.598 188.199 147.365 187.433 147.365 186.487C147.365 185.542 146.598 184.775 145.653 184.775C144.708 184.775 143.941 185.542 143.941 186.487C143.941 187.433 144.708 188.199 145.653 188.199Z" fill="white"/>
<path d="M162.217 179.695C163.162 179.695 163.928 178.928 163.928 177.983C163.928 177.037 163.162 176.271 162.217 176.271C161.271 176.271 160.505 177.037 160.505 177.983C160.505 178.928 161.271 179.695 162.217 179.695Z" fill="white"/>
<path d="M60.9011 186.515C61.8464 186.515 62.6127 185.748 62.6127 184.803C62.6127 183.857 61.8464 183.091 60.9011 183.091C59.9558 183.091 59.1895 183.857 59.1895 184.803C59.1895 185.748 59.9558 186.515 60.9011 186.515Z" fill="white"/>
<path d="M174.06 197.809C175.006 197.809 175.772 197.042 175.772 196.097C175.772 195.151 175.006 194.385 174.06 194.385C173.115 194.385 172.349 195.151 172.349 196.097C172.349 197.042 173.115 197.809 174.06 197.809Z" fill="white"/>
<path d="M146.509 208.881C147.455 208.881 148.221 208.115 148.221 207.169C148.221 206.224 147.455 205.457 146.509 205.457C145.564 205.457 144.798 206.224 144.798 207.169C144.798 208.115 145.564 208.881 146.509 208.881Z" fill="white"/>
<path d="M121.58 215.811C122.525 215.811 123.291 215.045 123.291 214.099C123.291 213.154 122.525 212.387 121.58 212.387C120.634 212.387 119.868 213.154 119.868 214.099C119.868 215.045 120.634 215.811 121.58 215.811Z" fill="white"/>
<path d="M122.546 157.77C123.506 157.77 124.285 156.991 124.285 156.031C124.285 155.07 123.506 154.291 122.546 154.291C121.585 154.291 120.807 155.07 120.807 156.031C120.807 156.991 121.585 157.77 122.546 157.77Z" fill="white"/>
<path d="M241.035 225.172C241.98 225.172 242.746 224.405 242.746 223.46C242.746 222.514 241.98 221.748 241.035 221.748C240.09 221.748 239.323 222.514 239.323 223.46C239.323 224.405 240.09 225.172 241.035 225.172Z" fill="white"/>
<path d="M310.769 237.708C311.715 237.708 312.481 236.942 312.481 235.996C312.481 235.051 311.715 234.284 310.769 234.284C309.824 234.284 309.058 235.051 309.058 235.996C309.058 236.942 309.824 237.708 310.769 237.708Z" fill="white"/>
<path d="M295.999 221.058C296.96 221.058 297.738 220.279 297.738 219.319C297.738 218.358 296.96 217.579 295.999 217.579C295.038 217.579 294.26 218.358 294.26 219.319C294.26 220.279 295.038 221.058 295.999 221.058Z" fill="white"/>
<path d="M384.977 230.032C385.922 230.032 386.688 229.266 386.688 228.32C386.688 227.375 385.922 226.609 384.977 226.609C384.031 226.609 383.265 227.375 383.265 228.32C383.265 229.266 384.031 230.032 384.977 230.032Z" fill="white"/>
<path d="M372.524 206.561C373.485 206.561 374.264 205.782 374.264 204.822C374.264 203.861 373.485 203.082 372.524 203.082C371.564 203.082 370.785 203.861 370.785 204.822C370.785 205.782 371.564 206.561 372.524 206.561Z" fill="white"/>
<path d="M433.509 253.281C434.454 253.281 435.22 252.515 435.22 251.569C435.22 250.624 434.454 249.857 433.509 249.857C432.563 249.857 431.797 250.624 431.797 251.569C431.797 252.515 432.563 253.281 433.509 253.281Z" fill="white"/>
<path d="M393.038 195.047C393.983 195.047 394.749 194.28 394.749 193.335C394.749 192.39 393.983 191.623 393.038 191.623C392.092 191.623 391.326 192.39 391.326 193.335C391.326 194.28 392.092 195.047 393.038 195.047Z" fill="white"/>
<path d="M446.346 236.246C447.306 236.246 448.085 235.467 448.085 234.506C448.085 233.545 447.306 232.767 446.346 232.767C445.385 232.767 444.606 233.545 444.606 234.506C444.606 235.467 445.385 236.246 446.346 236.246Z" fill="white"/>
<path d="M439.913 197.67C440.858 197.67 441.624 196.904 441.624 195.958C441.624 195.013 440.858 194.246 439.913 194.246C438.967 194.246 438.201 195.013 438.201 195.958C438.201 196.904 438.967 197.67 439.913 197.67Z" fill="white"/>
<path d="M478.009 242.264C478.955 242.264 479.721 241.497 479.721 240.552C479.721 239.606 478.955 238.84 478.009 238.84C477.064 238.84 476.298 239.606 476.298 240.552C476.298 241.497 477.064 242.264 478.009 242.264Z" fill="white"/>
<path d="M498.826 282.993C499.771 282.993 500.538 282.227 500.538 281.281C500.538 280.336 499.771 279.569 498.826 279.569C497.881 279.569 497.115 280.336 497.115 281.281C497.115 282.227 497.881 282.993 498.826 282.993Z" fill="white"/>
<path d="M525.051 286.029C525.997 286.029 526.763 285.263 526.763 284.317C526.763 283.372 525.997 282.605 525.051 282.605C524.106 282.605 523.34 283.372 523.34 284.317C523.34 285.263 524.106 286.029 525.051 286.029Z" fill="white"/>
<path d="M122.712 173.869C123.657 173.869 124.423 173.103 124.423 172.157C124.423 171.212 123.657 170.445 122.712 170.445C121.766 170.445 121 171.212 121 172.157C121 173.103 121.766 173.869 122.712 173.869Z" fill="white"/>
<path d="M30.8649 102.96C31.8102 102.96 32.5765 102.194 32.5765 101.248C32.5765 100.303 31.8102 99.5361 30.8649 99.5361C29.9196 99.5361 29.1533 100.303 29.1533 101.248C29.1533 102.194 29.9196 102.96 30.8649 102.96Z" fill="white"/>
<path d="M-1.51761 7.9185C-0.557062 7.9185 0.221619 7.13965 0.221619 6.17891C0.221619 5.21816 -0.557062 4.43933 -1.51761 4.43933C-2.47816 4.43933 -3.25684 5.21816 -3.25684 6.17891C-3.25684 7.13965 -2.47816 7.9185 -1.51761 7.9185Z" fill="white"/>
<path d="M32.5212 4.88097C33.4665 4.88097 34.2328 4.1145 34.2328 3.16901C34.2328 2.22351 33.4665 1.45703 32.5212 1.45703C31.5759 1.45703 30.8096 2.22351 30.8096 3.16901C30.8096 4.1145 31.5759 4.88097 32.5212 4.88097Z" fill="white"/>
<path d="M782.375 201.122C783.32 201.122 784.086 200.356 784.086 199.41C784.086 198.465 783.32 197.698 782.375 197.698C781.429 197.698 780.663 198.465 780.663 199.41C780.663 200.356 781.429 201.122 782.375 201.122Z" fill="white"/>
<path d="M805.426 216.143C806.372 216.143 807.138 215.376 807.138 214.431C807.138 213.485 806.372 212.719 805.426 212.719C804.481 212.719 803.715 213.485 803.715 214.431C803.715 215.376 804.481 216.143 805.426 216.143Z" fill="white"/>
<path d="M862.434 244.474C863.38 244.474 864.146 243.707 864.146 242.762C864.146 241.816 863.38 241.05 862.434 241.05C861.489 241.05 860.723 241.816 860.723 242.762C860.723 243.707 861.489 244.474 862.434 244.474Z" fill="white"/>
<path d="M931.368 268.828C932.313 268.828 933.079 268.062 933.079 267.116C933.079 266.171 932.313 265.404 931.368 265.404C930.423 265.404 929.656 266.171 929.656 267.116C929.656 268.062 930.423 268.828 931.368 268.828Z" fill="white"/>
</g>
<path d="M1381.49 140H1259.51C1251.5 140 1245 146.48 1245 154.473V285.527C1245 293.52 1251.5 300 1259.51 300H1381.49C1389.5 300 1396 293.52 1396 285.527V154.473C1396 146.48 1389.5 140 1381.49 140Z" stroke="url(#paint12_radial_180_995)" stroke-miterlimit="10"/>
<path d="M583.854 1.90039H402.671C391.435 1.90039 382.325 11.0115 382.325 22.2507V141.012C382.325 152.251 391.435 161.362 402.671 161.362H583.854C595.091 161.362 604.201 152.251 604.201 141.012V22.2507C604.201 11.0115 595.091 1.90039 583.854 1.90039Z" stroke="url(#paint13_radial_180_995)" stroke-miterlimit="10"/>
<path d="M123.153 -127.878H-84.5877C-102.884 -127.878 -117.716 -113.043 -117.716 -94.743V32.2742C-117.716 50.5741 -102.884 65.4091 -84.5877 65.4091H123.153C141.449 65.4091 156.281 50.5741 156.281 32.2742V-94.743C156.281 -113.043 141.449 -127.878 123.153 -127.878Z" stroke="url(#paint14_radial_180_995)" stroke-miterlimit="10"/>
</g>
<defs>
<filter id="filter0_f_180_995" x="728" y="-163.943" width="2198" height="2222" filterUnits="userSpaceOnUse" color-interpolation-filters="sRGB">
<feFlood flood-opacity="0" result="BackgroundImageFix"/>
<feBlend mode="normal" in="SourceGraphic" in2="BackgroundImageFix" result="shape"/>
<feGaussianBlur stdDeviation="250" result="effect1_foregroundBlur_180_995"/>
</filter>
<filter id="filter1_f_180_995" x="-510" y="-945" width="1857" height="1874" filterUnits="userSpaceOnUse" color-interpolation-filters="sRGB">
<feFlood flood-opacity="0" result="BackgroundImageFix"/>
<feBlend mode="normal" in="SourceGraphic" in2="BackgroundImageFix" result="shape"/>
<feGaussianBlur stdDeviation="250" result="effect1_foregroundBlur_180_995"/>
</filter>
<radialGradient id="paint0_radial_180_995" cx="0" cy="0" r="1" gradientUnits="userSpaceOnUse" gradientTransform="translate(1180.24 205.229) rotate(-135) scale(78.819 12.3731)">
<stop stop-color="white"/>
<stop offset="0.16" stop-color="white" stop-opacity="0.79"/>
<stop offset="0.38" stop-color="white" stop-opacity="0.51"/>
<stop offset="0.59" stop-color="white" stop-opacity="0.29"/>
<stop offset="0.76" stop-color="white" stop-opacity="0.13"/>
<stop offset="0.9" stop-color="white" stop-opacity="0.04"/>
<stop offset="0.98" stop-color="white" stop-opacity="0"/>
</radialGradient>
<radialGradient id="paint1_radial_180_995" cx="0" cy="0" r="1" gradientUnits="userSpaceOnUse" gradientTransform="translate(1217.39 242.385) rotate(-135) scale(26.273 4.12437)">
<stop stop-color="white"/>
<stop offset="0.16" stop-color="white" stop-opacity="0.79"/>
<stop offset="0.38" stop-color="white" stop-opacity="0.51"/>
<stop offset="0.59" stop-color="white" stop-opacity="0.29"/>
<stop offset="0.76" stop-color="white" stop-opacity="0.13"/>
<stop offset="0.9" stop-color="white" stop-opacity="0.04"/>
<stop offset="0.98" stop-color="white" stop-opacity="0"/>
</radialGradient>
<radialGradient id="paint2_radial_180_995" cx="0" cy="0" r="1" gradientUnits="userSpaceOnUse" gradientTransform="translate(1689.11 317.346) rotate(-135) scale(108.595 17.0474)">
<stop stop-color="white"/>
<stop offset="0.16" stop-color="white" stop-opacity="0.79"/>
<stop offset="0.38" stop-color="white" stop-opacity="0.51"/>
<stop offset="0.59" stop-color="white" stop-opacity="0.29"/>
<stop offset="0.76" stop-color="white" stop-opacity="0.13"/>
<stop offset="0.9" stop-color="white" stop-opacity="0.04"/>
<stop offset="0.98" stop-color="white" stop-opacity="0"/>
</radialGradient>
<radialGradient id="paint3_radial_180_995" cx="0" cy="0" r="1" gradientUnits="userSpaceOnUse" gradientTransform="translate(1740.51 368.744) rotate(-135) scale(36.7822 5.77411)">
<stop stop-color="white"/>
<stop offset="0.16" stop-color="white" stop-opacity="0.79"/>
<stop offset="0.38" stop-color="white" stop-opacity="0.51"/>
<stop offset="0.59" stop-color="white" stop-opacity="0.29"/>
<stop offset="0.76" stop-color="white" stop-opacity="0.13"/>
<stop offset="0.9" stop-color="white" stop-opacity="0.04"/>
<stop offset="0.98" stop-color="white" stop-opacity="0"/>
</radialGradient>
<radialGradient id="paint4_radial_180_995" cx="0" cy="0" r="1" gradientUnits="userSpaceOnUse" gradientTransform="translate(251.681 286.444) rotate(-135) scale(122.169 12.3731)">
<stop stop-color="white"/>
<stop offset="0.16" stop-color="white" stop-opacity="0.79"/>
<stop offset="0.38" stop-color="white" stop-opacity="0.51"/>
<stop offset="0.59" stop-color="white" stop-opacity="0.29"/>
<stop offset="0.76" stop-color="white" stop-opacity="0.13"/>
<stop offset="0.9" stop-color="white" stop-opacity="0.04"/>
<stop offset="0.98" stop-color="white" stop-opacity="0"/>
</radialGradient>
<radialGradient id="paint5_radial_180_995" cx="0" cy="0" r="1" gradientUnits="userSpaceOnUse" gradientTransform="translate(309.272 344.035) rotate(-135) scale(40.7232 4.12437)">
<stop stop-color="white"/>
<stop offset="0.16" stop-color="white" stop-opacity="0.79"/>
<stop offset="0.38" stop-color="white" stop-opacity="0.51"/>
<stop offset="0.59" stop-color="white" stop-opacity="0.29"/>
<stop offset="0.76" stop-color="white" stop-opacity="0.13"/>
<stop offset="0.9" stop-color="white" stop-opacity="0.04"/>
<stop offset="0.98" stop-color="white" stop-opacity="0"/>
</radialGradient>
<radialGradient id="paint6_radial_180_995" cx="0" cy="0" r="1" gradientUnits="userSpaceOnUse" gradientTransform="translate(977.305 155.728) scale(432.266 432.355)">
<stop stop-color="#01FEFF" stop-opacity="0.3"/>
<stop offset="0.8" stop-color="#6F56E2" stop-opacity="0.4"/>
</radialGradient>
<radialGradient id="paint7_radial_180_995" cx="0" cy="0" r="1" gradientUnits="userSpaceOnUse" gradientTransform="translate(474 70.4172) scale(319.608 405.01)">
<stop stop-color="#01FEFF" stop-opacity="0.3"/>
<stop offset="0.8" stop-color="#6F56E2" stop-opacity="0.4"/>
</radialGradient>
<radialGradient id="paint8_radial_180_995" cx="0" cy="0" r="1" gradientUnits="userSpaceOnUse" gradientTransform="translate(121.332 45.3626) scale(168.235 168.27)">
<stop stop-color="#01FEFF" stop-opacity="0.3"/>
<stop offset="0.8" stop-color="#6F56E2" stop-opacity="0.4"/>
</radialGradient>
<radialGradient id="paint9_radial_180_995" cx="0" cy="0" r="1" gradientUnits="userSpaceOnUse" gradientTransform="translate(1582.26 -1.96594) scale(161.852 157.17)">
<stop stop-color="#01FEFF" stop-opacity="0.3"/>
<stop offset="0.8" stop-color="#6F56E2" stop-opacity="0.4"/>
</radialGradient>
<radialGradient id="paint10_radial_180_995" cx="0" cy="0" r="1" gradientUnits="userSpaceOnUse" gradientTransform="translate(2092.56 537.691) scale(432.266 432.355)">
<stop stop-color="#01FEFF" stop-opacity="0.3"/>
<stop offset="0.8" stop-color="#6F56E2" stop-opacity="0.4"/>
</radialGradient>
<radialGradient id="paint11_radial_180_995" cx="0" cy="0" r="1" gradientUnits="userSpaceOnUse" gradientTransform="translate(1740.97 452.431) scale(373.498 405.035)">
<stop stop-color="#01FEFF" stop-opacity="0.3"/>
<stop offset="0.8" stop-color="#6F56E2" stop-opacity="0.4"/>
</radialGradient>
<radialGradient id="paint12_radial_180_995" cx="0" cy="0" r="1" gradientUnits="userSpaceOnUse" gradientTransform="translate(1320.5 219.057) scale(78.9394 76.3625)">
<stop stop-color="#01FEFF" stop-opacity="0.3"/>
<stop offset="0.8" stop-color="#6F56E2" stop-opacity="0.4"/>
</radialGradient>
<radialGradient id="paint13_radial_180_995" cx="0" cy="0" r="1" gradientUnits="userSpaceOnUse" gradientTransform="translate(495.173 80.8443) scale(97.4507 96.4762)">
<stop stop-color="#01FEFF" stop-opacity="0.3"/>
<stop offset="0.8" stop-color="#6F56E2" stop-opacity="0.4"/>
</radialGradient>
<radialGradient id="paint14_radial_180_995" cx="0" cy="0" r="1" gradientUnits="userSpaceOnUse" gradientTransform="translate(19.2964 -31.7414) scale(119.896 116.323)">
<stop stop-color="#01FEFF" stop-opacity="0.3"/>
<stop offset="0.8" stop-color="#6F56E2" stop-opacity="0.4"/>
</radialGradient>
<clipPath id="clip0_180_995">
<rect width="1921" height="843" fill="white" transform="translate(0 2)"/>
</clipPath>
</defs>
</svg>
